<svg xmlns="http://www.w3.org/2000/svg" width="417.511" height="361.094" viewBox="0 0 417.511 361.094">
  <g id="visual" transform="translate(-4381.388 -2595.481)">
    <circle id="Ellipse_389" data-name="Ellipse 389" cx="23.489" cy="23.489" r="23.489" transform="translate(4580.815 2668.902) rotate(-45)" fill="#e3efff"/>
    <circle id="Ellipse_390" data-name="Ellipse 390" cx="23.489" cy="23.489" r="23.489" transform="translate(4611.371 2679.807) rotate(-45)" fill="#e3efff"/>
    <circle id="Ellipse_391" data-name="Ellipse 391" cx="29.251" cy="29.251" r="29.251" transform="translate(4576.592 2649.474) rotate(-45)" fill="#e3efff"/>
    <circle id="Ellipse_392" data-name="Ellipse 392" cx="25.021" cy="25.021" r="25.021" transform="translate(4551.373 2660.88) rotate(-45)" fill="#e3efff"/>
    <circle id="Ellipse_393" data-name="Ellipse 393" cx="25.021" cy="25.021" r="25.021" transform="translate(4578.225 2672.281) rotate(-45)" fill="#e3efff"/>
    <g id="Group_3723" data-name="Group 3723">
      <circle id="Ellipse_394" data-name="Ellipse 394" cx="32.031" cy="32.031" r="32.031" transform="translate(4708.301 2847.371) rotate(-45)" fill="#d0e0f5"/>
      <circle id="Ellipse_395" data-name="Ellipse 395" cx="30.013" cy="30.013" r="30.013" transform="translate(4711.816 2842.467) rotate(-45)" fill="#e3efff"/>
      <circle id="Ellipse_396" data-name="Ellipse 396" cx="34.793" cy="34.793" r="34.793" transform="translate(4667.252 2858.309) rotate(-45)" fill="#d0e0f5"/>
      <circle id="Ellipse_397" data-name="Ellipse 397" cx="30.163" cy="30.163" r="30.163" transform="translate(4629.741 2849.886) rotate(-45)" fill="#d0e0f5"/>
      <circle id="Ellipse_398" data-name="Ellipse 398" cx="38.303" cy="38.303" r="38.303" transform="translate(4664.254 2845.785) rotate(-45)" fill="#e3efff"/>
      <circle id="Ellipse_399" data-name="Ellipse 399" cx="27.266" cy="27.266" r="27.266" transform="translate(4631.908 2846.055) rotate(-45)" fill="#e3efff"/>
      <circle id="Ellipse_400" data-name="Ellipse 400" cx="30.013" cy="30.013" r="30.013" transform="translate(4711.816 2812.454) rotate(-45)" fill="#e3efff"/>
    </g>
    <g id="Group_3724" data-name="Group 3724">
      <g id="グループ_1574" data-name="グループ 1574">
        <ellipse id="楕円形_283" data-name="楕円形 283" cx="19.472" cy="9.694" rx="19.472" ry="9.694" transform="translate(4738.555 2923.437)" fill="#d0dbee"/>
      </g>
      <path id="Path_7030" data-name="Path 7030" d="M4765.164,2833.04a2.326,2.326,0,0,1,1.753,1.389c.206.451-.439,2.106-.439,2.106s1.83-.07,2.111,1.478c.179.985-.97,1.683-.97,1.683a2.94,2.94,0,0,1,.97,1.555,2.666,2.666,0,0,1-.882,3.1,22.579,22.579,0,0,1-3.248,1.668l-6.847,2.107-6.32-4.477s4.408-4.836,3.564-5.447.825-2.015.825-2.015Z" fill="#916e46"/>
      <path id="Path_7031" data-name="Path 7031" d="M4767.268,2875.453a33.1,33.1,0,0,1,1.873,9.363,74.746,74.746,0,0,1-1.913,14.038,30.477,30.477,0,0,0-.194,9.371s-6.086,2.575-9.832,2.575-8.9-2.575-8.9-2.575.018-17.225-.351-21.068a62.809,62.809,0,0,1,.4-13.44C4748.513,2872.566,4767.268,2875.453,4767.268,2875.453Z" fill="#a08bb6"/>
      <g id="グループ_1643" data-name="グループ 1643">
        <g id="グループ_1581" data-name="グループ 1581">
          <g id="グループ_1580" data-name="グループ 1580">
            <g id="グループ_1576" data-name="グループ 1576">
              <g id="グループ_1575" data-name="グループ 1575">
                <path id="パス_1943" data-name="パス 1943" d="M4746.276,2863.846c.22.1-.515-3.643-.417-3.863a.432.432,0,0,0,.032-.1c.5-2.812,1.775-14.737,2.5-16.393.374-.842,6.3,2.216,6.3,2.216a1.872,1.872,0,0,1,.463,1.4c-.039.51.346,1.155.006,1.43-1.338,6.721-3.771,20.738-6.771,21.3Z" fill="#ff488e"/>
              </g>
            </g>
            <path id="パス_1947" data-name="パス 1947" d="M4767.564,2930.424c-.6-1.933-2.11-3.181-3.377-2.79s-1.43,2.174-1.213,4.211a2.765,2.765,0,0,0,.43,1.009,4.249,4.249,0,0,1,.521,2.12,5.877,5.877,0,0,0,.271,1.793,5.022,5.022,0,0,0,2.689,2.67,1.621,1.621,0,0,0,2.167-.748l.01-.021a4.855,4.855,0,0,0,.048-4.241C4768.8,2933.866,4767.675,2930.787,4767.564,2930.424Z" fill="#7ccaff"/>
            <path id="パス_1948" data-name="パス 1948" d="M4752.45,2929.364a10.612,10.612,0,0,0-1.077,1.088,7.1,7.1,0,0,1-2.859,1.621,6.305,6.305,0,0,1-3.51.409,1.218,1.218,0,0,1-.864-1.491,1.2,1.2,0,0,1,.18-.386,16.106,16.106,0,0,1,2.494-2.586c.663-.582,1.283-1.113,1.777-1.534a3.537,3.537,0,0,0,1.233-2.364,2.5,2.5,0,0,1,.187-.984c1.8-.681,4.355-.3,4.813.562,0,0,.51,2.67.51,3.329a1.422,1.422,0,0,1-.9,1.416A7.877,7.877,0,0,0,4752.45,2929.364Z" fill="#7ccaff"/>
            <path id="パス_1951" data-name="パス 1951" d="M4768.376,2857.578l.318,11-.154,4.115-.06,1.679c-1.981,1.782-6.041,2.929-11.815,2.237-3.916-.471-7.412-1.653-8.62-2.64l.514-7.2c.059-.762.172-1.515.274-2.27a27.154,27.154,0,0,0,.146-5.706l-1.115-13.563c0-4.353,3.831-7.358,6.992-7.035a7,7,0,0,1,2.041.523c.249.095,2.175-.952,2.432-.832l2.35,1.361,2.776,1.611c.069.042.155.085.222.125.276.154.54.317.8.471,3.36,2.04,6.61,4.43,6.61,8.406Z" fill="#ff57a2"/>
            <path id="パス_1952" data-name="パス 1952" d="M4751.179,2875.392c.2.073.4.135.612.2a27.723,27.723,0,0,0,6.546,1.072l.614.019a23.775,23.775,0,0,0,2.4-.061c.5-.042.979-.092,1.433-.16,1.969-.286,5.23-1.318,5.692-2.092l.089,1.727s-2.611,1.995-9.617,1.995h-.614a23.163,23.163,0,0,1-6.546-1.006c-.207-.066-.41-.141-.612-.215a12.371,12.371,0,0,1-3.293-1.752l-.042-1.478A9.467,9.467,0,0,0,4751.179,2875.392Z" fill="#df3577"/>
            <path id="パス_1953" data-name="パス 1953" d="M4768.7,2868.58l-.145,3.866c-3.334,1.179-9.9,3.7-13.98,3.037l1.621-3.425Z" fill="#df3577"/>
            <path id="パス_1954" data-name="パス 1954" d="M4762.6,2839.862l-.032-.095v-8.326h-5.679v7.972s-.352.112-.517.179c-1.122.461.953,2.668.953,2.668a11.5,11.5,0,0,0,4.221-.374,1.6,1.6,0,0,0,1.062-2Z" fill="#fcbac0"/>
            <path id="パス_1956" data-name="パス 1956" d="M4761.621,2868.2c1.007-.125,2.571,1.075,3.454.738l1.146-2.961-.9-13.936-2.043,11.3-1.672,4.844Z" fill="#df3577"/>
            <g id="グループ_1577" data-name="グループ 1577">
              <path id="パス_1957" data-name="パス 1957" d="M4755.374,2875.381c3.193-1.266,12.1-4.249,14.736-6.46,1.213-1.014,1.312-19.7,1.312-19.7a.832.832,0,0,0-.748-.908l-.023,0-3.527-.249a.828.828,0,0,0-.886.767l0,.021c-.092,1.9-.356,13.929-.416,16.122a1.179,1.179,0,0,1-.833,1.1c-2.245.694-6.964,4.469-10.682,5.668a3.891,3.891,0,0,1-.748.168c-1.827.265-5.933-3.307-6.327-1.5,0,0-3.642,1.946-1.47,3.949a12.525,12.525,0,0,0,4.134,1.371A47.856,47.856,0,0,0,4755.374,2875.381Z" fill="#fcbac0"/>
              <path id="パス_1958" data-name="パス 1958" d="M4754.306,2871.737c.972.3,1.637,2.814,1.069,3.644,0,0,12.34-2.293,15.3-5.978,1.441-1.794,1.407-13.324,1.406-19.538a3.172,3.172,0,0,0-3.128-3.215c-.08,0-.16,0-.239.006a3.231,3.231,0,0,0-3.095,3.059c-.194,3.742-.5,13.756-.542,15.234a.49.49,0,0,1-.309.415C4764.035,2865.767,4754.306,2871.737,4754.306,2871.737Z" fill="#ff488e"/>
            </g>
            <g id="グループ_1578" data-name="グループ 1578">
              <path id="パス_1961" data-name="パス 1961" d="M4756.891,2832.53v6.54c0,.677,1.384,1.112,2.517.652,1.731-.7,3.161-2.065,3.161-3.53v-3.662Z" fill="#ef9b9b"/>
              <path id="パス_1962" data-name="パス 1962" d="M4753.241,2834.6c.88,4.636,3.953,5.113,6.86,3.753a6.732,6.732,0,0,0,4.091-4.372c.291-1.322,1.307-2.576,1.4-3.67.341-4.213-2.282-7-5.774-7.282C4751.855,2822.38,4752.941,2832.993,4753.241,2834.6Z" fill="#fcbac0"/>
            </g>
            <path id="パス_1965" data-name="パス 1965" d="M4762.778,2831.348c-.719,1.015-.769,2.217-.108,2.684s1.777.023,2.494-.992.769-2.217.108-2.684S4763.5,2830.333,4762.778,2831.348Z" fill="#fcbac0"/>
          </g>
        </g>
      </g>
      <path id="Path_7032" data-name="Path 7032" d="M4758.805,2910.726l4.13,20.41a2.975,2.975,0,0,0,1.758,1.552c1.278.269,1.885-1.431,1.885-1.431s-.875-13.985-2.353-18.7c-.864-2.758-.774-3.167-.774-3.167Z" fill="#fcbac0"/>
      <path id="Path_7033" data-name="Path 7033" d="M4754.511,2910.515l-.937,14.682s-.878,1.405-2.107.527a4.19,4.19,0,0,1-1.456-2.587l-.638-14.452Z" fill="#fcbac0"/>
      <path id="Path_7034" data-name="Path 7034" d="M4759.631,2828.079a2.51,2.51,0,0,0,.966-1.375,6.239,6.239,0,0,1,.585,4.33,5.071,5.071,0,0,0-.234,1.99l.79.527s.263-1.756,1.04-2.2,1.418-1.747,2.494-.992-.14,2.873-.14,2.873,1.346-2.838,1.259-3.8a12.374,12.374,0,0,0-1.142-2.985,5.562,5.562,0,0,0-.878-2.458c-1.483-1.666-4.213-1.931-6.671-1.755s-5.77,2.295-5.652,4.8c.079,1.7.633,2.464,2.886,2.675A6.361,6.361,0,0,0,4759.631,2828.079Z" fill="#916e46"/>
    </g>
    <g id="Group_3729" data-name="Group 3729">
      <path id="Path_7035" data-name="Path 7035" d="M4686.292,2597.006a23.131,23.131,0,0,0-4.387,1.924l6.428-1.76S4687.348,2597.077,4686.292,2597.006Z" fill="#1a22a1"/>
      <g id="Group_3728" data-name="Group 3728">
        <path id="Path_7036" data-name="Path 7036" d="M4715.082,2746.3a54.652,54.652,0,0,1,.75,8.635c0,4.505-1.5,9.385-1.877,11.637l-.375,2.253-33.036-19.146Z" fill="#ceab8b"/>
        <path id="Path_7037" data-name="Path 7037" d="M4674.349,2625.89a12.5,12.5,0,0,0-1.49,3.824,5.723,5.723,0,0,0,.141,2.464,2.628,2.628,0,0,0,1.514,1.83s.422-.774.7-1.2a2.676,2.676,0,0,1-.976-3.245,5.82,5.82,0,0,1,1.046-2.269Z" fill="#1a3ea1"/>
        <ellipse id="Ellipse_401" data-name="Ellipse 401" cx="7.508" cy="5.143" rx="7.508" ry="5.143" transform="translate(4671.377 2629.068) rotate(-79.025)" fill="#1a22a1"/>
        <path id="パス_1942" data-name="パス 1942" d="M4627.331,2687.884a19.2,19.2,0,0,0-7.542,13.947" fill="#a3aac6"/>
        <path id="パス_1942-2" data-name="パス 1942" d="M4619.789,2701.831h5.4l4.584-10.85-2.441-3.1" fill="#a3aac6"/>
        <path id="パス_1946" data-name="パス 1946" d="M4604.683,2679.136l5.568,3.36a12.361,12.361,0,0,1,3.206,3.563l.937,1.662c1.25,2.226.48,5.042-2.338,5.525l-2.5,2.6-3.056-1.871a10.082,10.082,0,0,1-2.658-13.651c.072-.11.146-.219.223-.325Z" fill="#fcbac0"/>
        <path id="Path_7038" data-name="Path 7038" d="M4625.926,2690.038s-3.331-10.089-4.458-10.371a2.151,2.151,0,0,0-2.627,2.253,23.613,23.613,0,0,0,1.032,4.317l-.375-.469s-6.993-5.4-8.4-6.241-6.325-1.862-7.034.477,5.491,15.847,5.491,15.847,9.192,3.9,10.318,4.6,1.689.985,1.689.985a55.64,55.64,0,0,0,3-5.912A18.368,18.368,0,0,0,4625.926,2690.038Z" fill="#fcbac0"/>
        <g id="Group_3725" data-name="Group 3725">
          <g id="グループ_1643-2" data-name="グループ 1643">
            <g id="グループ_1581-2" data-name="グループ 1581">
              <g id="グループ_1580-2" data-name="グループ 1580">
                <g id="グループ_1576-2" data-name="グループ 1576">
                  <path id="パス_1942-3" data-name="パス 1942" d="M4619.789,2701.831" fill="#a3aac6"/>
                  <path id="パス_1942-4" data-name="パス 1942" d="M4627.331,2687.884" fill="#a3aac6"/>
                  <g id="グループ_1575-2" data-name="グループ 1575">
                    <path id="パス_1943-2" data-name="パス 1943" d="M4632.533,2690.715c6.551,3.546,17.4,9.36,21.21,11.026a1.209,1.209,0,0,0,1.6-.61,1.194,1.194,0,0,0,.088-.292c1.383-7.794,4.919-40.846,6.934-45.436,1.037-2.333,17.452,6.142,17.452,6.142a5.185,5.185,0,0,1,1.282,3.875c-.107,1.414.958,3.2.018,3.964-3.709,18.627-12.146,54.613-20.459,56.172-5.977,1.134-26.3-13.038-35.841-20A25.545,25.545,0,0,0,4632.533,2690.715Z" fill="#d91e18"/>
                    <path id="パス_1944" data-name="パス 1944" d="M4627.331,2687.884s2.13,1.168,5.2,2.831c-.6,6.785-2.3,11.43-7.721,14.863-3.066-2.237-5.023-3.734-5.023-3.734C4623.125,2700.839,4629.322,2691.375,4627.331,2687.884Z" fill="#a3aac6"/>
                  </g>
                </g>
                <path id="パス_1951-2" data-name="パス 1951" d="M4717.75,2694.465l.882,30.49-.429,11.406-.166,4.653c-5.489,4.939-16.743,8.119-32.747,6.2-10.853-1.307-20.542-4.584-23.891-7.318l1.424-19.947c.166-2.112.477-4.2.76-6.291a75.075,75.075,0,0,0,.4-15.817l-3.09-37.59c0-12.066,10.618-20.393,19.38-19.5a19.362,19.362,0,0,1,5.655,1.449c.691.262,6.028-2.638,6.74-2.306l6.516,3.771,7.694,4.466c.19.118.428.235.615.346.764.428,1.5.878,2.209,1.306,9.312,5.655,18.319,12.278,18.319,23.3Z" fill="#d91e18"/>
                <path id="パス_1952-2" data-name="パス 1952" d="M4670.085,2743.838c.543.2,1.12.373,1.7.56a76.848,76.848,0,0,0,18.143,2.972l1.7.052q3.333.082,6.66-.169c1.383-.118,2.714-.256,3.972-.443,5.458-.8,14.5-3.653,15.775-5.8l.249,4.787s-7.238,5.531-26.656,5.531h-1.7a64.2,64.2,0,0,1-18.143-2.79c-.574-.183-1.137-.39-1.7-.594a34.252,34.252,0,0,1-9.125-4.857l-.118-4.1A26.263,26.263,0,0,0,4670.085,2743.838Z" fill="#a61e18"/>
                <path id="パス_1953-2" data-name="パス 1953" d="M4718.635,2724.958l-.4,10.716c-9.239,3.266-27.448,10.245-38.747,8.416l4.493-9.491Z" fill="#a61e18"/>
                <path id="パス_1954-2" data-name="パス 1954" d="M4701.743,2645.362l-.09-.263v-23.075h-15.737v22.094s-.979.311-1.435.5c-3.111,1.276,2.641,7.394,2.641,7.394a31.905,31.905,0,0,0,11.7-1.037,4.436,4.436,0,0,0,2.944-5.538C4701.758,2645.41,4701.751,2645.386,4701.743,2645.362Z" fill="#fcbac0"/>
                <path id="パス_1956-2" data-name="パス 1956" d="M4699.026,2723.9c2.793-.345,7.128,2.98,9.575,2.047l3.176-8.206-2.481-38.626-5.662,31.312L4699,2723.852Z" fill="#a61e18"/>
                <g id="グループ_1577-2" data-name="グループ 1577">
                  <path id="パス_1957-2" data-name="パス 1957" d="M4681.713,2743.807c8.848-3.509,33.528-11.777,40.842-17.9,3.363-2.81,3.636-54.613,3.636-54.613a2.306,2.306,0,0,0-2.072-2.518l-.064,0-9.775-.691a2.3,2.3,0,0,0-2.458,2.127l0,.057c-.256,5.275-.989,38.606-1.155,44.686a3.267,3.267,0,0,1-2.309,3.042c-6.221,1.925-19.3,12.388-29.6,15.709a10.918,10.918,0,0,1-2.074.467c-5.063.733-16.442-9.167-17.534-4.169,0,0-10.1,5.393-4.076,10.944a34.7,34.7,0,0,0,11.459,3.8A132.7,132.7,0,0,0,4681.713,2743.807Z" fill="#fcbac0"/>
                  <path id="パス_1958-2" data-name="パス 1958" d="M4678.754,2733.707c2.692.836,4.741,7.793,3.168,10.091,0,0,34-6.345,42.191-16.559,3.993-4.974,3.9-36.929,3.9-54.153a8.79,8.79,0,0,0-8.669-8.909c-.221,0-.443,0-.664.016a8.952,8.952,0,0,0-8.575,8.479c-.539,10.369-1.383,38.125-1.5,42.221a1.357,1.357,0,0,1-.857,1.151C4705.718,2717.16,4678.754,2733.707,4678.754,2733.707Z" fill="#d91e18"/>
                </g>
                <g id="グループ_1578-2" data-name="グループ 1578">
                  <path id="パス_1961-2" data-name="パス 1961" d="M4685.916,2625.041v18.126c0,1.877,3.836,3.083,6.978,1.808,4.8-1.95,8.759-5.724,8.759-9.785v-10.149Z" fill="#ef9b9b"/>
                  <path id="パス_1962-2" data-name="パス 1962" d="M4675.8,2630.769c2.437,12.851,10.954,14.171,19.011,10.4a18.663,18.663,0,0,0,11.34-12.119c.806-3.664,3.623-7.141,3.868-10.172.947-11.676-6.325-19.4-16-20.183C4671.958,2596.909,4674.969,2626.324,4675.8,2630.769Z" fill="#fcbac0"/>
                </g>
                <path id="パス_1965-2" data-name="パス 1965" d="M4702.234,2621.765c-2,2.813-2.133,6.145-.3,7.438s4.926.065,6.913-2.748,2.133-6.146.3-7.438S4704.228,2618.951,4702.234,2621.765Z" fill="#fcbac0"/>
              </g>
            </g>
          </g>
          <path id="Path_7039" data-name="Path 7039" d="M4698.522,2619.6a17.166,17.166,0,0,1-1.361,6.809l2.19,1.46s.73-4.866,2.883-6.105,3.93-4.843,6.913-2.748-.388,7.961-.388,7.961,3.5-7.856,3.487-10.543a14.635,14.635,0,0,0-3.163-8.272s-.425-4.329-2.433-6.813c-2.79-3.451-10.381-6.338-17.513-4.649-4.266,1.01-6.335,2.018-12.53,4.083-4.927,1.642-6.759,6.5-5.631,9.573,1.032,2.815,4.564,5.349,8.728,5.349,4.036,0,9.92-3.127,13.187-3.331C4694.392,2612.281,4698.186,2613.763,4698.522,2619.6Z" fill="#343b65"/>
        </g>
        <g id="Group_3726" data-name="Group 3726">
          <g id="グループ_2200" data-name="グループ 2200">
            <path id="パス_4328" data-name="パス 4328" d="M4683.191,2753.085l-9.159-3-1.007-1.067-.647-1.2-64.727-36.311a3.229,3.229,0,0,0-2.867.041l-24.729,14.224-.046-.417-4.658,1.791.21,1.984h.033a1.137,1.137,0,0,0,.517.527l67.357,37.785c.091.051-7.918,6.686-7.886,6.819,1.4,5.336,4.305,7.786,8.7,5.135l35.624-20.722a5.5,5.5,0,0,0,3.284-5.3Z" fill="#99a8e0"/>
          </g>
          <g id="グループ_2201" data-name="グループ 2201">
            <path id="パス_4329" data-name="パス 4329" d="M4642.053,2773.03l-73.391-44.1c-.916-.5-.879-1.346.041-1.877l45.214-14,68.62,38.5c.916.5.879,1.35-.041,1.877l-37.585,21.446C4643.99,2775.406,4642.946,2773.534,4642.053,2773.03Z" fill="#f5f9ff"/>
          </g>
          <g id="グループ_2202" data-name="グループ 2202">
            <path id="パス_4330" data-name="パス 4330" d="M4645.918,2744.541l-18.777-10.534c-.216-.124-.21-.325,0-.458l7.978-4.58a.915.915,0,0,1,.8,0L4654.7,2739.5c.216.124.21.325,0,.458l-7.977,4.58A.918.918,0,0,1,4645.918,2744.541Z" fill="#95c0f0"/>
          </g>
          <g id="グループ_2203" data-name="グループ 2203">
            <path id="パス_4331" data-name="パス 4331" d="M4667.18,2764.182a.311.311,0,0,1-.155-.582l13.867-8.073a.313.313,0,1,1,.316.54l-13.867,8.073A.323.323,0,0,1,4667.18,2764.182Z" fill="#342b8c"/>
          </g>
          <g id="グループ_2204" data-name="グループ 2204">
            <path id="パス_4332" data-name="パス 4332" d="M4651.991,2773.108a.311.311,0,0,1-.16-.582l3.7-2.171a.313.313,0,0,1,.316.54h0l-3.7,2.171A.3.3,0,0,1,4651.991,2773.108Z" fill="#342b8c"/>
          </g>
          <g id="グループ_2205" data-name="グループ 2205">
            <path id="パス_4333" data-name="パス 4333" d="M4647.361,2775.891a.311.311,0,0,1-.16-.581l3.7-2.172a.313.313,0,1,1,.316.54l-3.7,2.172A.3.3,0,0,1,4647.361,2775.891Z" fill="#342b8c"/>
          </g>
          <g id="グループ_2219" data-name="グループ 2219">
            <g id="グループ_2211" data-name="グループ 2211">
              <path id="パス_4337" data-name="パス 4337" d="M4633.806,2728.589a9.349,9.349,0,0,0-3.9-5.106l-75.495-41.931a2.858,2.858,0,0,0-1.832-.338l-3.755,2.12,1.031,1.374,12.681,42.59a9.334,9.334,0,0,0,3.9,5.1l72.755,40.241,2.478,2.51.312,1.612,3.856-2.445Z" fill="#fff"/>
            </g>
            <g id="グループ_2212" data-name="グループ 2212">
              <path id="パス_4338" data-name="パス 4338" d="M4637.79,2779.9l-76.2-43.877c-1.735-1-.526-5.281,1.475-6.439l5.253.568c2-1.159-1.182.664.554,1.667l69.692,38.976c1.736,1,.431,1-1.575,2.153l4.831,4.387C4642.708,2780.874,4639.535,2780.9,4637.79,2779.9Z" fill="#1a3ea1"/>
            </g>
            <g id="グループ_2213" data-name="グループ 2213">
              <path id="パス_4339" data-name="パス 4339" d="M4641.082,2777.54l-77.643-44.349a9.613,9.613,0,0,1-4.579-6.067l-10.291-41.826c-.5-1.905.458-2.7,2.1-1.785l76.937,42.553a9.341,9.341,0,0,1,3.9,5.106l11.669,44.583C4643.678,2777.66,4642.74,2778.456,4641.082,2777.54Z" fill="#1c84e6"/>
            </g>
            <g id="グループ_2214" data-name="グループ 2214">
              <path id="パス_4340" data-name="パス 4340" d="M4596.5,2736.027a7.688,7.688,0,0,1-3.481-1.136,15.913,15.913,0,0,1-7.158-7.758,1.931,1.931,0,0,1,.481-2.216c.916-.71,2.657-.435,4.79.746a15.93,15.93,0,0,1,7.158,7.763,1.932,1.932,0,0,1-.481,2.216A2.083,2.083,0,0,1,4596.5,2736.027Zm-8.843-10.744a1.4,1.4,0,0,0-.856.225c-.409.321-.344.957-.221,1.438a15.113,15.113,0,0,0,6.8,7.295c2.162,1.2,3.49,1.186,3.971.811.408-.317.343-.957.22-1.438a15.107,15.107,0,0,0-6.8-7.295,6.856,6.856,0,0,0-3.115-1.031Z" fill="#fff"/>
            </g>
            <g id="グループ_2215" data-name="グループ 2215">
              <path id="パス_4341" data-name="パス 4341" d="M4645.671,2774a.312.312,0,0,1-.3-.233c-.1-.385-10.043-38.62-11.522-43.882a11.066,11.066,0,0,0-5.5-6.961l-74.083-40.923a.313.313,0,1,1,.3-.55l74.062,40.909a11.517,11.517,0,0,1,5.825,7.351c1.479,5.27,11.421,43.5,11.523,43.89a.312.312,0,0,1-.224.38h0Z" fill="#342b8c"/>
            </g>
            <g id="グループ_2216" data-name="グループ 2216">
              <path id="パス_4342" data-name="パス 4342" d="M4641.979,2777.275a.274.274,0,0,1-.266-.2c-.1-.384-10.044-38.62-11.523-43.881a11.1,11.1,0,0,0-5.523-6.988l-74.084-40.923a.27.27,0,0,1,.26-.459l74.062,40.91a11.45,11.45,0,0,1,5.807,7.328c1.479,5.27,11.421,43.506,11.523,43.89a.271.271,0,0,1-.188.334h0Z" fill="#4b7bfa"/>
            </g>
            <g id="グループ_2217" data-name="グループ 2217">
              <path id="パス_4343" data-name="パス 4343" d="M4571.106,2739.081l-7.195-4.187.028-4.391,7.195,4.186Z" fill="#4b7bfa"/>
            </g>
            <g id="グループ_2218" data-name="グループ 2218">
              <path id="パス_4344" data-name="パス 4344" d="M4632.856,2774.915l-7.195-4.186.028-4.391,7.2,4.186Z" fill="#4b7bfa"/>
            </g>
          </g>
        </g>
        <path id="Path_7040" data-name="Path 7040" d="M4610.382,2679.2c-2.319-1.675-4.767-2.255-5.862-1.353a2.352,2.352,0,0,0-.451,3.221,3.1,3.1,0,0,0,2.1,1.419Z" fill="#fcbac0"/>
        <path id="Path_7041" data-name="Path 7041" d="M4677.259,2733.4l6.106-3.519a9.734,9.734,0,0,1,2.487,2.628,15.82,15.82,0,0,1,2.44,7.883,20,20,0,0,1-.052,3.567s-5.28,2.076-6.265,2.428c.281-1.971.029-3.836-.534-7.027S4678.948,2733.962,4677.259,2733.4Z" fill="#a3aac6"/>
        <g id="Group_3727" data-name="Group 3727">
          <ellipse id="Ellipse_402" data-name="Ellipse 402" cx="7.508" cy="5.143" rx="7.508" ry="5.143" transform="translate(4700.472 2631.321) rotate(-79.025)" fill="#1a22a1"/>
          <path id="Path_7042" data-name="Path 7042" d="M4710.429,2617.652l-2.974-.135-2.3,14.727,3.029.582Z" fill="#1a22a1"/>
          <ellipse id="Ellipse_403" data-name="Ellipse 403" cx="7.69" cy="5.143" rx="7.69" ry="5.143" transform="matrix(0.195, -0.981, 0.981, 0.195, 4702.526, 2631.746)" fill="#1a3ea1"/>
        </g>
        <path id="Path_7043" data-name="Path 7043" d="M4688.333,2597.17a15.493,15.493,0,0,1,8.26.376c4.71,1.415,8.2,3.992,10.116,7.923,1.8,3.692,2.716,7,2.178,10.941a48.053,48.053,0,0,1-2.534,9.01l3.8.179a52.484,52.484,0,0,0,1.857-8.558c.724-7.107-1.153-11.893-4.062-15.178a18.029,18.029,0,0,0-13.609-6.382,22.658,22.658,0,0,0-9.08,1.854C4686.949,2597.17,4688.333,2597.17,4688.333,2597.17Z" fill="#1a3ea1"/>
        <path id="Path_7044" data-name="Path 7044" d="M4673.6,2633.937c0,.837.921,1.742,2.073,2.2s2.748.9,3.417-.371a2.1,2.1,0,0,0-.634-2.675,6.047,6.047,0,0,0-3.244-1.1A1.691,1.691,0,0,0,4673.6,2633.937Z" fill="#1a3ea1"/>
        <path id="Path_7045" data-name="Path 7045" d="M4680.708,2743.957l1.779-.316-.512,2.744A7,7,0,0,1,4680.708,2743.957Z" fill="#a3aac6"/>
        <path id="Path_7046" data-name="Path 7046" d="M4677.259,2733.4l.092.673,1.469-.353Z" fill="#a3aac6"/>
      </g>
    </g>
    <g id="Group_3730" data-name="Group 3730">
      <g id="グループ_1704" data-name="グループ 1704">
        <path id="パス_2656" data-name="パス 2656" d="M4548.458,2772.085l2.277,6.9a26.343,26.343,0,0,1-.8,18.632l-3.23,7.541-3.033-2.352,2.189-8.88a14.129,14.129,0,0,0-.4-7.979C4544.215,2782.311,4543.389,2776.472,4548.458,2772.085Z" fill="#ffc2b0"/>
        <path id="パス_2657" data-name="パス 2657" d="M4540.877,2772.24l1.22,13.689c.446,1.089,10.386-1.794,9.893-3.44-.087-.291-2.067-16.393-6.8-19.821C4541.341,2759.878,4539.622,2766.071,4540.877,2772.24Z" fill="#f2bc49"/>
        <ellipse id="楕円形_299" data-name="楕円形 299" cx="7.634" cy="15.366" rx="7.634" ry="15.366" transform="matrix(0.018, -1, 1, 0.018, 4519.481, 2866.836)" fill="#a8c4e5" opacity="0.4" style="isolation: isolate"/>
        <path id="パス_2658" data-name="パス 2658" d="M4546.489,2853.169l-3.6-.451c-2.408-1.089-3.534-1.912-4.606-1.292l-.3.175c-1.073.62-.937,1.711.3,2.426l5.291,4.2a3.489,3.489,0,0,0,3.9-.379s.592-.533.169-2.782C4547.4,2853.787,4547.478,2853.747,4546.489,2853.169Z" fill="#2c1f9c"/>
        <path id="パス_2659" data-name="パス 2659" d="M4530.671,2861.662l-3.564.672c-2.627-.3-3.949-.738-4.78.18l-.236.26c-.831.918-.363,1.915,1.029,2.218l6.323,2.382a3.492,3.492,0,0,0,3.593-1.552s.4-.69-.691-2.7C4531.724,2861.973,4531.79,2861.9,4530.671,2861.662Z" fill="#2c1f9c"/>
        <path id="パス_2660" data-name="パス 2660" d="M4528.188,2862.542c0,1.8,4.381,1.8,4.381,0v-5.853h-4.381Z" fill="#c6d2f2"/>
        <path id="パス_2661" data-name="パス 2661" d="M4527.637,2858.843c1.439,2.042,4.573,2.057,5.46.58l7.61-60.909H4524.9Z" fill="#2c1f9c"/>
        <path id="パス_2662" data-name="パス 2662" d="M4543.1,2853.885c.1,1.631,4.476,1.631,4.381,0l-.324-5.3h-4.381Z" fill="#c6d2f2"/>
        <path id="パス_2663" data-name="パス 2663" d="M4542.242,2851.531c1.751,1.8,5.193,1.032,5.856-.269l-2.321-52.8-11.009,1.631Z" fill="#2c1f9c"/>
        <ellipse id="楕円形_300" data-name="楕円形 300" cx="8.228" cy="4.664" rx="8.228" ry="4.664" transform="matrix(0.128, -0.992, 0.992, 0.128, 4529.307, 2762.341)" fill="#ffc2b0"/>
        <path id="パス_2664" data-name="パス 2664" d="M4526.681,2758.05c1.089,3.783,5.142,5.152,7.526,2.682s3.438-7.54,2.352-11.324-3.9-4.849-6.284-2.379S4525.592,2754.263,4526.681,2758.05Z" fill="#ffc2b0"/>
        <path id="パス_2665" data-name="パス 2665" d="M4535.858,2768.969l.405-.091a2.559,2.559,0,0,0,1.936-3.047l-1.723-7.723a2.558,2.558,0,0,0-3.046-1.936l-.406.091a2.56,2.56,0,0,0-1.936,3.046l.565,7.666C4531.958,2768.344,4534.491,2769.275,4535.858,2768.969Z" fill="#ffc2b0"/>
        <path id="パス_2666" data-name="パス 2666" d="M4540.462,2758.618s-.41,3.564-5.475,2.852c-3.63-.512-2.575-6.423-6.208-7.017-3.993-.652-4.719-5.589-3.146-7.483s5.976-2.886,9.164-1.48S4542.9,2746.815,4540.462,2758.618Z" fill="#4432db"/>
        <path id="パス_2667" data-name="パス 2667" d="M4528.766,2756.507a1.732,1.732,0,0,0,2.142,1.189h0a1.733,1.733,0,0,0,1.189-2.142v0a1.733,1.733,0,0,0-2.142-1.188h0a1.734,1.734,0,0,0-1.189,2.143Z" fill="#ffc2b0"/>
        <path id="パス_2668" data-name="パス 2668" d="M4546.239,2797.774c-1.293-7.09.1-12.694-.015-20.231,0-13.551.651-16.858-6.514-14.8l-2.019.536a13.966,13.966,0,0,0-2.8,1.082c-9.446,4.866-11.966,6.367-11.552,12.011-.042,9.3,1.331,19.721,1.523,24.3C4526.8,2807.1,4544.08,2802.375,4546.239,2797.774Z" fill="#ffce43"/>
        <path id="パス_2669" data-name="パス 2669" d="M4531.284,2761.976l.412-.949a2.606,2.606,0,0,1-2.123.553A3.344,3.344,0,0,0,4531.284,2761.976Z" fill="#f09a82"/>
        <path id="パス_2670" data-name="パス 2670" d="M4531.174,2771.432s-.078,9.921-8.164,25.87c-2.222,4.387-16.575-3.8-16.575-3.8l.049-4.984s11.933,7.051,13.848,2.071C4522.491,2784.976,4521.934,2770.314,4531.174,2771.432Z" fill="#ffc2b0"/>
        <path id="パス_2671" data-name="パス 2671" d="M4530.261,2778.657l-2.662,13.483c-.56,1.041-10.138-2.884-9.474-4.467.121-.28,3.788-16.082,8.86-19C4531.108,2766.317,4532.163,2772.653,4530.261,2778.657Z" fill="#ffce43"/>
        <path id="パス_2672" data-name="パス 2672" d="M4502.96,2792.267l1.5,1.109a2.618,2.618,0,0,0,3.651-.552h0a2.618,2.618,0,0,0-.552-3.651l-1.5-1.109a2.618,2.618,0,0,0-3.651.551h0A2.62,2.62,0,0,0,4502.96,2792.267Z" fill="#ffc2b0"/>
        <path id="パス_2673" data-name="パス 2673" d="M4524.377,2794.5l3.291-8.052-2.717,13.907Z" fill="#f2bc49"/>
      </g>
      <g id="グループ_1211" data-name="グループ 1211">
        <g id="グループ_1192" data-name="グループ 1192">
          <path id="パス_1554" data-name="パス 1554" d="M4429.532,2863.253l-23.849-14.314a3.18,3.18,0,0,1,.047-5.441l70.705-42.039,9.294,29.394Z" fill="#88bdeb" opacity="0.36" style="isolation: isolate"/>
          <path id="パス_1555" data-name="パス 1555" d="M4432.982,2865.254l49.7-32.958c3.108-1.794,5.622-6.608,5.622-10.752V2713.077c0-4.15-2.52-6.049-5.622-4.255l-51.887,29.956c-3.109,1.795-5.622,6.609-5.622,10.753v107.955a4.818,4.818,0,0,0,2.736,4.853Z" fill="#a4bbde"/>
          <path id="パス_1556" data-name="パス 1556" d="M4461.725,2763.36s26.6,62.222,26.6,58.078l4.37-109.684-6.521-3.444a3.7,3.7,0,0,0-3.481.4l-51.887,29.957a11.04,11.04,0,0,0-3.908,4.358Z" fill="#cad8eb"/>
          <path id="パス_1557" data-name="パス 1557" d="M4436.018,2864.9l51.76-29.957c3.108-1.8,5.5-6.608,5.5-10.752v-108.47c0-4.15-2.453-6.049-5.561-4.254l-51.732,29.957c-3.108,1.795-5.472,6.608-5.472,10.752v108.467C4430.513,2864.79,4432.909,2866.7,4436.018,2864.9Z" fill="#e6f0ff"/>
          <path id="パス_1558" data-name="パス 1558" d="M4437.056,2865.285l51.761-29.957c3.108-1.795,5.5-6.608,5.5-10.752V2716.107c0-4.149-2.454-6.049-5.562-4.254l-51.731,29.957c-3.108,1.795-5.472,6.609-5.472,10.753v108.468C4431.552,2865.176,4433.948,2867.08,4437.056,2865.285Z" fill="#2c1f9c"/>
          <path id="パス_1559" data-name="パス 1559" d="M4428.408,2760.308v6.195c0,.431-.257.632-.581.444l.078-.054a1.3,1.3,0,0,1-.419-1.123v-6.194c0-.431.1-.632.423-.445v.054A1.341,1.341,0,0,1,4428.408,2760.308Z" fill="#2c4482"/>
          <path id="パス_1560" data-name="パス 1560" d="M4428.408,2771.153v6.2c0,.431-.257.632-.581.444l.078-.053a1.3,1.3,0,0,1-.419-1.123v-6.195c0-.431.1-.632.423-.445v.052A1.351,1.351,0,0,1,4428.408,2771.153Z" fill="#2c4482"/>
          <path id="パス_1561" data-name="パス 1561" d="M4438.491,2846.749l50.464-29.136a1.7,1.7,0,0,0,.847-1.473v-91.6a1.7,1.7,0,0,0-2.543-1.472l-50.464,29.136a1.7,1.7,0,0,0-.848,1.472v91.6a1.7,1.7,0,0,0,2.544,1.473Z" fill="#5b49f2"/>
          <path id="パス_1562" data-name="パス 1562" d="M4454.11,2739l16.005-9.236a2.457,2.457,0,0,0,1.021-1.951h0c0-.748-.459-1.1-1.021-.772l-16.005,9.236a2.454,2.454,0,0,0-1.022,1.95h0C4453.09,2738.98,4453.549,2739.328,4454.11,2739Z" fill="#5366c4"/>
          <g id="グループ_1191" data-name="グループ 1191">
            <path id="パス_1563" data-name="パス 1563" d="M4443.685,2821.4" fill="none" stroke="#fff" stroke-miterlimit="10" stroke-width="1.541"/>
          </g>
        </g>
        <path id="パス_1564" data-name="パス 1564" d="M4461.292,2778.385v49.679l-21.363,12.333v-49.679Z" fill="#998cff"/>
        <g id="グループ_1193" data-name="グループ 1193">
          <path id="パス_1565" data-name="パス 1565" d="M4465.122,2799.571v-23.4l20.817-12.019v23.4Z" fill="#998cff"/>
          <path id="パス_1566" data-name="パス 1566" d="M4485.939,2793.319v20.516l-20.817,12.019v-20.516Z" fill="#998cff"/>
        </g>
        <path id="パス_1567" data-name="パス 1567" d="M4439.871,2787.087l46.012-26.564v-31.942l-46.012,26.564Z" fill="#998cff"/>
        <ellipse id="楕円形_271" data-name="楕円形 271" cx="8.556" cy="17.222" rx="8.556" ry="17.222" transform="matrix(0.018, -1, 1, 0.018, 4478.28, 2880.479)" fill="#a8c4e5" opacity="0.4" style="isolation: isolate"/>
        <path id="パス_1568" data-name="パス 1568" d="M4454.238,2773.45V2800.6l-24.955,14.173v-27.146Z" fill="#fff"/>
        <path id="パス_1569" data-name="パス 1569" d="M4499.555,2777.782s-6.676,2.8-18.606-13.278c-2.409-3.255-5.531-14.827-5.531-14.827l2.874-1.281s4.334,9.865,7.881,13.044c4.763,4.267,17.8,10.016,18.376,12.171S4499.555,2777.782,4499.555,2777.782Z" fill="#7cdd94"/>
        <path id="パス_1570" data-name="パス 1570" d="M4508.294,2866.522l-3.748-.47c-2.5-1.135-3.677-1.987-4.792-1.338l-.316.182c-1.116.644-.974,1.78.315,2.524l5.5,4.373a3.634,3.634,0,0,0,4.054-.393s.615-.556.175-2.9C4509.241,2867.171,4509.328,2867.122,4508.294,2866.522Z" fill="#2c1f9c"/>
        <path id="パス_1571" data-name="パス 1571" d="M4503.87,2866.691c.3,2.587,5.044,2.587,5.044.615l-2.628-59.753-15.82-4.46Z" fill="#ffc2b0"/>
        <path id="パス_1572" data-name="パス 1572" d="M4492.463,2872.238l-3.708.7c-2.733-.314-4.109-.767-4.974.188l-.245.268c-.864.955-.383,1.993,1.071,2.306l6.579,2.479a3.635,3.635,0,0,0,3.739-1.616s.416-.717-.719-2.811C4493.557,2872.562,4493.626,2872.487,4492.463,2872.238Z" fill="#2c1f9c"/>
        <path id="パス_1573" data-name="パス 1573" d="M4489.435,2873.821c.826,2.091,4.448,1.633,4.387-.083-1.692-20.7,2.2-40.255,7.228-59.282l-15.193-1.642C4485.262,2835.073,4485.461,2854.156,4489.435,2873.821Z" fill="#ffc2b0"/>
        <ellipse id="楕円形_272" data-name="楕円形 272" cx="8.561" cy="4.852" rx="8.561" ry="4.852" transform="translate(4490.42 2772.019) rotate(-82.632)" fill="#ffc2b0"/>
        <path id="パス_1575" data-name="パス 1575" d="M4487.687,2767.553c1.13,3.937,5.354,5.361,7.831,2.791s3.576-7.845,2.448-11.779-4.057-5.045-6.539-2.475S4486.557,2763.619,4487.687,2767.553Z" fill="#ffc2b0"/>
        <path id="パス_1576" data-name="パス 1576" d="M4497.236,2778.916l.422-.095a2.663,2.663,0,0,0,2.008-3.17l-1.792-8.031a2.663,2.663,0,0,0-3.17-2.008l-.423.094a2.663,2.663,0,0,0-2.008,3.17l.588,7.975C4493.179,2778.267,4495.811,2779.233,4497.236,2778.916Z" fill="#ffc2b0"/>
        <path id="パス_1577" data-name="パス 1577" d="M4500.606,2768.119s.489,2.731-4.276,2.993c-3.812.211-2.677-6.683-6.458-7.3-4.158-.679-4.911-5.815-3.273-7.786s6.218-3,9.534-1.54S4506.414,2757.016,4500.606,2768.119Z" fill="#394f82"/>
        <path id="パス_1578" data-name="パス 1578" d="M4489.854,2765.948a1.8,1.8,0,0,0,2.231,1.236h0a1.8,1.8,0,1,0-2.232-1.236Z" fill="#ffc2b0"/>
        <path id="パス_1580" data-name="パス 1580" d="M4492.478,2771.645l.427-.986a2.71,2.71,0,0,1-2.21.575A3.472,3.472,0,0,0,4492.478,2771.645Z" fill="#f09a82"/>
        <path id="パス_1582" data-name="パス 1582" d="M4499.205,2772.028a1.182,1.182,0,0,1,1.429,1.348,3.241,3.241,0,0,1-2.4,2.589,11.657,11.657,0,0,1-6.1.072.335.335,0,0,1-.094-.612A30.044,30.044,0,0,1,4499.205,2772.028Z" fill="#2c1f9c"/>
        <path id="パス_1583" data-name="パス 1583" d="M4470.311,2787.085l11.2-6.489-6.591-19.275-11.2,6.488Z" fill="#fff"/>
        <path id="パス_1584" data-name="パス 1584" d="M4493.083,2784.552s-9.638,23.434-20.155,12.144-6.826-19.249-6.826-19.249l1.41-.383s4.284,14.175,8.835,12.774,10.738-10.156,12.929-10.568S4493.083,2784.552,4493.083,2784.552Z" fill="#7cdd94"/>
        <path id="長方形_721" data-name="長方形 721" d="M4477.572,2749.333h0a2.505,2.505,0,0,0,1.118-3.363l-.808-1.612a2.506,2.506,0,0,0-3.363-1.117h0a2.505,2.505,0,0,0-1.117,3.363l.807,1.612A2.506,2.506,0,0,0,4477.572,2749.333Z" fill="#ffc2b0"/>
        <path id="パス_1585" data-name="パス 1585" d="M4466.36,2779.084h0a1.839,1.839,0,0,0,1.834-1.834v-1.874a1.839,1.839,0,0,0-1.834-1.834h0a1.839,1.839,0,0,0-1.834,1.834v1.874A1.84,1.84,0,0,0,4466.36,2779.084Z" fill="#ffc2b0"/>
        <g id="グループ_1194" data-name="グループ 1194">
          <path id="パス_1586" data-name="パス 1586" d="M4472.733,2768.359l1.915-1.106a1.093,1.093,0,0,0,.458-1.215h0a.629.629,0,0,0-.746-.485.644.644,0,0,0-.2.083l-1.916,1.106a1.1,1.1,0,0,0-.458,1.215h0a.63.63,0,0,0,.747.485A.653.653,0,0,0,4472.733,2768.359Z" fill="#e655be"/>
          <path id="パス_1587" data-name="パス 1587" d="M4470.946,2772.7l2.887-1.668a.867.867,0,0,0,.362-.963h0a.5.5,0,0,0-.591-.383.493.493,0,0,0-.16.065l-2.888,1.668a.865.865,0,0,0-.361.962h0a.5.5,0,0,0,.591.383A.514.514,0,0,0,4470.946,2772.7Z" fill="#bfdfff"/>
          <path id="パス_1588" data-name="パス 1588" d="M4469.417,2777.026l5.309-3.064a.865.865,0,0,0,.361-.962h0a.5.5,0,0,0-.589-.385.507.507,0,0,0-.162.065l-5.307,3.065a.866.866,0,0,0-.361.963h0a.5.5,0,0,0,.749.318Z" fill="#bfdfff"/>
          <path id="パス_1589" data-name="パス 1589" d="M4472.733,2778.565l2.883-1.666a.866.866,0,0,0,.362-.962h0a.5.5,0,0,0-.59-.385.488.488,0,0,0-.161.065l-2.888,1.667a.866.866,0,0,0-.361.961h0a.5.5,0,0,0,.588.388A.484.484,0,0,0,4472.733,2778.565Z" fill="#bfdfff"/>
          <path id="パス_1590" data-name="パス 1590" d="M4476.067,2779.9l1.979-1.142a.866.866,0,0,0,.362-.961h0a.5.5,0,0,0-.751-.32l-1.978,1.142a.865.865,0,0,0-.361.962h0a.5.5,0,0,0,.591.383A.5.5,0,0,0,4476.067,2779.9Z" fill="#e655be"/>
        </g>
        <path id="パス_1591" data-name="パス 1591" d="M4454.254,2773.45l-24.971,14.172v5.361l24.995-14.045Z" fill="#2f29c2"/>
        <path id="パス_1592" data-name="パス 1592" d="M4450.35,2778.363c-.117.733.315,1.027.967.659a3.166,3.166,0,0,0,1.392-1.993c.117-.732-.316-1.027-.967-.659A3.162,3.162,0,0,0,4450.35,2778.363Z" fill="#fff"/>
        <path id="パス_1593" data-name="パス 1593" d="M4447,2780.389c-.116.732.316,1.026.968.658a3.163,3.163,0,0,0,1.392-1.993c.117-.732-.316-1.027-.967-.659A3.17,3.17,0,0,0,4447,2780.389Z" fill="#ffce43"/>
        <path id="パス_1594" data-name="パス 1594" d="M4443.552,2782.577c-.116.732.316,1.027.968.659a3.167,3.167,0,0,0,1.392-1.993c.117-.733-.316-1.027-.968-.659A3.174,3.174,0,0,0,4443.552,2782.577Z" fill="#e655be"/>
        <g id="グループ_1198" data-name="グループ 1198">
          <g id="グループ_1195" data-name="グループ 1195">
            <path id="パス_1595" data-name="パス 1595" d="M4445.962,2796.711l3.874-5.908-3.428-1.639-.817,1.263,2.259,1.08-3.042,4.642Z" fill="#2f29c2"/>
          </g>
          <g id="グループ_1196" data-name="グループ 1196">
            <path id="パス_1596" data-name="パス 1596" d="M4439.041,2800.783l.817-1.262-2.226-1.065,3.079-4.7-1.156-.564-3.914,5.97Z" fill="#2f29c2"/>
          </g>
          <g id="グループ_1197" data-name="グループ 1197">
            <path id="パス_1597" data-name="パス 1597" d="M4442.674,2799.733l1.4-.5-1.616-8.661-1.4.5Z" fill="#2f29c2"/>
          </g>
        </g>
        <path id="パス_1598" data-name="パス 1598" d="M4442.808,2767.7l5.372-2.919v-9.815l-5.372,2.918Z" fill="#ffce43"/>
      </g>
      <path id="Path_7047" data-name="Path 7047" d="M4486.732,2808.407s-2.01,18.593-1.256,28.392l2.513,32.663a2.961,2.961,0,0,0,2.512,1.759,9.88,9.88,0,0,0,3.392-.691s1.382-24.686,1.382-25.942,1.508-12.312,1.508-12.312l6.344,31.721,5.465-.314-1.759-53.266Z" fill="#234091"/>
      <path id="パス_1579" data-name="パス 1579" d="M4508.037,2808.888c-1.345-7.377.1-13.208-.016-21.05,0-14.1.676-17.535-6.778-15.394l-2.1.559a14.5,14.5,0,0,0-2.916,1.125c-9.827,5.063-12.448,6.625-12.019,12.5-.044,9.674,4.459,11.646,2.066,20.118C4488.3,2813.43,4505.79,2813.675,4508.037,2808.888Z" fill="#7cdd94"/>
    </g>
    <g id="Group_3731" data-name="Group 3731">
      <g id="グループ_1643-3" data-name="グループ 1643">
        <g id="グループ_1581-3" data-name="グループ 1581">
          <g id="グループ_1574-2" data-name="グループ 1574">
            <ellipse id="楕円形_283-2" data-name="楕円形 283" cx="19.472" cy="9.694" rx="19.472" ry="9.694" transform="translate(4669.635 2937.187)" fill="#d0dbee"/>
          </g>
          <g id="グループ_1580-3" data-name="グループ 1580">
            <g id="グループ_1576-3" data-name="グループ 1576">
              <path id="パス_1942-5" data-name="パス 1942" d="M4711.172,2868.954a6.927,6.927,0,0,1,2.722,5.032h-1.948l-1.654-3.914Z" fill="#a3aac6"/>
              <g id="グループ_1575-3" data-name="グループ 1575">
                <path id="パス_1943-3" data-name="パス 1943" d="M4709.3,2869.976c-2.364,1.279-6.278,3.377-7.653,3.978a.436.436,0,0,1-.576-.22.418.418,0,0,1-.032-.106c-.5-2.812-1.775-14.737-2.5-16.393-.374-.842-6.3,2.216-6.3,2.216a1.873,1.873,0,0,0-.462,1.4c.038.51-.346,1.155-.007,1.431,1.339,6.72,4.383,19.7,7.382,20.266,2.156.409,9.491-4.7,12.931-7.215A9.219,9.219,0,0,1,4709.3,2869.976Z" fill="#3099cc"/>
                <path id="パス_1944-2" data-name="パス 1944" d="M4711.172,2868.954s-.768.422-1.876,1.022a9.217,9.217,0,0,0,2.786,5.362c1.106-.807,1.812-1.347,1.812-1.347C4712.69,2873.628,4710.454,2870.214,4711.172,2868.954Z" fill="#a3aac6"/>
              </g>
              <path id="パス_1945" data-name="パス 1945" d="M4707.415,2867.577a2.694,2.694,0,0,1,.95-1.647l10.067-5.811a1.009,1.009,0,0,1,1.205.143,1.1,1.1,0,0,1,.86,1.3.8.8,0,0,1-.024.095c-.954,3.6-2.687,10.146-3.637,13.664a3.043,3.043,0,0,1-1.248,1.819l-9.768,5.687a1.125,1.125,0,0,1-1.215-.106c-.541-.044-1.041-.463-.916-1C4703.689,2881.718,4706.461,2871.107,4707.415,2867.577Z" fill="#424e7f"/>
              <path id="パス_1946-2" data-name="パス 1946" d="M4719.124,2866.086l-2.009,1.212a2.807,2.807,0,0,0-.937,1l-.338.6a1.684,1.684,0,0,0,.624,2.281l1.122.652.862-.566a3.429,3.429,0,0,0,.98-4.747c-.026-.039-.053-.079-.081-.117Z" fill="#fcbac0"/>
            </g>
            <path id="パス_1947-2" data-name="パス 1947" d="M4679.361,2944.175c.6-1.933,2.11-3.182,3.378-2.79s1.43,2.174,1.213,4.21a2.777,2.777,0,0,1-.43,1.009,4.261,4.261,0,0,0-.522,2.12,5.861,5.861,0,0,1-.27,1.793,5.018,5.018,0,0,1-2.689,2.67,1.621,1.621,0,0,1-2.167-.748l-.01-.021a4.856,4.856,0,0,1-.048-4.24C4678.127,2947.617,4679.25,2944.538,4679.361,2944.175Z" fill="#5278ff"/>
            <path id="パス_1948-2" data-name="パス 1948" d="M4694.476,2943.115a10.653,10.653,0,0,1,1.077,1.087,7.088,7.088,0,0,0,2.859,1.621,6.284,6.284,0,0,0,3.509.409,1.217,1.217,0,0,0,.685-1.876,16.092,16.092,0,0,0-2.494-2.587c-.664-.581-1.283-1.112-1.777-1.534a3.536,3.536,0,0,1-1.234-2.363,2.483,2.483,0,0,0-.187-.984c-1.795-.681-4.355-.306-4.812.561,0,0-.51,2.67-.51,3.33a1.421,1.421,0,0,0,.9,1.415A7.861,7.861,0,0,1,4694.476,2943.115Z" fill="#5278ff"/>
            <path id="パス_1951-3" data-name="パス 1951" d="M4678.549,2871.329l-.318,11,.155,4.116.06,1.678c1.98,1.783,6.041,2.93,11.815,2.238,3.916-.472,7.412-1.654,8.62-2.64l-.514-7.2c-.06-.762-.172-1.516-.274-2.27a27.034,27.034,0,0,1-.146-5.707l1.115-13.562c0-4.354-3.831-7.358-6.993-7.035a7.009,7.009,0,0,0-2.04.522c-.249.095-2.175-.951-2.432-.831l-2.351,1.36-2.776,1.612c-.068.042-.154.084-.222.124-.275.155-.54.317-.8.472-3.359,2.04-6.609,4.429-6.609,8.405Z" fill="#30a2e4"/>
            <path id="パス_1952-3" data-name="パス 1952" d="M4695.747,2889.142c-.2.074-.4.135-.612.2a27.678,27.678,0,0,1-6.546,1.073l-.614.019q-1.2.029-2.4-.062c-.5-.042-.979-.092-1.433-.159-1.969-.287-5.23-1.318-5.692-2.093l-.09,1.727s2.612,2,9.618,2h.614a23.124,23.124,0,0,0,6.546-1.007c.207-.066.41-.141.612-.214a12.358,12.358,0,0,0,3.292-1.752l.043-1.478A9.486,9.486,0,0,1,4695.747,2889.142Z" fill="#3099cc"/>
            <path id="パス_1953-3" data-name="パス 1953" d="M4678.23,2882.331l.145,3.866c3.333,1.178,9.9,3.7,13.98,3.036l-1.621-3.424Z" fill="#2b77a4"/>
            <path id="パス_1954-3" data-name="パス 1954" d="M4684.325,2853.612l.032-.094v-8.326h5.678v7.971s.353.113.518.18c1.122.46-.953,2.667-.953,2.667a11.5,11.5,0,0,1-4.221-.374,1.6,1.6,0,0,1-1.062-2Z" fill="#fcbac0"/>
            <path id="パス_1956-3" data-name="パス 1956" d="M4685.305,2881.949c-1.008-.125-2.572,1.075-3.454.738l-1.147-2.96.9-13.937,2.043,11.3,1.672,4.844Z" fill="#2b77a4"/>
            <g id="グループ_1577-3" data-name="グループ 1577">
              <path id="パス_1957-3" data-name="パス 1957" d="M4691.552,2889.131c-3.193-1.266-12.1-4.249-14.736-6.46-1.213-1.014-1.312-19.7-1.312-19.7a.833.833,0,0,1,.747-.909h.024l3.527-.25a.83.83,0,0,1,.886.768v.02c.093,1.9.357,13.929.417,16.123a1.178,1.178,0,0,0,.833,1.1c2.245.7,6.964,4.47,10.682,5.668a3.9,3.9,0,0,0,.748.169c1.827.264,5.932-3.308,6.326-1.5,0,0,3.643,1.945,1.471,3.948a12.508,12.508,0,0,1-4.134,1.372A47.858,47.858,0,0,1,4691.552,2889.131Z" fill="#fcbac0"/>
              <path id="パス_1958-3" data-name="パス 1958" d="M4692.619,2885.487c-.971.3-1.636,2.815-1.068,3.644,0,0-12.341-2.292-15.3-5.977-1.441-1.8-1.407-13.324-1.406-19.539a3.171,3.171,0,0,1,3.128-3.214c.08,0,.159,0,.239.006a3.23,3.23,0,0,1,3.094,3.059c.195,3.741.5,13.755.543,15.233a.488.488,0,0,0,.309.415C4682.891,2879.517,4692.619,2885.487,4692.619,2885.487Z" fill="#3099cc"/>
            </g>
            <path id="パス_1959" data-name="パス 1959" d="M4688.978,2859.095l.623-3.083a6.955,6.955,0,0,1-3.947-1.276,4.9,4.9,0,0,1-1.258-1.79l-1.256,1.267C4683.669,2856.957,4688.978,2859.095,4688.978,2859.095Z" fill="#e0e0de"/>
            <path id="パス_1960" data-name="パス 1960" d="M4691.169,2858.142l-1.566-2.13a6.335,6.335,0,0,0,.336-1.746l.1-1.877.259-.021a3.982,3.982,0,0,1,.332.422,5.044,5.044,0,0,1,.849,2.394A7.752,7.752,0,0,1,4691.169,2858.142Z" fill="#e0e0de"/>
            <g id="グループ_1578-3" data-name="グループ 1578">
              <path id="パス_1961-3" data-name="パス 1961" d="M4690.035,2846.281v6.539c0,.678-1.384,1.113-2.518.653-1.731-.7-3.16-2.066-3.16-3.531v-3.661Z" fill="#ef9b9b"/>
              <path id="パス_1962-3" data-name="パス 1962" d="M4693.684,2848.347c-.879,4.637-3.952,5.113-6.859,3.754a6.738,6.738,0,0,1-4.092-4.372c-.29-1.322-1.306-2.577-1.4-3.671-.342-4.212,2.282-7,5.774-7.282C4695.071,2836.13,4693.985,2846.743,4693.684,2848.347Z" fill="#fcbac0"/>
            </g>
            <path id="パス_1965-3" data-name="パス 1965" d="M4684.148,2845.1c.719,1.016.769,2.218.108,2.684s-1.777.024-2.494-.991-.769-2.218-.109-2.684S4683.428,2844.083,4684.148,2845.1Z" fill="#fcbac0"/>
          </g>
        </g>
      </g>
      <path id="Path_7048" data-name="Path 7048" d="M4686.329,2840.454a4.851,4.851,0,0,0,.966,1.375,5.454,5.454,0,0,0,6.905.791s.556-.48.292-2.411-2.808-4.056-5.266-4.232-6.145.878-6.672,1.756a10.448,10.448,0,0,0-.878,2.458,12.394,12.394,0,0,0-1.141,2.984c-.088.966,1.258,3.8,1.258,3.8s-1.216-2.116-.14-2.872,1.718.544,2.5.991,1.04,2.2,1.04,2.2l.79-.526a5.07,5.07,0,0,0-.234-1.99A6.239,6.239,0,0,1,4686.329,2840.454Z" fill="#343b65"/>
      <path id="Path_7049" data-name="Path 7049" d="M4679.188,2891.755l-.024,20.381.471,30.418s.767,1.343,3.3,1.061,2.594-1.532,2.594-1.532l7.085-42.231s.141-6.006.141-8.775c-3.379,1.22-8.876.255-13.474-.871C4679.282,2890.91,4679.188,2891.755,4679.188,2891.755Z" fill="#ceab8b"/>
      <path id="Path_7050" data-name="Path 7050" d="M4690.175,2908.252l1.285,29.893a4.584,4.584,0,0,0,4.033.273c2.169-1.085,2.3-1.877,2.3-1.877l1.247-47.669-7.738,2.674Z" fill="#ceab8b"/>
    </g>
    <g id="Group_3732" data-name="Group 3732">
      <circle id="Ellipse_404" data-name="Ellipse 404" cx="24.461" cy="24.461" r="24.461" transform="translate(4441.381 2904.702) rotate(-45)" fill="#d0e0f5"/>
      <circle id="Ellipse_405" data-name="Ellipse 405" cx="22.92" cy="22.92" r="22.92" transform="translate(4444.065 2900.957) rotate(-45)" fill="#e3efff"/>
      <circle id="Ellipse_406" data-name="Ellipse 406" cx="26.57" cy="26.57" r="26.57" transform="translate(4410.034 2913.055) rotate(-45)" fill="#d0e0f5"/>
      <circle id="Ellipse_407" data-name="Ellipse 407" cx="23.035" cy="23.035" r="23.035" transform="translate(4381.388 2906.623) rotate(-45)" fill="#d0e0f5"/>
      <circle id="Ellipse_408" data-name="Ellipse 408" cx="29.251" cy="29.251" r="29.251" transform="translate(4407.744 2903.491) rotate(-45)" fill="#e3efff"/>
      <circle id="Ellipse_409" data-name="Ellipse 409" cx="20.822" cy="20.822" r="20.822" transform="translate(4383.042 2903.697) rotate(-45)" fill="#e3efff"/>
      <circle id="Ellipse_410" data-name="Ellipse 410" cx="22.92" cy="22.92" r="22.92" transform="translate(4394.145 2874.003) rotate(-45)" fill="#e3efff"/>
    </g>
  </g>
</svg>
