<svg xmlns="http://www.w3.org/2000/svg" width="195.405" height="169" viewBox="0 0 195.405 169">
  <g id="visual" transform="translate(-4381.388 -2595.481)">
    <circle id="Ellipse_389" data-name="Ellipse 389" cx="10.993" cy="10.993" r="10.993" transform="translate(4474.724 2629.843) rotate(-45)" fill="#e3efff"/>
    <circle id="Ellipse_390" data-name="Ellipse 390" cx="10.993" cy="10.993" r="10.993" transform="translate(4489.025 2634.947) rotate(-45)" fill="#e3efff"/>
    <circle id="Ellipse_391" data-name="Ellipse 391" cx="13.69" cy="13.69" r="13.69" transform="translate(4472.748 2620.751) rotate(-45)" fill="#e3efff"/>
    <circle id="Ellipse_392" data-name="Ellipse 392" cx="11.711" cy="11.711" r="11.711" transform="translate(4460.945 2626.089) rotate(-45)" fill="#e3efff"/>
    <circle id="Ellipse_393" data-name="Ellipse 393" cx="11.711" cy="11.711" r="11.711" transform="translate(4473.512 2631.425) rotate(-45)" fill="#e3efff"/>
    <g id="Group_3723" data-name="Group 3723" transform="translate(4497.623 2677.164)">
      <circle id="Ellipse_394" data-name="Ellipse 394" cx="14.991" cy="14.991" r="14.991" transform="translate(36.768 36.207) rotate(-45)" fill="#d0e0f5"/>
      <circle id="Ellipse_395" data-name="Ellipse 395" cx="14.047" cy="14.047" r="14.047" transform="translate(38.413 33.912) rotate(-45)" fill="#e3efff"/>
      <circle id="Ellipse_396" data-name="Ellipse 396" cx="16.284" cy="16.284" r="16.284" transform="translate(17.556 41.326) rotate(-45)" fill="#d0e0f5"/>
      <circle id="Ellipse_397" data-name="Ellipse 397" cx="14.117" cy="14.117" r="14.117" transform="translate(0 37.384) rotate(-45)" fill="#d0e0f5"/>
      <circle id="Ellipse_398" data-name="Ellipse 398" cx="17.927" cy="17.927" r="17.927" transform="translate(16.153 35.465) rotate(-45)" fill="#e3efff"/>
      <circle id="Ellipse_399" data-name="Ellipse 399" cx="12.761" cy="12.761" r="12.761" transform="translate(1.014 35.591) rotate(-45)" fill="#e3efff"/>
      <circle id="Ellipse_400" data-name="Ellipse 400" cx="14.047" cy="14.047" r="14.047" transform="translate(38.413 19.865) rotate(-45)" fill="#e3efff"/>
    </g>
    <g id="Group_3724" data-name="Group 3724" transform="translate(4548.55 2701.581)">
      <g id="グループ_1574" data-name="グループ 1574" transform="translate(0 47.39)">
        <ellipse id="楕円形_283" data-name="楕円形 283" cx="9.113" cy="4.537" rx="9.113" ry="4.537" fill="#d0dbee"/>
      </g>
      <path id="Path_7030" data-name="Path 7030" d="M4757.784,2833.04a1.088,1.088,0,0,1,.82.65c.1.211-.205.986-.205.986s.856-.033.988.692c.083.461-.454.788-.454.788a1.375,1.375,0,0,1,.454.728,1.247,1.247,0,0,1-.413,1.449,10.557,10.557,0,0,1-1.521.781l-3.2.986-2.958-2.1s2.063-2.263,1.668-2.549.386-.943.386-.943Z" transform="translate(-4745.331 -2827.957)" fill="#916e46"/>
      <path id="Path_7031" data-name="Path 7031" d="M4756.884,2874.385a15.492,15.492,0,0,1,.876,4.382,34.984,34.984,0,0,1-.9,6.57,14.279,14.279,0,0,0-.09,4.386,15.858,15.858,0,0,1-4.6,1.205,11.866,11.866,0,0,1-4.163-1.205s.009-8.062-.164-9.86a29.445,29.445,0,0,1,.187-6.29C4748.106,2873.034,4756.884,2874.385,4756.884,2874.385Z" transform="translate(-4743.446 -2849.452)" fill="#a08bb6"/>
      <g id="グループ_1643" data-name="グループ 1643" transform="translate(2.594 0.383)">
        <g id="グループ_1581" data-name="グループ 1581">
          <g id="グループ_1580" data-name="グループ 1580">
            <g id="グループ_1576" data-name="グループ 1576" transform="translate(0.82 9.52)">
              <g id="グループ_1575" data-name="グループ 1575">
                <path id="パス_1943" data-name="パス 1943" d="M4746.049,2852.937c.1.046-.241-1.705-.195-1.808a.213.213,0,0,0,.015-.049c.233-1.316.831-6.9,1.171-7.672.175-.394,2.947,1.037,2.947,1.037a.879.879,0,0,1,.216.655c-.018.238.162.54,0,.669-.626,3.146-1.765,9.706-3.169,9.969Z" transform="translate(-4745.85 -2843.338)" fill="#ff488e"/>
              </g>
            </g>
            <path id="パス_1947" data-name="パス 1947" d="M4765.079,2928.9c-.279-.9-.987-1.489-1.58-1.306s-.669,1.018-.568,1.971a1.292,1.292,0,0,0,.2.472,1.983,1.983,0,0,1,.244.992,2.762,2.762,0,0,0,.127.839,2.351,2.351,0,0,0,1.259,1.25.758.758,0,0,0,1.014-.35l0-.01a2.271,2.271,0,0,0,.022-1.985C4765.657,2930.512,4765.131,2929.072,4765.079,2928.9Z" transform="translate(-4754.097 -2878.623)" fill="#7ccaff"/>
            <path id="パス_1948" data-name="パス 1948" d="M4748.007,2925.865a5.017,5.017,0,0,0-.5.509,3.323,3.323,0,0,1-1.338.759,2.952,2.952,0,0,1-1.643.191.57.57,0,0,1-.4-.7.544.544,0,0,1,.084-.18,7.55,7.55,0,0,1,1.167-1.21c.311-.272.6-.521.832-.718a1.658,1.658,0,0,0,.577-1.106,1.172,1.172,0,0,1,.087-.461c.84-.319,2.039-.143,2.252.263,0,0,.239,1.25.239,1.558a.665.665,0,0,1-.421.663A3.683,3.683,0,0,0,4748.007,2925.865Z" transform="translate(-4744.099 -2876.083)" fill="#7ccaff"/>
            <path id="パス_1951" data-name="パス 1951" d="M4757.464,2847.1l.148,5.149-.072,1.926-.028.786c-.927.834-2.828,1.371-5.53,1.047a9.58,9.58,0,0,1-4.035-1.236l.241-3.368c.028-.357.081-.709.128-1.062a12.716,12.716,0,0,0,.068-2.67l-.522-6.348a3.245,3.245,0,0,1,3.273-3.292,3.28,3.28,0,0,1,.955.245c.117.044,1.018-.446,1.138-.389l1.1.637,1.3.754c.032.02.072.04.1.059.129.072.253.148.373.22,1.573.955,3.094,2.073,3.094,3.934Z" transform="translate(-4746.101 -2830.915)" fill="#ff57a2"/>
            <path id="パス_1952" data-name="パス 1952" d="M4749.405,2874.462c.092.034.188.063.286.094a12.98,12.98,0,0,0,3.063.5l.288.009a11.082,11.082,0,0,0,1.125-.029c.233-.02.458-.043.671-.075a5.818,5.818,0,0,0,2.664-.979l.042.808s-1.222.934-4.5.934h-.288a10.845,10.845,0,0,1-3.063-.471c-.1-.031-.192-.066-.286-.1a5.779,5.779,0,0,1-1.541-.82l-.02-.692A4.431,4.431,0,0,0,4749.405,2874.462Z" transform="translate(-4746.091 -2849.94)" fill="#df3577"/>
            <path id="パス_1953" data-name="パス 1953" d="M4761.182,2868.58l-.068,1.809c-1.56.552-4.635,1.73-6.543,1.421l.759-1.6Z" transform="translate(-4749.669 -2847.246)" fill="#df3577"/>
            <path id="パス_1954" data-name="パス 1954" d="M4759.11,2835.382l-.015-.045v-3.9h-2.658v3.731s-.165.052-.242.084c-.525.216.446,1.249.446,1.249a5.384,5.384,0,0,0,1.976-.175.749.749,0,0,0,.5-.935Z" transform="translate(-4750.451 -2827.489)" fill="#fcbac0"/>
            <path id="パス_1956" data-name="パス 1956" d="M4761.616,2859.6c.471-.058,1.2.5,1.617.346l.536-1.386-.419-6.522-.956,5.287-.783,2.267Z" transform="translate(-4753.415 -2838.448)" fill="#df3577"/>
            <g id="グループ_1577" data-name="グループ 1577" transform="translate(0.454 11.07)">
              <path id="パス_1957" data-name="パス 1957" d="M4749.892,2860.844c1.495-.593,5.662-1.989,6.9-3.024.568-.474.614-9.222.614-9.222a.389.389,0,0,0-.35-.425h-.011l-1.651-.117a.387.387,0,0,0-.415.359v.01c-.043.891-.167,6.519-.195,7.546a.552.552,0,0,1-.39.514c-1.05.325-3.259,2.092-5,2.653a1.852,1.852,0,0,1-.35.079c-.855.124-2.777-1.548-2.961-.7,0,0-1.7.911-.688,1.848a5.856,5.856,0,0,0,1.935.642A22.392,22.392,0,0,0,4749.892,2860.844Z" transform="translate(-4745.069 -2847.397)" fill="#fcbac0"/>
              <path id="パス_1958" data-name="パス 1958" d="M4754.306,2858.391c.455.141.766,1.317.5,1.706,0,0,5.775-1.073,7.159-2.8.674-.84.658-6.236.658-9.145a1.485,1.485,0,0,0-1.464-1.5c-.038,0-.075,0-.112,0a1.512,1.512,0,0,0-1.448,1.432c-.091,1.751-.233,6.438-.254,7.13a.23.23,0,0,1-.145.194C4758.859,2855.6,4754.306,2858.391,4754.306,2858.391Z" transform="translate(-4749.983 -2846.65)" fill="#ff488e"/>
            </g>
            <g id="グループ_1578" data-name="グループ 1578" transform="translate(4.175)">
              <path id="パス_1961" data-name="パス 1961" d="M4756.891,2832.53v3.061c0,.317.648.521,1.178.305.81-.329,1.479-.966,1.479-1.652v-1.714Z" transform="translate(-4755.079 -2828.069)" fill="#ef9b9b"/>
              <path id="パス_1962" data-name="パス 1962" d="M4753.123,2828.426c.412,2.17,1.85,2.393,3.211,1.757a3.152,3.152,0,0,0,1.915-2.046c.136-.619.612-1.206.653-1.718a2.947,2.947,0,0,0-2.7-3.408C4752.475,2822.708,4752.982,2827.676,4753.123,2828.426Z" transform="translate(-4753.02 -2822.998)" fill="#fcbac0"/>
            </g>
            <path id="パス_1965" data-name="パス 1965" d="M4762.473,2830.722c-.336.475-.359,1.038-.05,1.256s.832.011,1.167-.464.36-1.038.05-1.256S4762.81,2830.247,4762.473,2830.722Z" transform="translate(-4753.731 -2826.813)" fill="#fcbac0"/>
          </g>
        </g>
      </g>
      <path id="Path_7032" data-name="Path 7032" d="M4758.805,2910.015l1.933,9.552a1.392,1.392,0,0,0,.822.727c.6.126.883-.67.883-.67s-.41-6.545-1.1-8.753a5.076,5.076,0,0,1-.362-1.482Z" transform="translate(-4749.328 -2868.573)" fill="#fcbac0"/>
      <path id="Path_7033" data-name="Path 7033" d="M4751.778,2909.542l-.438,6.872s-.411.657-.986.247a1.961,1.961,0,0,1-.681-1.211l-.3-6.764Z" transform="translate(-4744.31 -2868.199)" fill="#fcbac0"/>
      <path id="Path_7034" data-name="Path 7034" d="M4755.6,2824.941a1.177,1.177,0,0,0,.453-.644,2.924,2.924,0,0,1,.273,2.026,2.379,2.379,0,0,0-.109.932l.369.247s.124-.822.487-1.031.663-.817,1.167-.464-.065,1.344-.065,1.344a6.347,6.347,0,0,0,.589-1.78,5.8,5.8,0,0,0-.535-1.4,2.6,2.6,0,0,0-.411-1.15,3.825,3.825,0,0,0-3.122-.821c-1.15.082-2.7,1.074-2.646,2.249.037.795.3,1.153,1.351,1.252A2.977,2.977,0,0,0,4755.6,2824.941Z" transform="translate(-4745.731 -2822.18)" fill="#916e46"/>
    </g>
    <g id="Group_3729" data-name="Group 3729" transform="translate(4459.57 2595.481)">
      <path id="Path_7035" data-name="Path 7035" d="M4683.958,2597.006a10.825,10.825,0,0,0-2.053.9l3.008-.824S4684.452,2597.039,4683.958,2597.006Z" transform="translate(-4619.438 -2596.292)" fill="#1a22a1"/>
      <g id="Group_3728" data-name="Group 3728">
        <path id="Path_7036" data-name="Path 7036" d="M4696.708,2746.3a25.572,25.572,0,0,1,.351,4.041,29.173,29.173,0,0,1-.878,5.447l-.175,1.054-15.462-8.961Z" transform="translate(-4618.715 -2675.715)" fill="#ceab8b"/>
        <path id="Path_7037" data-name="Path 7037" d="M4673.519,2625.89a5.853,5.853,0,0,0-.7,1.79,2.683,2.683,0,0,0,.066,1.153,1.23,1.23,0,0,0,.708.857s.2-.362.33-.56a1.252,1.252,0,0,1-.457-1.519,2.727,2.727,0,0,1,.489-1.062Z" transform="translate(-4614.589 -2611.658)" fill="#1a3ea1"/>
        <ellipse id="Ellipse_401" data-name="Ellipse 401" cx="3.514" cy="2.407" rx="3.514" ry="2.407" transform="translate(57.539 15.72) rotate(-79.025)" fill="#1a22a1"/>
        <path id="パス_1942" data-name="パス 1942" d="M4623.319,2687.884a8.983,8.983,0,0,0-3.53,6.528" transform="translate(-4586.395 -2644.637)" fill="#a3aac6"/>
        <path id="パス_1942-2" data-name="パス 1942" d="M4619.789,2694.412h2.527l2.145-5.078-1.142-1.449" transform="translate(-4586.395 -2644.637)" fill="#a3aac6"/>
        <path id="パス_1946" data-name="パス 1946" d="M4603.394,2679.136l2.606,1.573a5.786,5.786,0,0,1,1.5,1.668l.438.778a1.657,1.657,0,0,1-1.094,2.586l-1.171,1.219-1.431-.875a4.719,4.719,0,0,1-1.244-6.389c.034-.051.068-.1.1-.152Z" transform="translate(-4577.069 -2639.983)" fill="#fcbac0"/>
        <path id="Path_7038" data-name="Path 7038" d="M4614.266,2683.934s-1.559-4.722-2.086-4.854a1.007,1.007,0,0,0-1.229,1.054,11.086,11.086,0,0,0,.483,2.021l-.175-.219s-3.273-2.526-3.931-2.921-2.961-.871-3.292.223,2.57,7.417,2.57,7.417,4.3,1.826,4.829,2.155.791.461.791.461a25.921,25.921,0,0,0,1.406-2.767A8.6,8.6,0,0,0,4614.266,2683.934Z" transform="translate(-4577.999 -2639.679)" fill="#fcbac0"/>
        <g id="Group_3725" data-name="Group 3725" transform="translate(33.395 0.339)">
          <g id="グループ_1643-2" data-name="グループ 1643" transform="translate(0 1.131)">
            <g id="グループ_1581-2" data-name="グループ 1581">
              <g id="グループ_1580-2" data-name="グループ 1580">
                <g id="グループ_1576-2" data-name="グループ 1576" transform="translate(0 26.385)">
                  <path id="パス_1942-3" data-name="パス 1942" d="M4619.789,2701.831" transform="translate(-4619.789 -2679.912)" fill="#a3aac6"/>
                  <path id="パス_1942-4" data-name="パス 1942" d="M4627.331,2687.884" transform="translate(-4623.801 -2672.492)" fill="#a3aac6"/>
                  <g id="グループ_1575-2" data-name="グループ 1575">
                    <path id="パス_1943-2" data-name="パス 1943" d="M4628.427,2671.714c3.066,1.659,8.144,4.38,9.927,5.16a.565.565,0,0,0,.748-.285.556.556,0,0,0,.042-.136c.646-3.648,2.3-19.117,3.245-21.265.486-1.092,8.168,2.875,8.168,2.875a2.425,2.425,0,0,1,.6,1.813c-.05.662.448,1.5.009,1.855-1.736,8.718-5.685,25.56-9.576,26.29-2.8.531-12.311-6.1-16.774-9.36A11.956,11.956,0,0,0,4628.427,2671.714Z" transform="translate(-4622.463 -2654.997)" fill="#d91e18"/>
                    <path id="パス_1944" data-name="パス 1944" d="M4623.319,2687.884s1,.547,2.435,1.325c-.283,3.176-1.074,5.35-3.614,6.956-1.435-1.047-2.351-1.748-2.351-1.748C4621.351,2693.947,4624.25,2689.518,4623.319,2687.884Z" transform="translate(-4619.789 -2672.492)" fill="#a3aac6"/>
                  </g>
                </g>
                <path id="パス_1951-2" data-name="パス 1951" d="M4687.506,2665.422l.413,14.27-.2,5.338-.077,2.178c-2.569,2.312-7.836,3.8-15.327,2.9-5.08-.612-9.614-2.145-11.181-3.425l.666-9.335c.078-.989.224-1.966.356-2.944a35.14,35.14,0,0,0,.189-7.4l-1.446-17.593c0-5.647,4.969-9.544,9.07-9.125a9.063,9.063,0,0,1,2.647.678c.323.123,2.821-1.234,3.154-1.079l3.05,1.765,3.6,2.09c.089.055.2.11.288.162.357.2.7.411,1.034.611,4.358,2.646,8.574,5.746,8.574,10.9Z" transform="translate(-4641.658 -2620.564)" fill="#d91e18"/>
                <path id="パス_1952-2" data-name="パス 1952" d="M4665.168,2741.259c.254.1.524.175.794.262a35.973,35.973,0,0,0,8.491,1.391l.8.024a31.17,31.17,0,0,0,3.117-.079c.647-.055,1.271-.12,1.859-.207,2.554-.372,6.785-1.71,7.383-2.714l.117,2.24s-3.388,2.589-12.476,2.589h-.8a30.049,30.049,0,0,1-8.491-1.306c-.269-.086-.532-.183-.794-.278a16.031,16.031,0,0,1-4.271-2.273l-.055-1.917A12.29,12.29,0,0,0,4665.168,2741.259Z" transform="translate(-4641.628 -2673.294)" fill="#a61e18"/>
                <path id="パス_1953-2" data-name="パス 1953" d="M4697.809,2724.958l-.187,5.015c-4.324,1.529-12.846,4.795-18.135,3.939l2.1-4.442Z" transform="translate(-4651.546 -2665.829)" fill="#a61e18"/>
                <path id="パス_1954-2" data-name="パス 1954" d="M4692.069,2632.947l-.042-.123v-10.8h-7.365v10.341s-.458.146-.671.233c-1.456.6,1.236,3.46,1.236,3.46a14.932,14.932,0,0,0,5.476-.485,2.076,2.076,0,0,0,1.378-2.592C4692.076,2632.969,4692.073,2632.958,4692.069,2632.947Z" transform="translate(-4653.713 -2611.071)" fill="#fcbac0"/>
                <path id="パス_1956-2" data-name="パス 1956" d="M4699.012,2700.075c1.307-.161,3.336,1.395,4.481.958l1.486-3.841-1.161-18.078-2.65,14.655-2.169,6.283Z" transform="translate(-4661.927 -2641.442)" fill="#a61e18"/>
                <g id="グループ_1577-2" data-name="グループ 1577" transform="translate(15.614 30.682)">
                  <path id="パス_1957-2" data-name="パス 1957" d="M4666.519,2703.516c4.141-1.642,15.691-5.512,19.115-8.38,1.574-1.315,1.7-25.56,1.7-25.56a1.079,1.079,0,0,0-.97-1.178l-.03,0-4.575-.323a1.076,1.076,0,0,0-1.15,1v.027c-.12,2.469-.463,18.068-.54,20.914a1.53,1.53,0,0,1-1.081,1.424c-2.912.9-9.033,5.8-13.855,7.352a5.105,5.105,0,0,1-.971.219c-2.37.343-7.7-4.291-8.207-1.951,0,0-4.726,2.524-1.908,5.122a16.242,16.242,0,0,0,5.363,1.779A62.05,62.05,0,0,0,4666.519,2703.516Z" transform="translate(-4653.15 -2666.247)" fill="#fcbac0"/>
                  <path id="パス_1958-2" data-name="パス 1958" d="M4678.754,2696.718c1.26.391,2.219,3.647,1.482,4.723,0,0,15.911-2.969,19.746-7.75,1.869-2.328,1.825-17.283,1.824-25.345a4.114,4.114,0,0,0-4.057-4.169c-.1,0-.207,0-.311.007a4.19,4.19,0,0,0-4.014,3.969c-.252,4.853-.647,17.843-.7,19.76a.635.635,0,0,1-.4.539C4691.374,2688.974,4678.754,2696.718,4678.754,2696.718Z" transform="translate(-4666.771 -2664.176)" fill="#d91e18"/>
                </g>
                <g id="グループ_1578-2" data-name="グループ 1578" transform="translate(25.927)">
                  <path id="パス_1961-2" data-name="パス 1961" d="M4685.916,2625.041v8.483c0,.878,1.8,1.443,3.266.846,2.246-.913,4.1-2.679,4.1-4.58v-4.75Z" transform="translate(-4680.895 -2612.676)" fill="#ef9b9b"/>
                  <path id="パス_1962-2" data-name="パス 1962" d="M4675.475,2613.667c1.141,6.015,5.127,6.632,8.9,4.869a8.735,8.735,0,0,0,5.308-5.672c.377-1.715,1.7-3.342,1.811-4.761.443-5.465-2.96-9.077-7.49-9.446C4673.676,2597.819,4675.085,2611.586,4675.475,2613.667Z" transform="translate(-4675.187 -2598.621)" fill="#fcbac0"/>
                </g>
                <path id="パス_1965-2" data-name="パス 1965" d="M4701.388,2620.029c-.934,1.316-1,2.876-.141,3.481s2.306.031,3.235-1.286,1-2.876.141-3.481S4702.321,2618.712,4701.388,2620.029Z" transform="translate(-4662.802 -2609.197)" fill="#fcbac0"/>
              </g>
            </g>
          </g>
          <path id="Path_7039" data-name="Path 7039" d="M4683.7,2607.155a8.035,8.035,0,0,1-.637,3.187l1.025.684s.341-2.278,1.349-2.857,1.839-2.267,3.235-1.286-.182,3.726-.182,3.726,1.638-3.677,1.632-4.935a6.853,6.853,0,0,0-1.48-3.872,7.089,7.089,0,0,0-1.139-3.188c-1.306-1.615-4.859-2.966-8.2-2.176-2,.473-2.965.944-5.864,1.911a3.722,3.722,0,0,0-2.635,4.48,4.378,4.378,0,0,0,4.085,2.5c1.889,0,4.643-1.463,6.172-1.559C4681.765,2603.729,4683.54,2604.422,4683.7,2607.155Z" transform="translate(-4646.849 -2596.205)" fill="#343b65"/>
        </g>
        <g id="Group_3726" data-name="Group 3726" transform="translate(0 40.11)">
          <g id="グループ_2200" data-name="グループ 2200" transform="translate(12.597 14.046)">
            <path id="パス_4328" data-name="パス 4328" d="M4625.822,2730.8l-4.286-1.4-.472-.5-.3-.562-30.293-16.994a1.511,1.511,0,0,0-1.342.019l-11.574,6.657-.021-.2-2.18.838.1.929h.016a.532.532,0,0,0,.242.247l31.524,17.684c.042.024-3.706,3.129-3.691,3.191.658,2.5,2.015,3.644,4.072,2.4l16.673-9.7a2.572,2.572,0,0,0,1.537-2.48Z" transform="translate(-4575.351 -2711.193)" fill="#99a8e0"/>
          </g>
          <g id="グループ_2201" data-name="グループ 2201" transform="translate(9.153 14.919)">
            <path id="パス_4329" data-name="パス 4329" d="M4602.655,2741.126l-34.349-20.638c-.429-.236-.412-.63.019-.878l21.161-6.552,32.116,18.017c.429.236.411.632-.02.878l-17.59,10.037C4603.562,2742.238,4603.073,2741.362,4602.655,2741.126Z" transform="translate(-4567.994 -2713.058)" fill="#f5f9ff"/>
          </g>
          <g id="グループ_2202" data-name="グループ 2202" transform="translate(36.761 22.322)">
            <path id="パス_4330" data-name="パス 4330" d="M4635.844,2736.208l-8.788-4.93c-.1-.058-.1-.152,0-.214l3.734-2.144a.428.428,0,0,1,.375,0l8.788,4.93c.1.058.1.152,0,.214l-3.733,2.144A.431.431,0,0,1,4635.844,2736.208Z" transform="translate(-4626.981 -2728.877)" fill="#95c0f0"/>
          </g>
          <g id="グループ_2203" data-name="グループ 2203" transform="translate(55.429 34.775)">
            <path id="パス_4331" data-name="パス 4331" d="M4667.014,2759.555a.146.146,0,0,1-.073-.272l6.49-3.778a.146.146,0,1,1,.148.253l-6.49,3.778A.152.152,0,0,1,4667.014,2759.555Z" transform="translate(-4666.868 -2755.484)" fill="#342b8c"/>
          </g>
          <g id="グループ_2204" data-name="グループ 2204" transform="translate(48.317 41.715)">
            <path id="パス_4332" data-name="パス 4332" d="M4651.822,2771.621a.146.146,0,0,1-.075-.272l1.732-1.016a.146.146,0,0,1,.148.253h0l-1.732,1.016A.137.137,0,0,1,4651.822,2771.621Z" transform="translate(-4651.674 -2770.312)" fill="#342b8c"/>
          </g>
          <g id="グループ_2205" data-name="グループ 2205" transform="translate(46.15 43.017)">
            <path id="パス_4333" data-name="パス 4333" d="M4647.192,2774.4a.146.146,0,0,1-.075-.272l1.732-1.017a.146.146,0,1,1,.147.253l-1.731,1.017A.142.142,0,0,1,4647.192,2774.4Z" transform="translate(-4647.044 -2773.095)" fill="#342b8c"/>
          </g>
          <g id="グループ_2219" data-name="グループ 2219">
            <g id="グループ_2211" data-name="グループ 2211" transform="translate(0.18)">
              <path id="パス_4337" data-name="パス 4337" d="M4588.6,2703.37a4.376,4.376,0,0,0-1.827-2.39l-35.333-19.625a1.337,1.337,0,0,0-.857-.158l-1.757.992.483.643,5.935,19.933a4.372,4.372,0,0,0,1.826,2.388l34.051,18.834,1.16,1.175.146.754,1.8-1.144Z" transform="translate(-4548.822 -2681.182)" fill="#fff"/>
            </g>
            <g id="グループ_2212" data-name="グループ 2212" transform="translate(5.766 22.651)">
              <path id="パス_4338" data-name="パス 4338" d="M4596.81,2753.128l-35.663-20.535c-.812-.47-.246-2.472.69-3.014l2.458.266c.937-.542-.553.311.26.78l32.617,18.242c.813.469.2.468-.737,1.008l2.261,2.053C4599.111,2753.586,4597.626,2753.6,4596.81,2753.128Z" transform="translate(-4560.756 -2729.579)" fill="#1a3ea1"/>
            </g>
            <g id="グループ_2213" data-name="グループ 2213" transform="translate(0 0.913)">
              <path id="パス_4339" data-name="パス 4339" d="M4591.8,2727.317l-36.339-20.756a4.5,4.5,0,0,1-2.144-2.839l-4.816-19.576c-.233-.892.215-1.265.982-.835l36.008,19.916a4.369,4.369,0,0,1,1.826,2.39l5.462,20.866C4593.012,2727.374,4592.573,2727.746,4591.8,2727.317Z" transform="translate(-4548.436 -2683.133)" fill="#1c84e6"/>
            </g>
            <g id="グループ_2214" data-name="グループ 2214" transform="translate(17.442 20.287)">
              <path id="パス_4340" data-name="パス 4340" d="M4590.759,2729.911a3.6,3.6,0,0,1-1.629-.532,7.448,7.448,0,0,1-3.35-3.631.9.9,0,0,1,.226-1.037c.429-.333,1.243-.2,2.241.349a7.455,7.455,0,0,1,3.351,3.633.9.9,0,0,1-.226,1.037A.974.974,0,0,1,4590.759,2729.911Zm-4.139-5.029a.653.653,0,0,0-.4.105c-.192.15-.161.448-.1.673a7.07,7.07,0,0,0,3.183,3.414c1.012.559,1.634.555,1.858.379.191-.148.161-.448.1-.673a7.073,7.073,0,0,0-3.184-3.414,3.21,3.21,0,0,0-1.458-.483Z" transform="translate(-4585.703 -2724.529)" fill="#fff"/>
            </g>
            <g id="グループ_2215" data-name="グループ 2215" transform="translate(2.653 0.11)">
              <path id="パス_4341" data-name="パス 4341" d="M4596.96,2724.75a.146.146,0,0,1-.142-.109c-.047-.18-4.7-18.075-5.393-20.538a5.18,5.18,0,0,0-2.572-3.258l-34.672-19.153a.147.147,0,1,1,.141-.257l34.663,19.146a5.391,5.391,0,0,1,2.727,3.44c.692,2.467,5.345,20.361,5.393,20.542a.145.145,0,0,1-.1.178h0Z" transform="translate(-4554.104 -2681.417)" fill="#342b8c"/>
            </g>
            <g id="グループ_2216" data-name="グループ 2216" transform="translate(0.963 1.698)">
              <path id="パス_4342" data-name="パス 4342" d="M4593.311,2728.086a.129.129,0,0,1-.125-.095c-.047-.18-4.7-18.075-5.393-20.537a5.194,5.194,0,0,0-2.584-3.271l-34.673-19.153a.127.127,0,0,1,.122-.215l34.663,19.146a5.361,5.361,0,0,1,2.718,3.43c.692,2.467,5.345,20.362,5.393,20.542a.127.127,0,0,1-.088.156h0Z" transform="translate(-4550.494 -2684.811)" fill="#4b7bfa"/>
            </g>
            <g id="グループ_2217" data-name="グループ 2217" transform="translate(7.242 23.083)">
              <path id="パス_4343" data-name="パス 4343" d="M4567.278,2734.518l-3.367-1.959.013-2.055,3.368,1.959Z" transform="translate(-4563.911 -2730.503)" fill="#4b7bfa"/>
            </g>
            <g id="グループ_2218" data-name="グループ 2218" transform="translate(36.143 39.855)">
              <path id="パス_4344" data-name="パス 4344" d="M4629.028,2770.352l-3.367-1.959.013-2.055,3.37,1.959Z" transform="translate(-4625.661 -2766.338)" fill="#4b7bfa"/>
            </g>
          </g>
        </g>
        <path id="Path_7040" data-name="Path 7040" d="M4606.779,2678.251c-1.085-.784-2.231-1.055-2.744-.633a1.1,1.1,0,0,0-.211,1.508,1.451,1.451,0,0,0,.983.664Z" transform="translate(-4577.787 -2639.07)" fill="#fcbac0"/>
        <path id="Path_7041" data-name="Path 7041" d="M4677.259,2731.526l2.858-1.647a4.556,4.556,0,0,1,1.164,1.23,7.4,7.4,0,0,1,1.142,3.689,9.378,9.378,0,0,1-.024,1.669s-2.471.972-2.932,1.136a10.232,10.232,0,0,0-.25-3.289A3.543,3.543,0,0,0,4677.259,2731.526Z" transform="translate(-4616.967 -2666.978)" fill="#a3aac6"/>
        <g id="Group_3727" data-name="Group 3727" transform="translate(71.156 9.875)">
          <ellipse id="Ellipse_402" data-name="Ellipse 402" cx="3.514" cy="2.407" rx="3.514" ry="2.407" transform="translate(0 6.899) rotate(-79.025)" fill="#1a22a1"/>
          <path id="Path_7042" data-name="Path 7042" d="M4707.622,2617.58l-1.392-.063-1.077,6.893,1.417.272Z" transform="translate(-4702.962 -2617.078)" fill="#1a22a1"/>
          <ellipse id="Ellipse_403" data-name="Ellipse 403" cx="3.599" cy="2.407" rx="3.599" ry="2.407" transform="matrix(0.195, -0.981, 0.981, 0.195, 0.961, 7.098)" fill="#1a3ea1"/>
        </g>
        <path id="Path_7043" data-name="Path 7043" d="M4686.7,2596.271a8.134,8.134,0,0,1,8.6,3.884,8.512,8.512,0,0,1,1.02,5.121,22.481,22.481,0,0,1-1.187,4.217l1.779.084a24.591,24.591,0,0,0,.869-4.005c.339-3.326-.54-5.566-1.9-7.1a8.438,8.438,0,0,0-6.369-2.987,10.6,10.6,0,0,0-4.25.868C4686.051,2596.271,4686.7,2596.271,4686.7,2596.271Z" transform="translate(-4621.224 -2595.481)" fill="#1a3ea1"/>
        <path id="Path_7044" data-name="Path 7044" d="M4673.6,2632.9c0,.392.431.815.97,1.031s1.286.419,1.6-.174a.982.982,0,0,0-.3-1.252,2.831,2.831,0,0,0-1.519-.515A.791.791,0,0,0,4673.6,2632.9Z" transform="translate(-4615.02 -2614.898)" fill="#1a3ea1"/>
        <path id="Path_7045" data-name="Path 7045" d="M4680.708,2743.789l.833-.148-.24,1.284A3.274,3.274,0,0,1,4680.708,2743.789Z" transform="translate(-4618.802 -2674.299)" fill="#a3aac6"/>
        <path id="Path_7046" data-name="Path 7046" d="M4677.259,2733.4l.043.315.688-.165Z" transform="translate(-4616.967 -2668.85)" fill="#a3aac6"/>
      </g>
    </g>
    <g id="Group_3730" data-name="Group 3730" transform="translate(4392.052 2648.165)">
      <g id="グループ_1704" data-name="グループ 1704" transform="translate(45.739 17.213)">
        <path id="パス_2656" data-name="パス 2656" d="M4545.914,2772.085l1.065,3.228a12.33,12.33,0,0,1-.373,8.72l-1.512,3.529-1.42-1.1,1.024-4.156a6.61,6.61,0,0,0-.187-3.734A5.689,5.689,0,0,1,4545.914,2772.085Z" transform="translate(-4524.124 -2759.328)" fill="#ffc2b0"/>
        <path id="パス_2657" data-name="パス 2657" d="M4540.661,2766.782l.571,6.407c.208.51,4.86-.84,4.63-1.61-.041-.136-.967-7.672-3.184-9.277C4540.878,2761,4540.074,2763.895,4540.661,2766.782Z" transform="translate(-4522.42 -2753.952)" fill="#f2bc49"/>
        <ellipse id="楕円形_299" data-name="楕円形 299" cx="3.573" cy="7.192" rx="3.573" ry="7.192" transform="matrix(0.018, -1, 1, 0.018, 8.228, 57.103)" fill="#a8c4e5" opacity="0.4" style="isolation: isolate"/>
        <path id="パス_2658" data-name="パス 2658" d="M4541.577,2852.128l-1.685-.211c-1.127-.51-1.654-.895-2.156-.6l-.142.082c-.5.29-.438.8.141,1.135l2.476,1.967a1.634,1.634,0,0,0,1.823-.177s.277-.249.079-1.3C4542,2852.417,4542.04,2852.4,4541.577,2852.128Z" transform="translate(-4520.709 -2801.422)" fill="#2c1f9c"/>
        <path id="パス_2659" data-name="パス 2659" d="M4525.887,2861.662l-1.668.314c-1.229-.142-1.848-.345-2.237.084l-.111.122c-.389.429-.169.9.482,1.038l2.959,1.115a1.634,1.634,0,0,0,1.682-.727s.188-.323-.323-1.264C4526.38,2861.808,4526.411,2861.775,4525.887,2861.662Z" transform="translate(-4512.422 -2806.981)" fill="#2c1f9c"/>
        <path id="パス_2660" data-name="パス 2660" d="M4528.188,2859.428c0,.843,2.05.843,2.05,0v-2.739h-2.05Z" transform="translate(-4515.885 -2804.335)" fill="#c6d2f2"/>
        <path id="パス_2661" data-name="パス 2661" d="M4526.179,2826.749a1.655,1.655,0,0,0,2.555.271l3.562-28.507h-7.4Z" transform="translate(-4514.133 -2773.387)" fill="#2c1f9c"/>
        <path id="パス_2662" data-name="パス 2662" d="M4542.929,2851.065c.046.763,2.095.763,2.05,0l-.151-2.48h-2.05Z" transform="translate(-4523.646 -2800.024)" fill="#c6d2f2"/>
        <path id="パス_2663" data-name="パス 2663" d="M4538.266,2823.3a1.962,1.962,0,0,0,2.741-.126l-1.086-24.712-5.152.763Z" transform="translate(-4519.386 -2773.359)" fill="#2c1f9c"/>
        <ellipse id="楕円形_300" data-name="楕円形 300" cx="3.851" cy="2.183" rx="3.851" ry="2.183" transform="matrix(0.128, -0.992, 0.992, 0.128, 12.826, 8.197)" fill="#ffc2b0"/>
        <path id="パス_2664" data-name="パス 2664" d="M4526.533,2751.479c.509,1.771,2.406,2.411,3.522,1.255a6.009,6.009,0,0,0,1.1-5.3c-.508-1.771-1.825-2.27-2.941-1.114S4526.023,2749.706,4526.533,2751.479Z" transform="translate(-4514.936 -2745.29)" fill="#ffc2b0"/>
        <path id="パス_2665" data-name="パス 2665" d="M4533.288,2762.129l.19-.043a1.2,1.2,0,0,0,.906-1.426l-.806-3.615a1.2,1.2,0,0,0-1.425-.906l-.19.042a1.2,1.2,0,0,0-.906,1.426l.265,3.588C4531.463,2761.836,4532.648,2762.272,4533.288,2762.129Z" transform="translate(-4517.396 -2750.83)" fill="#ffc2b0"/>
        <path id="パス_2666" data-name="パス 2666" d="M4532.163,2751.282s-.192,1.668-2.562,1.335c-1.7-.24-1.205-3.006-2.906-3.284a2.315,2.315,0,0,1-1.472-3.5,4.108,4.108,0,0,1,4.289-.693C4531,2745.8,4533.3,2745.758,4532.163,2751.282Z" transform="translate(-4514.115 -2744.827)" fill="#4432db"/>
        <path id="パス_2667" data-name="パス 2667" d="M4528.729,2755.331a.811.811,0,0,0,1,.557h0a.811.811,0,0,0,.557-1h0a.811.811,0,0,0-1-.556h0a.811.811,0,0,0-.556,1Z" transform="translate(-4516.156 -2749.864)" fill="#ffc2b0"/>
        <path id="パス_2668" data-name="パス 2668" d="M4534.033,2778.841c-.6-3.318.045-5.941-.007-9.469,0-6.342.3-7.89-3.049-6.925l-.945.251a6.551,6.551,0,0,0-1.312.507c-4.421,2.277-5.6,2.98-5.406,5.621-.02,4.352.623,9.23.712,11.373C4524.937,2783.207,4533.022,2780.994,4534.033,2778.841Z" transform="translate(-4513.282 -2754.06)" fill="#ffce43"/>
        <path id="パス_2669" data-name="パス 2669" d="M4530.374,2761.471l.192-.444a1.218,1.218,0,0,1-.993.259A1.564,1.564,0,0,0,4530.374,2761.471Z" transform="translate(-4516.622 -2753.445)" fill="#f09a82"/>
        <path id="パス_2670" data-name="パス 2670" d="M4518.013,2771.4s-.036,4.643-3.821,12.108c-1.04,2.053-7.757-1.779-7.757-1.779l.023-2.333s5.585,3.3,6.481.969C4513.95,2777.739,4513.689,2770.876,4518.013,2771.4Z" transform="translate(-4504.313 -2758.948)" fill="#ffc2b0"/>
        <path id="パス_2671" data-name="パス 2671" d="M4523.787,2773.079l-1.246,6.31c-.262.487-4.745-1.35-4.434-2.091.057-.131,1.772-7.527,4.146-8.89C4524.184,2767.3,4524.678,2770.269,4523.787,2773.079Z" transform="translate(-4510.514 -2757.246)" fill="#ffce43"/>
        <path id="パス_2672" data-name="パス 2672" d="M4502.4,2789.761l.7.519a1.225,1.225,0,0,0,1.709-.258h0a1.226,1.226,0,0,0-.258-1.709l-.7-.519a1.225,1.225,0,0,0-1.708.258h0A1.226,1.226,0,0,0,4502.4,2789.761Z" transform="translate(-4501.901 -2767.559)" fill="#ffc2b0"/>
        <path id="パス_2673" data-name="パス 2673" d="M4524.377,2790.219l1.54-3.769-1.271,6.509Z" transform="translate(-4513.858 -2766.97)" fill="#f2bc49"/>
      </g>
      <g id="グループ_1211" data-name="グループ 1211" transform="translate(0 0)">
        <g id="グループ_1192" data-name="グループ 1192">
          <path id="パス_1554" data-name="パス 1554" d="M4416.042,2830.38l-11.162-6.7a1.488,1.488,0,0,1,.021-2.546l33.092-19.675,4.35,13.757Z" transform="translate(-4404.173 -2757.741)" fill="#88bdeb" opacity="0.36" style="isolation: isolate"/>
          <path id="パス_1555" data-name="パス 1555" d="M4428.812,2781.676l23.259-15.425a6.3,6.3,0,0,0,2.631-5.032v-50.765c0-1.942-1.18-2.831-2.631-1.991l-24.284,14.02a6.306,6.306,0,0,0-2.631,5.033v50.525a2.256,2.256,0,0,0,1.28,2.271Z" transform="translate(-4415.329 -2708.101)" fill="#a4bbde"/>
          <path id="パス_1556" data-name="パス 1556" d="M4443.2,2733.936s12.452,29.121,12.452,27.182l2.045-51.335-3.052-1.612a1.733,1.733,0,0,0-1.629.188l-24.285,14.021a5.17,5.17,0,0,0-1.829,2.04Z" transform="translate(-4416.265 -2708.049)" fill="#cad8eb"/>
          <path id="パス_1557" data-name="パス 1557" d="M4433.09,2782.918l24.225-14.02a6.258,6.258,0,0,0,2.574-5.032V2713.1c0-1.942-1.148-2.831-2.6-1.991l-24.211,14.021a6.246,6.246,0,0,0-2.561,5.032v50.765C4430.513,2782.866,4431.635,2783.758,4433.09,2782.918Z" transform="translate(-4418.186 -2709.508)" fill="#e6f0ff"/>
          <path id="パス_1558" data-name="パス 1558" d="M4434.128,2783.3l24.225-14.021a6.258,6.258,0,0,0,2.574-5.032v-50.766c0-1.942-1.149-2.831-2.6-1.991l-24.211,14.021a6.249,6.249,0,0,0-2.561,5.033v50.766C4431.552,2783.252,4432.673,2784.143,4434.128,2783.3Z" transform="translate(-4418.738 -2709.713)" fill="#2c1f9c"/>
          <path id="パス_1559" data-name="パス 1559" d="M4427.912,2759.645v2.9c0,.2-.12.3-.271.208l.036-.025a.607.607,0,0,1-.2-.525v-2.9c0-.2.047-.3.2-.208v.025A.627.627,0,0,1,4427.912,2759.645Z" transform="translate(-4416.57 -2735.186)" fill="#2c4482"/>
          <path id="パス_1560" data-name="パス 1560" d="M4427.913,2770.49v2.9c0,.2-.121.3-.272.208l.036-.025a.611.611,0,0,1-.2-.526v-2.9c0-.2.046-.3.2-.208v.024A.631.631,0,0,1,4427.913,2770.49Z" transform="translate(-4416.57 -2740.956)" fill="#2c4482"/>
          <path id="パス_1561" data-name="パス 1561" d="M4437.138,2780.833l23.618-13.636a.794.794,0,0,0,.4-.689v-42.871a.794.794,0,0,0-1.19-.689l-23.618,13.636a.8.8,0,0,0-.4.689v42.871a.794.794,0,0,0,1.191.689Z" transform="translate(-4421.076 -2715.918)" fill="#5b49f2"/>
          <path id="パス_1562" data-name="パス 1562" d="M4453.566,2732.578l7.491-4.323a1.15,1.15,0,0,0,.478-.913h0c0-.35-.215-.513-.478-.361l-7.491,4.323a1.149,1.149,0,0,0-.479.913h0C4453.089,2732.567,4453.3,2732.729,4453.566,2732.578Z" transform="translate(-4430.194 -2718.09)" fill="#5366c4"/>
          <g id="グループ_1191" data-name="グループ 1191" transform="translate(18.493 53.049)">
            <path id="パス_1563" data-name="パス 1563" d="M4443.685,2821.4" transform="translate(-4443.685 -2821.395)" fill="none" stroke="#fff" stroke-miterlimit="10" stroke-width="1.541"/>
          </g>
        </g>
        <path id="パス_1564" data-name="パス 1564" d="M4449.928,2778.385v23.251l-10,5.772v-23.251Z" transform="translate(-4423.194 -2745.466)" fill="#998cff"/>
        <g id="グループ_1193" data-name="グループ 1193" transform="translate(28.526 26.259)">
          <path id="パス_1565" data-name="パス 1565" d="M4465.122,2780.73v-10.95l9.743-5.625v10.951Z" transform="translate(-4465.122 -2764.155)" fill="#998cff"/>
          <path id="パス_1566" data-name="パス 1566" d="M4474.865,2793.319v9.6l-9.743,5.625v-9.6Z" transform="translate(-4465.122 -2779.67)" fill="#998cff"/>
        </g>
        <path id="パス_1567" data-name="パス 1567" d="M4439.871,2755.963l21.535-12.433v-14.949l-21.535,12.433Z" transform="translate(-4423.164 -2718.971)" fill="#998cff"/>
        <ellipse id="楕円形_271" data-name="楕円形 271" cx="4.004" cy="8.06" rx="4.004" ry="8.06" transform="matrix(0.018, -1, 1, 0.018, 34.684, 80.701)" fill="#a8c4e5" opacity="0.4" style="isolation: isolate"/>
        <path id="パス_1568" data-name="パス 1568" d="M4440.963,2773.45v12.705l-11.68,6.633v-12.7Z" transform="translate(-4417.531 -2742.841)" fill="#fff"/>
        <path id="パス_1569" data-name="パス 1569" d="M4486.715,2762.149s-3.125,1.312-8.708-6.215c-1.128-1.523-2.589-6.939-2.589-6.939l1.345-.6s2.028,4.617,3.688,6.1c2.229,2,8.333,4.688,8.6,5.7S4486.715,2762.149,4486.715,2762.149Z" transform="translate(-4442.074 -2729.513)" fill="#7cdd94"/>
        <path id="パス_1570" data-name="パス 1570" d="M4503.183,2865.441l-1.754-.22c-1.172-.531-1.721-.93-2.243-.626l-.148.085c-.522.3-.456.833.147,1.181l2.577,2.047a1.7,1.7,0,0,0,1.9-.184s.287-.26.082-1.355C4503.626,2865.744,4503.667,2865.722,4503.183,2865.441Z" transform="translate(-4454.452 -2791.272)" fill="#2c1f9c"/>
        <path id="パス_1571" data-name="パス 1571" d="M4496.739,2832.858c.14,1.211,2.36,1.211,2.36.288l-1.229-27.966-7.4-2.087Z" transform="translate(-4450.079 -2758.61)" fill="#ffc2b0"/>
        <path id="パス_1572" data-name="パス 1572" d="M4487.485,2872.238l-1.735.327c-1.279-.147-1.923-.359-2.328.088l-.114.125c-.4.447-.18.933.5,1.079l3.079,1.16a1.7,1.7,0,0,0,1.75-.756s.195-.335-.336-1.315C4488,2872.39,4488.03,2872.354,4487.485,2872.238Z" transform="translate(-4446.164 -2795.394)" fill="#2c1f9c"/>
        <path id="パス_1573" data-name="パス 1573" d="M4487.4,2841.367c.387.979,2.082.764,2.053-.039-.792-9.689,1.031-18.84,3.383-27.745l-7.11-.769C4485.445,2823.232,4485.538,2832.163,4487.4,2841.367Z" transform="translate(-4447.494 -2763.781)" fill="#ffc2b0"/>
        <ellipse id="楕円形_272" data-name="楕円形 272" cx="4.007" cy="2.271" rx="4.007" ry="2.271" transform="translate(40.366 29.94) rotate(-82.632)" fill="#ffc2b0"/>
        <path id="パス_1575" data-name="パス 1575" d="M4487.533,2760.718c.529,1.843,2.506,2.509,3.666,1.306a6.259,6.259,0,0,0,1.146-5.513c-.528-1.841-1.9-2.361-3.06-1.158S4487,2758.877,4487.533,2760.718Z" transform="translate(-4448.447 -2732.869)" fill="#ffc2b0"/>
        <path id="パス_1576" data-name="パス 1576" d="M4494.563,2771.805l.2-.044a1.246,1.246,0,0,0,.939-1.484l-.838-3.759a1.247,1.247,0,0,0-1.484-.94l-.2.044a1.246,1.246,0,0,0-.94,1.483l.275,3.733C4492.664,2771.5,4493.9,2771.953,4494.563,2771.805Z" transform="translate(-4451.007 -2738.638)" fill="#ffc2b0"/>
        <path id="パス_1577" data-name="パス 1577" d="M4492.727,2760.5s.229,1.278-2,1.4c-1.784.1-1.253-3.128-3.022-3.417a2.408,2.408,0,0,1-1.532-3.644,4.275,4.275,0,0,1,4.462-.721C4492.186,2754.8,4495.445,2755.3,4492.727,2760.5Z" transform="translate(-4447.594 -2732.386)" fill="#394f82"/>
        <path id="パス_1578" data-name="パス 1578" d="M4489.817,2764.724a.844.844,0,0,0,1.044.578h0a.844.844,0,1,0-1.044-.578Z" transform="translate(-4449.716 -2737.626)" fill="#ffc2b0"/>
        <path id="パス_1580" data-name="パス 1580" d="M4491.529,2771.121l.2-.462a1.268,1.268,0,0,1-1.035.269A1.63,1.63,0,0,0,4491.529,2771.121Z" transform="translate(-4450.2 -2741.356)" fill="#f09a82"/>
        <path id="パス_1582" data-name="パス 1582" d="M4495.308,2772.012a.553.553,0,0,1,.668.631,1.517,1.517,0,0,1-1.121,1.212,5.451,5.451,0,0,1-2.857.034.157.157,0,0,1-.044-.286A14.057,14.057,0,0,1,4495.308,2772.012Z" transform="translate(-4450.83 -2742.068)" fill="#2c1f9c"/>
        <path id="パス_1583" data-name="パス 1583" d="M4466.8,2773.379l5.241-3.037-3.084-9.021-5.241,3.037Z" transform="translate(-4435.851 -2736.388)" fill="#fff"/>
        <path id="パス_1584" data-name="パス 1584" d="M4478.4,2780.569s-4.511,10.968-9.433,5.684-3.195-9.009-3.195-9.009l.66-.179s2,6.634,4.135,5.979,5.025-4.753,6.051-4.946S4478.4,2780.569,4478.4,2780.569Z" transform="translate(-4436.784 -2744.763)" fill="#7cdd94"/>
        <path id="長方形_721" data-name="長方形 721" d="M4475.212,2745.951h0a1.173,1.173,0,0,0,.523-1.574l-.378-.754a1.173,1.173,0,0,0-1.574-.523h0a1.173,1.173,0,0,0-.523,1.574l.378.754A1.173,1.173,0,0,0,4475.212,2745.951Z" transform="translate(-4440.859 -2726.629)" fill="#ffc2b0"/>
        <path id="パス_1585" data-name="パス 1585" d="M4465.384,2776.136h0a.861.861,0,0,0,.858-.858v-.877a.861.861,0,0,0-.858-.858h0a.861.861,0,0,0-.858.858v.877A.861.861,0,0,0,4465.384,2776.136Z" transform="translate(-4436.279 -2742.89)" fill="#ffc2b0"/>
        <g id="グループ_1194" data-name="グループ 1194" transform="translate(30.17 26.907)">
          <path id="パス_1586" data-name="パス 1586" d="M4472.205,2766.859l.9-.518a.512.512,0,0,0,.214-.569h0a.294.294,0,0,0-.349-.227.3.3,0,0,0-.1.039l-.9.518a.511.511,0,0,0-.214.569h0a.294.294,0,0,0,.349.227A.312.312,0,0,0,4472.205,2766.859Z" transform="translate(-4470.287 -2765.539)" fill="#e655be"/>
          <path id="パス_1587" data-name="パス 1587" d="M4470.528,2771.086l1.352-.781a.405.405,0,0,0,.169-.451h0a.234.234,0,0,0-.277-.179.227.227,0,0,0-.075.031l-1.352.781a.4.4,0,0,0-.169.45h0a.233.233,0,0,0,.277.179A.239.239,0,0,0,4470.528,2771.086Z" transform="translate(-4469.447 -2767.737)" fill="#bfdfff"/>
          <path id="パス_1588" data-name="パス 1588" d="M4469,2774.674l2.484-1.434a.4.4,0,0,0,.169-.45h0a.233.233,0,0,0-.275-.18.244.244,0,0,0-.076.031l-2.483,1.435a.4.4,0,0,0-.169.45h0a.232.232,0,0,0,.276.179A.229.229,0,0,0,4469,2774.674Z" transform="translate(-4468.635 -2769.298)" fill="#bfdfff"/>
          <path id="パス_1589" data-name="パス 1589" d="M4472.314,2776.956l1.349-.78a.406.406,0,0,0,.17-.45h0a.233.233,0,0,0-.276-.18.225.225,0,0,0-.075.031l-1.352.78a.4.4,0,0,0-.169.45h0a.232.232,0,0,0,.353.15Z" transform="translate(-4470.396 -2770.86)" fill="#bfdfff"/>
          <path id="パス_1590" data-name="パス 1590" d="M4475.65,2778.574l.927-.534a.406.406,0,0,0,.169-.45h0a.233.233,0,0,0-.276-.18.227.227,0,0,0-.076.031l-.926.534a.406.406,0,0,0-.169.45h0a.232.232,0,0,0,.351.149Z" transform="translate(-4472.172 -2771.851)" fill="#e655be"/>
        </g>
        <path id="パス_1591" data-name="パス 1591" d="M4440.97,2773.45l-11.687,6.633v2.509l11.7-6.573Z" transform="translate(-4417.531 -2742.841)" fill="#2f29c2"/>
        <path id="パス_1592" data-name="パス 1592" d="M4450.34,2777.219c-.055.343.147.481.453.308a1.485,1.485,0,0,0,.652-.933c.055-.343-.148-.481-.453-.309A1.481,1.481,0,0,0,4450.34,2777.219Z" transform="translate(-4428.728 -2744.31)" fill="#fff"/>
        <path id="パス_1593" data-name="パス 1593" d="M4446.99,2779.244c-.055.343.147.48.453.308a1.48,1.48,0,0,0,.651-.933c.055-.343-.148-.48-.453-.309A1.484,1.484,0,0,0,4446.99,2779.244Z" transform="translate(-4426.946 -2745.387)" fill="#ffce43"/>
        <path id="パス_1594" data-name="パス 1594" d="M4443.542,2781.432c-.055.343.148.481.453.308a1.48,1.48,0,0,0,.651-.933c.055-.343-.148-.481-.453-.309A1.486,1.486,0,0,0,4443.542,2781.432Z" transform="translate(-4425.112 -2746.551)" fill="#e655be"/>
        <g id="グループ_1198" data-name="グループ 1198" transform="translate(14.728 37.964)">
          <g id="グループ_1195" data-name="グループ 1195" transform="translate(4.29)">
            <path id="パス_1595" data-name="パス 1595" d="M4445.348,2792.7l1.813-2.765-1.6-.767-.382.591,1.057.505-1.423,2.172Z" transform="translate(-4444.808 -2789.164)" fill="#2f29c2"/>
          </g>
          <g id="グループ_1196" data-name="グループ 1196" transform="translate(0 1.884)">
            <path id="パス_1596" data-name="パス 1596" d="M4437.232,2796.743l.382-.591-1.042-.5,1.44-2.2-.541-.264-1.832,2.794Z" transform="translate(-4435.641 -2793.189)" fill="#2f29c2"/>
          </g>
          <g id="グループ_1197" data-name="グループ 1197" transform="translate(2.536 0.661)">
            <path id="パス_1597" data-name="パス 1597" d="M4441.814,2794.862l.655-.232-.756-4.053-.654.233Z" transform="translate(-4441.059 -2790.576)" fill="#2f29c2"/>
          </g>
        </g>
        <path id="パス_1598" data-name="パス 1598" d="M4442.808,2760.923l2.514-1.366v-4.594l-2.514,1.366Z" transform="translate(-4424.726 -2733.006)" fill="#ffce43"/>
      </g>
      <path id="Path_7047" data-name="Path 7047" d="M4485.974,2808.407s-.94,8.7-.588,13.288l1.176,15.287a1.386,1.386,0,0,0,1.176.823,4.627,4.627,0,0,0,1.587-.323s.647-11.554.647-12.142.706-5.762.706-5.762l2.969,14.846,2.558-.147-.823-24.93Z" transform="translate(-4447.334 -2761.437)" fill="#234091"/>
      <path id="パス_1579" data-name="パス 1579" d="M4495.337,2789.189c-.629-3.453.048-6.182-.007-9.852,0-6.6.316-8.207-3.172-7.2l-.982.262a6.787,6.787,0,0,0-1.365.526c-4.6,2.37-5.826,3.1-5.625,5.85-.021,4.528,2.087,5.45.967,9.416C4486.1,2791.315,4494.285,2791.43,4495.337,2789.189Z" transform="translate(-4446.727 -2741.994)" fill="#7cdd94"/>
    </g>
    <g id="Group_3731" data-name="Group 3731" transform="translate(4516.294 2708.029)">
      <g id="グループ_1643-3" data-name="グループ 1643" transform="translate(0 0.37)">
        <g id="グループ_1581-3" data-name="グループ 1581">
          <g id="グループ_1574-2" data-name="グループ 1574" transform="translate(0 47.008)">
            <ellipse id="楕円形_283-2" data-name="楕円形 283" cx="9.113" cy="4.537" rx="9.113" ry="4.537" fill="#d0dbee"/>
          </g>
          <g id="グループ_1580-3" data-name="グループ 1580" transform="translate(2.437)">
            <g id="グループ_1576-3" data-name="グループ 1576" transform="translate(7.855 9.52)">
              <path id="パス_1942-5" data-name="パス 1942" d="M4710.7,2868.954a3.24,3.24,0,0,1,1.274,2.355h-.912l-.774-1.832Z" transform="translate(-4701.556 -2863.401)" fill="#a3aac6"/>
              <g id="グループ_1575-3" data-name="グループ 1575">
                <path id="パス_1943-3" data-name="パス 1943" d="M4699.9,2863.12c-1.106.6-2.938,1.581-3.582,1.862a.2.2,0,0,1-.27-.1.2.2,0,0,1-.015-.05c-.233-1.316-.831-6.9-1.171-7.672-.175-.394-2.947,1.037-2.947,1.037a.877.877,0,0,0-.216.655c.018.238-.162.54,0,.669.626,3.145,2.051,9.222,3.455,9.485,1.01.192,4.442-2.2,6.052-3.376A4.317,4.317,0,0,1,4699.9,2863.12Z" transform="translate(-4691.626 -2857.089)" fill="#3099cc"/>
                <path id="パス_1944-2" data-name="パス 1944" d="M4710.174,2868.954s-.359.2-.878.478a4.316,4.316,0,0,0,1.3,2.51c.518-.378.849-.63.849-.63C4710.885,2871.142,4709.838,2869.544,4710.174,2868.954Z" transform="translate(-4701.026 -2863.401)" fill="#a3aac6"/>
              </g>
              <path id="パス_1945" data-name="パス 1945" d="M4705.422,2863.537a1.26,1.26,0,0,1,.445-.771l4.711-2.72a.472.472,0,0,1,.564.067.515.515,0,0,1,.4.607.357.357,0,0,1-.011.044c-.447,1.686-1.258,4.749-1.7,6.4a1.425,1.425,0,0,1-.584.851l-4.572,2.662a.526.526,0,0,1-.568-.05c-.253-.021-.487-.217-.429-.467C4703.679,2870.155,4704.976,2865.189,4705.422,2863.537Z" transform="translate(-4698.033 -2858.628)" fill="#424e7f"/>
              <path id="パス_1946-2" data-name="パス 1946" d="M4717.262,2866.086l-.94.567a1.311,1.311,0,0,0-.438.467l-.159.281a.789.789,0,0,0,.292,1.068l.525.305.4-.265a1.6,1.6,0,0,0,.458-2.222c-.012-.018-.024-.037-.038-.055Z" transform="translate(-4704.393 -2861.875)" fill="#fcbac0"/>
            </g>
            <path id="パス_1947-2" data-name="パス 1947" d="M4678.292,2942.652c.28-.9.988-1.489,1.581-1.306s.669,1.018.568,1.97a1.3,1.3,0,0,1-.2.472,1.994,1.994,0,0,0-.245.992,2.748,2.748,0,0,1-.126.839,2.348,2.348,0,0,1-1.259,1.25.758.758,0,0,1-1.014-.35l0-.01a2.27,2.27,0,0,1-.022-1.984C4677.715,2944.263,4678.24,2942.822,4678.292,2942.652Z" transform="translate(-4676.177 -2892.374)" fill="#5278ff"/>
            <path id="パス_1948-2" data-name="パス 1948" d="M4692.94,2939.615a5.007,5.007,0,0,1,.5.509,3.321,3.321,0,0,0,1.338.759,2.939,2.939,0,0,0,1.643.191.569.569,0,0,0,.32-.878,7.564,7.564,0,0,0-1.167-1.211c-.311-.272-.6-.521-.832-.718a1.655,1.655,0,0,1-.577-1.106,1.164,1.164,0,0,0-.088-.46c-.84-.319-2.038-.143-2.252.263,0,0-.239,1.25-.239,1.558a.665.665,0,0,0,.421.662A3.678,3.678,0,0,1,4692.94,2939.615Z" transform="translate(-4683.751 -2889.833)" fill="#5278ff"/>
            <path id="パス_1951-3" data-name="パス 1951" d="M4676.577,2860.85l-.149,5.148.073,1.927.027.785c.927.834,2.828,1.371,5.53,1.047a9.587,9.587,0,0,0,4.034-1.236l-.24-3.368c-.028-.357-.081-.709-.129-1.062a12.656,12.656,0,0,1-.068-2.671l.522-6.347a3.244,3.244,0,0,0-3.273-3.293,3.284,3.284,0,0,0-.955.244c-.117.044-1.018-.445-1.138-.389l-1.1.636-1.3.754c-.032.02-.072.039-.1.058-.128.073-.252.148-.373.221-1.572.955-3.093,2.073-3.093,3.934Z" transform="translate(-4674.842 -2844.665)" fill="#30a2e4"/>
            <path id="パス_1952-3" data-name="パス 1952" d="M4686.5,2888.212c-.092.035-.189.063-.287.094a12.952,12.952,0,0,1-3.063.5l-.287.009a11.228,11.228,0,0,1-1.125-.029c-.233-.02-.458-.043-.67-.074a5.82,5.82,0,0,1-2.664-.979l-.042.808s1.223.934,4.5.934h.287a10.82,10.82,0,0,0,3.063-.471c.1-.031.192-.066.287-.1a5.8,5.8,0,0,0,1.541-.82l.02-.692A4.44,4.44,0,0,1,4686.5,2888.212Z" transform="translate(-4676.711 -2863.69)" fill="#3099cc"/>
            <path id="パス_1953-3" data-name="パス 1953" d="M4678.23,2882.331l.068,1.809c1.56.551,4.635,1.73,6.543,1.421l-.759-1.6Z" transform="translate(-4676.644 -2860.997)" fill="#2b77a4"/>
            <path id="パス_1954-3" data-name="パス 1954" d="M4684.283,2849.133l.015-.044v-3.9h2.658v3.731s.165.053.242.084c.525.215-.446,1.248-.446,1.248a5.38,5.38,0,0,1-1.976-.175.749.749,0,0,1-.5-.935Z" transform="translate(-4679.844 -2841.24)" fill="#fcbac0"/>
            <path id="パス_1956-3" data-name="パス 1956" d="M4682.857,2873.353c-.472-.058-1.2.5-1.616.346l-.537-1.385.419-6.523.956,5.288.783,2.267Z" transform="translate(-4677.96 -2852.198)" fill="#2b77a4"/>
            <g id="グループ_1577-3" data-name="グループ 1577" transform="translate(0.003 11.07)">
              <path id="パス_1957-3" data-name="パス 1957" d="M4683.013,2874.594c-1.495-.593-5.662-1.989-6.9-3.024-.568-.474-.614-9.222-.614-9.222a.39.39,0,0,1,.35-.425h.011l1.651-.117a.388.388,0,0,1,.415.359v.009c.043.891.167,6.519.195,7.546a.552.552,0,0,0,.39.513c1.051.325,3.259,2.092,5,2.653a1.869,1.869,0,0,0,.351.079c.854.124,2.776-1.548,2.96-.7,0,0,1.7.91.688,1.848a5.853,5.853,0,0,1-1.935.642A22.385,22.385,0,0,1,4683.013,2874.594Z" transform="translate(-4675.195 -2861.147)" fill="#fcbac0"/>
              <path id="パス_1958-3" data-name="パス 1958" d="M4683.165,2872.142c-.454.142-.766,1.317-.5,1.706,0,0-5.775-1.073-7.159-2.8-.674-.84-.658-6.236-.658-9.145a1.485,1.485,0,0,1,1.464-1.5c.038,0,.075,0,.112,0a1.512,1.512,0,0,1,1.448,1.432c.091,1.751.233,6.438.254,7.129a.228.228,0,0,0,.145.194C4678.612,2869.348,4683.165,2872.142,4683.165,2872.142Z" transform="translate(-4674.848 -2860.401)" fill="#3099cc"/>
            </g>
            <path id="パス_1959" data-name="パス 1959" d="M4685.872,2855.824l.292-1.443a3.256,3.256,0,0,1-1.848-.6,2.294,2.294,0,0,1-.589-.838l-.587.593C4683.388,2854.823,4685.872,2855.824,4685.872,2855.824Z" transform="translate(-4679.256 -2845.365)" fill="#e0e0de"/>
            <path id="パス_1960" data-name="パス 1960" d="M4690.336,2855.07l-.733-1a2.933,2.933,0,0,0,.157-.817l.047-.879.121-.01a1.866,1.866,0,0,1,.155.2,2.359,2.359,0,0,1,.4,1.121A3.637,3.637,0,0,1,4690.336,2855.07Z" transform="translate(-4682.694 -2845.057)" fill="#e0e0de"/>
            <g id="グループ_1578-3" data-name="グループ 1578" transform="translate(3.026)">
              <path id="パス_1961-3" data-name="パス 1961" d="M4687.015,2846.281v3.06c0,.317-.648.521-1.179.306-.811-.33-1.479-.967-1.479-1.653v-1.713Z" transform="translate(-4682.93 -2841.819)" fill="#ef9b9b"/>
              <path id="パス_1962-3" data-name="パス 1962" d="M4687.1,2842.176c-.412,2.17-1.85,2.393-3.21,1.757a3.155,3.155,0,0,1-1.916-2.046c-.136-.619-.611-1.206-.652-1.718a2.947,2.947,0,0,1,2.7-3.408C4687.749,2836.458,4687.241,2841.426,4687.1,2842.176Z" transform="translate(-4681.308 -2836.748)" fill="#fcbac0"/>
            </g>
            <path id="パス_1965-3" data-name="パス 1965" d="M4682.574,2844.472c.336.476.359,1.038.05,1.256s-.832.011-1.167-.464-.359-1.038-.051-1.256S4682.237,2844,4682.574,2844.472Z" transform="translate(-4678.219 -2840.564)" fill="#fcbac0"/>
          </g>
        </g>
      </g>
      <path id="Path_7048" data-name="Path 7048" d="M4683.244,2838.062a2.274,2.274,0,0,0,.452.644,2.553,2.553,0,0,0,3.232.37s.26-.225.137-1.128a2.826,2.826,0,0,0-2.464-1.981c-1.15-.082-2.876.411-3.123.822a4.9,4.9,0,0,0-.411,1.15,5.815,5.815,0,0,0-.534,1.4,6.321,6.321,0,0,0,.588,1.78s-.568-.99-.065-1.344.8.254,1.168.464.487,1.031.487,1.031l.37-.246a2.378,2.378,0,0,0-.109-.931A2.923,2.923,0,0,1,4683.244,2838.062Z" transform="translate(-4675.432 -2835.958)" fill="#343b65"/>
      <path id="Path_7049" data-name="Path 7049" d="M4679.175,2890.931l-.011,9.539.22,14.236s.359.628,1.545.5,1.214-.717,1.214-.717l3.316-19.765s.066-2.811.066-4.107c-1.582.571-4.154.119-6.306-.407C4679.219,2890.535,4679.175,2890.931,4679.175,2890.931Z" transform="translate(-4674.705 -2864.817)" fill="#ceab8b"/>
      <path id="Path_7050" data-name="Path 7050" d="M4690.175,2897.942l.6,13.99a2.145,2.145,0,0,0,1.888.128c1.015-.508,1.076-.878,1.076-.878l.583-22.31-3.622,1.251Z" transform="translate(-4680.562 -2864.107)" fill="#ceab8b"/>
    </g>
    <g id="Group_3732" data-name="Group 3732" transform="translate(4381.388 2710.665)">
      <circle id="Ellipse_404" data-name="Ellipse 404" cx="11.448" cy="11.448" r="11.448" transform="translate(28.078 29.538) rotate(-45)" fill="#d0e0f5"/>
      <circle id="Ellipse_405" data-name="Ellipse 405" cx="10.727" cy="10.727" r="10.727" transform="translate(29.335 27.785) rotate(-45)" fill="#e3efff"/>
      <circle id="Ellipse_406" data-name="Ellipse 406" cx="12.435" cy="12.435" r="12.435" transform="translate(13.407 33.447) rotate(-45)" fill="#d0e0f5"/>
      <circle id="Ellipse_407" data-name="Ellipse 407" cx="10.781" cy="10.781" r="10.781" transform="translate(0 30.437) rotate(-45)" fill="#d0e0f5"/>
      <circle id="Ellipse_408" data-name="Ellipse 408" cx="13.69" cy="13.69" r="13.69" transform="translate(12.335 28.971) rotate(-45)" fill="#e3efff"/>
      <circle id="Ellipse_409" data-name="Ellipse 409" cx="9.745" cy="9.745" r="9.745" transform="translate(0.774 29.068) rotate(-45)" fill="#e3efff"/>
      <circle id="Ellipse_410" data-name="Ellipse 410" cx="10.727" cy="10.727" r="10.727" transform="translate(5.971 15.17) rotate(-45)" fill="#e3efff"/>
    </g>
  </g>
</svg>
