<svg xmlns="http://www.w3.org/2000/svg" xmlns:xlink="http://www.w3.org/1999/xlink" width="2934" height="713" viewBox="0 0 2934 713"><defs><clipPath id="a"><rect width="2934" height="713" transform="translate(-10080 -10393)" fill="#f0f4f7"/></clipPath><linearGradient id="b" x1="0.5" x2="0.5" y2="1" gradientUnits="objectBoundingBox"><stop offset="0" stop-color="#f0f4f7"/><stop offset="1" stop-color="#fff"/></linearGradient><filter id="c" x="1113.478" y="-171.447" width="610.955" height="324.974" filterUnits="userSpaceOnUse"><feOffset dy="3" input="SourceAlpha"/><feGaussianBlur stdDeviation="10" result="d"/><feFlood flood-opacity="0.302"/><feComposite operator="in" in2="d"/><feComposite in="SourceGraphic"/></filter><filter id="e" x="1618.721" y="-71.883" width="303.935" height="598.214" filterUnits="userSpaceOnUse"><feOffset dy="3" input="SourceAlpha"/><feGaussianBlur stdDeviation="10" result="f"/><feFlood flood-opacity="0.302"/><feComposite operator="in" in2="f"/><feComposite in="SourceGraphic"/></filter><filter id="g" x="664.391" y="7.096" width="557.964" height="595.909" filterUnits="userSpaceOnUse"><feOffset dy="3" input="SourceAlpha"/><feGaussianBlur stdDeviation="10" result="h"/><feFlood flood-opacity="0.302"/><feComposite operator="in" in2="h"/><feComposite in="SourceGraphic"/></filter><filter id="i" x="124.561" y="429.717" width="599.938" height="286.627" filterUnits="userSpaceOnUse"><feOffset dy="3" input="SourceAlpha"/><feGaussianBlur stdDeviation="10" result="j"/><feFlood flood-opacity="0.302"/><feComposite operator="in" in2="j"/><feComposite in="SourceGraphic"/></filter><filter id="k" x="-10.292" y="-71.883" width="293.273" height="605.082" filterUnits="userSpaceOnUse"><feOffset dy="3" input="SourceAlpha"/><feGaussianBlur stdDeviation="10" result="l"/><feFlood flood-opacity="0.302"/><feComposite operator="in" in2="l"/><feComposite in="SourceGraphic"/></filter><linearGradient id="m" x1="0.5" x2="0.5" y2="1" gradientUnits="objectBoundingBox"><stop offset="0" stop-opacity="0"/><stop offset="1"/></linearGradient></defs><g transform="translate(10080 10393)" clip-path="url(#a)"><g transform="translate(-9296 -10393)"><rect width="2934" height="713" transform="translate(-784)" fill="url(#b)"/><g transform="translate(2503.708 6854.265)" opacity="0.8"><g transform="translate(-2564.331 -6881.924)"><path d="M8640.691,6079.4l-99.01,106.161c-30.348-35.833-76.143-87.055-129.521-132.33q-18.513-15.68-36.5-28.949l-1.486-102.028,103.6-1.517q13.783,10.727,27.656,22.5C8560.639,5990.043,8607.489,6040.924,8640.691,6079.4Z" transform="translate(-8374.172 -5920.741)" fill="#4cb286"/><path d="M9202.254,6753.325l1.56,107.128q-32-22.77-65.034-51.132c-56.887-48.858-107.5-101.511-142.883-141.716l100.032-106.322c32.963,38,81.36,91,136.82,138.62a740.252,740.252,0,0,0,67.518,52Z" transform="translate(-8735.543 -6292.19)" fill="#4cb286"/><g transform="translate(62.789 48.23)" opacity="0.1"><path d="M8569.252,6068.735q-5.35,5.333-11.513,4.818t-12.313-6.68l-3-3.014-11.782,11.752-7.006-7.023,33.123-33.042,10.555,10.581q6.01,6.026,6.548,11.752T8569.252,6068.735Zm-21.077-10.615,2.306,2.31q3.231,3.242,6.116,3.572a6.327,6.327,0,0,0,5.331-2.107q2.47-2.464,2.3-4.987t-3.038-5.4l-3.187-3.194Z" transform="translate(-8523.633 -6035.547)" fill="#fff"/><path d="M8592.815,6137.943l33.123-33.042,7.006,7.023-27.323,27.256,13.4,13.436-5.8,5.785Z" transform="translate(-8563.752 -6075.766)" fill="#fff"/><path d="M8669.545,6230.813l5.489-10.265-12.046-12.077-10.28,5.464-7.548-7.567,44.92-21.486,8.566,8.587-21.553,44.912Zm9.708-17.818q7.393-14.02,8.38-15.84c.656-1.214,1.2-2.151,1.621-2.814q-3.646,2.144-18.613,10.023Z" transform="translate(-8594.106 -6122.146)" fill="#fff"/><path d="M8760.385,6305.928l-8.905-8.926,10.685-39.4-.2-.2q-6.208,7.052-9.04,9.877l-15.588,15.549-6.26-6.275L8764.2,6243.5l8.837,8.858-10.459,39.133.159.16q6.117-6.782,8.791-9.449l15.678-15.639,6.306,6.32Z" transform="translate(-8643.926 -6156.14)" fill="#fff"/></g></g><g transform="translate(-3062.571 -7034)"><path d="M7829.475,5769.822l1.487,102.028c-62.047-45.766-119.083-69.748-166.662-69.748-41.29,0-93.94,14.288-138.173,47.46l-89.747,1.19-1.5-113.626c65.362-50.6,147.72-79.25,229.422-79.25,84.439,0,174.735,37.127,268.78,110.429Z" transform="translate(-7434.877 -5657.877)" fill="#139795"/><g transform="translate(71.912 59.755)" opacity="0.1"><path d="M7624.687,5869.711c-4.067,2.108-6.389,5.032-6.958,8.6s.619,7.445,3.387,11.654c5.813,8.763,12.046,11.034,19.492,7.22a52.688,52.688,0,0,0,10.575-7.729q1.8,3.768,3.538,7.554a42.843,42.843,0,0,1-11.075,7.911c-6.259,3.219-11.869,4.148-17.367,2.67-5.479-1.479-10.525-5.246-15.11-11.518a24.6,24.6,0,0,1-5.02-12.056,17.892,17.892,0,0,1,2.962-11.782,28.833,28.833,0,0,1,11.147-9.586,42.277,42.277,0,0,1,17.253-4.584q.1,4.386.269,8.761a59.134,59.134,0,0,0-6.9.822A21.773,21.773,0,0,0,7624.687,5869.711Z" transform="translate(-7606.057 -5833.722)" fill="#fff"/><path d="M7765.822,5836.785c1.725,7.612.688,13.8-2.561,18.638-3.269,4.855-8.534,8.041-15.876,10.016s-13.459,1.865-18.895-.619c-5.415-2.48-9.8-7.162-13.09-14.278-3.288-7.1-3.824-13.358-1.058-18.8,2.749-5.412,8.606-9.687,17.526-12.214s16.621-2.04,22.52,1.049C7760.311,5823.676,7764.093,5829.165,7765.822,5836.785Zm-39.032,9.65c1.968,4.879,4.458,8.2,7.467,10.024s6.524,2.128,10.717.99c8.345-2.233,11.484-8.15,8.7-18.4-2.8-10.207-9.328-14.357-18.856-11.723-4.752,1.33-7.793,3.7-9.1,6.938S7724.82,5841.561,7726.79,5846.436Z" transform="translate(-7667.819 -5810.438)" fill="#fff"/><path d="M7907.531,5823.734c0,7.783-2.8,13.462-7.833,17.314-5.058,3.868-12.066,5.683-21.194,6.053q-7.315.3-14.514,1.074-3.256-23.243-8.418-46.369,9.544-1.151,19.255-1.624c10.1-.485,18.312,1.7,24.091,6C7904.716,5810.5,7907.528,5816.444,7907.531,5823.734Zm-12.715-.42c-.43-10.088-6.678-15.478-18.142-15.022q-3.391.145-6.765.377,2.456,15.2,4.1,30.428,2.421-.144,4.854-.238C7889.7,5838.484,7895.235,5833.7,7894.815,5823.314Z" transform="translate(-7750.75 -5800.116)" fill="#fff"/><path d="M8034.988,5857.5a230.7,230.7,0,0,0-30.675-6.279q1.969-23.436,2.047-47.186a277.457,277.457,0,0,1,36.5,6.818q-.522,4.1-1.1,8.179-11.208-2.924-22.429-4.845-.325,5.194-.742,10.372,10.053,1.771,20.117,4.373-.627,4.065-1.311,8.115-9.76-2.563-19.523-4.308-.573,6.064-1.272,12.1,10.011,1.835,20.038,4.571Q8035.839,5853.46,8034.988,5857.5Z" transform="translate(-7837.005 -5802.386)" fill="#fff"/></g></g><g transform="translate(-2144.23 -6998.712)"><g transform="matrix(1, 0, 0, 1, -1143.48, 144.45)" filter="url(#c)"><path d="M9852.28,5828.762l-99.069,17.619c-36.265-27.894-77.777-44.278-116.138-44.278-75.042,0-147.081,33.1-246.968,120.748l10.616-103.68-99.4-10.185c32.012-27.76,61.54-50.6,89.673-69.48,82.952-55.684,161.145-81.629,246.075-81.629,67.577,0,136.85,24.622,197.083,68.976Z" transform="translate(-8157.85 -5802.32)" fill="#139795"/></g><g transform="translate(189.13 56.677)" opacity="0.1"><path d="M9804.023,5873.155c2.82,7.176,2.652,13.541-.106,19.156-2.78,5.637-8.006,10.194-15.818,14.286q-6.256,3.284-12.363,6.948-12.067-20.04-24.208-40.036,8.051-4.839,16.331-9.123c8.62-4.453,16.355-5.672,22.726-4C9796.976,5862.069,9801.379,5866.433,9804.023,5873.155Zm-10.922,4.838c-4.026-9.167-11.114-11.693-20.917-6.691q-2.9,1.49-5.765,3.05,7.329,13.354,14.623,26.726,2.064-1.121,4.146-2.2C9794.48,5894.085,9797.234,5887.427,9793.1,5877.994Z" transform="translate(-9751.527 -5831.574)" fill="#fff"/><path d="M9926.071,5854.941a246.413,246.413,0,0,0-27.178,7.652q-7.639-22.111-15.358-44.195a293.494,293.494,0,0,1,32.33-9.118q.9,3.965,1.785,7.931-10.052,2.221-19.958,5.173,1.484,4.917,2.967,9.835,8.88-2.648,17.893-4.684.908,3.962,1.814,7.924-8.744,1.976-17.365,4.543,1.734,5.778,3.466,11.557,8.843-2.634,17.829-4.616Q9925.184,5850.942,9926.071,5854.941Z" transform="translate(-9828.078 -5802.352)" fill="#fff"/><path d="M10029.254,5809.8c.212,5.034-1.457,8.938-4.832,11.806s-8.221,4.558-14.629,5.3q-2.353.275-4.7.591,1.131,8.244,2.248,16.489-5.125.689-10.225,1.6-4.115-23.028-8.311-46.043,9.135-1.626,18.347-2.673c7-.792,12.456.058,16.213,2.281S10029.054,5804.965,10029.254,5809.8Zm-25.267,9.646q1.856-.25,3.714-.475c3.475-.418,6.012-1.269,7.641-2.63a6.042,6.042,0,0,0,2.169-5.472,5.918,5.918,0,0,0-2.713-4.937c-1.616-.967-4.064-1.3-7.312-.92q-2.7.314-5.4.678Q10003.041,5812.567,10003.987,5819.446Z" transform="translate(-9889.124 -5794.986)" fill="#fff"/><path d="M10109.864,5839.575q-.072-23.393-.229-46.785,6.149-.017,12.295.223-.677,19.285-1.412,38.567,10.216.4,20.4,1.622-.483,4.068-.967,8.136A247.664,247.664,0,0,0,10109.864,5839.575Z" transform="translate(-9959.192 -5792.789)" fill="#fff"/><path d="M10253.944,5840.032c-2.529,7.324-6.531,12.209-11.738,14.907-5.224,2.7-11.312,3.021-18.607,1.237s-12.509-4.859-15.878-9.66c-3.35-4.788-4.63-10.986-3.533-18.7s4.162-13.3,9.49-16.56c5.3-3.256,12.528-4.013,21.295-1.879s14.864,6.165,18.08,11.536C10256.29,5826.3,10256.481,5832.7,10253.944,5840.032Zm-38.008-10.174c-.965,5.139-.6,9.21,1.013,12.236s4.459,4.984,8.612,6c8.276,2.043,13.885-1.661,16.925-11.755,3.038-10.062-.069-16.615-9.439-18.932-4.675-1.139-8.512-.591-11.387,1.531S10216.9,5824.723,10215.937,5829.858Z" transform="translate(-10013.802 -5801.711)" fill="#fff"/><path d="M10366.9,5862.742q9.321-6.268,19.278-11.949,6.069,3.164,12.025,6.629a292.5,292.5,0,0,0-30.12,16.228q-4.02,8.169-8.051,16.333-4.745-2.353-9.562-4.488,3.615-8.182,7.22-16.368a308.373,308.373,0,0,0-6.6-33.812q6.369,2.326,12.656,4.958Q10365.732,5851.548,10366.9,5862.742Z" transform="translate(-10098.853 -5817.45)" fill="#fff"/></g></g><g transform="translate(-1638.987 -6899.147)"><g transform="matrix(1, 0, 0, 1, -1648.72, 44.88)" filter="url(#e)"><path d="M10620.921,6135.718a382.465,382.465,0,0,1-30.392,149.622,389.981,389.981,0,0,1-34.391,64.084l-93.226,10.854-13.248-113.744a241.763,241.763,0,0,0,27.031-110.816c0-80.23-43.581-150.961-99.71-194.125l99.069-17.619-18.124-101.909a408.8,408.8,0,0,1,131.319,163.867A372.052,372.052,0,0,1,10620.921,6135.718Z" transform="translate(-8728.27 -5866.95)" fill="#f57526"/></g><g transform="translate(109.121 144.295)" opacity="0.1"><path d="M10686.123,6216.071c-7.148,2.988-13.459,3.262-18.945,1.141-5.5-2.136-9.811-6.534-13.369-13.324s-4.777-12.895-3.451-18.7c1.328-5.788,5.109-10.9,11.639-15.151s12.785-5.559,18.807-3.608c6,1.936,11.391,6.979,15.627,15.035s5.26,15.278,3.383,21.244C10697.934,6208.69,10693.281,6213.079,10686.123,6216.071Zm-17.754-35.574c-4.5,2.665-7.3,5.653-8.486,8.905s-.736,6.753,1.287,10.608c4.018,7.7,10.52,9.449,20.09,5.027,9.541-4.414,12.383-11.072,7.875-19.713-2.262-4.306-5.234-6.875-8.746-7.672S10672.865,6177.836,10668.369,6180.5Z" transform="translate(-10644.331 -6165.541)" fill="#fff"/><path d="M10734.841,6332.838c-4.907,1.151-9.056.242-12.507-2.557s-6.016-7.28-7.935-13.5q-.706-2.282-1.448-4.555-7.9,2.607-15.808,5.205-1.63-4.985-3.464-9.917,21.92-8.169,43.813-16.414,3.246,8.726,5.96,17.6c2.062,6.739,2.236,12.253.751,16.357S10739.552,6331.732,10734.841,6332.838Zm-14.172-23.157q.587,1.793,1.15,3.591c1.053,3.36,2.356,5.713,4,7.071a6.03,6.03,0,0,0,5.78,1.131,5.919,5.919,0,0,0,4.353-3.582c.651-1.771.521-4.242-.442-7.374q-.8-2.607-1.653-5.2Q10727.261,6307.5,10720.669,6309.681Z" transform="translate(-10669.758 -6238.354)" fill="#fff"/><path d="M10725.635,6444.978a268.006,268.006,0,0,0-3.963-28q22.953-4.521,45.89-9.119a315.057,315.057,0,0,1,4.667,32.885q-4.044.374-8.094.747-.9-10.178-2.477-20.29-5.073.809-10.145,1.616,1.419,9.089,2.269,18.243l-8.092.773q-.828-8.9-2.206-17.742-5.956.942-11.915,1.88,1.417,9.1,2.225,18.275Q10729.714,6444.614,10725.635,6444.978Z" transform="translate(-10685.991 -6306.063)" fill="#fff"/><path d="M10749.795,6527.31q-8.974.119-17.951.227-.056-5.2-.316-10.4,23.364-1.186,46.723-2.45.422,8.386.4,16.787c-.027,7.837-1.477,13.609-4,17.192s-6.2,5.151-10.891,4.8a11.465,11.465,0,0,1-7.137-3.146,18.007,18.007,0,0,1-4.633-7.584c-10.857,7.5-18.1,11.621-21.367,13.584q.557-5.758.863-11.531,9.272-5.385,18.318-11.571Q10749.827,6530.265,10749.795,6527.31Zm8.064-.109q.021,1.841.018,3.683c0,3.607.453,6.276,1.451,8.032a5.377,5.377,0,0,0,4.84,2.761,4.875,4.875,0,0,0,4.822-2.573c.988-1.8,1.527-4.63,1.527-8.471q0-1.806-.02-3.611Q10764.179,6527.115,10757.859,6527.2Z" transform="translate(-10691.179 -6368.01)" fill="#fff"/><path d="M10712.581,6649.685q5.832-.473,11.675-1.1,2.032-9.166,3.442-18.421-5.227-2.669-10.5-5.2.773-5.574,1.313-11.167a427.72,427.72,0,0,1,44.163,24.643q-1.2,7.411-2.754,14.777a414.065,414.065,0,0,1-50.178,7.43Q10711.282,6655.189,10712.581,6649.685Zm20.37-1.934c10.615-1.422,16.623-2.52,18.01-2.725q2.083-.334,3.272-.435c-2.534-1.316-8.712-4.971-18.745-10.4Q10734.384,6640.992,10732.951,6647.751Z" transform="translate(-10679.076 -6425.486)" fill="#fff"/><path d="M10690.581,6765.879q1.913-4.95,3.624-9.954,18.236,6.21,36.492,12.37,2.5-7.324,4.621-14.737,3.973,1.123,7.946,2.243a315.137,315.137,0,0,1-15.13,41.586l-7.556-3.33q3.18-7.135,5.979-14.384Q10708.559,6772.8,10690.581,6765.879Z" transform="translate(-10667.961 -6506.532)" fill="#fff"/><path d="M10636.736,6855.266a269.624,269.624,0,0,0,14.121-25.669q21.1,10.109,42.228,20.148a316.356,316.356,0,0,1-16.555,30.125l-6.919-4.265q5.64-9.06,10.593-18.4-4.547-2.389-9.092-4.783-4.456,8.391-9.487,16.563-3.469-2.119-6.934-4.24,4.894-7.944,9.229-16.111-5.336-2.813-10.67-5.632-4.466,8.407-9.551,16.577Q10640.217,6857.426,10636.736,6855.266Z" transform="translate(-10636.736 -6550.626)" fill="#fff"/></g></g><g transform="translate(-2051.809 -6451.74)"><path d="M10038.944,6935.353a394.612,394.612,0,0,1-47.445,58.508,385.7,385.7,0,0,1-120.613,83.472,365.1,365.1,0,0,1-147.437,31.1c-51.415,0-106.577-15.314-163.984-45.512q-23.309-12.268-47.507-28.028-12.533-8.117-25.275-17.188l-1.562-107.128,98.014-1.426h.029a471.135,471.135,0,0,0,41.038,24.89c37.156,19.924,70.61,30.168,99.247,30.168,89.405,0,169.116-54.226,209.023-131.75l13.248,113.744Z" transform="translate(-9485.12 -6832.463)" fill="#d0d6c2"/><g transform="translate(72.462 129.77)"><path d="M9679.231,7193.594q2.451-19.559,6.4-38.617l-.279-.169c-3.441,6.645-5.772,11.053-7.05,13.2q-5.558,9.353-11.1,18.716-4.83-2.89-9.588-5.957,12.583-19.72,25.229-39.4,6.245,4.028,12.637,7.706-3.658,18.536-5.889,37.563l.208.109q14.544-12.6,27.83-26.157,6.6,3.081,13.317,5.812-8.786,21.681-17.5,43.391-5.336-2.169-10.614-4.527,4.475-10.129,8.964-20.251c.423-.955.932-2.05,1.516-3.283s2.213-4.479,4.856-9.747l-.293-.132q-13.57,14.005-28.488,27.044Q9684.271,7196.336,9679.231,7193.594Z" transform="translate(-9657.607 -7141.366)" fill="#fff"/><path d="M9882.88,7252.455c-1.417,7.606-4.7,13.069-10.1,16.188-5.373,3.111-12.5,3.653-21.043,1.306s-14.448-6.481-17.538-11.928-3.185-11.88-.522-19.191,6.741-12.141,12.016-14.674c5.292-2.537,11.453-2.675,18.787-.653s12.493,5.288,15.663,10.193S9884.3,7244.815,9882.88,7252.455ZM9845,7242.789c-1.594,4.978-1.694,9.088-.207,12.321s4.545,5.546,9.132,6.81c9.249,2.519,15.057-1.653,17.327-11.9,2.287-10.311-.725-16.312-8.946-18.556-4.143-1.141-7.615-.811-10.521,1.07S9846.594,7237.812,9845,7242.789Z" transform="translate(-9758.606 -7188.187)" fill="#fff"/><path d="M10021.572,7294.042q-7.69-.015-15.377-.377a339.138,339.138,0,0,1-20.584-37.233l-.312-.039c-.314,6.26-.6,10.716-.917,13.365q-1.293,10.931-2.571,21.866-5.38-.648-10.747-1.47,3.458-23.137,6.991-46.261,6.523,1,13.074,1.7a330.881,330.881,0,0,0,20.215,36.522l.264.008c-.2-6.089-.238-10.393-.156-12.908q.354-11.067.725-22.133,4.688.161,9.377.171Q10021.526,7270.649,10021.572,7294.042Z" transform="translate(-9839.381 -7200.821)" fill="#fff"/><path d="M10122.694,7297.235q-1.042-23.37-2.012-46.742,5.2-.211,10.4-.608,1.808,23.322,3.689,46.641Q10128.739,7296.988,10122.694,7297.235Z" transform="translate(-9926.145 -7204.296)" fill="#fff"/><path d="M10195.6,7282.353q-5.959,1.114-11.949,2.011-2.93-19.041-5.812-38.09-6.792,1.017-13.621,1.719-.429-4.106-.855-8.212a289.687,289.687,0,0,0,36.623-6.155q.951,4.018,1.9,8.035-6.7,1.575-13.464,2.836Q10191.991,7263.43,10195.6,7282.353Z" transform="translate(-9950.896 -7194.867)" fill="#fff"/><path d="M10323.478,7223.554c3.134,7.076,3.486,13.448.764,19.082-2.709,5.615-8.321,10.1-16.69,12.979s-15.525,2.784-21.106.018c-5.6-2.771-9.258-8.028-11.189-15.566s-1.318-13.819,1.564-18.876,7.854-8.646,15.033-11.109,13.311-2.688,18.723-.441C10315.971,7211.883,10320.335,7216.446,10323.478,7223.554Zm-36.766,13.427c1.492,5.009,3.72,8.461,6.759,10.295s6.852,2.023,11.346.48c9.049-3.137,11.521-9.874,7.608-19.611-3.932-9.8-9.836-13.044-17.879-10.26-4.057,1.393-6.72,3.62-8.045,6.808S10285.222,7231.97,10286.712,7236.98Z" transform="translate(-10015.133 -7180.054)" fill="#fff"/><path d="M10414.632,7188.744q4.214,7.926,8.437,15.847-5.477,2.895-11.036,5.573-10.236-21.037-20.4-42.1,6.574-3.166,13.018-6.679c6-3.277,10.937-4.907,15.008-4.692s7.4,2.232,9.956,6.2a11.074,11.074,0,0,1,1.735,7.6,16.519,16.519,0,0,1-3.8,8.228,261.868,261.868,0,0,0,25.167,8.223q-5.8,3.869-11.717,7.474-10.705-3.989-20.868-8.635Q10417.393,7187.287,10414.632,7188.744Zm-3.781-7.123q1.629-.861,3.252-1.742c3.184-1.728,5.251-3.515,6.217-5.276a5.3,5.3,0,0,0-.277-5.542,5.031,5.031,0,0,0-4.617-2.792c-1.947.036-4.449.927-7.561,2.616q-1.463.792-2.934,1.568Q10407.888,7176.039,10410.851,7181.621Z" transform="translate(-10083.267 -7150.24)" fill="#fff"/></g></g></g><path d="M0,2.589,2934,0V213.345H0Z" transform="translate(-784 500)" fill="#fff"/><g transform="translate(9296 7034)"><g transform="translate(-9385.61 -6999.904)"><g transform="matrix(1, 0, 0, 1, -694.39, -34.1)" filter="url(#g)"><path d="M8722.037,6245.987c43.7-45.646,82.536-83.517,117.893-114.547l10.616-103.679-99.4-10.185c-37.1,32.175-77.524,70.982-122.979,117.982l-99.01,106.162c-10.542,11.538-20.593,22.585-30.05,32.979-64.529,70.879-109.477,119.632-146.529,152.67l86.252,8.832-12.014,117.284c51.282-41.5,103.724-99.1,178.929-181.694,5.828-6.409,11.717-12.862,17.694-19.434C8647.444,6323.618,8692.61,6277.735,8722.037,6245.987Z" transform="translate(-7658.19 -5983.48)" fill="#105aa7"/></g><g transform="translate(175.265 105.177)" opacity="0.1"><path d="M8797.3,6701.85l12.809,12.579-6.95,7.078-33.382-32.78,9.552-9.728q6.68-6.8,12.365-7.637t10.729,4.122a12.424,12.424,0,0,1,3.648,6.768,15.042,15.042,0,0,1-.911,8.12q18.656,3.519,24.187,4.464l-7.714,7.854L8801,6698.082Zm-5.755-5.65,2.242-2.283q3.3-3.357,3.748-6.053a5.6,5.6,0,0,0-1.947-5.052,5.121,5.121,0,0,0-4.982-1.686q-2.609.645-5.972,4.071l-2.107,2.146Z" transform="translate(-8769.78 -6501.814)" fill="#fff"/><path d="M8894.2,6626.391l-18.879,19.226-33.382-32.779,18.878-19.227,5.8,5.7-11.928,12.148,7.33,7.2,11.1-11.3,5.8,5.694-11.1,11.3,8.608,8.453,11.928-12.148Z" transform="translate(-8811.623 -6456.795)" fill="#fff"/><path d="M8936.535,6600.043l-33.382-32.78,6.949-7.078,27.537,27.039,13.3-13.54,5.846,5.74Z" transform="translate(-8847.123 -6437.412)" fill="#fff"/><path d="M9017.164,6501.167l-18.879,19.226-33.382-32.78,18.877-19.226,5.8,5.695-11.926,12.148,7.329,7.2,11.1-11.3,5.8,5.695-11.1,11.3,8.608,8.453,11.928-12.147Z" transform="translate(-8882.932 -6384.178)" fill="#fff"/><path d="M9089.653,6441.558l-10.322-5.382-11.95,12.171,5.569,10.223-7.489,7.626-21.949-44.7,8.5-8.654,45.132,21.087Zm-17.917-9.521q-14.1-7.248-15.928-8.216t-2.831-1.592q2.183,3.623,10.215,18.507Z" transform="translate(-8928.517 -6351.97)" fill="#fff"/><path d="M9149.59,6354.541a12.086,12.086,0,0,1,3.929,10.249q-.592,5.81-6.286,11.609a29.782,29.782,0,0,1-11.293,7.48l-6.574-6.457a54.442,54.442,0,0,0,7.738-3.635,23.63,23.63,0,0,0,4.821-3.676,8.528,8.528,0,0,0,2.619-4.448,4.271,4.271,0,0,0-1.428-3.845,4.093,4.093,0,0,0-2.284-1.167,8.607,8.607,0,0,0-3.054.163,57.959,57.959,0,0,0-6.509,2.108A28.752,28.752,0,0,1,9124,6364.8a14.532,14.532,0,0,1-5.482-.583,12.329,12.329,0,0,1-5.007-3.123,12.091,12.091,0,0,1-4.016-9.841q.413-5.491,5.614-10.789a27.554,27.554,0,0,1,5.493-4.361,47.994,47.994,0,0,1,6.59-3.24l3.261,7.688a46.839,46.839,0,0,0-5.868,2.915,19.921,19.921,0,0,0-3.808,3.012,6.382,6.382,0,0,0-2.092,4,4.332,4.332,0,0,0,1.391,3.473,4.23,4.23,0,0,0,2.058,1.169,6.682,6.682,0,0,0,2.7-.058,60.352,60.352,0,0,0,6.747-2.188q6.832-2.483,10.786-2.011A12.271,12.271,0,0,1,9149.59,6354.541Z" transform="translate(-8966.761 -6305.587)" fill="#fff"/><path d="M9213.993,6300.717l-18.879,19.226-33.382-32.78,18.878-19.226,5.8,5.7-11.929,12.147,7.331,7.2,11.1-11.3,5.8,5.695-11.1,11.3,8.608,8.452,11.928-12.146Z" transform="translate(-8997.073 -6267.938)" fill="#fff"/></g></g><g transform="translate(-9925.439 -6577.283)"><g transform="matrix(1, 0, 0, 1, -154.56, -456.72)" filter="url(#i)"><path d="M7812.575,6976.874l-12.014,117.284q-9.322,7.537-18.645,14.407c-64.842,47.654-128.152,67.994-211.7,67.994-84.691,0-176.029-36.042-244.32-96.393a375.685,375.685,0,0,1-53.259-58l120.584,9.308,6.289-81.54a229.518,229.518,0,0,0,21.9,22.169c50.241,44.413,109.8,60.233,148.8,60.233,61.363,0,99.531-13.843,156.105-64.292Z" transform="translate(-7118.08 -6493.21)" fill="#d0d6c2"/></g><g opacity="0.2"><path d="M7829.992,7271.832q-5.924-1.3-11.8-2.86l9.875-37.242q-6.505-1.724-12.935-3.813l2.552-7.852a236.991,236.991,0,0,0,35.081,8.509q-.665,4.074-1.329,8.147-6.609-1.077-13.168-2.519Q7834.129,7253.018,7829.992,7271.832Z" transform="translate(-7587.227 -7106.58)" fill="#fff"/><path d="M7940.125,7291.637a283.763,283.763,0,0,1-32.681-2.391l6.1-46.386a236.994,236.994,0,0,0,27.293,2q-.062,4.064-.124,8.127-8.94-.137-17.858-.925-.453,5.116-.905,10.233,8.641.764,17.312.941-.082,4.063-.165,8.126-8.943-.182-17.863-.971-.53,6.009-1.063,12.018,10.022.885,20.078,1.041Q7940.188,7287.542,7940.125,7291.637Z" transform="translate(-7640.762 -7119.801)" fill="#fff"/><path d="M8040.02,7276.373a11.118,11.118,0,0,1-4.006,10.621c-3.327,2.868-8.352,4.665-14.947,5.136A37.146,37.146,0,0,1,8004.9,7290q-.065-4.608-.131-9.215a56.293,56.293,0,0,0,9.5,2.68,29.342,29.342,0,0,0,7.132.427,11.083,11.083,0,0,0,5.792-1.746,4.034,4.034,0,0,0,1.665-3.9,3.76,3.76,0,0,0-1.134-2.346,9.87,9.87,0,0,0-2.775-1.809c-1.189-.558-3.586-1.4-7.119-2.626a29.152,29.152,0,0,1-7.4-3.5,14.052,14.052,0,0,1-3.9-4.207,11.334,11.334,0,0,1-1.5-5.733,12.237,12.237,0,0,1,4.163-9.87c2.8-2.468,6.644-3.83,11.639-4.25a32.235,32.235,0,0,1,7.119.158,64.3,64.3,0,0,1,7.345,1.5q-1.077,4.052-2.26,8.1a66.145,66.145,0,0,0-6.75-1.366,24.06,24.06,0,0,0-5.093-.134,7.139,7.139,0,0,0-4.433,1.643,4.276,4.276,0,0,0-1.384,3.516,3.978,3.978,0,0,0,.788,2.245,6.788,6.788,0,0,0,2.214,1.749,52.6,52.6,0,0,0,7.126,2.7c4.993,1.618,8.589,3.254,10.687,5.092A11.546,11.546,0,0,1,8040.02,7276.373Z" transform="translate(-7697.197 -7120.336)" fill="#fff"/><path d="M8120.991,7268.972q-5.877,1.559-11.8,2.86-4.137-18.814-8.272-37.63-6.557,1.441-13.168,2.519-.665-4.072-1.33-8.147a236.977,236.977,0,0,0,35.081-8.509q1.277,3.926,2.552,7.852-6.427,2.089-12.935,3.813Q8116.053,7250.351,8120.991,7268.972Z" transform="translate(-7744.549 -7106.58)" fill="#fff"/></g></g><g transform="translate(-10060.292 -7078.883)"><g transform="matrix(1, 0, 0, 1, -19.71, 44.88)" filter="url(#k)"><path d="M7241.031,6149.9c0,74.7,27.269,126.309,56.515,160.165l-6.289,81.539-120.584-9.308a367.6,367.6,0,0,1-37.975-63.935c-23.819-51.282-35.893-107.961-35.893-168.461,0-60.426,11.552-116.643,34.332-167.092a356.208,356.208,0,0,1,89.509-121.253q8.832-7.806,18.184-15.032l1.5,113.625,89.747-1.189C7280.194,5996.382,7241.031,6057.834,7241.031,6149.9Z" transform="translate(-7077.1 -5891.41)" fill="#f57526"/></g><g opacity="0.1"><path d="M7280.177,6743.263q-4.111-8.394-7.6-16.994c-3.171-7.84-4.231-13.959-3.608-18.106a9.211,9.211,0,0,1,6.931-7.981,10.322,10.322,0,0,1,7.265.215,9.869,9.869,0,0,1,4.975,4.807l.3-.1c-.485-3.473-.038-6.205,1.254-8.166a10.853,10.853,0,0,1,6.285-4.207,12.016,12.016,0,0,1,11.016,1.832c3.277,2.382,5.793,6.105,7.8,11.266q3.324,8.543,7.394,16.856Zm11.7-18.878q-1.354-3.141-2.62-6.308c-1.178-2.956-2.366-4.962-3.643-6.02a4.438,4.438,0,0,0-4.617-.628,3.941,3.941,0,0,0-2.81,3.563c-.175,1.776.354,4.313,1.66,7.563q1.2,2.987,2.481,5.951Zm7.229-3.12,11.194-4.833q-1.4-3.236-2.689-6.5c-1.09-2.761-2.333-4.627-3.8-5.608a5.634,5.634,0,0,0-5.245-.414c-3.654,1.267-4.5,4.916-2.16,10.845Q7297.7,6718.022,7299.1,6721.265Z" transform="translate(-7196.546 -6336.893)" fill="#fff"/><path d="M7232.918,6574.012l30.212-1.923a16.463,16.463,0,0,1,15.834,8.372,28.812,28.812,0,0,1,3.459,10.354c.959,6.114.436,11.1-1.8,15.213a16.5,16.5,0,0,1-11.056,8.2l-29.24,7.331q-1.515-6.041-2.742-12.136l28.08-5.652c3.534-.713,5.965-2.021,7.326-3.878s1.722-4.527,1.171-8.063c-.53-3.423-1.682-5.8-3.558-7.162s-4.6-1.87-8.209-1.472l-28.4,3.146Q7233.311,6580.189,7232.918,6574.012Z" transform="translate(-7175.737 -6267.254)" fill="#fff"/><path d="M7278.442,6525.057l-46.783.439q-.058-6.205.174-12.409l46.752,1.755Q7278.394,6519.948,7278.442,6525.057Z" transform="translate(-7174.999 -6233.063)" fill="#fff"/><path d="M7280.963,6445.218l-46.582-4.355q.576-6.185,1.447-12.345l38.214,5.393q1.419-10.063,3.748-20.007l7.977,1.871A217.709,217.709,0,0,0,7280.963,6445.218Z" transform="translate(-7176.585 -6175.547)" fill="#fff"/><path d="M7292.369,6280.159c6.917,3.4,11.076,8.243,12.856,14.239,1.784,6.023,1.077,12.865-1.745,21.019q-2.257,6.535-4.084,13.173l-45.1-12.435q2.462-8.933,5.563-17.725c3.233-9.146,8.117-15.389,13.958-18.527C7279.678,6276.747,7285.888,6276.97,7292.369,6280.159Zm-4.794,11.046c-9.165-4.022-16.121-1.006-19.843,9.336q-1.088,3.06-2.1,6.139l28.953,9.479q.716-2.188,1.478-4.364C7299.5,6302.107,7297.011,6295.338,7287.575,6291.205Z" transform="translate(-7188.132 -6096.531)" fill="#fff"/></g></g></g><rect width="2934" height="526" transform="translate(-784 187)" fill="url(#m)" style="mix-blend-mode:soft-light;isolation:isolate"/></g></g></svg>