<svg xmlns="http://www.w3.org/2000/svg" xmlns:xlink="http://www.w3.org/1999/xlink" width="585" height="461" viewBox="0 0 585 461"><defs><clipPath id="a"><rect width="585" height="461" transform="translate(578 1966)" fill="none" stroke="#b3b3b3" stroke-width="1"/></clipPath><clipPath id="b"><path d="M654.208,1839.917c-.995,10.277-.819,14.95.752,23.405h9.5c.1-.313,0-5.926,0-5.926a25.713,25.713,0,0,1,5.115,1.983c1.983,1.148,3.863,3.793,8.669,3.9s28.281,0,29.847,0,1.879-4.105-.522-5.984-12.839-2.818-17.744-5.672Z" transform="translate(-653.59 -1839.917)" fill="#391f2b"/></clipPath><clipPath id="c"><path d="M604.7,1839.917c-.995,10.277-.819,14.95.752,23.405h9.5c.1-.313,0-5.926,0-5.926a25.713,25.713,0,0,1,5.115,1.983c1.983,1.148,3.863,3.793,8.669,3.9s28.282,0,29.847,0,1.879-4.105-.522-5.984-12.839-2.818-17.744-5.672Z" transform="translate(-604.077 -1839.917)" fill="#482540"/></clipPath><clipPath id="d"><ellipse cx="5.188" cy="6.778" rx="5.188" ry="6.778" fill="#ee5b49"/></clipPath><clipPath id="e"><ellipse cx="5.188" cy="6.778" rx="5.188" ry="6.778" fill="#0faa9d"/></clipPath><clipPath id="f"><path d="M911.5,1842.442c-9.231,6.739-30.267,11.46-33.551,12.9s-.1,7.8-.1,7.8h59.61s-2.964-22.371-4.4-23.192S911.5,1842.442,911.5,1842.442Z" transform="translate(-876.458 -1839.814)" fill="#2e282f"/></clipPath><clipPath id="g"><path d="M920.492,1361.458c-2.76,8.568,2.106,18.745,2.455,22.147-.263,2.837-2.27,9.554-1.7,11.168.829,2.356,3.534,2.094,5.233,2.122,0,0,4.7,12.069,11.014,12.638,5.48.495,11.915-3.275,11.915-3.275l6.069,9.662,17.492-6.271a116.173,116.173,0,0,1-4.933-12.569c-1.963-6.247,11.266-15.938-3.278-31.875C951.728,1350.927,939.769,1353.783,920.492,1361.458Z" transform="translate(-919.648 -1355.096)" fill="#f7b288"/></clipPath><clipPath id="h"><path d="M839.986,1842.442c-9.231,6.739-30.268,11.46-33.552,12.9s-.1,7.8-.1,7.8h59.61s-2.964-22.371-4.4-23.192S839.986,1842.442,839.986,1842.442Z" transform="translate(-804.948 -1839.814)" fill="#3d303e"/></clipPath><clipPath id="i"><path d="M1009.272,1258.669c-6.362,11.269-2.364,23.68-2.364,27.265,0,2.144-4.085,7.812-2.956,9.422,1.412,2.012,5.319,2.575,5.319,2.575.518,3.116,1.5,15.567,12.149,14.271a72.885,72.885,0,0,0,13.844-2.821l14.542,18.9,11.633-16.177s-7.089-7.816-7.816-13.269,4.21-25.917-6.907-35.081C1033.265,1252.671,1009.272,1258.669,1009.272,1258.669Z" transform="translate(-1003.756 -1257.049)" fill="#f7b288"/></clipPath><clipPath id="j"><path d="M1132.161,1841.214c.978,10.1.8,14.7-.739,23.01h-9.343c-.1-.308,0-5.826,0-5.826a25.322,25.322,0,0,0-5.028,1.95c-1.95,1.129-3.8,3.73-8.522,3.831s-27.8,0-29.344,0-1.847-4.037.514-5.884,12.622-2.771,17.445-5.576Z" transform="translate(-1077.978 -1841.214)" fill="#c1372d"/></clipPath><clipPath id="k"><path d="M1209.656,1841.214c.978,10.1.8,14.7-.739,23.01h-9.343c-.1-.308,0-5.826,0-5.826a25.319,25.319,0,0,0-5.028,1.95c-1.95,1.129-3.8,3.73-8.523,3.831s-27.8,0-29.344,0-1.847-4.037.513-5.884,12.622-2.771,17.445-5.576Z" transform="translate(-1155.473 -1841.214)" fill="#f43d2f"/></clipPath></defs><g transform="translate(-578 -1966)" clip-path="url(#a)"><g transform="translate(236.484 855.29)"><g transform="translate(398.891 1228.034)"><ellipse cx="12.917" cy="14.616" rx="12.917" ry="14.616" transform="translate(0 30.111)" fill="#723731"/><path d="M445.516,1371.627a11.516,11.516,0,0,0-2.737.332,15.093,15.093,0,0,0-6.221,12.5c0,8.072,5.783,14.616,12.917,14.616a11.511,11.511,0,0,0,2.737-.332,15.092,15.092,0,0,0,6.221-12.5C458.433,1378.171,452.65,1371.627,445.516,1371.627Z" transform="translate(-432.6 -1341.516)" fill="#542f28"/><path d="M496.961,1348.32c2.52-15.375-7.962-24.433-22.272-25.8-14.437-1.381-30.364,3.646-30.364,29.473,0,29.312,19.364,26.622,21.3,25.911,1.915-.7,11.2-2.79,13.69-3.754C494.5,1368.264,496.961,1348.32,496.961,1348.32Z" transform="translate(-435.624 -1322.312)" fill="#723731"/><g transform="translate(8.701 10.634)"><path d="M480.836,1420.981c.032,1.092.28,9.463.28,9.463,3.621,5.728,9.481,24.1,1.174,38.986-11.24-12.986-18.431-25.157-17.95-40.139l-.5-16.317Z" transform="translate(-451.925 -1368.252)" fill="#f7b288"/><path d="M484.393,1432.25c-6.288,0-12.009-6.469-12.009-10.384l12.009,5.742Z" transform="translate(-455.252 -1371.715)" fill="#dc765d"/><path d="M446.071,1364.917c1.248-1.146,3.471-1.081,5.2-.3a7.624,7.624,0,0,1,3.531,5.313c1.975-.86,3.591-3.136,3.573-14.3,11.057-4.978,19.293-8.617,25.447-15.9,6.686,5.41,11.054,10.927,13.142,15.375-.035,14.493-.027,11.205-.043,17.227-.029,11.647-6.126,24.491-18.865,24.46-13.224-.033-23.875-10.008-25.674-18.262,0,0-1.943,2.064-5.937-2.07C443.728,1373.648,443.644,1367.145,446.071,1364.917Z" transform="translate(-444.325 -1339.728)" fill="#f7b288"/><path d="M490.707,1367.932c-3.945-.645-5.888-.221-7.889,1.106" transform="translate(-459.315 -1350.596)" fill="none" stroke="#723731" stroke-linecap="round" stroke-miterlimit="10" stroke-width="3.179"/><path d="M515.386,1367.689c3.947-1.567,6.193.067,7.16,1.341" transform="translate(-471.998 -1350.367)" fill="none" stroke="#723731" stroke-linecap="round" stroke-miterlimit="10" stroke-width="3.179"/><path d="M489.981,1382.132c0-1.474-.862-2.671-1.934-2.674s-1.944,1.19-1.948,2.664.863,2.671,1.934,2.674S489.977,1383.606,489.981,1382.132Z" transform="translate(-460.593 -1355.2)" fill="#3d303e"/><path d="M520.663,1382.132c0-1.474-.863-2.671-1.935-2.674s-1.944,1.19-1.948,2.664.863,2.671,1.935,2.674S520.659,1383.606,520.663,1382.132Z" transform="translate(-472.541 -1355.2)" fill="#3d303e"/><path d="M507.464,1397.09a12.1,12.1,0,0,1-5.828,1.927" transform="translate(-466.643 -1362.066)" fill="none" stroke="#dc765d" stroke-linecap="round" stroke-miterlimit="10" stroke-width="3.179"/><path d="M507.079,1410.874c-2.595,2.21-9.389,2.557-13.024.486" transform="translate(-463.691 -1367.434)" fill="none" stroke="#c62610" stroke-linecap="round" stroke-miterlimit="10" stroke-width="3.179"/><path d="M492.778,1339.728c-2.617,12.331-15.7,16.627-25.447,15.9l1.185-1.039s17.738.158,22.674-13.862Z" transform="translate(-453.284 -1339.728)" fill="#723731"/></g></g><circle cx="10.169" cy="10.169" r="10.169" transform="translate(609.351 1151.297)" fill="#bcd3d2"/><g transform="translate(445.998 1222.386)"><g transform="translate(0 102.639)"><path d="M603.921,1622.89H546.7c2.864-48.07-7.5-103.629-28.282-141.726H567.78a6.8,6.8,0,0,1,5.734,3.139C596.923,1520.874,603.92,1545.95,603.921,1622.89Z" transform="translate(-511.586 -1481.164)" fill="#1784ad"/><path d="M508.259,1491.575c13.394,21.6,28.459,56.289,26.294,123.3a7.786,7.786,0,0,0,7.8,8.015h7.859c0-77.239-7.179-102.3-30.4-138.587a6.826,6.826,0,0,0-11.552,7.272Z" transform="translate(-507.227 -1481.164)" fill="#4dcdff"/></g><g transform="translate(27.314 231.392)"><g transform="translate(10.433 20.571)"><g transform="translate(43.18)"><rect width="11.774" height="49.267" transform="translate(15.7 74.518) rotate(180)" fill="#9bbbbc"/><path d="M653.518,1770.458H646.2v-3.373h11.774v49.267h-4.453Z" transform="translate(-642.272 -1741.833)" fill="#6b8786" opacity="0.5" style="mix-blend-mode:multiply;isolation:isolate"/><path d="M639.768,1725.728v20.435a4.811,4.811,0,0,0,4.813,4.813h10a4.81,4.81,0,0,0,4.813-4.812v-20.435Z" transform="translate(-639.768 -1725.728)" fill="#3d303e"/><path d="M639.768,1735.729v14.329a4.812,4.812,0,0,0,4.813,4.813h5.391V1739.2a3.471,3.471,0,0,0-3.471-3.471Z" transform="translate(-639.768 -1729.623)" fill="#59495b"/></g><g transform="translate(0 74.147)"><path d="M658.875,1860.513a8.382,8.382,0,1,1-8.382-8.381A8.382,8.382,0,0,1,658.875,1860.513Z" transform="translate(-597.501 -1849.1)" fill="#3d303e"/><circle cx="8.382" cy="8.382" r="8.382" transform="translate(84.491 14.612) rotate(-60.655)" fill="#3d303e"/><path d="M589.391,1860.513a8.382,8.382,0,1,1-8.382-8.381A8.382,8.382,0,0,1,589.391,1860.513Z" transform="translate(-570.442 -1849.1)" fill="#3d303e"/><line x2="14.375" transform="translate(45.805 0.088)" fill="#9bbbbc"/><line x1="5.436" transform="translate(54.743 0.088)" fill="#6b8786"/><path d="M663.707,1847.31H580.374a11.326,11.326,0,0,0-11.326,11.326H675.033A11.326,11.326,0,0,0,663.707,1847.31Z" transform="translate(-569.048 -1847.222)" fill="#695c70"/><path d="M632.608,1858.636h0a11.326,11.326,0,0,0-11.324-11.326h42.423a11.326,11.326,0,0,1,11.326,11.326H632.608Z" transform="translate(-569.048 -1847.222)" fill="#4c4151"/><path d="M0,0H22.651a0,0,0,0,1,0,0V0A11.326,11.326,0,0,1,11.326,11.326h0A11.326,11.326,0,0,1,0,0V0A0,0,0,0,1,0,0Z" transform="translate(64.318 11.414) rotate(180)" fill="#7d6e86"/></g></g><path d="M629.229,1692.037v19.587h71.814c4.287,0,7.772-1.344,7.859-5.616v-6.1a7.875,7.875,0,0,0-7.859-7.867Z" transform="translate(-582.051 -1692.037)" fill="#1784ad"/><path d="M628.611,1714.918h0a7.709,7.709,0,0,0,7.709,7.709H700.8a7.867,7.867,0,0,0,7.859-7.709Z" transform="translate(-581.811 -1700.948)" fill="#3d303e"/><path d="M552.086,1692.037l-.125,13.3a6.291,6.291,0,0,0,6.291,6.291H608.17c4.287,0,7.772-1.345,7.859-5.617v-6.1a7.876,7.876,0,0,0-7.859-7.867Z" transform="translate(-551.961 -1692.037)" fill="#4dcdff"/><path d="M551.989,1714.918h0a7.709,7.709,0,0,0,7.71,7.709h48.482a7.867,7.867,0,0,0,7.859-7.709Z" transform="translate(-551.972 -1700.948)" fill="#59495b"/></g><g transform="translate(47.103 0)"><path d="M647.1,1424.276c6.351-1.746,15.876,1.27,16.987,3.651s-3.175,4.763-6.192,4.6S648.209,1430.627,647.1,1424.276Z" transform="translate(-608.8 -1356.169)" fill="#b1b6bc"/><g transform="translate(23.744)"><path d="M706.215,1342.7a18.612,18.612,0,0,1-.154,7.84l-3.777-6.014Z" transform="translate(-654.035 -1324.605)" fill="#8c4035"/><path d="M662.211,1449.085c4.847-.739,2.745-14.854,1.441-20.143-.6-2.433.247-11.987.247-11.987l-14.327-4.778a78.6,78.6,0,0,1-.523,17.313C651.416,1438.54,655.747,1445.142,662.211,1449.085Z" transform="translate(-633.303 -1351.66)" fill="#f7b288"/><path d="M666.06,1427.844c.007-1.945.134-4.268.253-6.032l-10.531-4.145s1.786,6.211,10.278,10.189Z" transform="translate(-635.926 -1353.797)" fill="#dc765d"/><path d="M664.9,1388.15l-2.494.094c-13.213.5-22.727-11.8-23.151-23.088l-.371-9.875c-.564-15.021,8.282-23.571,19.574-23.994l2.226-.083c11.291-.424,20.644,4.527,21.213,19.678l.475,12.657C682.9,1377.586,676.189,1387.726,664.9,1388.15Z" transform="translate(-629.334 -1320.117)" fill="#f7b288"/><path d="M636.305,1357.287c2.462,1.179,1.986-1.4,1.669-5.349s-4.019-14.937,1.747-18.714c4.6-3.016,9.819,3.24,23.972,2.764l-4.85-2.605s17.482,1.588,21.2-4.6l-4.356.282s4.991-4.886,3.245-8.537a19.842,19.842,0,0,1-3.651,1.746s-4.513-9.151-18.734-9.208c-12.085-.048-30.618,4.6-29.37,16.67-9.208,5.4-.927,35.366,11.827,43.236,0,0-4.107-7.282-4.554-10.018C634.452,1362.949,629.08,1351.028,636.305,1357.287Z" transform="translate(-623.261 -1313.061)" fill="#8c4035"/><path d="M637.477,1378.786c-1.76-5.555-9.6-4.363-9.6-.23-.01,6.9,5.6,11.617,10.151,10.551A20.633,20.633,0,0,0,637.477,1378.786Z" transform="translate(-625.057 -1337.193)" fill="#f7b288"/><g transform="translate(23.945 29.574)"><path d="M667.486,1374.842a1.915,1.915,0,1,1,1.983,2.022A2.007,2.007,0,0,1,667.486,1374.842Z" transform="translate(-664.428 -1365.851)" fill="#1e3141"/><path d="M694.35,1373.834a1.915,1.915,0,1,1,1.983,2.023A2.007,2.007,0,0,1,694.35,1373.834Z" transform="translate(-674.89 -1365.458)" fill="#1e3141"/><path d="M690.591,1361.922c1.951-.839,6.483-.547,7.871,1.9" transform="translate(-673.427 -1361.498)" fill="none" stroke="#8c4035" stroke-linecap="round" stroke-linejoin="round" stroke-width="2.868"/><path d="M670.186,1362.608c-2.009-.691-6.506-.06-7.707,2.481" transform="translate(-662.479 -1361.828)" fill="none" stroke="#8c4035" stroke-linecap="round" stroke-linejoin="round" stroke-width="2.868"/><path d="M682.095,1391.255c2.252.854,5.435.155,5.979-2.407" transform="translate(-670.118 -1372.148)" fill="none" stroke="#dc765d" stroke-linecap="round" stroke-linejoin="round" stroke-width="2.868"/></g><g transform="translate(29.694 52.856)"><path d="M671.9,1400.5c.056.293.124.587.2.869.034.113.067.237.1.35a1.124,1.124,0,0,0,.045.158,7.54,7.54,0,0,0,1.151,2.224,6.931,6.931,0,0,0,5.948,2.72,8.074,8.074,0,0,0,3.51-.767,7.273,7.273,0,0,0,3.793-4.775c0-.011.011-.045.011-.067a5.226,5.226,0,0,0,.2-.836.633.633,0,0,0-.666-.745h-.688c-13.827.147-12.958.045-13.263.192A.644.644,0,0,0,671.9,1400.5Z" transform="translate(-671.894 -1399.629)" fill="#6d1333"/><path d="M671.9,1400.5c.056.293.124.587.2.869,1.851.169,9.312.327,11.931-.35a2.107,2.107,0,0,0,1.479-1.388c-13.827.147-12.958.045-13.263.192A.644.644,0,0,0,671.9,1400.5Z" transform="translate(-671.894 -1399.629)" fill="#fff"/><path d="M674.358,1406.785a6.96,6.96,0,0,0,5.959,2.718,8.167,8.167,0,0,0,3.508-.76A12.15,12.15,0,0,0,674.358,1406.785Z" transform="translate(-672.853 -1402.316)" fill="#f66"/></g></g><path d="M619.02,1438.233c-11.907,1.429-21.115,6.191-26.2,29.211-3.354,15.2-6.569,39.389-8.367,54.076a11.179,11.179,0,0,0,11.159,12.536h83.045s-13.442-50.577-16.459-65.817c-2.96-14.955-10-27.307-20-29.529S619.02,1438.233,619.02,1438.233Z" transform="translate(-584.373 -1361.553)" fill="#f0f0f2"/><path d="M663.892,1437.91c.159,3.81-1.905,10.319-1.905,10.319l-2.7-2.222-7.621-.953-3.651,5.08s-7.938-8.891-7.938-12.542l2.7-2.064A41.736,41.736,0,0,0,663.892,1437.91Z" transform="translate(-606.066 -1360.754)" fill="#b1b6bc"/><path d="M617.2,1490.132c-.159.476-6.827,42.229-6.827,42.229s-5.458.094-7.84,4.539c0,0,4.982-2.158,7.84-1.84,0,0,29.529,8.732,38.737,8.414l.476-1.746s-10.4-1.17-13.187-2.019c-3.651-1.111-22.851-6.554-22.851-6.554S619.266,1492.831,617.2,1490.132Z" transform="translate(-591.446 -1382.017)" fill="#b1b6bc"/><path d="M666.83,1442.733c-.159,5.4-2.62,5.557-2.62,5.557l1.118,4.708a118.979,118.979,0,0,1,2.522,14.64c1.779,16.391,5.836,54.226,5.386,54.2-2.9-.153-14.849-.292-14.849-.292-.526-1.315.336-35.949.783-52.579a117.583,117.583,0,0,1,2.008-18.8c.164-.866.287-1.458.333-1.559-.794-.159-3.731-3.811-3.1-5.716s3.81-4.762,3.81-4.762S667.148,1438.923,666.83,1442.733Z" transform="translate(-613.132 -1361.766)" fill="#d62f1c"/><path d="M658.342,1573.431a10.027,10.027,0,0,1-.237-2.073,96.9,96.9,0,0,0,10.237,1.656,5.719,5.719,0,0,1-.219,2c-1.222-.1-2.608-.285-4.107-.524C661.205,1574.025,658.342,1573.431,658.342,1573.431Z" transform="translate(-613.086 -1413.649)" fill="#a72e1f"/><path d="M696.636,1489.616c.235,2.855,0,48.781,0,48.781l3.41-1.7S698.782,1493.428,696.636,1489.616Z" transform="translate(-628.091 -1381.817)" fill="#b1b6bc"/><path d="M655.261,1432.864c-5.874-2.222-10.161-5.557-10.8-8.255l-4.127,7.462a37,37,0,0,0,7.938,12.066Z" transform="translate(-606.167 -1356.501)" fill="#fff"/><path d="M670.971,1430.588a17.675,17.675,0,0,1-6.192,4.6l6.351,9.684c.518.535,2.762-6.9,2.222-9.843Z" transform="translate(-615.685 -1358.83)" fill="#fff"/><path d="M655.509,1574.753c-5.767,5.13-4.576,12.721-4.576,12.721H665.29l-7.347-12.242Z" transform="translate(-610.253 -1414.971)" fill="#b1b6bc"/></g></g><g transform="translate(352.021 1293.447)"><g transform="translate(0 31.578)"><path d="M450,1622.89H392.787c2.864-48.07-7.5-103.629-28.281-141.726h49.357a6.8,6.8,0,0,1,5.734,3.139C443.007,1520.874,450,1545.95,450,1622.89Z" transform="translate(-357.67 -1481.164)" fill="#1784ad"/><path d="M354.343,1491.575c13.394,21.6,28.458,56.289,26.293,123.3a7.786,7.786,0,0,0,7.8,8.015h7.859c0-77.239-7.179-102.3-30.395-138.587a6.826,6.826,0,0,0-11.552,7.272Z" transform="translate(-353.31 -1481.164)" fill="#4dcdff"/></g><g transform="translate(27.313 160.332)"><g transform="translate(9.393 20.571)"><g transform="translate(44.219)"><rect width="11.774" height="49.267" transform="translate(15.7 74.518) rotate(180)" fill="#9bbbbc"/><path d="M499.6,1770.458H492.28v-3.373h11.774v49.267H499.6Z" transform="translate(-488.355 -1741.833)" fill="#6b8786" opacity="0.5" style="mix-blend-mode:multiply;isolation:isolate"/><path d="M485.851,1725.728v20.435a4.811,4.811,0,0,0,4.813,4.813h10a4.811,4.811,0,0,0,4.813-4.812v-20.435Z" transform="translate(-485.851 -1725.728)" fill="#3d303e"/><path d="M485.851,1735.729v14.329a4.812,4.812,0,0,0,4.813,4.813h5.391V1739.2a3.471,3.471,0,0,0-3.471-3.471Z" transform="translate(-485.851 -1729.623)" fill="#59495b"/></g><g transform="translate(0 73.707)"><circle cx="8.382" cy="8.382" r="8.382" transform="translate(42.179 11.853) rotate(-45)" fill="#3d303e"/><circle cx="8.382" cy="8.382" r="8.382" transform="matrix(0.245, -0.969, 0.969, 0.245, 86.763, 17.924)" fill="#3d303e"/><circle cx="8.382" cy="8.382" r="8.382" transform="matrix(0.549, -0.836, 0.836, 0.549, 0, 14.257)" fill="#3d303e"/><line x2="14.375" transform="translate(46.845 0.528)" fill="#9bbbbc"/><line x1="5.436" transform="translate(55.783 0.528)" fill="#6b8786"/><path d="M509.791,1847.31H426.457a11.326,11.326,0,0,0-11.326,11.326H521.116A11.326,11.326,0,0,0,509.791,1847.31Z" transform="translate(-414.091 -1846.782)" fill="#695c70"/><path d="M478.691,1858.636h0a11.326,11.326,0,0,0-11.324-11.326H509.79a11.326,11.326,0,0,1,11.326,11.326H478.691Z" transform="translate(-414.091 -1846.782)" fill="#4c4151"/><path d="M0,0H22.651a0,0,0,0,1,0,0V0A11.326,11.326,0,0,1,11.326,11.326h0A11.326,11.326,0,0,1,0,0V0A0,0,0,0,1,0,0Z" transform="translate(65.358 11.853) rotate(-180)" fill="#7d6e86"/></g></g><path d="M475.312,1692.037v19.587h71.813c4.287,0,7.772-1.344,7.859-5.616v-6.1a7.874,7.874,0,0,0-7.859-7.867Z" transform="translate(-428.134 -1692.037)" fill="#1784ad"/><path d="M474.694,1714.918h0a7.709,7.709,0,0,0,7.709,7.709h64.482a7.866,7.866,0,0,0,7.859-7.709Z" transform="translate(-427.894 -1700.948)" fill="#3d303e"/><path d="M398.169,1692.037l-.125,13.3a6.291,6.291,0,0,0,6.291,6.291h49.917c4.287,0,7.772-1.345,7.859-5.617v-6.1a7.876,7.876,0,0,0-7.859-7.867Z" transform="translate(-398.044 -1692.037)" fill="#4dcdff"/><path d="M398.073,1714.918h0a7.709,7.709,0,0,0,7.709,7.709h48.482a7.867,7.867,0,0,0,7.859-7.709Z" transform="translate(-398.055 -1700.948)" fill="#59495b"/></g><g transform="translate(44.573)"><g transform="translate(44.799 12.904)"><path d="M630.456,1564.82c3.445-.522,17.061-2.683,19.206-2.818,4.375-.275,13.438,4.635,14.182,5.5s2.1,8.715,2.1,8.715l-37.888-.021S625.028,1566.908,630.456,1564.82Z" transform="translate(-549.348 -1493.966)" fill="#f7b288"/><path d="M631.085,1566.625a9.476,9.476,0,0,0,0,4.226s3.862,4.341,4.8,7.155H629.4S627.328,1568.086,631.085,1566.625Z" transform="translate(-549.977 -1495.771)" fill="#dc765d"/><path d="M671.509,1582.716c-5.8-1.359-7.571-4-7.571-4l-.6,4.013Z" transform="translate(-563.416 -1500.481)" fill="#dc765d"/><path d="M638.848,1570.821c2.61,1.429,12.839,2.657,14.091,4.327s1.044,3.3,0,3.7h.863s1.538-.857.6-4.013C653.63,1572.243,647.408,1571.675,638.848,1570.821Z" transform="translate(-553.878 -1497.405)" fill="#dc765d"/><path d="M580.018,1529.707c.065.227.138.454.219.7-.049,0-.179-.009-.389-.024-4.942-.454-53.227-6-53.227-6l-19.3-27.95-.762-1.11-6.878-44.745c10.078,4.075,22.936,32.754,38.434,61.248l44.98,9.221s-4.925.788-3.184,8.278C579.943,1529.457,579.978,1529.578,580.018,1529.707Z" transform="translate(-499.684 -1450.58)" fill="#f0f0f2"/><path d="M583.048,1553.884c-.049,0-.179-.009-.389-.024-5.194-.4-58.412-5.493-58.412-5.493l-17.346-27.9,8.417-9.592c1.725,7.98,14.154,28.428,14.154,28.428l54.022,6.755a7.931,7.931,0,0,0-.771,6.75c.032.129.065.251.105.38C582.895,1553.414,582.967,1553.641,583.048,1553.884Z" transform="translate(-502.495 -1474.06)" fill="#9bb1b2"/></g><path d="M555.469,1706.66c2.342.606,3.132,0,3.132,0s29.278,1.409,33.193,0,1.613-13.152,1.613-13.152-28.7-6.263-32.927,0A32.9,32.9,0,0,0,555.469,1706.66Z" transform="translate(-476.609 -1531.195)" fill="#2f1a23"/><g transform="translate(138.77 250.623)"><path d="M654.208,1839.917c-.995,10.277-.819,14.95.752,23.405h9.5c.1-.313,0-5.926,0-5.926a25.713,25.713,0,0,1,5.115,1.983c1.983,1.148,3.863,3.793,8.669,3.9s28.281,0,29.847,0,1.879-4.105-.522-5.984-12.839-2.818-17.744-5.672Z" transform="translate(-653.59 -1839.917)" fill="#391f2b"/><g clip-path="url(#b)"><path d="M640.736,1866.451a77.162,77.162,0,0,1,11.43,1.279l.47,6.285h-10.8Z" transform="translate(-648.585 -1850.25)" fill="#2f1a23"/></g></g><path d="M606.223,1691.1c8.4,32.09,27.4,74.573,29.124,87.26,0,0,21.45,12.955,35.62,11.7,0,0-21.528-14.364-22.311-17.026-.681-2.317-14.348-61.195-18.149-76.41a7.506,7.506,0,0,0-1.921-3.5S599.281,1669.14,606.223,1691.1Z" transform="translate(-495.96 -1527.733)" fill="#f7b288"/><g transform="translate(108.539 250.623)"><path d="M604.7,1839.917c-.995,10.277-.819,14.95.752,23.405h9.5c.1-.313,0-5.926,0-5.926a25.713,25.713,0,0,1,5.115,1.983c1.983,1.148,3.863,3.793,8.669,3.9s28.282,0,29.847,0,1.879-4.105-.522-5.984-12.839-2.818-17.744-5.672Z" transform="translate(-604.077 -1839.917)" fill="#482540"/><g clip-path="url(#c)"><path d="M603.165,1866.451a77.142,77.142,0,0,1,11.429,1.279l.47,6.285h-10.8Z" transform="translate(-603.722 -1850.25)" fill="#2f1a23"/></g></g><path d="M556.671,1702.771c7.843,31.388,21.49,48.611,29.11,77.581,0,0,21.45,12.955,35.619,11.7,0,0-21.528-14.364-22.311-17.026s-22.937-86.9-22.937-86.9S549.728,1680.814,556.671,1702.771Z" transform="translate(-476.625 -1529.728)" fill="#f7b288"/><path d="M562.839,1670.395a8.49,8.49,0,0,0-7.624-4.569l-37.25.308a9.508,9.508,0,0,0-8.579,5.631l-2.269,5.088-4.342-14.648h-52.7a18.76,18.76,0,0,1-18.763-18.415l1.879-29.619h51.226l.64,12.071,3.184.381a.338.338,0,0,0,.057.008l51.063,3.953c9.433.858,14.389,6.288,16.414,13.466Z" transform="translate(-428.259 -1501.382)" fill="#482540"/><path d="M509.386,1671.764l-2.269,5.088-4.342-14.648h-52.7a18.76,18.76,0,0,1-18.763-18.415l1.879-29.619h51.226l6.055,12.639s-20.962-1.532-26.819,1.028c-9.786,4.27-18.375,24.272-.924,24.272H500.2v-8.417Z" transform="translate(-428.259 -1501.382)" fill="#391f2b"/><rect width="51.23" height="5.428" transform="translate(4.929 107.358)" fill="#6a334b"/><path d="M482.723,1541.5c.016.122.024.178.024.178H431.521s-.421-23.089-2.486-45.5c-.39-4.262-.843-8.5-1.362-12.55a67.39,67.39,0,0,1-.615-10.961c.519-15.077,7.859-21.209,19.378-30.713,3.7,4.869,18.05,2.253,18.05,2.253l4.2,1.434c4.2,1.442,6.927,7.883,7.7,15.871s7.218,13.278,8.465,22.7c1.6,12.014-5.792,17.831-5.792,17.831-.9,11.577,3.151,34.788,3.605,38.977.008.106.024.186.032.267A1.1,1.1,0,0,1,482.723,1541.5Z" transform="translate(-426.591 -1434.317)" fill="#f0f0f2"/><path d="M468.651,1561.266l1.79-4.383-.413.048c-4.918.624-10.963,2.62-35.938-35.629-.472-.722-.286,26.974.794,39.963h-3.362s-.421-23.09-2.486-45.5c-.39-4.262-.843-8.5-1.362-12.55a67.39,67.39,0,0,1-.615-10.961c6.959-.016,23,3.565,24.021,4.416,5.639,4.682,23.84,23.092,23.84,23.092l5.536-1.62c1.89,13.638,1.815,39.419,2.212,42.465.008.106.024.186.032.267s.017.154.024.211c.016.121.024.178.024.178Z" transform="translate(-426.591 -1453.906)" fill="#b3c9cc"/><path d="M497.345,1525.56c-.3,3.8-.308,8.855-.17,14.081a10.812,10.812,0,0,1-2.5,1.28c-8.986,3.071-26.914-33.986-18.513-31.013,4.44,1.58,17.751,2.2,22,1.07,3.281-.875,4.82-3.638,3.629-8.637a24.7,24.7,0,0,1,1.352,5.388C504.734,1519.743,497.345,1525.56,497.345,1525.56Z" transform="translate(-444.874 -1457.833)" fill="#b3c9cc"/><path d="M482.707,1447.358c1.158,2.779.385,11.141.239,11.854-.13.672-4.189-6.514-5.355-8.345,5.736,9.406,9.268,38.02,9.171,39.211-.1,1.216-1.418.244-1.9-.591-1.313-23.122-8.831-39.09-8.831-39.09l-.478,8.92c-10.005-1.831-19.816-15.3-20.116-15.6.121-.114.243-.235.372-.349a13.746,13.746,0,0,1,1.694-1.41c3.694,4.869,18.05,2.253,18.05,2.253s.032-.246,4.237,1.189Z" transform="translate(-437.653 -1434.317)" fill="#b3c9cc"/><path d="M462.273,1429.445c.948,2.613,7.3,9.45,14.671,9.891-.281.672-1.342,12.5-1.342,12.5s-13.475-4.8-16.447-13.77a3.091,3.091,0,0,1,.236-2.436Z" transform="translate(-439.044 -1429.445)" fill="#f0f0f2"/><path d="M490.617,1437.689a5.085,5.085,0,0,1-2.232,4.857l6.591,12.5S494.772,1443.108,490.617,1437.689Z" transform="translate(-450.485 -1432.655)" fill="#f0f0f2"/><path d="M570.423,1588.373c1.054,0,.626-5.9.626-5.9l-2.505,2.505Z" transform="translate(-481.701 -1489.039)" fill="#b1b6bc"/><path d="M566.209,1566.3c9.187-1.926,18.739-5.344,21.3-5.117s10.56,2.171,12.931,3.571,8.772,8.723,6.766,9.744c-1.318.672-4.048-.3-5.333-1.953,0,0,2.157,2.573,1.283,3.257a3.908,3.908,0,0,1-5.236-.711c-2.173-2.173-10.411-2.545-10.411-2.545s8.781,4,8.93,5.175a1.8,1.8,0,0,1-2,1.988c-1.276-.021-11.6-4.626-14.354-3.906s-8.563,2.047-11.794,1.68a13.317,13.317,0,0,0-6.224.988S560.022,1567.769,566.209,1566.3Z" transform="translate(-479.051 -1480.742)" fill="#f7b288"/><path d="M566.273,1569.419c-2.963.705-4.037,3.526-4.355,6.274a11.983,11.983,0,0,0,.725,4.76,4.192,4.192,0,0,0,.4.789,12.862,12.862,0,0,1,5.3-.641c-2.543-3.066-2.39-8.416-1.008-11.413Q566.806,1569.306,566.273,1569.419Z" transform="translate(-479.115 -1483.865)" fill="#dc765d"/><path d="M617,1575.267c-3.532-3.357-5.52-5.281-16.415-7,0,0,12.445-1.661,18.273,8.5A5.927,5.927,0,0,1,617,1575.267Z" transform="translate(-494.178 -1483.467)" fill="#dc765d"/><path d="M444,1445.009l-10.772,9.342c-8.4,8.914-9.074,23.563-2.425,33.846l26.738,41.352c2.991,4.625,8.235,6.641,14.784,6.277l42.823-.986s-5.167-10.646,0-14.561L473,1517.03l-23.505-41.052Z" transform="translate(-426.312 -1435.506)" fill="#f0f0f2"/></g></g><g transform="translate(350 1289.744)"><g transform="translate(149.516)"><g transform="translate(0 21.741)"><path d="M602.4,1475.731l-3.73.564,1.478,9.775,7.438-1.125Z" transform="translate(-596.355 -1465.507)" fill="#f9c126"/><path d="M601.542,1510.1l-3.711-.679-2.953,9.719,8.574,1.36Z" transform="translate(-594.878 -1478.626)" fill="#f9436e"/><path d="M4.312,0H53.69A4.312,4.312,0,0,1,58,4.312V63.75a4.312,4.312,0,0,1-4.312,4.312H4.311A4.311,4.311,0,0,1,0,63.751V4.312A4.312,4.312,0,0,1,4.312,0Z" transform="translate(5.914)" fill="#574d5e"/><rect width="58.001" height="68.062" rx="4.312" transform="translate(11.23)" fill="#433a47"/><path d="M664.2,1556.1a2.37,2.37,0,0,1-2.4,2.633h-5.355a2.944,2.944,0,0,1-2.868-2.633l-.623-7.915-.137-1.815-.235-2.956-2.318-29.376a2.378,2.378,0,0,1,2.4-2.633h5.355a2.938,2.938,0,0,1,2.868,2.633l1.393,17.7Z" transform="translate(-616.443 -1479.4)" fill="#675c70"/><path d="M660.682,1529.821l-9.325,16.446-.137-1.815-.235-2.957-4.828-29.449c-.13-1.451,4.521-5.566,5.971-5.566l4.294,3.006a2.938,2.938,0,0,1,2.868,2.633Z" transform="translate(-614.846 -1477.482)" fill="#433a47"/><path d="M668.908,1556.1a2.37,2.37,0,0,1-2.4,2.633h-5.352a2.936,2.936,0,0,1-2.865-2.633l-3.315-42.06a2.373,2.373,0,0,1,2.4-2.632h5.352a2.933,2.933,0,0,1,2.865,2.632Z" transform="translate(-618.278 -1479.4)" fill="#574d5e"/><rect width="47" height="4.432" rx="2.174" transform="translate(16.731 76.406)" fill="#433a47"/><rect width="15.306" height="4.432" rx="2.174" transform="translate(14.961 76.406)" fill="#574d5e"/><path d="M604.557,1510.675l3.749,9.3-3.761,2.222Z" transform="translate(-598.643 -1479.116)" fill="#754559" opacity="0.4" style="mix-blend-mode:multiply;isolation:isolate"/><path d="M604.557,1476.691l2.422,7.089-2.434,2.665Z" transform="translate(-598.643 -1465.881)" fill="#754559" opacity="0.4" style="mix-blend-mode:multiply;isolation:isolate"/></g><g transform="translate(42.474)"><g transform="translate(20.561 0.002)"><rect width="58.793" height="278.133" fill="#8dcccc"/><rect width="58.793" height="278.133" transform="translate(58.793)" fill="#8dcccc"/><path d="M756.91,1598.072H698.117v22.292l58.793,87.38H815.7V1598.072Z" transform="translate(-698.117 -1491.411)" fill="#51332b" opacity="0.52" style="mix-blend-mode:multiply;isolation:isolate"/><path d="M756.91,1599.893H698.117v11.1H815.7v-11.1Z" transform="translate(-698.117 -1492.12)" fill="#51332b" opacity="0.52" style="mix-blend-mode:multiply;isolation:isolate"/><rect width="3.887" height="278.133" transform="translate(56.849)" fill="#51332b" opacity="0.52" style="mix-blend-mode:multiply;isolation:isolate"/></g><rect width="10.281" height="278.133" transform="translate(10.28)" fill="#cff"/><rect width="10.28" height="278.133" fill="#cff"/><rect width="2.419" height="278.133" transform="translate(9.073 0.002)" fill="#79b7b6"/></g></g><line x2="550" transform="translate(-0.484 279.967)" fill="none" stroke="#51332b" stroke-miterlimit="10" stroke-width="5.942"/><path d="M716.556,1551.745h-4.976c-.89,0-1.612-.63-1.612-2.407V1486.2c0-1.777.722-2.406,1.612-2.406h42.541c.89,0,1.612,1.44,1.612,3.217l-1.02,58.229C754.714,1547.013,725.217,1551.745,716.556,1551.745Z" transform="translate(-490.182 -1446.905)" fill="#51332b" opacity="0.52" style="mix-blend-mode:multiply;isolation:isolate"/><path d="M825.181,1551.745H820.2c-.89,0-1.612-.63-1.612-2.407V1486.2c0-1.777.722-2.406,1.612-2.406h42.541c.89,0,1.612,1.44,1.612,3.217l-1.02,58.229C863.338,1547.013,833.841,1551.745,825.181,1551.745Z" transform="translate(-532.483 -1446.905)" fill="#51332b" opacity="0.52" style="mix-blend-mode:multiply;isolation:isolate"/></g><g transform="translate(645.647 1303.293)"><g transform="translate(28.206 26.225)"><g transform="translate(2.217)"><rect width="44.138" height="62.882" transform="translate(52.94 62.882) rotate(180)" fill="#ff9d27"/><rect width="44.138" height="62.882" transform="translate(51.227 62.882) rotate(180)" fill="#b1b6bc"/><rect width="44.138" height="62.882" transform="translate(45.786 62.882) rotate(180)" fill="#ff9d27"/><rect width="44.138" height="62.882" transform="translate(44.138 62.882) rotate(180)" fill="#ffe527"/></g><path d="M928.884,1546.848v7.867h-43.03v-57.692H895.5C895.5,1522.57,910.05,1543.651,928.884,1546.848Z" transform="translate(-882.529 -1491.832)" fill="#9ca4bc" opacity="0.5" style="mix-blend-mode:multiply;isolation:isolate"/><path d="M890.051,1495.124c0,27.758,17.174,46.053,38.36,46.053v12.8h-48v-58.851Z" transform="translate(-880.408 -1491.093)" fill="#ee5b49"/><rect width="7.624" height="12.899" transform="translate(55.626 62.882) rotate(180)" fill="#a72e1f"/></g><g transform="translate(16.267 66.346)"><path d="M862.63,1554.233h10.061l-1.069,22.175H860.854Z" transform="translate(-860.854 -1554.233)" fill="#3d303e"/><path d="M877.329,1554.235l-.461,12.517-1,9.657h-10.37l1.215-9.657.559-12.517Z" transform="translate(-862.66 -1554.234)" fill="#3d303e"/><path d="M878.1,1554.235l-.461,12.517H867.483l.559-12.517Z" transform="translate(-863.435 -1554.234)" fill="#3d303e"/></g><g transform="translate(0 0)"><path d="M840.8,1513.525h-4.976c-.89,0-1.612-1.44-1.612-3.217v-61.52c0-1.777.722-3.217,1.612-3.217h42.541c.89,0,1.612,1.44,1.612,3.217l-1.02,58.229C878.957,1508.794,849.46,1513.525,840.8,1513.525Z" transform="translate(-834.212 -1445.571)" fill="#574d5e"/><path d="M891,1447.983v56.394a1.813,1.813,0,0,1-.032.338c-.317,1.746-2.878,3.984-3.714,3.984l-24.314,2.8-2.607.267-3.252.324-9.3.943-.937.493h-.032a.857.857,0,0,1-.134-.014c-.811-.169-1.446-1.542-1.446-3.2v-62.328c0-1.781.723-2.407,1.612-2.407h42.54C890.283,1445.576,891,1446.2,891,1447.983Z" transform="translate(-838.506 -1445.573)" fill="#433a47"/><path d="M890.95,1541.719v6.843c0,1.774-.723,2.406-1.611,2.406H846.8a.857.857,0,0,1-.134-.014.594.594,0,0,1-.151-.042c-.755-.267-1.326-.774-1.326-2.35v-6.843Z" transform="translate(-838.486 -1483.014)" fill="#433a47"/><rect width="41.739" height="50.667" transform="translate(8.745 4.152)" fill="#fcf9f6"/></g><g transform="translate(3.994 84.597)"><rect width="40.519" height="4.432" rx="2.174" transform="translate(1.77)" fill="#3d303e"/><rect width="15.306" height="4.432" rx="2.174" fill="#574d5e"/></g><g transform="translate(23.812 86.217)"><rect width="40.519" height="4.432" rx="2.174" transform="translate(1.77)" fill="#3d303e"/><rect width="15.306" height="4.432" rx="2.174" fill="#574d5e"/></g></g><g transform="translate(579.442 1303.293)"><g transform="translate(16.266 66.346)"><path d="M754.2,1554.233h10.061l-1.069,22.175H752.423Z" transform="translate(-752.423 -1554.233)" fill="#574d5e"/><path d="M768.9,1554.235l-.461,4.415-1,17.758h-10.37l1.215-17.758.559-4.415Z" transform="translate(-754.23 -1554.234)" fill="#3d303e"/><path d="M769.673,1554.235l-.461,4.415H759.053l.559-4.415Z" transform="translate(-755.005 -1554.234)" fill="#3d303e"/></g><g transform="translate(0 0)"><path d="M732.37,1513.525h-4.976c-.89,0-1.612-.63-1.612-2.407v-63.141c0-1.777.722-2.407,1.612-2.407h42.541c.89,0,1.612,1.44,1.612,3.217l-1.02,58.229C770.527,1508.794,741.03,1513.525,732.37,1513.525Z" transform="translate(-725.782 -1445.571)" fill="#574d5e"/><path d="M782.572,1447.983v56.394a1.812,1.812,0,0,1-.032.338c-.318,1.746-2.878,3.984-3.714,3.984l-24.314,2.8-2.607.267-3.252.324-9.3.943-.937.493h-.032a.855.855,0,0,1-.134-.014c-.811-.169-1.446-1.542-1.446-3.2v-62.328c0-1.781.723-2.407,1.612-2.407h42.54C781.852,1445.576,782.572,1446.2,782.572,1447.983Z" transform="translate(-730.076 -1445.573)" fill="#433a47"/><path d="M782.52,1541.719v6.843c0,1.774-.723,2.406-1.612,2.406h-42.54a.855.855,0,0,1-.134-.014.6.6,0,0,1-.152-.042c-.755-.267-1.326-.774-1.326-2.35v-6.843Z" transform="translate(-730.056 -1483.014)" fill="#433a47"/><rect width="41.739" height="50.667" transform="translate(8.742 4.152)" fill="#fcf9f6"/><rect width="1.636" height="50.667" transform="translate(48.914 4.152)" fill="#3d303e"/><rect width="1.636" height="50.667" transform="translate(115.211 4.152)" fill="#3d303e"/></g><g transform="translate(3.993 84.597)"><rect width="40.519" height="4.432" rx="2.174" transform="translate(1.77)" fill="#3d303e"/><rect width="15.306" height="4.432" rx="2.174" fill="#574d5e"/></g><g transform="translate(30.897 86.217)"><rect width="40.519" height="4.432" rx="2.174" transform="translate(1.77)" fill="#3d303e"/><rect width="15.306" height="4.432" rx="2.174" fill="#574d5e"/></g><line x2="5.57" transform="translate(27.578 30.223)" fill="none" stroke="#574d5e" stroke-linecap="round" stroke-miterlimit="10" stroke-width="2.654"/><line x2="10.431" transform="translate(27.578 33.362)" fill="none" stroke="#574d5e" stroke-linecap="round" stroke-miterlimit="10" stroke-width="1.592"/><line x2="11.342" transform="translate(27.578 35.539)" fill="none" stroke="#574d5e" stroke-linecap="round" stroke-miterlimit="10" stroke-width="1.592"/><line x2="8.608" transform="translate(27.578 37.717)" fill="none" stroke="#574d5e" stroke-linecap="round" stroke-miterlimit="10" stroke-width="1.592"/><g transform="translate(27.578 15.336)"><line x2="5.57" fill="none" stroke="#574d5e" stroke-linecap="round" stroke-miterlimit="10" stroke-width="2.654"/><line x2="10.431" transform="translate(0 3.139)" fill="none" stroke="#574d5e" stroke-linecap="round" stroke-miterlimit="10" stroke-width="1.592"/><line x2="11.342" transform="translate(0 5.317)" fill="none" stroke="#574d5e" stroke-linecap="round" stroke-miterlimit="10" stroke-width="1.592"/><line x2="8.608" transform="translate(0 7.494)" fill="none" stroke="#574d5e" stroke-linecap="round" stroke-miterlimit="10" stroke-width="1.592"/></g><g transform="translate(13.288 12.287)"><g transform="translate(0 17.378)"><ellipse cx="5.188" cy="6.778" rx="5.188" ry="6.778" fill="#ee5b49"/><g clip-path="url(#d)"><path d="M760.347,1490.417c-.216.495-4.3,9.061-4.3,9.061l7.007-1.577Z" transform="translate(-750.854 -1492.7)" fill="#b7cc27"/><path d="M762.509,1507.711l-6.466-4,6.743-2.424Z" transform="translate(-750.854 -1496.933)" fill="#45b2e7"/><path d="M749.549,1511.023l3.964-5.766,6.52,3.859S755.6,1516.882,749.549,1511.023Z" transform="translate(-748.325 -1498.479)" fill="#a72e1f"/><path d="M750.7,1494.156l3.262,6.778,3.228-6.778Z" transform="translate(-748.774 -1494.156)" fill="#88a143"/></g></g><ellipse cx="5.188" cy="6.778" rx="5.188" ry="6.778" fill="#0faa9d"/><g clip-path="url(#e)"><path d="M749.018,1462.059c.162.423,4.289,8.943,4.289,8.943l.9-9.084Z" transform="translate(-748.119 -1464.224)" fill="#fca405"/><path d="M762.347,1468.2l-6.3,2.8.5-9.092Z" transform="translate(-750.854 -1464.218)" fill="#f24f0e"/><path d="M761.968,1477.89l-5.926-2.565,5.188-2.3Z" transform="translate(-750.854 -1468.547)" fill="#d62f1c"/><path d="M760.995,1480.984c-.324-.071-4.953-4.189-4.953-4.189l5.189,2.246Z" transform="translate(-750.854 -1470.018)" fill="#a72e1f"/></g></g></g><g transform="translate(670.267 1392.13)"><rect width="80.329" height="11.287" transform="translate(36.58)" fill="#a64b36"/><rect width="62.505" height="11.287" fill="#a64b36"/></g><g transform="translate(566.035 1309.749)"><rect width="6.888" height="20.936" transform="translate(0 0)" fill="#51332b" opacity="0.52" style="mix-blend-mode:multiply;isolation:isolate"/><path d="M712.425,1475.744h-7.16a147.088,147.088,0,0,1-1.442-19.6h7.16A164.223,164.223,0,0,0,712.425,1475.744Z" transform="translate(-703.823 -1456.144)" fill="#f9436e"/></g><g transform="translate(566.035 1335.748)"><rect width="6.888" height="20.935" fill="#51332b" opacity="0.52" style="mix-blend-mode:multiply;isolation:isolate"/><path d="M712.425,1518.326h-7.16a147.09,147.09,0,0,1-1.442-19.6h7.16A164.225,164.225,0,0,0,712.425,1518.326Z" transform="translate(-703.823 -1498.726)" fill="#ffe527"/></g><g transform="translate(730.91 1324.197)"><g transform="translate(54.168 148.637)"><rect width="11.56" height="51.7" transform="translate(15.415 76.491) rotate(180)" fill="#9bbbbc"/><path d="M1076.076,1767.162h-7.188v-3.312h11.56v51.7h-4.372Z" transform="translate(-1065.032 -1739.058)" fill="#6b8786"/><path d="M1062.573,1723.246v20.063a4.724,4.724,0,0,0,4.725,4.725h9.819a4.723,4.723,0,0,0,4.725-4.725v-20.063Z" transform="translate(-1062.573 -1723.246)" fill="#3d303e"/><path d="M1062.573,1733.064v14.069a4.725,4.725,0,0,0,4.725,4.725h5.292v-15.386a3.408,3.408,0,0,0-3.408-3.408Z" transform="translate(-1062.573 -1727.069)" fill="#59495b"/></g><g transform="translate(66.052 0)"><path d="M1173.371,1490.03c-21.175,33.854-26.357,81.449-25.781,121.411.021,1.582-2.033,2.8-1.983,4.417.145,4.3-1.243,7.87-5.558,7.87h-46.692c-7.715-76.105,29.243-143.92,29.243-143.92h45.069A6.7,6.7,0,0,1,1173.371,1490.03Z" transform="translate(-1086.033 -1479.808)" fill="#1784ad"/><path d="M1183.342,1492.906h-42.391v-8.219c46.021,0,44.03-.572,44.764,1.372C1186.764,1488.842,1185.713,1492.906,1183.342,1492.906Z" transform="translate(-1104.98 -1481.677)" fill="#25aed8"/><path d="M1123.063,1490.03c-13.15,21.2-27.793,60.038-25.667,125.829a7.641,7.641,0,0,1-7.643,7.87h-7.715c0-53.046,5.941-103.7,29.694-140.839a6.7,6.7,0,0,1,11.332,7.14Z" transform="translate(-1082.037 -1479.808)" fill="#4dcdff"/></g><path d="M1153.32,1695.216v10.634c0,4.18-3.389,5.514-7.569,5.514h-38.734v-16.148Z" transform="translate(-1025.714 -1563.694)" fill="#1784ad"/><path d="M1055.161,1690.168V1709.4H981.573c-4.209,0-7.631-1.321-7.716-5.514v-5.993a7.731,7.731,0,0,1,7.716-7.723Z" transform="translate(-973.857 -1561.728)" fill="#4dcdff"/><path d="M1101.464,1712.633h0a7.569,7.569,0,0,1-7.569,7.569H981.573a7.723,7.723,0,0,1-7.716-7.569Z" transform="translate(-973.857 -1570.476)" fill="#59495b"/><path d="M1055.532,1712.633h0a7.569,7.569,0,0,1-7.569,7.569H981.573a7.723,7.723,0,0,1-7.716-7.569Z" transform="translate(-973.857 -1570.476)" fill="#3d303e"/><g transform="translate(11.775 224.85)"><circle cx="8.229" cy="8.229" r="8.229" transform="translate(43.799 2.891)" fill="#3d303e"/><circle cx="8.229" cy="8.229" r="8.229" transform="translate(1.668 2.891)" fill="#3d303e"/><circle cx="8.229" cy="8.229" r="8.229" transform="translate(85.452 2.891)" fill="#3d303e"/><line x1="14.113" transform="translate(44.972 0)" fill="#9bbbbc"/><line x2="5.337" transform="translate(44.972 0)" fill="#6b8786"/><path d="M11.12,0H92.937a11.12,11.12,0,0,1,11.12,11.12v0a0,0,0,0,1,0,0H0a0,0,0,0,1,0,0v0A11.12,11.12,0,0,1,11.12,0Z" transform="translate(0 0)" fill="#695c70"/><path d="M1034.795,1859.188h0a11.12,11.12,0,0,1,11.118-11.12h-41.651a11.12,11.12,0,0,0-11.12,11.12h41.653Z" transform="translate(-993.142 -1848.068)" fill="#4c4151"/><path d="M1071.262,1848.068h0a11.12,11.12,0,0,1,11.12,11.12h-22.24A11.12,11.12,0,0,1,1071.262,1848.068Z" transform="translate(-1019.234 -1848.068)" fill="#7d6e86"/></g></g><rect width="20.562" height="22.21" transform="translate(541.99 1396.708)" fill="#51332b" opacity="0.52" style="mix-blend-mode:multiply;isolation:isolate"/><g transform="translate(581.793 1358.103)"><g transform="translate(14.868 1.1)"><path d="M755.426,1569.6h0a1.753,1.753,0,0,0,2.035-1.416l5.2-28.984a1.753,1.753,0,0,0-1.416-2.035h0a1.753,1.753,0,0,0-2.035,1.416l-5.2,28.984A1.753,1.753,0,0,0,755.426,1569.6Z" transform="translate(-753.982 -1537.14)" fill="#b1b6bc"/><path d="M754.01,1567.568l5.2-28.984a1.753,1.753,0,0,1,2.035-1.416l-5.817,32.435A1.753,1.753,0,0,1,754.01,1567.568Z" transform="translate(-753.982 -1537.14)" fill="#f2fafd"/><path d="M763.7,1537.168a1.753,1.753,0,0,1,1.416,2.035l-1.343,7.492a1.753,1.753,0,1,1-3.451-.619l1.343-7.492A1.753,1.753,0,0,1,763.7,1537.168Z" transform="translate(-756.441 -1537.14)" fill="#647731"/><path d="M760.323,1546.076l1.343-7.492a1.753,1.753,0,0,1,2.035-1.416l-1.962,10.943A1.753,1.753,0,0,1,760.323,1546.076Z" transform="translate(-756.441 -1537.14)" fill="#88a143"/><path d="M765.974,1539.2a1.753,1.753,0,1,1-1.416-2.035A1.753,1.753,0,0,1,765.974,1539.2Z" transform="translate(-757.298 -1537.14)" fill="#9eb855"/></g><g transform="translate(12.151)"><path d="M751.235,1568.278h0a1.753,1.753,0,0,0,1.8-1.7l.871-29.434a1.753,1.753,0,0,0-1.7-1.8h0a1.753,1.753,0,0,0-1.8,1.7l-.871,29.434A1.753,1.753,0,0,0,751.235,1568.278Z" transform="translate(-749.534 -1535.339)" fill="#b1b6bc"/><path d="M749.535,1566.474l.871-29.434a1.754,1.754,0,0,1,1.8-1.7l-.974,32.939A1.753,1.753,0,0,1,749.535,1566.474Z" transform="translate(-749.534 -1535.339)" fill="#f2fafd"/><path d="M752.621,1535.339a1.753,1.753,0,0,1,1.7,1.8l-.225,7.608a1.753,1.753,0,1,1-3.5-.1l.225-7.608A1.754,1.754,0,0,1,752.621,1535.339Z" transform="translate(-749.946 -1535.339)" fill="#1784ad"/><path d="M750.593,1544.648l.225-7.608a1.754,1.754,0,0,1,1.8-1.7l-.328,11.113A1.753,1.753,0,0,1,750.593,1544.648Z" transform="translate(-749.946 -1535.339)" fill="#45b2e7"/><path d="M754.465,1537.144a1.753,1.753,0,1,1-1.7-1.8A1.753,1.753,0,0,1,754.465,1537.144Z" transform="translate(-750.089 -1535.339)" fill="#69c1eb"/></g><g transform="translate(0 1.835)"><path d="M740.508,1569.934h0a1.753,1.753,0,0,0,1.164-2.189l-8.61-28.16a1.753,1.753,0,0,0-2.189-1.164h0a1.754,1.754,0,0,0-1.164,2.189l8.61,28.16A1.753,1.753,0,0,0,740.508,1569.934Z" transform="translate(-729.632 -1538.344)" fill="#b1b6bc"/><path d="M738.319,1568.819l-8.61-28.16a1.754,1.754,0,0,1,1.164-2.189l9.635,31.513A1.753,1.753,0,0,1,738.319,1568.819Z" transform="translate(-729.632 -1538.393)" fill="#f2fafd"/><path d="M730.873,1538.421a1.753,1.753,0,0,1,2.189,1.164l2.226,7.279a1.753,1.753,0,0,1-3.353,1.025l-2.225-7.279A1.754,1.754,0,0,1,730.873,1538.421Z" transform="translate(-729.632 -1538.344)" fill="#a72e1f"/><path d="M731.934,1547.938l-2.225-7.279a1.754,1.754,0,0,1,1.164-2.189l3.251,10.632A1.753,1.753,0,0,1,731.934,1547.938Z" transform="translate(-729.632 -1538.393)" fill="#f24938"/><path d="M733.062,1539.585a1.753,1.753,0,1,1-2.189-1.164A1.753,1.753,0,0,1,733.062,1539.585Z" transform="translate(-729.632 -1538.344)" fill="#f06c5c"/></g><g transform="translate(2.94 18.407)"><path d="M7.383,0h4a7.383,7.383,0,0,1,7.383,7.383V16.09a0,0,0,0,1,0,0H0a0,0,0,0,1,0,0V7.383A7.383,7.383,0,0,1,7.383,0Z" transform="translate(18.764 16.091) rotate(180)" fill="#f43d2f"/><path d="M737.654,1565.489v10.6a1.034,1.034,0,0,0,1.035,1.034h0a1.034,1.034,0,0,0,1.035-1.034v-10.6Z" transform="translate(-735.696 -1565.487)" fill="#f2fafd"/><path d="M750.421,1577.069v-11.583h5.634v11.583a4.507,4.507,0,0,1-4.507,4.508h-5.635A4.508,4.508,0,0,0,750.421,1577.069Z" transform="translate(-738.912 -1565.486)" fill="#a72e1f"/></g></g><g transform="translate(481.068 1356.276)"><rect width="8.257" height="6.325" transform="translate(0 30.984)" fill="#a1bc2f"/><path d="M577.089,1572.943h-4.025l-.894,6.2h4.025Z" transform="translate(-567.587 -1548.156)" fill="#9db6bf"/><path d="M573.061,1572.943h-4.025l-.894,6.2h4.025Z" transform="translate(-566.018 -1548.156)" fill="#fff"/><line x2="1.533" y2="24.148" transform="translate(13.686 4.727)" stroke-width="5.65" stroke="#45b2e7" stroke-linecap="round" stroke-linejoin="round" fill="none"/><line x1="1.789" y2="29.131" transform="translate(18.797 0)" stroke-width="5.65" stroke="#8feaff" stroke-linecap="round" stroke-linejoin="round" fill="none"/><line x1="2.3" y2="17.76" transform="translate(23.524 4.727)" stroke-width="5.65" stroke="#f24938" stroke-linecap="round" stroke-linejoin="round" fill="none"/><line x1="8.56" y2="17.76" transform="translate(26.719 7.027)" stroke-width="5.65" stroke="#fca405" stroke-linecap="round" stroke-linejoin="round" fill="none"/><rect width="16.674" height="21.848" transform="translate(24.355 37.309) rotate(180)" fill="#a1bc2f"/><rect width="10.924" height="21.848" transform="translate(35.279 37.309) rotate(180)" fill="#538920"/></g><rect width="236.304" height="11.287" transform="translate(434.221 1392.13)" fill="#f2995c"/><g transform="translate(567.987 1080.219)"><path d="M758.817,1172.871l51.8,29.123H707.02Z" transform="translate(-707.02 -1116.301)" fill="#f43d2f"/><rect width="3.345" height="53.416" transform="translate(53.776 53.416) rotate(180)" fill="#a95d46"/><path d="M785.234,1165.444a10.38,10.38,0,0,1,10.38,10.38h-20.76A10.38,10.38,0,0,1,785.234,1165.444Z" transform="translate(-733.437 -1113.408)" fill="#a95d46"/><path d="M780.5,1175.824h-5.644a10.346,10.346,0,0,1,12.806-10.083C783.206,1166.821,780.6,1171.188,780.5,1175.824Z" transform="translate(-733.437 -1113.408)" fill="#bc725c"/></g><path d="M755.888,1205.722l8.045-23.279h-4.172l-30.615,23.278Z" transform="translate(-147.65 -39.809)" fill="#ff7069"/><g transform="translate(659.275 1318.159)"><line x2="7.291" transform="translate(3.038 31.762)" stroke-width="1.959" stroke="#364b57" stroke-linecap="round" stroke-linejoin="round" fill="none"/><line x2="12.355" transform="translate(3.038 33.585)" stroke-width="0.929" stroke="#364b57" stroke-linecap="round" stroke-linejoin="round" fill="none"/><line x2="11.072" transform="translate(3.038 35.071)" stroke-width="0.929" stroke="#364b57" stroke-linecap="round" stroke-linejoin="round" fill="none"/><ellipse cx="5.405" cy="7.526" rx="5.405" ry="7.526" transform="translate(4.315 2.044)" stroke-width="1.327" stroke="#364b57" stroke-linecap="round" stroke-linejoin="round" fill="#fcb400"/><ellipse cx="5.405" cy="7.526" rx="5.405" ry="7.526" transform="translate(12.606 2.044)" stroke-width="1.327" stroke="#364b57" stroke-linecap="round" stroke-linejoin="round" fill="#b7cc27"/><path d="M882.468,1493.723c0,5.015-2.925,9.082-6.53,9.082s-6.522-4.067-6.522-9.082a13.081,13.081,0,0,1,.073-1.385c.389-3.532,2.244-6.4,4.675-7.348a4.743,4.743,0,0,1,1.774-.348,4.238,4.238,0,0,1,.721.057c2.779.421,5.039,3.281,5.647,7.008A12.592,12.592,0,0,1,882.468,1493.723Z" transform="translate(-861.55 -1475.652)" fill="#f24938" stroke="#364b57" stroke-miterlimit="10" stroke-width="1.327"/><line x2="3.836" transform="translate(23.811)" stroke-width="2.123" stroke="#364b57" stroke-linecap="round" stroke-linejoin="round" fill="none"/><line y1="4.597" x2="1.744" transform="translate(22.067)" stroke-width="0.929" stroke="#364b57" stroke-linecap="round" stroke-linejoin="round" fill="none"/><line x1="3.428" transform="translate(0 0.549)" stroke-width="2.123" stroke="#364b57" stroke-linecap="round" stroke-linejoin="round" fill="none"/><line x1="2.194" y1="4.116" transform="translate(3.428 0.549)" stroke-width="0.929" stroke="#364b57" stroke-linecap="round" stroke-linejoin="round" fill="none"/><line x1="3.04" transform="translate(3.644 25.281)" stroke-width="2.123" stroke="#364b57" stroke-linecap="round" stroke-linejoin="round" fill="none"/><line x1="2.022" y2="2.763" transform="translate(6.684 22.518)" stroke-width="0.929" stroke="#364b57" stroke-linecap="round" stroke-linejoin="round" fill="none"/><path d="M871.6,1492.6a3.661,3.661,0,0,1-1.343-.258c.436-3.224,2.137-5.844,4.383-6.72a4.349,4.349,0,0,1,1.627-.321c.114,0,.225,0,.33.012,0,.055,0,.111,0,.166a9.06,9.06,0,0,1-1.206,4.62A4.564,4.564,0,0,1,871.6,1492.6Z" transform="translate(-861.877 -1475.91)" fill="#fcf9f6"/></g><path d="M882.841,1492.6a4.585,4.585,0,0,1-3.8-2.5,9.122,9.122,0,0,1-1.2-4.569,4.3,4.3,0,0,1,1.377-.229,3.879,3.879,0,0,1,.653.051c2.539.385,4.635,2.96,5.274,6.44A3.835,3.835,0,0,1,882.841,1492.6Z" transform="translate(-205.556 -157.751)" fill="#ffab66"/><g transform="translate(671.441 1423.392)"><g transform="translate(0 120.616)"><path d="M911.5,1842.442c-9.231,6.739-30.267,11.46-33.551,12.9s-.1,7.8-.1,7.8h59.61s-2.964-22.371-4.4-23.192S911.5,1842.442,911.5,1842.442Z" transform="translate(-876.458 -1839.814)" fill="#2e282f"/><g clip-path="url(#f)"><path d="M886.432,1855.155c7.754,4.122,6.567,10.159,6.567,10.159l-22.942-2.069Z" transform="translate(-873.965 -1845.788)" fill="#dacdc9"/><path d="M874.355,1868.325l18.044,1.627h2.3a7.6,7.6,0,0,0-.145-2.36h-20.2Z" transform="translate(-875.639 -1850.632)" fill="#b1b6bc"/><rect width="70.191" height="12.006" transform="translate(-2.105 17.781)" fill="#d2c2bd"/></g></g><path d="M994.523,1648.75l-54.865-6.481c-8.415,0-15.013,13.708-14.249,22.088l2.874,100.711c3.261.964,17.087,1.971,26.347,0L953.4,1674.99h51.369V1648.75Z" transform="translate(-895.497 -1642.269)" fill="#13212b"/></g><g transform="translate(627.779 1229.182)"><g transform="translate(62.231 0)"><g transform="translate(7.802 18.87)"><path d="M920.492,1361.458c-2.76,8.568,2.106,18.745,2.455,22.147-.263,2.837-2.27,9.554-1.7,11.168.829,2.356,3.534,2.094,5.233,2.122,0,0,4.7,12.069,11.014,12.638,5.48.495,11.915-3.275,11.915-3.275l6.069,9.662,17.492-6.271a116.173,116.173,0,0,1-4.933-12.569c-1.963-6.247,11.266-15.938-3.278-31.875C951.728,1350.927,939.769,1353.783,920.492,1361.458Z" transform="translate(-919.648 -1355.096)" fill="#f7b288"/><g clip-path="url(#g)"><path d="M932.688,1428.985A7.616,7.616,0,0,0,936,1427.5" transform="translate(-924.726 -1383.291)" fill="none" stroke="#dc765d" stroke-linecap="round" stroke-linejoin="round" stroke-width="3.508"/><path d="M931.463,1396.474c.386,1.325.085,2.578-.672,2.8s-1.684-.675-2.07-2-.085-2.578.672-2.8S931.076,1395.149,931.463,1396.474Z" transform="translate(-923.116 -1370.418)" fill="#1e3141"/><path d="M921.978,1389.52a9.021,9.021,0,0,1,6.788-.125" transform="translate(-920.555 -1368.218)" fill="none" stroke="#843f38" stroke-linecap="round" stroke-linejoin="round" stroke-width="3.508"/><path d="M971.7,1409.951l-2.464.893,3.342.892Z" transform="translate(-938.959 -1376.458)" fill="#dc765d"/><path d="M952.913,1438.038h0a27.3,27.3,0,0,0,9.449-3.321l3.236,5.152c.164-5.309-2.718-11.7-2.718-11.7S960.184,1435.343,952.913,1438.038Z" transform="translate(-932.602 -1383.554)" fill="#dc765d"/></g></g><path d="M915.516,1349.423c-5.3,1.381-9.152-8.554-8.591-14.334-.115.717,6.992,2.482,9.5,1.333-1.847-.649-3.8-2.13-3.751-3.386,11.55,2.053,16.27-8.414,28.379-8.825,13.2-.447,25.316,6.462,25.673,16.164,14.7,15.776,1.876,34.424-.825,39.52a10.17,10.17,0,0,1-10.753,5.26c-4.657-.823-9.929-3.064-11.827-8.813,0,0,7.454-2.534,5.756-11.354-1.223-6.354-10.029-9.318-12.128,1.213-2.376,1.293-7.58-2.5-9.48-9.787C924.96,1346.809,921.549,1347.851,915.516,1349.423Z" transform="translate(-906.87 -1324.19)" fill="#843f38"/></g><g transform="translate(0 314.826)"><path d="M839.986,1842.442c-9.231,6.739-30.268,11.46-33.552,12.9s-.1,7.8-.1,7.8h59.61s-2.964-22.371-4.4-23.192S839.986,1842.442,839.986,1842.442Z" transform="translate(-804.948 -1839.814)" fill="#3d303e"/><g clip-path="url(#h)"><path d="M814.922,1855.155c7.755,4.122,6.568,10.159,6.568,10.159l-22.942-2.069Z" transform="translate(-802.456 -1845.788)" fill="#fff"/><path d="M802.845,1868.325l18.044,1.627h2.3a7.6,7.6,0,0,0-.144-2.36h-20.2Z" transform="translate(-804.129 -1850.632)" fill="#b1b6bc"/><rect width="70.191" height="12.006" transform="translate(-2.105 17.781)" fill="#fff"/></g></g><path d="M910.848,1642.269H859.872c-17.783,0-22.144,13.708-21.38,22.088l12.272,100.711c3.261.964,17.088,1.971,26.347,0l-7.383-90.078H952.45V1648.75Z" transform="translate(-817.979 -1448.059)" fill="#1e3141"/><path d="M940.411,1655.061c1.437,1.642.616,15.393-4.72,17.034s-61.551,0-61.551,0l4.248,4.1s-4.248,19.908,7.153,25.039a2.088,2.088,0,0,1,.266.17l-2.165-26.42h82.722V1648.75l-41.6-6.481c.189.139.374.283.57.408A116.648,116.648,0,0,1,940.411,1655.061Z" transform="translate(-831.893 -1448.059)" fill="#182630"/><path d="M853.348,1586.044a102.81,102.81,0,0,1-12.708,0c-2.781-.242-4.8-1.026-7.186-1.026h-10.8a6.377,6.377,0,0,1,5.477-3.9,7.391,7.391,0,0,1,4.95-3.333c2.2-.189,7.622.591,9.859-.074s8.928-3.293,15.6-1.544S853.348,1586.044,853.348,1586.044Z" transform="translate(-811.845 -1422.087)" fill="#f7b288"/><path d="M871.509,1586.158s11.865-8.128,5.2-9.877a14.906,14.906,0,0,0-2.566-.413c-4.3,2.721-4.793,9.311-4.846,10.451C870.136,1586.263,870.9,1586.2,871.509,1586.158Z" transform="translate(-830.006 -1422.201)" fill="#dc765d"/><path d="M973.688,1445.176c13.044-9.837,24.511-6.531,26.078-.512C1001.49,1451.291,973.688,1445.176,973.688,1445.176Z" transform="translate(-870.66 -1368.872)" fill="#4c4151"/><path d="M949.757,1445.84c-13.786-.264-25.33,4.059-28.87,13.191-2.921,7.534-15.887,70.185-15.887,70.185l-23.172-4.693a7.254,7.254,0,0,0-7.406,3.306,10.881,10.881,0,0,0-1.667,8.334c.425.551,23.569,9.462,37.127,13.728a9.387,9.387,0,0,0,11.473-5.315c3.572-8.485,8.386-32.1,8.311-31.741-.466,2.227,3.536,26.459-5.545,52.935,0,0,33.467,11.982,55.171,8.287,0,0,8.634-88.209,8-101.746C986.679,1459.073,972.009,1446.265,949.757,1445.84Z" transform="translate(-831.251 -1371.56)" fill="#883f62"/><path d="M1015.265,1593.3s8.064-82.394,8.036-100.135h-18.656a7.421,7.421,0,0,0-7.421,7.421c2.022,46.381-3.509,71.841-5.311,93.532A97.179,97.179,0,0,0,1015.265,1593.3Z" transform="translate(-877.758 -1389.995)" fill="#6a334b"/><path d="M983.995,1646.492l.393-19.323s-14.777,0-15.239.154l-5.14,10.063C968.336,1638.3,975.59,1646.057,983.995,1646.492Z" transform="translate(-866.891 -1442.178)" fill="#6a334b"/><path d="M964.451,1591.768c10.941-27.164,3.219-63.367,3.219-63.367,1.684-7.844,3.079-19.973,3.079-19.973l-8.154,28.785c-.466,2.227,3.536,26.459-5.545,52.935C957.049,1590.148,959.866,1590.921,964.451,1591.768Z" transform="translate(-864.181 -1395.938)" fill="#6a334b"/><path d="M924.714,1582.233l-1.137,3.848s-.681-3.092-.392-4.112Z" transform="translate(-850.965 -1424.576)" fill="#6a334b"/><path d="M880.987,1574.31h0l-1.191-.205a3.887,3.887,0,0,0-3.589,1.254c-1.866,2.13-4.573,6.165-3.452,10.736a17.411,17.411,0,0,0,2.577,1.028A13.572,13.572,0,0,1,880.987,1574.31Z" transform="translate(-831.251 -1421.492)" fill="#4c4151"/></g><path d="M1044.868,1695.216v10.634c0,4.18-3.389,5.514-7.569,5.514H998.566v-16.148Z" transform="translate(-252.569 -239.496)" fill="#1784ad"/><path d="M993.012,1712.633h0a7.569,7.569,0,0,1-7.569,7.569H873.121a7.723,7.723,0,0,1-7.716-7.569Z" transform="translate(-200.713 -246.279)" fill="#59495b"/><g transform="translate(746.562 1175.316)"><g transform="translate(0 1.748)"><g transform="translate(2.604 11.123)"><path d="M1009.272,1258.669c-6.362,11.269-2.364,23.68-2.364,27.265,0,2.144-4.085,7.812-2.956,9.422,1.412,2.012,5.319,2.575,5.319,2.575.518,3.116,1.5,15.567,12.149,14.271a72.885,72.885,0,0,0,13.844-2.821l14.542,18.9,11.633-16.177s-7.089-7.816-7.816-13.269,4.21-25.917-6.907-35.081C1033.265,1252.671,1009.272,1258.669,1009.272,1258.669Z" transform="translate(-1003.756 -1257.049)" fill="#f7b288"/><g clip-path="url(#i)"><path d="M1014.252,1330.563a6.474,6.474,0,0,0,4.479-2.744" transform="translate(-1007.843 -1284.609)" fill="none" stroke="#dc765d" stroke-linecap="round" stroke-linejoin="round" stroke-width="3.508"/><path d="M1016.764,1301.424c.226,1.438-.194,2.7-.938,2.815s-1.529-.954-1.755-2.392.194-2.7.938-2.815S1016.539,1299.986,1016.764,1301.424Z" transform="translate(-1007.749 -1273.395)" fill="#1e3141"/><path d="M1010.875,1292.055a5.926,5.926,0,0,1,6.537,1.442" transform="translate(-1006.528 -1270.516)" fill="none" stroke="#843f38" stroke-linecap="round" stroke-linejoin="round" stroke-width="3.508"/><path d="M1058.442,1312.854l-3.736,1.545,5.244.1Z" transform="translate(-1023.597 -1278.781)" fill="#dc765d"/><path d="M1048.077,1338.038l4.844,6.3c0-7.783-5.244-13.7-5.244-13.7-1.8,4.394-5.747,9.021-11.02,10.076A66.22,66.22,0,0,0,1048.077,1338.038Z" transform="translate(-1016.568 -1285.706)" fill="#dc765d"/></g></g><path d="M1071.934,1241.661c1.7-2.265,2.47-3.758,5.331-2.167,4.727,2.629,8.9,7.039,8,10.461s-3.817,1.62-3.817,1.62Z" transform="translate(-1027.703 -1238.831)" fill="#88a143"/><path d="M1009.066,1254.71c9,7.232,20.919,2.508,20.534,7.3-.628,7.788.175,17.12,2.167,14.576s1.446-8.955,6.537-9.088c6.907-.182,8.361,12.905,2,16.9,0,0,12.168,13.344,15.581,8.569,0,0,2.007-9.705,4.532-15.349,3.09-6.907,4.335-22.8-5.687-31.074C1034.044,1229.466,1009.727,1247.582,1009.066,1254.71Z" transform="translate(-1003.22 -1239.064)" fill="#843f38"/><path d="M1085.016,1287.132c.435-1.284,1.858-5.56,2.342-6.642,3.09-6.907,3.946-22.349-5.687-31.074a25.894,25.894,0,0,0-3.423-2.611C1081.118,1254.679,1083.856,1261.123,1085.016,1287.132Z" transform="translate(-1030.161 -1241.936)" fill="#632b29"/><path d="M1010.419,1254.316c-7.211-.681-12.521,9.627-10.49,15.25,0,0,11.1,1.537,23.149,2.555,0,0-1.451-8.689,1.785-11.852C1027,1258.176,1010.419,1254.316,1010.419,1254.316Z" transform="translate(-999.491 -1244.849)" fill="#843f38"/></g><g transform="translate(47.922 369.546)"><path d="M1132.161,1841.214c.978,10.1.8,14.7-.739,23.01h-9.343c-.1-.308,0-5.826,0-5.826a25.322,25.322,0,0,0-5.028,1.95c-1.95,1.129-3.8,3.73-8.522,3.831s-27.8,0-29.344,0-1.847-4.037.514-5.884,12.622-2.771,17.445-5.576Z" transform="translate(-1077.978 -1841.214)" fill="#c1372d"/><g clip-path="url(#j)"><path d="M1161.15,1867.3a75.951,75.951,0,0,0-11.237,1.257l-.461,6.179h10.621Z" transform="translate(-1105.811 -1851.372)" fill="#51332b"/></g></g><path d="M1159.877,1623.988c1.481,35.474-11.39,63.15-15.492,97.094,0,0-21.088,12.737-35.018,11.505,0,0,21.164-14.122,21.934-16.739s16.415-183.119,16.415-183.119S1166.7,1602.4,1159.877,1623.988Z" transform="translate(-1042.28 -1351.535)" fill="#f7b288"/><g transform="translate(95.238 369.546)"><path d="M1209.656,1841.214c.978,10.1.8,14.7-.739,23.01h-9.343c-.1-.308,0-5.826,0-5.826a25.319,25.319,0,0,0-5.028,1.95c-1.95,1.129-3.8,3.73-8.523,3.831s-27.8,0-29.344,0-1.847-4.037.513-5.884,12.622-2.771,17.445-5.576Z" transform="translate(-1155.473 -1841.214)" fill="#f43d2f"/><g clip-path="url(#k)"><path d="M1238.645,1867.3a75.946,75.946,0,0,0-11.237,1.257l-.462,6.179h10.621Z" transform="translate(-1183.306 -1851.372)" fill="#51332b"/></g></g><path d="M1219.016,1532.532c0,21.578-3.688,55.429.985,87.873,5.457,37.882.07,65.767,1.877,100.48,0,0-21.088,12.737-35.018,11.5,0,0,19.75-12.411,20.52-15.028s-13.478-141.714-13.478-141.714C1196.063,1571.178,1219.016,1528.175,1219.016,1532.532Z" transform="translate(-1072.458 -1351.338)" fill="#f7b288"/><path d="M1167.074,1532.729l-.1,1.125c-.029.336-.065.75-.108,1.23-.012.142-.025.291-.038.446-.028.31-.056.639-.087,1-.05.575-.106,1.217-.167,1.912-.019.214-.038.434-.057.659-.036.412-.073.838-.112,1.285-.012.14-.024.283-.037.426-.04.457-.081.929-.124,1.42-.009.106-.018.209-.027.318-.368,4.212-.841,9.621-1.391,15.906q-.059.675-.119,1.362-.125,1.424-.254,2.9c-.035.4-.07.8-.1,1.2-.007.076-.013.151-.02.226-.013.151-.027.3-.04.452q-.227,2.585-.466,5.317-.081.92-.162,1.856-.29,3.308-.6,6.79l-.029.332q-.4,4.511-.814,9.261l-.033.371q-.148,1.693-.3,3.409-.051.581-.1,1.164c-.869,9.874-1.789,20.293-2.712,30.716,6.393,2.981,14.356,4.542,20.266,5.2-.008-1.655-.036-3.323-.107-5.016.07-.222.133-.456.2-.687.183-5.075.645-10.008,1.245-14.682C1179.92,1579.876,1167.074,1532.729,1167.074,1532.729Z" transform="translate(-1061.638 -1351.535)" fill="#dc765d"/><path d="M1225.055,1624.575c-.174-1.384-.358-2.777-.562-4.19-4.673-32.444-.985-66.3-.985-87.873,0-4.6-22.952,38.892-25.113,43.115v.011l0,.017.007.071.038.366c.012.114.025.247.041.4.007.065.014.138.022.209.011.107.023.22.035.342.008.079.016.161.026.246.033.331.073.71.116,1.133,0,.045.009.089.014.135.132,1.293.307,2.986.515,5.023q.027.271.056.55c.388,3.791.889,8.687,1.465,14.357l.009.083c.584,5.746,1.247,12.282,1.951,19.26.01.1.02.2.03.3.358,3.546.726,7.2,1.1,10.93A72.286,72.286,0,0,0,1225.055,1624.575Z" transform="translate(-1076.95 -1351.318)" fill="#dc765d"/><path d="M1180.814,1464.419c10.716,12.2,28.272,21.573,29.359,42.24.609,11.567-2.105,96.783-2.105,96.783l-3.627.237-5.548-13.6-4.424,13.818s-23.155,1.75-40.6-10.15c0,0,7.526-81.889,5.379-86.4s-9.046-17.263-9.046-17.263Z" transform="translate(-1058.183 -1324.934)" fill="#1e3141"/><path d="M1110.127,1426.986c0,.648-8.687,19.415-12.1,27.835a6.636,6.636,0,0,1-6.914,4.1l-1.495-.174c-3.893-.451-7.584-5.6-6.758-9.436l10.15-34Z" transform="translate(-1031.913 -1305.809)" fill="#b73806"/><path d="M1078.726,1467.855a14.624,14.624,0,0,1,4.678,4.644c1.462,2.544,1.476,7.248-.788,6.891s-7.563-.657-7.563-.657Z" transform="translate(-1028.917 -1326.272)" fill="#e59276"/><path d="M1068,1461.624c11.619-.329,11.142,14.654,2.3,15.318-2.715.2-12.053,0-12.053,0Z" transform="translate(-1022.376 -1323.843)" fill="#d3590b"/><path d="M1080,1332.525c-10.46,8.549-15.061,17.356-14.264,17.941.392.288,4.991,16.316,4.5,15.7s15.209-27.128,15.209-27.128C1084.24,1337.314,1081.382,1332.525,1080,1332.525Z" transform="translate(-1025.253 -1273.571)" fill="#ff8b03"/><path d="M1139.255,1416.733c-3.232,16.625-30.607,25.657-30.607,25.657-3.354-5.849-21.575-31.377-21.575-31.377a23.087,23.087,0,0,1-15.19-8.531l-10.03,22.627a7.754,7.754,0,0,1-7.073,4.6h-1.231c-5.1,0-11.2-5.663-9.884-10.6,3.953-14.85,8.782-34.221,10.775-40.718,2.763-9.033,4.569-24.135,13.156-32.382a18.178,18.178,0,0,1,1.516-1.337c2.39-1.9,6.675-2.828,11.107-2.69,4.634.138,9.422,1.434,12.387,4.018,11.512,10.038,18.828,34.164,21.841,39.422C1118.653,1392.753,1121.707,1394.875,1139.255,1416.733Z" transform="translate(-1016.624 -1277.248)" fill="#ed6b0d"/><path d="M1101.988,1438.566c8.033,10.631,20.572,23.053,23.527,27.7,0,0,5.9-2.156,10.561-4.468-8.367-13.259-25.468-24.91-29.47-35.438-6.465-.554-10.467-7.327-10.467-7.327l1.481-15.755-10.816,27.545S1090.977,1438.889,1101.988,1438.566Z" transform="translate(-1033.493 -1301.123)" fill="#d3590b"/><path d="M1105.19,1369.137c-9.357-11.812-14.364-24.192-22.214-23.13a18.177,18.177,0,0,1,1.516-1.337c2.39-1.9,6.675-2.828,11.107-2.69l.251.373S1104.591,1363.66,1105.19,1369.137Z" transform="translate(-1032.003 -1277.248)" fill="#b73806"/><path d="M1080.588,1238.379c7.053-3.646,12.095-2.376,14.432-1.212,16.106,8.022,14.363,53.315,21.25,64.544,11.265,18.365,15.267,42,11.973,45.036,0,0-18.566-18.413-20.565-25.5.406,1.079,2.583,11.394,2.583,15.393,0,0-9.061-12.07-12.545-20.658-6.725-16.573-9.9-18.132-9.675-55.528C1088.092,1251.97,1079.342,1239.023,1080.588,1238.379Z" transform="translate(-1031.025 -1235.969)" fill="#843f38"/><path d="M1148.444,1487.926s27.377-9.032,30.609-25.656l-2.723-3.37c-5.636,15.219-26.562,24.263-30.647,25.442C1146.779,1485.853,1147.963,1487.087,1148.444,1487.926Z" transform="translate(-1056.423 -1322.785)" fill="#4c4151"/><path d="M1148.569,1501.072l.062-.019.163-.05.053-.016c1.076-.336,6.509-2.538,10.266-4.4a27.721,27.721,0,0,0-2.827-3.834,96.429,96.429,0,0,1-10.6,4.773s2.7,3.484,2.76,3.583l.047-.013Z" transform="translate(-1056.423 -1335.967)" fill="#3d303e"/></g><g transform="translate(664.522 1324.197)"><g transform="translate(54.168 148.637)"><rect width="11.56" height="51.7" transform="translate(15.415 76.491) rotate(180)" fill="#9bbbbc"/><path d="M967.344,1767.162h-7.188v-3.312h11.56v51.7h-4.372Z" transform="translate(-956.301 -1739.058)" fill="#6b8786"/><path d="M953.842,1723.246v20.063a4.724,4.724,0,0,0,4.725,4.725h9.819a4.723,4.723,0,0,0,4.725-4.725v-20.063Z" transform="translate(-953.842 -1723.246)" fill="#3d303e"/><path d="M953.842,1733.064v14.069a4.725,4.725,0,0,0,4.725,4.725h5.292v-15.386a3.408,3.408,0,0,0-3.408-3.408Z" transform="translate(-953.842 -1727.069)" fill="#59495b"/></g><g transform="translate(66.052 0)"><path d="M1064.64,1490.03c-21.175,33.854-26.357,81.449-25.781,121.411.021,1.582-2.034,2.8-1.983,4.417.145,4.3-1.243,7.87-5.558,7.87H984.626c-7.715-76.105,29.243-143.92,29.243-143.92h45.069A6.7,6.7,0,0,1,1064.64,1490.03Z" transform="translate(-977.302 -1479.808)" fill="#1784ad"/><path d="M1074.611,1492.906H1032.22v-8.219c46.021,0,44.03-.572,44.764,1.372C1078.032,1488.842,1076.982,1492.906,1074.611,1492.906Z" transform="translate(-996.249 -1481.677)" fill="#25aed8"/><path d="M1014.332,1490.03c-13.15,21.2-27.793,60.038-25.667,125.829a7.642,7.642,0,0,1-7.644,7.87h-7.715c0-53.046,5.94-103.7,29.693-140.839a6.7,6.7,0,0,1,11.332,7.14Z" transform="translate(-973.306 -1479.808)" fill="#4dcdff"/></g><path d="M946.431,1690.168V1709.4H872.841c-4.209,0-7.63-1.321-7.715-5.514v-5.993a7.731,7.731,0,0,1,7.715-7.723Z" transform="translate(-865.126 -1561.728)" fill="#4dcdff"/><path d="M946.8,1712.633h0a7.569,7.569,0,0,1-7.569,7.569H872.841a7.723,7.723,0,0,1-7.715-7.569Z" transform="translate(-865.126 -1570.476)" fill="#3d303e"/><g transform="translate(11.775 224.85)"><circle cx="8.229" cy="8.229" r="8.229" transform="translate(43.799 2.891)" fill="#3d303e"/><circle cx="8.229" cy="8.229" r="8.229" transform="translate(1.668 2.891)" fill="#3d303e"/><circle cx="8.229" cy="8.229" r="8.229" transform="translate(85.452 2.891)" fill="#3d303e"/><line x1="14.113" transform="translate(44.971 0)" fill="#9bbbbc"/><line x2="5.337" transform="translate(44.972 0)" fill="#6b8786"/><path d="M11.12,0H92.937a11.12,11.12,0,0,1,11.12,11.12v0a0,0,0,0,1,0,0H0a0,0,0,0,1,0,0v0A11.12,11.12,0,0,1,11.12,0Z" transform="translate(0 0)" fill="#695c70"/><path d="M926.064,1859.188h0a11.12,11.12,0,0,1,11.118-11.12H895.53a11.119,11.119,0,0,0-11.119,11.12h41.653Z" transform="translate(-884.411 -1848.068)" fill="#4c4151"/><path d="M962.531,1848.068h0a11.119,11.119,0,0,1,11.119,11.12H951.411A11.12,11.12,0,0,1,962.531,1848.068Z" transform="translate(-910.503 -1848.068)" fill="#7d6e86"/></g></g></g></g></svg>