<svg xmlns="http://www.w3.org/2000/svg" xmlns:xlink="http://www.w3.org/1999/xlink" width="299.5" height="309.5" viewBox="0 0 299.5 309.5"><defs><radialGradient id="a" cx="0.599" cy="0.484" r="0.658" gradientTransform="translate(0.175) scale(0.651 1)" gradientUnits="objectBoundingBox"><stop offset="0" stop-color="#fff"/><stop offset="1"/></radialGradient><linearGradient id="b" y1="0.5" x2="1" y2="0.5" gradientUnits="objectBoundingBox"><stop offset="0" stop-color="#3c3f41"/><stop offset="1" stop-color="#232628"/></linearGradient></defs><g transform="translate(-864 -660)"><g transform="translate(864 660)" fill="#fff" stroke="#b3b3b3" stroke-width="1" opacity="0"><rect width="299.5" height="309.5" stroke="none"/><rect x="0.5" y="0.5" width="298.5" height="308.5" fill="none"/></g><g transform="translate(773.439 -806.135)"><path d="M109.3,1805.253v.281l-1.94-1.123.242-.14Z" transform="translate(-0.305 -139.816)" fill="url(#a)"/><path d="M540.518,1809.7H523.5l-26.1,15.071,26.1,15.071h17.014l26.1-15.071Z" transform="translate(-205.376 -142.668)" fill="#002585" opacity="0.3" style="mix-blend-mode:multiply;isolation:isolate"/><path d="M336.227,1781.128H318.743l-26.1,15.071,84.677,49.744H394.8l26.1-15.071Z" transform="translate(-97.718 -127.648)" fill="#002585" opacity="0.3" style="mix-blend-mode:multiply;isolation:isolate"/><g transform="translate(309.04 1636.887)"><g transform="translate(0)"><path d="M585.484,1761.208l-26.1,15.071-26.1-15.071,26.1-15.071Z" transform="translate(-533.278 -1746.137)" fill="#55b4b4"/><path d="M614.424,1808.058l-26.1,15.071v-30.142l26.1-15.071Z" transform="translate(-562.218 -1762.846)" fill="#005a5a"/><path d="M559.381,1792.987v30.142l-26.1-15.071v-30.142Z" transform="translate(-533.278 -1762.846)" fill="#218080"/></g></g><g transform="translate(216.008 1626.987)"><path d="M389.308,1740.333l-26.1,15.071-26.1-15.071,26.1-15.071Z" transform="translate(-337.102 -1725.262)" fill="#f25657"/><path d="M418.248,1787.183l-26.1,15.071v-30.142l26.1-15.071Z" transform="translate(-366.043 -1741.971)" fill="#b11617"/><path d="M363.205,1772.112v30.142l-26.1-15.071v-30.142Z" transform="translate(-337.102 -1741.971)" fill="#cb2f30"/><path d="M360.563,1796.357l-6.733-3.887c-1.071-.618-1.947-.112-1.947,1.125v3.8a4.319,4.319,0,0,0,1.947,3.372l6.732,3.887c1.071.618,1.947.112,1.947-1.124v-3.8A4.318,4.318,0,0,0,360.563,1796.357Zm-4.529,3.725V1795.7l3.4,4.154Z" transform="translate(-344.874 -1760.459)" fill="#fff"/></g><g transform="translate(216.008 1595.072)"><g transform="translate(0 0)"><path d="M389.308,1673.034l-26.1,15.071-26.1-15.071,26.1-15.071Z" transform="translate(-337.102 -1657.963)" fill="#238dfb"/><path d="M418.248,1719.885l-26.1,15.071v-30.142l26.1-15.071Z" transform="translate(-366.043 -1674.672)" fill="#0041af"/><path d="M363.205,1704.814v30.142l-26.1-15.071v-30.142Z" transform="translate(-337.102 -1674.672)" fill="#005ac8"/></g><path d="M362.167,1733.981a8.9,8.9,0,0,0-.575-1.936l.54-.636-1-1.732-.821.151a8.824,8.824,0,0,0-1.389-1.466l-.2-1.226-1.414-.816-.2,1a2.935,2.935,0,0,0-1.388-.136l-.821-1.1-1,.578.54,1.26a2.943,2.943,0,0,0-.575,1.271l-.963-.327v1.633l.962.784a8.851,8.851,0,0,0,.576,1.935l-.541.636,1,1.732.821-.151a8.769,8.769,0,0,0,1.389,1.467l.2,1.227,1.414.816.2-1a2.926,2.926,0,0,0,1.388.137l.822,1.1,1-.577-.541-1.26a2.945,2.945,0,0,0,.576-1.271l.962.327v-1.632Zm-4.149,1.489a5.434,5.434,0,0,1-2.458-4.259c0-1.568,1.1-2.2,2.459-1.42a5.436,5.436,0,0,1,2.458,4.259C360.477,1735.618,359.375,1736.254,358.018,1735.47Z" transform="translate(-345.412 -1693.778)" fill="#fff"/></g><g transform="translate(243.999 1642.719)"><path d="M448.334,1773.506l-26.1,15.071-26.1-15.071,26.1-15.071Z" transform="translate(-396.129 -1758.435)" fill="#ff8f2c"/><path d="M477.274,1820.357l-26.1,15.071v-30.142l26.1-15.071Z" transform="translate(-425.069 -1775.144)" fill="#b44400"/><path d="M422.232,1805.286v30.142l-26.1-15.071v-30.142Z" transform="translate(-396.129 -1775.144)" fill="#cd5d00"/><g transform="translate(7.416 31.747)"><path d="M411.767,1827l2.081,1.2v-1.624l-2.081-1.2Z" transform="translate(-411.767 -1825.38)" fill="#fff"/><path d="M419.03,1829.574v1.624l7.082,4.089v-1.625Z" transform="translate(-415.586 -1827.585)" fill="#fff"/><path d="M411.767,1833.364l2.081,1.2v-1.625l-2.081-1.2Z" transform="translate(-411.767 -1828.724)" fill="#fff"/><path d="M419.03,1837.558l7.081,4.088v-1.625l-7.082-4.088Z" transform="translate(-415.586 -1830.929)" fill="#fff"/><path d="M411.767,1839.723l2.081,1.2V1839.3l-2.081-1.2Z" transform="translate(-411.767 -1832.067)" fill="#fff"/><path d="M419.03,1843.917l7.082,4.089v-1.625l-7.082-4.088Z" transform="translate(-415.586 -1834.272)" fill="#fff"/></g></g><g transform="translate(244 1610.836)"><path d="M448.335,1706.274l-26.1,15.071-26.1-15.071,26.1-15.071Z" transform="translate(-396.13 -1691.204)" fill="#91cc50"/><path d="M477.275,1753.125l-26.1,15.071v-30.142l26.1-15.071Z" transform="translate(-425.07 -1707.913)" fill="#459c00"/><path d="M422.233,1738.054V1768.2l-26.1-15.071v-30.141Z" transform="translate(-396.13 -1707.913)" fill="#59ad15"/><path d="M417.5,1759.429c-3.065-1.77-5.55-1.049-5.55,1.609a8.7,8.7,0,0,0,2.111,4.995,8.692,8.692,0,0,1-.442,2.806,5.069,5.069,0,0,0,3.122-.268c.248.173.5.336.759.485,3.065,1.77,5.55,1.05,5.55-1.609S420.563,1761.2,417.5,1759.429Z" transform="translate(-404.447 -1726.565)" fill="#fff"/></g><g transform="translate(271.569 1626.775)"><path d="M506.469,1739.886l-26.1,15.071-26.1-15.071,26.1-15.071Z" transform="translate(-454.264 -1724.815)" fill="#238dfb"/><path d="M535.409,1818.454l-26.1,15.071v-61.859l26.1-15.071Z" transform="translate(-483.204 -1741.524)" fill="#0041af"/><path d="M480.367,1771.666v61.859l-26.1-15.071v-61.859Z" transform="translate(-454.264 -1741.524)" fill="#005ac8"/></g><g transform="translate(275.077 1655.616)"><g transform="translate(0 0)" opacity="0.4"><path d="M484.384,1798l-16.278-9.4v1.259l16.278,9.4Z" transform="translate(-465.05 -1787.196)" fill="#fff"/><path d="M484.384,1804.361l-16.278-9.4v1.26l16.278,9.4Z" transform="translate(-465.05 -1790.538)" fill="#fff"/><path d="M477.383,1806.676l-9.278-5.356v1.26l9.278,5.356Z" transform="translate(-465.05 -1793.88)" fill="#fff"/><path d="M463.166,1787.037c0,.48-.336.674-.752.434a1.661,1.661,0,0,1-.752-1.3c0-.48.336-.675.752-.435A1.663,1.663,0,0,1,463.166,1787.037Z" transform="translate(-461.662 -1785.631)" fill="#fff"/></g><g transform="translate(0 14.055)" opacity="0.4"><path d="M484.384,1827.643l-16.278-9.4v1.259l16.278,9.4Z" transform="translate(-465.05 -1816.834)" fill="#fff"/><path d="M484.384,1834l-16.278-9.4v1.259l16.278,9.4Z" transform="translate(-465.05 -1820.176)" fill="#fff"/><path d="M477.383,1836.313l-9.278-5.356v1.259l9.278,5.356Z" transform="translate(-465.05 -1823.518)" fill="#fff"/><path d="M463.166,1816.675c0,.48-.336.674-.752.434a1.662,1.662,0,0,1-.752-1.3c0-.48.336-.675.752-.435A1.662,1.662,0,0,1,463.166,1816.675Z" transform="translate(-461.662 -1815.269)" fill="#fff"/></g><g transform="translate(0 28.11)" opacity="0.4"><path d="M484.384,1857.281l-16.278-9.4v1.26l16.278,9.4Z" transform="translate(-465.05 -1846.472)" fill="#fff"/><path d="M484.384,1863.637l-16.278-9.4v1.259l16.278,9.4Z" transform="translate(-465.05 -1849.814)" fill="#fff"/><path d="M477.383,1865.952l-9.278-5.356v1.259l9.278,5.356Z" transform="translate(-465.05 -1853.156)" fill="#fff"/><path d="M463.166,1846.313c0,.48-.336.674-.752.434a1.662,1.662,0,0,1-.752-1.3c0-.48.336-.674.752-.434A1.662,1.662,0,0,1,463.166,1846.313Z" transform="translate(-461.662 -1844.907)" fill="#fff"/></g></g><g transform="translate(203.086 1643.436)"><g transform="translate(7.792 17.58)"><path d="M328.112,1798.324s2.983-2.2,4.011-.893-.266,8.305-1,11.453-4.841-2.553-4.841-2.553Z" transform="translate(-326.285 -1797.019)" fill="#005d8b"/><path d="M327.2,1809.291l-.525.837-.389,1.707a20.551,20.551,0,0,0,1.559,1.874l1.223.445.863-6.667A4.577,4.577,0,0,1,327.2,1809.291Z" transform="translate(-326.285 -1802.522)" fill="#004472"/></g><path d="M317.877,1775.794s1.506.147-1.669-.169a6.808,6.808,0,0,0-1.452-.01c-.157.369-.1.712.643.712a16.657,16.657,0,0,1,2.787.293Z" transform="translate(-312.394 -1768.167)" fill="#f80"/><g transform="translate(1.703 36.388)"><path d="M317.227,1844.607c-.774-.477-.551-1.6-.627-2.429a13.805,13.805,0,0,0-.875-3.507c-.436-.967-1.15-.8-1.15-.8l-.87.5c-.258.095-.427.607.009,2.747l.333.085a17.858,17.858,0,0,0-.112,1.922c.077.539.823.911,1.941,1.571a17.843,17.843,0,0,0,2.168,1.081l.268-.449S318,1845.085,317.227,1844.607Z" transform="translate(-313.445 -1837.299)" fill="#414e52"/><path d="M313.713,1841.65l2,.506a11.142,11.142,0,0,0-.565-2.209,1.479,1.479,0,0,0-1.23-1.054C313.58,1838.841,313.161,1838.939,313.713,1841.65Z" transform="translate(-313.445 -1837.838)" fill="#2e383b"/><path d="M319.791,1843.521c-.312-.711-1.087-.695-1.1-.975,0,0,.082-2.25.05-3.147s-.381-2.376-.8-2.623a1.916,1.916,0,0,0-1.9.463c.212-.005.715.068,1.05.814a13.812,13.812,0,0,1,.875,3.507c.076.828-.147,1.952.627,2.429s1.086.714,1.086.714A2.223,2.223,0,0,0,319.791,1843.521Z" transform="translate(-314.808 -1836.679)" fill="#663817"/><path d="M316.832,1846.373a2.872,2.872,0,0,0-.194-1.138l-.4.082-1.667-.42a17.853,17.853,0,0,0-.112,1.922c.077.539.823.911,1.942,1.571a17.842,17.842,0,0,0,2.168,1.081C316.142,1847.982,316.774,1846.87,316.832,1846.373Z" transform="translate(-313.97 -1841)" fill="#2e383b"/></g><g transform="translate(6.739 30.397)"><path d="M324.066,1829.052a4.29,4.29,0,0,0,.063.976,1.78,1.78,0,0,0,1.19.33,5.482,5.482,0,0,0,2.184-1.063l.045-.333s.483-.223.866-.357a4.427,4.427,0,0,0,1.656-1.136c.206-.384.34-.511.26-.914a2.269,2.269,0,0,1-.823,1.146,16.48,16.48,0,0,1-2.3,1.074,5.725,5.725,0,0,1-1.559.688A1.88,1.88,0,0,1,324.066,1829.052Z" transform="translate(-324.064 -1825.365)" fill="#2e383b"/><path d="M328.695,1824.046c-1.047-.027-1.261.429-1.781.582a10.631,10.631,0,0,0-2.291,1.083,4.141,4.141,0,0,0-.555,2.022,1.88,1.88,0,0,0,1.584.412,5.722,5.722,0,0,0,1.559-.688,16.467,16.467,0,0,0,2.3-1.074,2.269,2.269,0,0,0,.823-1.146c0,.016.006.03.008.045.01-.029.016-.045.016-.045C330.38,1824.422,329.741,1824.073,328.695,1824.046Z" transform="translate(-324.066 -1824.044)" fill="#4d1f00"/></g><path d="M348.313,1767.625a3.633,3.633,0,0,0-.135-1.2c-.164-.3-.406-1.1-.237-1.283a3.322,3.322,0,0,0,.342-.508,20.718,20.718,0,0,1,1.036-1.925c.234-.276.586.006.795.145a4.9,4.9,0,0,1,1.145,1.179c.3.489.472.722.048,1.4a10.423,10.423,0,0,0-.871,2.038c-.021.114-.347,1.915-.347,1.915l-2.062-.373S348.24,1768.031,348.313,1767.625Z" transform="translate(-329.849 -1761.34)" fill="#ffcda8"/><path d="M325.319,1815.639a26.84,26.84,0,0,0-5.758-4.846l-.23-.21-7.862-3.548a.616.616,0,0,0-.026.276c-.758,1.829-2.363,6.735,1.862,7.52,1.141,1.5,3.226,1.674,4.777,2.079l2.128,1.376s-1.935.977-2.614,1.39-3.264,1.412-3.264,1.412a22.029,22.029,0,0,1,1.514,4.127,19.926,19.926,0,0,1,3.327-1.861c.957-.266,5.68-2.221,6.611-3.99S326.5,1816.93,325.319,1815.639Z" transform="translate(-310.196 -1784.705)" fill="#0b6a98"/><path d="M324.765,1828.245a9.571,9.571,0,0,1,3.743.871c.061-.672-1.108-1.443-3.744-2.448s-2.431-.4-4.589-.681a7.37,7.37,0,0,1-.762-.137,17.815,17.815,0,0,0,3.353.953l2.128,1.376-.129.066Z" transform="translate(-314.88 -1794.597)" fill="#005d8b"/><path d="M324.89,1832.445a10.81,10.81,0,0,0-3.711,2.122,4.348,4.348,0,0,1,.28,1.124,19.926,19.926,0,0,1,3.327-1.861c.957-.266,5.68-2.221,6.611-3.99.708-1.347.754-2.053.215-2.882C331.816,1830.19,327.811,1831.52,324.89,1832.445Z" transform="translate(-315.809 -1795.18)" fill="#005d8b"/><path d="M313.574,1807.684v-.325l-1.034-.672-.284-.251-.7-.266s-.339,1.032-.7,2.385c-.6,2.2-.787,5.221,2.449,5.822a3.482,3.482,0,0,1-.238-.354,5.043,5.043,0,0,1-.294-3.115Z" transform="translate(-310.196 -1784.25)" fill="#005d8b"/><g transform="translate(4.277 0)"><path d="M325.271,1761.257a3.325,3.325,0,0,1,1.214,2.2c.12.791-.064.979-.064.979s.513.509.443.659a2.608,2.608,0,0,1-.574.481,2.82,2.82,0,0,1,0,.741,3.793,3.793,0,0,0-.257.99c.027.263-.055.716-.328.831s-1.427-.049-1.561.293a16.351,16.351,0,0,0-.25,2.142,3.754,3.754,0,0,1-3.373.183,1.98,1.98,0,0,1-.824-2.5,2.272,2.272,0,0,0,.362-1.456c-.172-.612-1.032-1.749-.757-3.25a3.156,3.156,0,0,1,2.587-2.678A3.875,3.875,0,0,1,325.271,1761.257Z" transform="translate(-319.07 -1760.322)" fill="#ffcda8"/><path d="M326.542,1773.989c.065-.168.38-.214.715-.231-.52-.163-1.162-.441-1.181-.818-.031-.636-.15-1.708-.15-1.708l-1.166.445a22.933,22.933,0,0,1-.95,4.95,4.284,4.284,0,0,0,2.483-.5A16.354,16.354,0,0,1,326.542,1773.989Z" transform="translate(-321.469 -1765.881)" fill="#d9a782"/><path d="M328.17,1772.431c0-.406-.121-.642-.511-.521a.863.863,0,0,0-.324,1.247C327.645,1773.624,328.179,1774.048,328.17,1772.431Z" transform="translate(-323.248 -1766.22)" fill="#ffcda8"/><path d="M323.724,1759.951c-1.868-.051-4.149.52-4.682,2.643s.358,2.755.358,2.755h0c.185.448.388.81.462,1.075a1.1,1.1,0,0,1,.022.431,3.062,3.062,0,0,0,1.186.363c.714.006.728.177,1.153-.494s.86-1.367,1.406-1.258.909.27,1,.016a1.155,1.155,0,0,0,.094-.572c-.008-.268.433-.556.583-.969s-.334-.875.08-1.246a3.6,3.6,0,0,0,.63-.572.631.631,0,0,0,.28-.5A2.483,2.483,0,0,0,323.724,1759.951Z" transform="translate(-318.873 -1759.948)" fill="#563317"/><path d="M324.213,1769.5c.546.108.909.27,1,.016a1.155,1.155,0,0,0,.094-.572c-.008-.268.433-.556.583-.969a.666.666,0,0,0,.009-.357c-.543.769-3.518,1.959-4.489,2.009a3.989,3.989,0,0,1-1.425-.243c.185.448.388.81.462,1.074a1.1,1.1,0,0,1,.022.431,3.064,3.064,0,0,0,1.186.363c.714.006.728.177,1.153-.494S323.667,1769.387,324.213,1769.5Z" transform="translate(-319.457 -1763.978)" fill="#563317" opacity="0.3" style="mix-blend-mode:multiply;isolation:isolate"/></g><path d="M347.672,1766.509a2.376,2.376,0,0,1-.1-.985c.048-.616-.117-.871-.007-.968s.422-.295.561.477.291,1.553.291,1.553Z" transform="translate(-329.661 -1762.32)" fill="#ffcda8"/><path d="M314.673,1776.752s1.215,1.618,4.555,1.889c0,0,1.438,1.333,1.931,1.729s.2,3.792-.4,5.334a56.248,56.248,0,0,0-1.4,6.75c-.229,1.1-.371,2.017-.371,2.017a7.611,7.611,0,0,1-3.65.9c-1.751-.145-5.459-1.9-5.313-2.563a27.62,27.62,0,0,0,.813-4.439c0-1.228-1.17-6.3-.959-8.539s-.353-3.479,2.126-3.438S314.673,1776.752,314.673,1776.752Z" transform="translate(-309.854 -1768.593)" fill="#fa0"/><path d="M326.483,1789.438l-.583.853s.431.767.292,4.06c-.108,2.562-1.065,5.457-1.294,7.3a8.865,8.865,0,0,0,2-.748s.141-.913.371-2.017a56.246,56.246,0,0,1,1.4-6.75,12.65,12.65,0,0,0,.639-3.514Z" transform="translate(-317.764 -1775.022)" fill="#f80"/><path d="M337.128,1772.784l-1.471,6.273a1.629,1.629,0,0,1-1.367.157c-.807-.246-4.7-1.507-5.354-1.269s-3.245,3.5-1.762,4.307,9.627.8,10.613.191,1.524-9.614,1.524-9.614Z" transform="translate(-318.723 -1766.697)" fill="#fa0"/><path d="M311.613,1778l-1.172-1.245a2.049,2.049,0,0,1,2.084-1.106c1.686,0,1.36,1.825,1.36,1.825Z" transform="translate(-310.163 -1768.204)" fill="#fa0"/></g><g transform="translate(244.131 1569.615)"><g transform="translate(0 0)"><path d="M476.049,1635.208l-26.1,15.071-53.541-30.926,26.1-15.071Z" transform="translate(-396.405 -1604.282)" fill="#6c87ff"/><path d="M535.409,1709.239l-26.1,15.071v-39.744l26.1-15.071Z" transform="translate(-455.766 -1638.57)" fill="#2c47d8"/><path d="M449.946,1666.988v39.744L396.405,1675.8v-39.743Z" transform="translate(-396.405 -1620.991)" fill="#4560f1"/></g><g transform="translate(19.494 40.94)"><path d="M437.513,1690.611v12.1l13.187,7.613v-12.1Zm12.647,7.926v6.636l-2.173-3.13-3.038.458-3.864-6.653-3.031,1.171v-5.47Z" transform="translate(-437.513 -1690.611)" fill="#fff"/><path d="M452.117,1706.258c.675.389,1.222.074,1.222-.705a2.7,2.7,0,0,0-1.222-2.116c-.674-.39-1.222-.074-1.222.706A2.7,2.7,0,0,0,452.117,1706.258Z" transform="translate(-444.549 -1697.267)" fill="#fff"/></g></g><path d="M295.276,1970.2c3.714,2.143,3.714,5.619,0,7.762a14.86,14.86,0,0,1-13.444,0c-3.713-2.143-3.713-5.619,0-7.762A14.854,14.854,0,0,1,295.276,1970.2Z" transform="translate(-90.571 -226.213)" fill="#002585" opacity="0.3" style="mix-blend-mode:multiply;isolation:isolate"/><path d="M149.9,1819.013H132.886l-26.1,15.071,26.1,15.071H149.9l26.1-15.071Z" transform="translate(0 -147.567)" fill="#002585" opacity="0.3" style="mix-blend-mode:multiply;isolation:isolate"/><g transform="translate(132.394 1645.46)"><g transform="translate(0)"><path d="M212.993,1779.286l-26.1,15.071-26.1-15.071,26.1-15.071Z" transform="translate(-160.788 -1764.215)" fill="#d83c9f"/><path d="M241.933,1826.137l-26.1,15.071v-30.142l26.1-15.071Z" transform="translate(-189.728 -1780.924)" fill="#8b0052"/><path d="M186.891,1811.066v30.142l-26.1-15.071v-30.142Z" transform="translate(-160.788 -1780.924)" fill="#b11678"/></g></g><path d="M505.16,1713.849s-.274-.684-.151-.723a5.851,5.851,0,0,1,1.148-.34,1.077,1.077,0,0,1,.717.133,5.681,5.681,0,0,1,.747,1.083c.073.153-.673.6-.673.6Z" transform="translate(-209.359 -91.714)" fill="#d9a782"/><path d="M504.7,1714.7a1.333,1.333,0,0,0,.332,1.416,7.508,7.508,0,0,0,1.454.965,11.735,11.735,0,0,0,1.7,1.115,2.5,2.5,0,0,1,.877-1.732l-1.056-.341s-.1-.845-.108-.943-.147-1-.337-1.126a.691.691,0,0,0-.721.145,1.173,1.173,0,0,1-.911.227c-.386-.057-.509-.15-.641-.424s-.335-.639-.571-.446S504.7,1714.7,504.7,1714.7Z" transform="translate(-209.166 -92.089)" fill="#ffcda8"/><path d="M508.631,1714.084a2.429,2.429,0,0,1-.316-.33c-.123-.165-.383-.679-.162-.856s.423.251.6.359.629.346.7.508-.257.543-.257.543Z" transform="translate(-210.983 -91.752)" fill="#ffcda8"/><path d="M549.079,1820.777l-20.837-14.467-.551-67.621.093-.054v-.89l-.1.058-.132-16.2a.725.725,0,0,0-.726-.72h-.007a.726.726,0,0,0-.719.732l.139,17.023-7.442,4.312-.253-16.9a.726.726,0,0,0-.726-.715h-.011a.727.727,0,0,0-.715.737l1.285,85.671a.726.726,0,0,0,.314.587l20.4,14.01a.726.726,0,0,0,.822-1.2l-20.091-13.8-.009-.57,6.984-4.047a.723.723,0,0,0,.307.553l21.145,14.682a.726.726,0,0,0,1.01-.182A.726.726,0,0,0,549.079,1820.777Zm-22.833-81.251.1,12.557L519,1756.342l-.188-12.507ZM519.4,1783.12l-.187-12.507,7.253-4.2.1,12.557Zm7.176-3.267.1,12.557-7.077,4.1L519.412,1784Zm-7.377-10.122-.187-12.507,7.344-4.255.1,12.557Zm.414,27.661,7.072-4.1.1,12.557L519.8,1809.9Z" transform="translate(-215.728 -95.974)" fill="#002585" opacity="0.3" style="mix-blend-mode:multiply;isolation:isolate"/><g transform="translate(298.181 1615.335)"><path d="M549.22,1821.373l-21.685-99.916a.726.726,0,0,0-1.418.308l1.355,6.246-7.547,4.341-1.4-6.441a.726.726,0,1,0-1.418.308l21.685,99.916a.726.726,0,1,0,1.419-.308l-1.619-7.461,7.547-4.342,1.662,7.656a.726.726,0,1,0,1.418-.308Zm-15.9-27.3,7.547-4.342,2.42,11.153-7.547,4.342Zm-2.636-12.146,7.547-4.342,2.42,11.153-7.547,4.342Zm-2.636-12.146,7.547-4.342,2.421,11.153-7.547,4.342Zm-2.636-12.146,7.547-4.342,2.42,11.153-7.547,4.342Zm-2.636-12.146,7.547-4.343,2.421,11.154-7.547,4.342ZM527.688,1729l2.42,11.153-7.547,4.342-2.421-11.154Zm10.69,88.37-2.421-11.153,7.547-4.343,2.421,11.153Z" transform="translate(-513.91 -1711.309)" fill="#2a71c4"/><path d="M532,1711.48a.882.882,0,0,0-.03-.47,4.756,4.756,0,0,0-.959-1,8.686,8.686,0,0,0-1.36-.386c-.216-.023-.408-.03-.539.2a3.987,3.987,0,0,0-.379.778,4.706,4.706,0,0,1-.092.77c-.108.316-.292.609-.108.917s.421.553.507.534.325-.049.325-.049a3.948,3.948,0,0,0,2.011,1.055c.894,0,.641-1.765.641-1.765Z" transform="translate(-519.884 -1705.382)" fill="#ffcda8"/><path d="M532.018,1712.842l0-.107-.191-.132-.648-.393a.812.812,0,0,0-.169-.3,2.45,2.45,0,0,0-.5-.479c-.092-.044-.7-.33-.77-.337s-.124-.023-.247.17-.02.3-.4.36a1.766,1.766,0,0,1-.379.026,1.5,1.5,0,0,1-.068.5c-.108.316-.292.609-.108.917s.421.553.507.534.325-.049.325-.049a3.948,3.948,0,0,0,2.011,1.055C532.271,1714.607,532.018,1712.842,532.018,1712.842Z" transform="translate(-519.884 -1706.159)" fill="#d9a782"/><path d="M529.692,1712.44c.026-.2.509-.308.9-.146a4.962,4.962,0,0,0,1.109.4,7.551,7.551,0,0,0,.917-.316,9.756,9.756,0,0,0,.909,1.368c.239.2.9.682.9.682a5.07,5.07,0,0,1-.9,1.74l-1.032-.824-.47-.146s-.116-.932-.13-1.094a1.7,1.7,0,0,0-.694-.732C530.971,1713.28,529.638,1712.864,529.692,1712.44Z" transform="translate(-520.534 -1706.75)" fill="#ffcda8"/><path d="M534.019,1715.56a.832.832,0,0,0-.421-.37,1.255,1.255,0,0,1,.352.478c.015.162.13,1.094.13,1.094l.47.146,1.032.824a1.8,1.8,0,0,0,.387-.516,5.082,5.082,0,0,0-.988-.709A2.106,2.106,0,0,1,534.019,1715.56Z" transform="translate(-522.588 -1708.315)" fill="#d9a782"/><path d="M535.921,1716.109c-.04.279-.3.744-.06,1.078s3.984,3.7,3.984,3.7l2.157-2.5s-4.362-2.679-5.136-3S535.921,1716.109,535.921,1716.109Z" transform="translate(-523.724 -1708.382)" fill="#4d9b12"/><g transform="translate(13.919)"><path d="M541.6,1701.966a3.375,3.375,0,0,0-1.372,2.146c-.174.792,0,1,0,1s-.552.481-.491.637.55.525.55.525a2.8,2.8,0,0,0-.046.751,3.859,3.859,0,0,1,.194,1.019c-.044.264.009.728.278.863s1.447.044,1.561.4a16.684,16.684,0,0,1,.113,2.186,3.807,3.807,0,0,0,3.4.406,2.008,2.008,0,0,0,1-2.479,2.3,2.3,0,0,1-.272-1.5c.213-.609,1.159-1.7.979-3.241a3.2,3.2,0,0,0-2.444-2.879A3.928,3.928,0,0,0,541.6,1701.966Z" transform="translate(-539.733 -1701.108)" fill="#ffcda8"/><path d="M544.306,1714.922c-.055-.175-.371-.242-.709-.281.538-.132,1.206-.37,1.249-.751.074-.642.264-1.719.264-1.719l1.152.527a23.275,23.275,0,0,0,.637,5.073,4.339,4.339,0,0,1-2.48-.664A16.672,16.672,0,0,0,544.306,1714.922Z" transform="translate(-541.765 -1706.727)" fill="#d9a782"/><path d="M545.659,1713.344c.028-.411.164-.642.551-.494a.874.874,0,0,1,.247,1.284C546.112,1714.586,545.545,1714.981,545.659,1713.344Z" transform="translate(-542.841 -1707.061)" fill="#ffcda8"/><path d="M543.678,1700.695c1.895.071,4.167.8,4.565,2.983s-.542,2.766-.542,2.766h0c-.216.441-.445.795-.537,1.058a1.1,1.1,0,0,0-.05.435,3.1,3.1,0,0,1-1.224.29c-.725-.041-.75.131-1.136-.576s-.781-1.439-1.341-1.365-.938.213-1.011-.05a1.169,1.169,0,0,1-.059-.584c.026-.272-.4-.592-.525-1.02s.395-.864,0-1.267a3.633,3.633,0,0,1-.6-.621.639.639,0,0,1-.252-.521A2.521,2.521,0,0,1,543.678,1700.695Z" transform="translate(-540.38 -1700.692)" fill="#563317"/><path d="M544.336,1710.25c-.559.073-.937.214-1.011-.05a1.167,1.167,0,0,1-.059-.584c.026-.272-.4-.592-.525-1.02a.673.673,0,0,1,.014-.362c.5.814,3.434,2.213,4.413,2.328a4.035,4.035,0,0,0,1.458-.153c-.216.441-.445.795-.537,1.058a1.1,1.1,0,0,0-.05.435,3.1,3.1,0,0,1-1.224.289c-.725-.041-.75.131-1.136-.576S544.9,1710.175,544.336,1710.25Z" transform="translate(-541.304 -1704.657)" fill="#563317" opacity="0.3" style="mix-blend-mode:multiply;isolation:isolate"/></g><path d="M541.182,1767.45l.094.342-.941-.145.535-.246Z" transform="translate(-526.131 -1735.766)" fill="#d5e6ef"/><path d="M543.234,1769.517a.468.468,0,0,0,.211.365c.117.067.211.012.211-.122a.466.466,0,0,0-.211-.365C543.329,1769.326,543.234,1769.381,543.234,1769.517Z" transform="translate(-527.654 -1736.798)" fill="#004ecd"/><g transform="translate(7.413 22.955)"><path d="M527.311,1760.011a1.464,1.464,0,0,0-.065,1.4c.4.655,4.558,6.9,4.906,7.978s.921,3.009.921,3.009a1.527,1.527,0,0,0,1.293,1.056c1,.064-1.714-12.053-1.714-12.053Z" transform="translate(-526.576 -1754.835)" fill="#b2a795"/><path d="M533.257,1761.531c.054.242.375,1.692.739,3.506-.345.108-.738-.044-1.161-.687a9.622,9.622,0,0,0-4.023-3.235l-.593-.934,4.953,1.293Z" transform="translate(-527.172 -1754.925)" fill="#998e7c"/><path d="M532.233,1751.021s-5.112.805-5.9,2.778.06,2.556.411,2.88,5.762.44,5.762.44Z" transform="translate(-526.012 -1750.108)" fill="#cbc0ae"/><path d="M526.029,1757.016a2.762,2.762,0,0,0,2.594.609,4.612,4.612,0,0,0,2.878-2.675s.407.613.877,1.338l.131,2.9s-5.409-.116-5.762-.44A1.773,1.773,0,0,1,526.029,1757.016Z" transform="translate(-526.013 -1752.175)" fill="#b2a795"/><path d="M546.115,1814.465a9.1,9.1,0,0,1,.641,1.3,5,5,0,0,1,.246,2.8,2.06,2.06,0,0,1-1.326.316,11.134,11.134,0,0,1-1.981-.381v-.352a13.943,13.943,0,0,0-1.74.144,4.56,4.56,0,0,1-2.76-.523,1.652,1.652,0,0,1-.654-1.583c.13-.484.941-.89,1.6-.955s1.91-.363,2.486-.45.589-.741.575-.924A16.771,16.771,0,0,1,546.115,1814.465Z" transform="translate(-532.581 -1783.135)" fill="#663817"/><path d="M538.506,1819.4a4.5,4.5,0,0,0,.57.959c.542.7,2.681.7,3.695.5s2.167.252,3.187.274a1.7,1.7,0,0,0,1.136-.417,4.422,4.422,0,0,1-.092.782,2.06,2.06,0,0,1-1.326.316,11.133,11.133,0,0,1-1.981-.381v-.352a13.944,13.944,0,0,0-1.741.144,4.561,4.561,0,0,1-2.759-.523A1.8,1.8,0,0,1,538.506,1819.4Z" transform="translate(-532.581 -1786.062)" fill="#414e52"/><path d="M537.914,1789.016a1.2,1.2,0,0,0-1.034-.249,2.789,2.789,0,0,1-1.836-.33,1.464,1.464,0,0,1-.715-1.031,1.238,1.238,0,0,1,.594-1.086,21.867,21.867,0,0,1,3.41-.408s1.494.279,1.651.344a28.379,28.379,0,0,1,.167,3.619,1.7,1.7,0,0,1-1.122.253,1.621,1.621,0,0,1-1.011-.782Z" transform="translate(-530.384 -1768.453)" fill="#663817"/><path d="M536.879,1790.211a2.787,2.787,0,0,1-1.836-.33,1.464,1.464,0,0,1-.715-1.03,1.9,1.9,0,0,1,.017-.193,2.146,2.146,0,0,0,1.083,1.147,4.345,4.345,0,0,0,2.041.137c.324-.023.981.818,1.711.91a1.451,1.451,0,0,0,.965-.268c0,.432.006.735.006.735a1.7,1.7,0,0,1-1.122.253,1.621,1.621,0,0,1-1.011-.782l-.1-.33A1.2,1.2,0,0,0,536.879,1790.211Z" transform="translate(-530.384 -1769.897)" fill="#414e52"/><path d="M549.449,1752.182l.424-1.68,2.461-1.406a11.581,11.581,0,0,1,1.591,5.112,4.055,4.055,0,0,1-3.8,4.078C548.452,1758.43,549.449,1752.182,549.449,1752.182Z" transform="translate(-538.18 -1749.096)" fill="#b2a795"/><path d="M543.295,1752.06a9.4,9.4,0,0,1-3.967,1.374,6.978,6.978,0,0,1-2.506-.443v3.213c0,1.875-.589,4.075.369,7.834s2.435,6.289,2.859,8.014.933,5,1.188,6.395a15.475,15.475,0,0,1-.186,3.97s-.174.651.769,1.182,4.153.286,4.153.286a11.069,11.069,0,0,1-.6-3.29,51.818,51.818,0,0,0-.491-6.647c-.339-1.528-1.209-3.437-1.209-4.879s.127-6.343-.255-7.913a6.039,6.039,0,0,0,1.167-3.217C544.78,1755.852,543.295,1752.06,543.295,1752.06Z" transform="translate(-531.601 -1750.654)" fill="#cbc0ae"/></g><path d="M540.037,1756.025a6.239,6.239,0,0,1,.258-1.657l-.563-.095A12.85,12.85,0,0,0,540.037,1756.025Z" transform="translate(-525.813 -1728.864)" fill="#005d8b"/><path d="M540.368,1721.525a12.836,12.836,0,0,0-1.608.9,15.39,15.39,0,0,0-1.579,3.732,45.918,45.918,0,0,1,0,5.123c-.24,1.548-.21,4.34-.327,4.541a2.806,2.806,0,0,0,1.628,2.99c1.763.693,4.87.1,6.33-.591s2.52-1.836,2.372-2.585-1.383-3.712-.766-4.971,2.759-6.289,2.762-8.466-1.012-3.764-3.554-3.291A14.7,14.7,0,0,0,540.368,1721.525Z" transform="translate(-524.276 -1710.224)" fill="#73c138"/><path d="M540.7,1729.085l-.826-1.484c-.371.185-.922-1.384-1.114-1.2a15.388,15.388,0,0,0-1.579,3.732,45.916,45.916,0,0,1,0,5.123c-.24,1.548-.21,4.339-.327,4.541a2.806,2.806,0,0,0,1.628,2.989,5.519,5.519,0,0,0,1.973.309c-.573-1.638-2-4.167-1.973-5.352a18.126,18.126,0,0,1,1.8-6.381C541.242,1729.465,540.7,1729.085,540.7,1729.085Z" transform="translate(-524.276 -1714.202)" fill="#4d9b12"/><path d="M525.846,1722.164c-.553-.413-3.524.344-4,.724a21.889,21.889,0,0,0-3.875-.147s-6.037-3.708-6.68-3.786-.692.615-.692.615-.495.911,0,1.2c.761.445,4.812,3.871,5.319,4.259a23.417,23.417,0,0,0,7.715,1.909c2.61.007,3.477-.479,3.786-1.585S526.631,1722.748,525.846,1722.164Z" transform="translate(-510.382 -1710.291)" fill="#73c138"/><g transform="translate(15.592 8.045)"><path d="M548.463,1717.657s-.921.4-2.524,1.189a6.582,6.582,0,0,0-2.365,1.88l-.313.631a38.1,38.1,0,0,0,4.355-1.673c1.353-.712,1.4-1.393,1.4-1.393Z" transform="translate(-543.261 -1717.657)" fill="#8ddb52"/></g></g><g transform="translate(147.245 1607.018)"><path d="M206.04,1692.047s-2.315-.694-2.721-2.4a4.1,4.1,0,0,1,.879-4.039c.93-.9,1.858-1.927,3.092-1.859a4.588,4.588,0,0,1,2.734,1.247s.739-.13.828.089a3.246,3.246,0,0,1,0,.941,7.194,7.194,0,0,0,.366.691,3.514,3.514,0,0,1,.439,1.388,3.284,3.284,0,0,1-.422,1.479,1.742,1.742,0,0,0-.455.723,14.632,14.632,0,0,0,.13,3.857c.341.787.268,1.811-1.575,1.713s-3.882-1.275-3.874-1.932A6.773,6.773,0,0,1,206.04,1692.047Z" transform="translate(-197.913 -1683.465)" fill="#ffcda8"/><path d="M215.315,1700.183a14.633,14.633,0,0,1-.13-3.857,1.648,1.648,0,0,1,.421-.683c-.614.366-.924.191-.924.191s.13.719-.316.906-.817-.208-.718-1.049-.972-.355-.972-.355l-.722,1.161s.388,3.442-.422,4.846a6.546,6.546,0,0,0,2.208.553C215.583,1701.994,215.656,1700.97,215.315,1700.183Z" transform="translate(-202.318 -1689.485)" fill="#d9a782"/><path d="M225.069,1727.881a3.038,3.038,0,0,0,.316-1.873c-.131-1.182-1.461-8.763-1.461-8.763l-2.079,10.9Z" transform="translate(-207.74 -1701.078)" fill="#eef5f9"/><path d="M196.083,1712.451A41.712,41.712,0,0,0,199,1708.1c.437-1.036,1.963-4.151.309-4.652,0,0-2.07-.4-3.033.909s-1.569,2.2-1.569,2.2a34.134,34.134,0,0,0-1.89,3.574s-1.164,3.83-.518,4.391,7.135,3.069,7.135,3.069l.447-2.538Z" transform="translate(-192.104 -1693.793)" fill="#1c354e"/><g transform="translate(6.214 48.726)"><path d="M205.248,1788.655s-.176,1.479.209,1.752a1.547,1.547,0,0,0,1.623,0c.451-.337.885-1.382,1.577-1.576s2.39-1.029,2.525-2.011-1.674-1.094-2.75-.724A13.9,13.9,0,0,0,205.248,1788.655Z" transform="translate(-205.208 -1785.902)" fill="#001135"/><path d="M211.132,1786.811a.007.007,0,0,1,0,0,.607.607,0,0,1,.134.489c-.135.982-1.833,1.819-2.525,2.011s-1.126,1.239-1.577,1.576a1.547,1.547,0,0,1-1.623,0,.549.549,0,0,1-.176-.31v.046c-.007.311.031.593.176.7a1.556,1.556,0,0,0,1.623,0,9.538,9.538,0,0,0,.894-1.083v-.181a1.864,1.864,0,0,1,.683-.448c.678-.235,2.544-1.183,2.678-2.164A1.09,1.09,0,0,0,211.132,1786.811Z" transform="translate(-205.288 -1786.378)" fill="#001135"/></g><g transform="translate(13.209 53.971)"><path d="M228.676,1797.576c-.26-.48-.766-.488-2.327-.5-1.545-.008-2.183.259-2.734-.117l-3.482,1s-.334,1.811-.079,2.2a2.268,2.268,0,0,0,2.263.394,14.053,14.053,0,0,1,3.186-.256C226.467,1800.306,229.68,1799.432,228.676,1797.576Z" transform="translate(-219.957 -1796.962)" fill="#001135"/><path d="M228.894,1798.717a.653.653,0,0,0-.124-.163c.77,1.76-2.3,2.589-3.241,2.589a14.054,14.054,0,0,0-3.186.256,2.268,2.268,0,0,1-2.263-.394.594.594,0,0,1-.069-.207,1.911,1.911,0,0,0,0,.24.988.988,0,0,0,.068.526,2.267,2.267,0,0,0,2.263.394c.278-.064.556-.112.831-.148v-.254a17.934,17.934,0,0,1,2.355-.108C226.493,1801.447,229.9,1800.575,228.894,1798.717Z" transform="translate(-219.984 -1797.799)" fill="#001135"/></g><path d="M206.142,1732.558l-.3.054a6.753,6.753,0,0,0-.886,2.5,34.01,34.01,0,0,0,.23,4.811c.083.063-.219,7.53-.24,7.927a30.242,30.242,0,0,0-.973,5.061c-.1,2.28.377,8.6.377,8.6s.272.713,1.526,0a10.863,10.863,0,0,0,2.647-2.827s.033-3.072.172-4.583c.128-1.386.771-4.4.771-4.4a77.03,77.03,0,0,0,2.08-10c.482-4.309-.045-4.831-.045-4.831Z" transform="translate(-198.333 -1709.129)" fill="#0f2841"/><path d="M222.045,1746.729c.019-2.357-.379-8.564-1.308-9.884l-7.066-1.121a14.23,14.23,0,0,0,.3,6.862,61.519,61.519,0,0,1,2.328,9.9c0,.7-1.1,4.209-.876,5.837s.876,8.641.876,8.641a6.668,6.668,0,0,0,5.21-1.778,34.665,34.665,0,0,1-.8-7.441C220.884,1754.76,222.033,1748.287,222.045,1746.729Z" transform="translate(-203.29 -1710.794)" fill="#1c354e"/><path d="M227.886,1737.206c-.044-.386-.473-.473-1-.767s-.441-.725-.7-.995-.405-.11-.59.056a2.83,2.83,0,0,0-.343.939,5.865,5.865,0,0,0-.552,1.879,2.517,2.517,0,0,0,.872,1.534c.344.295.638,0,.859-.16s.577-.331.664-.54,0-.491.306-.614.208-.479.191-.608S227.929,1737.593,227.886,1737.206Z" transform="translate(-209.241 -1710.57)" fill="#ffcda8"/><path d="M225.818,1741.649a1.824,1.824,0,0,0-1.108-.468,1.339,1.339,0,0,0-.01.23,2.518,2.518,0,0,0,.872,1.534c.344.295.638,0,.859-.16.073-.053.16-.107.25-.164A3.544,3.544,0,0,1,225.818,1741.649Z" transform="translate(-209.241 -1713.663)" fill="#d9a782"/><path d="M210.69,1705.109l-6.738-1.643c-3.652-.079-2.672,2.089-2.521,4.335s2.613,7.2,2.613,7.2a10,10,0,0,1-.579,3.311c-.6,1.518-1.919,7.061-1.919,7.061l3.118,1.528,1.36-5.193-.79,5.587c1.4.865,6.076,1.355,6.076,1.355a41.5,41.5,0,0,0,1.379-8.45s.11-2.164.3-3.745.669-7.964.669-7.964A26.469,26.469,0,0,0,210.69,1705.109Z" transform="translate(-196.886 -1693.832)" fill="#29425b"/><path d="M220.18,1712.5c-1.793-.77-2.681.451-3.267,1.037,0,0-1.711,2.94-1.851,8.608,0,0-.215,2.607.791,3.1s4.6,1.738,4.6,1.738a3.394,3.394,0,0,0,.091-2.83l-1.475-1.14a58.993,58.993,0,0,1,2.174-6.023C221.489,1716.419,221.972,1713.273,220.18,1712.5Z" transform="translate(-204.164 -1698.455)" fill="#425b74"/><path d="M208.5,1701.1l.322-.554s.863.24,2,.576a12.8,12.8,0,0,1,3.352,1.707A53.336,53.336,0,0,1,208.5,1701.1Z" transform="translate(-200.726 -1692.297)" fill="#eef5f9"/><path d="M213.385,1703.23s-2.861-.962-3.739-1.242c-1.009-.321-1.932-.679-1.932-.679l-.708.879s-.121,1.038,1.625,1.615a15.852,15.852,0,0,0,5.111.173Z" transform="translate(-199.938 -1692.699)" fill="#425b74"/><path d="M209.9,1688.622a1.484,1.484,0,0,0,.009-.6,4.647,4.647,0,0,1-.536-1.21c-.155-.618.227-.52-.155-.853s-.439-.244-.381-.373-.113-1.974-1.1-2.291a3.329,3.329,0,0,0-3.3.845,4.6,4.6,0,0,0-1.7,3.411c-.041,1.454.158,3.213,3.079,4.185a8.332,8.332,0,0,0,1.89-.214c.577-.2.748-.187.748-.642s.186-1.364.649-1.567A2.149,2.149,0,0,0,209.9,1688.622Z" transform="translate(-197.695 -1683.153)" fill="#563317"/></g><g transform="translate(212.293 1556.589)"><g transform="translate(22.955 53.289)"><path d="M379.265,1689.868a3.922,3.922,0,0,1-.217,1.643c-.313.86-1.4,2.815-1.373,3.624s.364,1.414,1.116,1.5a3.5,3.5,0,0,0,2.961-1.9c.6-1.408.091-1.792.4-2.391a4.842,4.842,0,0,0,.472-2.812C382.42,1688.591,379.265,1689.868,379.265,1689.868Z" transform="translate(-377.674 -1689.185)" fill="#001135"/><g transform="translate(0 1.694)"><path d="M381.752,1699.489a3.5,3.5,0,0,1-2.961,1.9c-.726-.081-1.066-.65-1.112-1.416,0,.044-.006.088,0,.127.027.808.364,1.414,1.116,1.5a3.5,3.5,0,0,0,2.961-1.9,3.236,3.236,0,0,0,.311-1.466A3.427,3.427,0,0,1,381.752,1699.489Z" transform="translate(-377.674 -1695.635)" fill="#000508"/><path d="M387,1694.219a1.094,1.094,0,0,0-.109.612,1,1,0,0,1,.014-.136l.057.269.475-1.508.028-.7A5.377,5.377,0,0,1,387,1694.219Z" transform="translate(-382.519 -1692.757)" fill="#000508"/></g></g><path d="M366.86,1685.464l-3.819-.171h-.084a2.328,2.328,0,0,1-1.143,1.21c-.8.325-2.9,1.177-3.5,1.978-.489.657.579,1.568,2.813,1.023,1.583-.386,1.757-1.194,3.616-1.228a4.407,4.407,0,0,0,2.522-.715Z" transform="translate(-344.482 -1633.849)" fill="#001135"/><path d="M364.747,1690.878c-1.859.034-2.032.842-3.616,1.228-1.733.423-2.763-.031-2.911-.562-.175.624.892,1.322,2.911.828,1.511-.368,1.739-1.12,3.372-1.217l.038.219s2.046,0,2.727-.58v-.365l-.094-.186A4.834,4.834,0,0,1,364.747,1690.878Z" transform="translate(-344.482 -1636.452)" fill="#000508"/><path d="M366,1657.04a25.187,25.187,0,0,0,.3-8.559c-.46-3.11-1.578-12.739-.239-19.068a6.1,6.1,0,0,0,2.98,2.193,4.226,4.226,0,0,1,2.635,2.559l-.371,5.938a15.535,15.535,0,0,0-.818,4.451,48,48,0,0,1,.464,4.973c.056,2.9-.041,7.854-.041,7.854A10.034,10.034,0,0,1,366,1657.04Z" transform="translate(-348.28 -1604.469)" fill="#0f2841"/><path d="M380.244,1651.946a43.986,43.986,0,0,1-.615-7.317c.134-1.959,1.044-10.437.065-12.723l-6.858,1.085s1.034,10.173,2.128,14.752S376.5,1661.4,376.5,1661.4a1.345,1.345,0,0,0,1.417,1.152c1.325.057,2.157-2.343,2.157-2.343A52.782,52.782,0,0,0,380.244,1651.946Z" transform="translate(-352.175 -1605.78)" fill="#1c354e"/><g transform="translate(0 8.401)"><path d="M335.244,1598.863c.118-.307-.287-1.143-.313-1.2a4.028,4.028,0,0,0-.55-1.242,9.825,9.825,0,0,0-.93-.948c-.2-.228-.679-.313-.831-.464s-.971-.678-1.3-.4.135.784.443.923a1.279,1.279,0,0,0,.423.139l.341.343a3.594,3.594,0,0,0-.825-.048s-.776-.546-1.016-.675-1.012-.642-1.215-.553a.28.28,0,0,0-.142.442,3.754,3.754,0,0,0,.231.69,3.474,3.474,0,0,0,.425.69,1.668,1.668,0,0,0,.307.266l.144.326a1.384,1.384,0,0,0,0,.454,1.7,1.7,0,0,0,.413.7,2.876,2.876,0,0,0,1.072.581c.439.11,1.251.273,1.569.327s.483.292.695.374S335.207,1598.96,335.244,1598.863Z" transform="translate(-329.27 -1594.529)" fill="#ffcda8"/><g transform="translate(0 0.201)"><path d="M331.2,1596.351a.606.606,0,0,0,.309.191l-.2.237s-.3-.27-.326-.309a.971.971,0,0,1-.065-.264.586.586,0,0,0-.259-.287.273.273,0,0,0-.339.064l-.22-.172a1.9,1.9,0,0,1-.147-.308c-.029-.1-.156-.143-.292-.2s-.332.1-.332.1a.28.28,0,0,1,.142-.442.139.139,0,0,1,.033-.007l.287.29a5.132,5.132,0,0,0,.649.493A3.276,3.276,0,0,1,331.2,1596.351Z" transform="translate(-329.27 -1594.952)" fill="#d9a782"/><path d="M332.128,1601.392a1.7,1.7,0,0,1-.413-.7,1.124,1.124,0,0,1-.017-.29c.168.044.363.351.4.463.047.134.125.232.395.4a6.8,6.8,0,0,0,1.679.565,8.844,8.844,0,0,1,1.514.191,1.447,1.447,0,0,1,.366.361c-.232.178-.486.334-.591.293-.211-.081-.377-.318-.695-.374s-1.13-.217-1.569-.327A2.876,2.876,0,0,1,332.128,1601.392Z" transform="translate(-330.545 -1597.818)" fill="#d9a782"/><path d="M331.887,1597.822c.046-.026.142.115.126.22a3.259,3.259,0,0,0,.3,1.072c.128.145.373.415.373.415l-.408-.158a3.612,3.612,0,0,0-.323-.423.838.838,0,0,0-.335-.129l-.051-.115C331.727,1598.535,331.845,1597.845,331.887,1597.822Z" transform="translate(-330.48 -1596.459)" fill="#d9a782"/><path d="M330.222,1596.872a1.878,1.878,0,0,1,.193.448,4.745,4.745,0,0,1,0,.549,1.5,1.5,0,0,1-.231-.212,3.479,3.479,0,0,1-.425-.69,2.608,2.608,0,0,1-.116-.288,1.126,1.126,0,0,1,.2-.061A1.389,1.389,0,0,1,330.222,1596.872Z" transform="translate(-329.467 -1595.829)" fill="#d9a782"/></g><path d="M334.129,1596.233c.254.011.553.059.553.059l-.341-.343a1.283,1.283,0,0,1-.423-.139c-.251-.113-.6-.471-.549-.749a.729.729,0,0,0,.191.3,1.749,1.749,0,0,0,.924.308c.156-.046,0,.034.088.139a.8.8,0,0,0,.493.293c.206.012-.17.57.012.907A11.357,11.357,0,0,0,334.129,1596.233Z" transform="translate(-331.422 -1594.809)" fill="#d9a782"/></g><path d="M340.429,1597.646a7.094,7.094,0,0,1-.958,1.906l.771.451s.254.375.441.441,1.617,1.011,2.027,1.289c.375.253,4.01,2.468,4.714,2.452s2.316-1.339,3.219-1.923,2.732-1.884,2.732-1.884l2.149-5.833a3.244,3.244,0,0,0-1.972.192,5.359,5.359,0,0,0-2.182,2.039,6.643,6.643,0,0,1-1.727,1.976c-.825.705-2.47,1.989-2.47,1.989s-2.061-1.167-3.063-1.56-2.061-1.061-2.292-1.105-.627-.11-.627-.11Z" transform="translate(-334.633 -1586.098)" fill="#dbe8f5"/><path d="M354.448,1598.222a4.173,4.173,0,0,0-1.342,1.425c-.646,1.043-.943,1.987-1.358,2.534a4.8,4.8,0,0,1-2.2,1.442,5.875,5.875,0,0,1-2.186-.166s.017,1.226-1.077,1.11-4.966-1.9-5.665-2.816l.463.1-.265-.348.183-.447-.555.555-.612-.612a2.937,2.937,0,0,1-.359.527l.771.452s.254.375.441.441,1.617,1.011,2.027,1.289c.375.253,4.01,2.468,4.714,2.452s2.316-1.339,3.219-1.923,2.732-1.884,2.732-1.884l1.449-3.934Z" transform="translate(-334.633 -1588.07)" fill="#c2cfdc"/><path d="M371.575,1594.848s-2.345,2.431-.061,3.254c1.405.507,4.115-2.85,4.115-2.85s3.549,2.788,4.19,4.066-2.143,5.7-2.143,5.7-1.633,3.139-1.581,4.311,1.048,2.4.355,2.954c0,0-1.708,2.3-6.178,1.409s-3.642-3.506-3.642-3.506.143-.69.22-1.253c.276-2.011.194-2.665.3-3.9s.281-2.269.281-2.269-.466-4.39.58-6.429,1.722-1.911,1.722-1.911Z" transform="translate(-348.881 -1586.073)" fill="#dbe8f5"/><path d="M389.088,1607.756l-1.586.25a1.139,1.139,0,0,0-1.519.457c-.6.95-.9,3.479-1.544,5.029-.536,1.294.927,4.735.265,6.665a3.637,3.637,0,0,0,1.078-.866c.692-.553-.3-1.781-.355-2.954s1.581-4.311,1.581-4.311A21.675,21.675,0,0,0,389.088,1607.756Z" transform="translate(-358.213 -1593.083)" fill="#c2cfdc"/><path d="M379.37,1590.519l-4.621,2.265s-1.175,1.7.4,2.569,4.423-2.321,4.161-2.755S379.37,1590.519,379.37,1590.519Z" transform="translate(-352.96 -1584.02)" fill="#d9a782"/><path d="M373.205,1601.359l-.584-1.249-1.225.724.269.893a37.287,37.287,0,0,0-1.956,7.87c-.271,2.6-.421,3.95-.421,3.95l.588,1.233,1.094-.774s0-8.382,1.316-12.068Z" transform="translate(-350.31 -1589.063)" fill="#b00052"/><path d="M380.33,1594.292s-2.022,2.577-4.014,2.759l.364,1.819a8.666,8.666,0,0,0,4.224-3.72Z" transform="translate(-354.006 -1586.004)" fill="#e8f5ff"/><path d="M373.26,1598.273l1.435-.9a11.648,11.648,0,0,1-.071-2.31l-.528-.16A5.91,5.91,0,0,0,373.26,1598.273Z" transform="translate(-352.385 -1586.324)" fill="#e8f5ff"/><g transform="translate(20.67)"><path d="M378.405,1578.683a3.438,3.438,0,0,0-3.658.08,3.4,3.4,0,0,0-1.533,2.02c-.106.4-.235.75-.338,1.055s.208.7.208.7c-.355.428-.107,1.465-.039,1.717a.565.565,0,0,0-.065.234.274.274,0,0,0,.19.261,5.7,5.7,0,0,1,.123.9.918.918,0,0,0,.918,1.112,5.9,5.9,0,0,0,3.283-1.2,6.457,6.457,0,0,0,2.147-3.515A3.225,3.225,0,0,0,378.405,1578.683Z" transform="translate(-372.856 -1577.54)" fill="#ffcda8"/><path d="M373.092,1588.718h0c.144-.326.487-.828.585-1.158.128-.427-.722-.875-.722-.875h0a1.345,1.345,0,0,0,.178.315C372.776,1587.429,373.024,1588.466,373.092,1588.718Z" transform="translate(-372.902 -1582.005)" fill="#d9a782"/><path d="M378.661,1577.505a3.823,3.823,0,0,0-4.248-.087,3.46,3.46,0,0,0-1.116,1.255,1.22,1.22,0,0,0,1.008,1.914,10.3,10.3,0,0,0,2.487-.181c.8.541.459,1.4.561,1.685s.214.662.394.77c.111.065.325-.113.38-.175.135-.149,1.076-1.193,1.106.121a5.983,5.983,0,0,0,.537-1.485,3.74,3.74,0,0,0,.077-.623h0A2.863,2.863,0,0,0,378.661,1577.505Z" transform="translate(-372.986 -1576.814)" fill="#563317"/><path d="M382.042,1586.4c.1.29.214.661.394.77.111.066.325-.113.38-.174.135-.149,1.076-1.193,1.106.121a5.981,5.981,0,0,0,.537-1.485,3.742,3.742,0,0,0,.077-.623,7.355,7.355,0,0,1-2.518.609C382.054,1585.951,381.988,1586.252,382.042,1586.4Z" transform="translate(-377.673 -1581.124)" fill="#634024"/><path d="M374.031,1593.89a4.8,4.8,0,0,0-.1-1.817c-.012-.053-.237,0-.408-.059h0a5.714,5.714,0,0,1,.123.9A1.032,1.032,0,0,0,374.031,1593.89Z" transform="translate(-373.205 -1584.806)" fill="#d9a782"/><path d="M383.519,1589.773c.117.078.391.194.939-.37s.55-1.105.287-1.291a.448.448,0,0,0-.662.124A14.131,14.131,0,0,0,383.519,1589.773Z" transform="translate(-378.462 -1582.704)" fill="#f2a983"/><path d="M383.519,1589.773c.117.078.391.194.939-.37s.55-1.105.287-1.291a.448.448,0,0,0-.662.124A14.131,14.131,0,0,0,383.519,1589.773Z" transform="translate(-378.462 -1582.704)" fill="#ffcda8"/></g><g transform="translate(37.07 8.916)"><path d="M407.44,1601.974l.942-1.292s-.457-1.051-.493-1.237a7.2,7.2,0,0,1,.649-1.367c.055-.132.343-.38.5-.242,0,0,.321-.693.55-1.173s.632-1.167.938-1.03.224.3.046.727-.625,1.491-.625,1.491l.2-.053a4.967,4.967,0,0,1,.567-.911.411.411,0,0,1,.523.111,1.248,1.248,0,0,1,.245.485s.316-.118.442.13a.807.807,0,0,1,.069.569,1.435,1.435,0,0,1-.253.411.789.789,0,0,0,.286-.083c.09-.061.446-.146.51.083s.038.434-.309.677a2.4,2.4,0,0,0-.807.985,3.426,3.426,0,0,1-1.045,1.033,3.7,3.7,0,0,0-.922,1.112c-.235.414-.4.752-.4.752Z" transform="translate(-407.44 -1595.616)" fill="#ffcda8"/><path d="M409.606,1601.019s-.24.338-.162.542.457.307.6.553a.642.642,0,0,0,.494.258.538.538,0,0,0,.782.259,1.879,1.879,0,0,0,.433-.542,1.353,1.353,0,0,0-.47-.588c-.248-.085-.351.191-.3-.26s.131-.834-.125-1.133a.631.631,0,0,1-.19-.54l.2-.052s.187-.365.356-.635c.074.031.194.1.185.211-.015.159-.16.58.065.744a.613.613,0,0,0,.348.156s-.254.427.046.531.594-.211.594-.211a1.073,1.073,0,0,0,.184-.037c-.119.139-.315.4-.283.567.046.234.17.4.3.384h0a2.162,2.162,0,0,0-.523.747,3.426,3.426,0,0,1-1.045,1.033,3.7,3.7,0,0,0-.922,1.112c-.235.414-.4.752-.4.752l-.369-.269a4.185,4.185,0,0,0,.18-1.772,5.927,5.927,0,0,0-.481-.429s-.159-.367-.3-.707c.089-.127.246-.355.37-.557a.23.23,0,0,0-.138-.38s.547-.177.564-.189a3.378,3.378,0,0,0,.384-.729,6.9,6.9,0,0,0-.24.765A2.01,2.01,0,0,1,409.606,1601.019Z" transform="translate(-408.155 -1597.332)" fill="#d9a782"/></g><path d="M397.883,1604.377s-.1,1,1.4,1.406l-.477,1.086a5.816,5.816,0,0,1-.3.718,55.513,55.513,0,0,1-3.294,5.039c-.466.4-2.079-.149-2.561-.565s-2.894-4.24-3.427-4.989-1.5-1.236-1.49-2.452c.005-.766.858-2.637,2.106-2.122a5.975,5.975,0,0,1,2.462,2.594c.482.765,2.161,3.409,2.161,3.409s1.924-2.677,2.123-2.827.529-.357.529-.357Z" transform="translate(-360.014 -1590.272)" fill="#dbe8f5"/><path d="M405.374,1610.465l.477-1.086a3.249,3.249,0,0,1-.385-.13l-.441.9a6.112,6.112,0,0,1-.575-.34l.413.412-.255.516.313-.313a20.882,20.882,0,0,1-1.385,2.365c-.446.577-1.835,3.14-3.307,3.367.607.2,1.283.3,1.558.062a55.518,55.518,0,0,0,3.294-5.039A5.831,5.831,0,0,0,405.374,1610.465Z" transform="translate(-366.577 -1593.867)" fill="#c2cfdc"/></g><g transform="translate(244.116 1538.347)"><path d="M448.579,1553.418l-26.1,15.071-26.1-15.071,26.1-15.071Z" transform="translate(-396.374 -1538.347)" fill="#ffc400"/><path d="M477.519,1600.269l-26.1,15.071V1585.2l26.1-15.071Z" transform="translate(-425.314 -1555.056)" fill="#f80"/><path d="M422.477,1585.2v30.141l-26.1-15.071v-30.142Z" transform="translate(-396.374 -1555.056)" fill="#fa0"/><g transform="translate(8.47 29.061)"><path d="M416.14,1600.727l-1.906-1.1v10.691l1.906,1.1Z" transform="translate(-414.234 -1599.627)" fill="#fff"/><path d="M421.241,1609.515l-1.906-1.1v7.92l1.906,1.1Z" transform="translate(-416.916 -1604.247)" fill="#fff"/><path d="M426.343,1614.67l-1.907-1.1v6.872l1.906,1.1Z" transform="translate(-419.598 -1606.958)" fill="#fff"/><path d="M431.444,1623.122l-1.906-1.1v4.26l1.906,1.1Z" transform="translate(-422.281 -1611.402)" fill="#fff"/></g></g><g transform="translate(224.637 1691.399)"><path d="M396.828,1961.637a15.7,15.7,0,0,0-14.205,0c-2.009,1.16-2.986,2.689-2.936,4.21l-1.305-.753-11.934,6.889,2.992,1.728c-4.386.315-9.319,2.338-12.119,5.179-3.5,3.551-2.34,7.035,2.591,7.781a19.9,19.9,0,0,0,15.268-5.082,6.523,6.523,0,0,0,1.976-3.424l1.225.708,11.932-6.89-.783-.452a14.617,14.617,0,0,0,7.3-1.693C400.75,1967.573,400.75,1963.9,396.828,1961.637Z" transform="translate(-355.3 -1913.06)" fill="#002585" opacity="0.3" style="mix-blend-mode:multiply;isolation:isolate"/><g transform="translate(6.093 15.836)"><path d="M373.4,1904.757c-.073-.233-.179-1.642.085-1.885s.921-.244,1.165-.773a8.313,8.313,0,0,0,.541-1.812c.01-.243-.265-.677-.074-1.059a2.746,2.746,0,0,0-.159-1.779,2.374,2.374,0,0,0-2.277-1.737c-1.62-.085-3.018.4-3.644,1.621a3.638,3.638,0,0,0-.254,3.1,13.613,13.613,0,0,1,.858,2.149,2.2,2.2,0,0,1-.742,1.568s-.063.677,1.462,1.249a5.946,5.946,0,0,0,3.358,0Z" transform="translate(-368.357 -1895.124)" fill="#ffcda8"/><path d="M378.237,1907.14a.86.86,0,0,1-.795-.21c-.034.107-.081.174-.146.174-.2,0-.324-.6-.3-1.067a3.32,3.32,0,0,0-.68-.773l-.926.553a14.527,14.527,0,0,1,.092,4.867,6.784,6.784,0,0,0,1.834-.255l-.319-.646c-.074-.233-.179-1.642.085-1.885S377.988,1907.654,378.237,1907.14Z" transform="translate(-371.954 -1900.151)" fill="#d9a782"/><path d="M373.457,1894.774c-.988-.4-3.149-.551-4.3.635a4,4,0,0,0-.49,4.628v0a9.252,9.252,0,0,1,.765,1.895,2.061,2.061,0,0,0,.71.22,2.16,2.16,0,0,0,1.97-.423c.413-.423.561-1.473.868-1.769s.826-.158.964-.158.233-.244.244-.34-.065-.879.116-1.122a1.081,1.081,0,0,0,.2-.752,2.32,2.32,0,0,1-.075-.625,3.927,3.927,0,0,1,.107-.634.556.556,0,0,0,.217-.414C374.773,1895.494,374.445,1895.175,373.457,1894.774Z" transform="translate(-368.148 -1894.481)" fill="#563317"/><path d="M368.967,1904.29a14.174,14.174,0,0,1,.857,2.141,2.059,2.059,0,0,0,.71.221,2.159,2.159,0,0,0,1.97-.424c.413-.424.561-1.472.868-1.769s.826-.157.964-.158.233-.244.244-.34a4.864,4.864,0,0,1,.038-.929,10.392,10.392,0,0,1-3.589,1.175,6.3,6.3,0,0,1-2.128-.119C368.921,1904.155,368.943,1904.222,368.967,1904.29Z" transform="translate(-368.544 -1898.977)" fill="#634024"/></g><g transform="translate(31.214 26.844)"><path d="M421.932,1921.26s.357,5.716.247,7.277-1.044,4.223-1.044,5.5.084,4.446,0,5.467a14.011,14.011,0,0,0,.221,2.719s1.866.565,2.141.282a25.745,25.745,0,0,0,1.365-2.3,54.966,54.966,0,0,1,.439-7.5c.449-2.067.974-2.912,1.275-4.583s1.066-10.332,1.066-10.332l-5.443-.094Z" transform="translate(-421.121 -1917.694)" fill="#092a4e"/><path d="M427.191,1930.139a13.817,13.817,0,0,0,.541-2.019c.3-1.671,1.066-10.332,1.066-10.332l-5.443-.094-.035.47a21.262,21.262,0,0,1,2.4,2.012c.349.483,1.731,7.784,1.47,9.963Z" transform="translate(-422.276 -1917.694)" fill="#00507e"/><path d="M421.713,1969.634s-.146,1.072,0,1.262a3.4,3.4,0,0,0,2.1.326c.821-.146.1-1.679.1-1.679Z" transform="translate(-421.398 -1944.955)" fill="#000508"/><path d="M421.713,1969.028s-.146,1.074,0,1.262a3.4,3.4,0,0,0,2.1.325c.821-.146.1-1.679.1-1.679Z" transform="translate(-421.398 -1944.636)" fill="#001135"/><g transform="translate(0.582 21.863)"><path d="M426.909,1966.529a3.027,3.027,0,0,0,.242,1.312c.277.385.813.919.838,1.187a2.014,2.014,0,0,1-.042.563s-.018.134-.762-.259-.961-1.259-1.2-1.652a5.967,5.967,0,0,0-2.207-1.83c-.707-.228-.778-.107-.778-.107a8.523,8.523,0,0,1,1.358-1.849c.44-.258.346.016.813.474A8.084,8.084,0,0,1,426.909,1966.529Z" transform="translate(-422.69 -1963.796)" fill="#001135"/><path d="M428.1,1973.107c-.744-.391-.96-1.258-1.2-1.65a5.774,5.774,0,0,0-.793-.912l-1.253.256s.478.231.505.555c.035.435-.01.98.347,1.122.623.249,2.538.8,2.926.871h0A3.726,3.726,0,0,1,428.1,1973.107Z" transform="translate(-423.663 -1967.344)"/><path d="M426.874,1971.457c-.744-.393-.961-1.258-1.2-1.652a5.971,5.971,0,0,0-2.207-1.829c-.707-.228-.778-.107-.778-.107l.013-.021-.013.006-.282.769c.057-.043.227-.013.459.036a7.531,7.531,0,0,1,2.075,1.159l.157.072.159-.312a3.573,3.573,0,0,1,.356.454c.243.392.46,1.259,1.2,1.65s.762.259.762.259a2,2,0,0,0,.034-.208C427.557,1971.748,427.391,1971.729,426.874,1971.457Z" transform="translate(-422.378 -1965.92)" fill="#1a1f22"/><path d="M425.005,1970.739a8.279,8.279,0,0,0-2.171-1.232c-.232-.049-.4-.079-.459-.036-.131.1.219.452.909.839A5.844,5.844,0,0,1,425.005,1970.739Z" transform="translate(-422.348 -1966.769)"/></g><path d="M432.877,1920.326l-5.832.4c.263,1.983,3.064,9.735,3.064,9.735a17.946,17.946,0,0,0-2.059,2.741c-.549,1.07-3.7,8.639-3.7,8.639a6.617,6.617,0,0,1,3.54,2.3s3.508-8.723,4.249-9.913a9.836,9.836,0,0,0,1.922-5.042C434.28,1926.61,432.877,1920.326,432.877,1920.326Z" transform="translate(-422.819 -1919.078)" fill="#16375b"/></g><path d="M417.385,1878.605a4.1,4.1,0,0,0-2.683,2.109c-.516,1.3-2.289,6.832-2.461,7.34s-3.052,8.711-3.052,8.711a1.473,1.473,0,0,0,.912.769,2.183,2.183,0,0,0,1.426,0s1.871-4.376,2.536-5.494,3.519-6.933,3.519-6.933Z" transform="translate(-383.633 -1870.298)" fill="#234468"/><path d="M416.994,1884.632c.222.5.418.528.173,1.24s-.789,2.236-1.133,3.277a9.885,9.885,0,0,1-.911,2.489c-.615,1.092-1.083,3.879-1.526,5.064-.261.7-1.223,2.452-1.969,3.777a2.22,2.22,0,0,0,1.181-.071s1.871-4.376,2.536-5.494,3.519-6.933,3.519-6.933l-.118-3.911h-.522S416.773,1884.128,416.994,1884.632Z" transform="translate(-384.916 -1873.171)" fill="#16375b"/><path d="M423.291,1881.491c.1-.889.393-3.606,1.107-3.734s2.841-.765,2.841-.765l4.175,3.026.773.894a5.618,5.618,0,0,1,1.417,2.23c.148.965.64,1.6.321,2.794s-.419,2.228-1.034,4.2a16.12,16.12,0,0,0-.96,3.979c.025.711.148,3.733.148,3.733a9.731,9.731,0,0,1-4.16.2c-2.363-.381-5.39-3.1-5.39-3.1a42.884,42.884,0,0,0,1.527-4.5c.049-.685-.567-4.775-.788-6.147A8.174,8.174,0,0,1,423.291,1881.491Z" transform="translate(-390.646 -1869.45)" fill="#234468"/><path d="M433.923,1892.855a3.534,3.534,0,0,0-.175-2.162l-1.031-.327-2.413.736-.061-.949a38.52,38.52,0,0,0-2.425,3.235,19.283,19.283,0,0,1-3.763,3.9c0,.035,0,.066,0,.092a42.874,42.874,0,0,1-1.527,4.5s1.794,6.161,4.156,6.543c1.361.219,5.122-.58,5.872-.7.553-.092-.478-2.943-.478-2.943s-.123-3.022-.148-3.733a16.121,16.121,0,0,1,.96-3.978C433.5,1895.083,433.6,1894.049,433.923,1892.855Z" transform="translate(-390.646 -1876.369)" fill="#16375b"/><path d="M434.749,1889.059c1.194-.606,2.067.026,2.412,1.473s-1.206,3.632-2.092,5.131a33.972,33.972,0,0,0-2.806,7.187c-.3,1.6-1.7,6.4-1.7,6.4a4.477,4.477,0,0,1-1.921-1.118,42.207,42.207,0,0,1,.2-6.5,61.47,61.47,0,0,1,2.046-6.361C431.45,1894.037,433.051,1889.922,434.749,1889.059Z" transform="translate(-393.842 -1875.673)" fill="#234468"/><g transform="translate(12.943 14.768)"><path d="M382.592,1899.118l11.934,6.89,11.933-6.89-11.933-6.89Z" transform="translate(-382.592 -1892.228)" fill="#ff59a1"/><path d="M407.756,1913.646v12.474l11.933-6.889v-12.475Z" transform="translate(-395.822 -1899.867)" fill="#d9337b"/><path d="M382.592,1919.231l11.934,6.889v-12.474l-11.934-6.89Z" transform="translate(-382.592 -1899.867)" fill="#b30d55"/></g><path d="M401.806,1945.256a10.372,10.372,0,0,0-1.11-.856c-.185-.112-.5-.271-.5-.271l-1.426.964c.316.768,2.06,1.331,2.755,1.244a3.532,3.532,0,0,0,1.3-.481A5.61,5.61,0,0,1,401.806,1945.256Z" transform="translate(-378.154 -1904.749)" fill="#d88f69"/><g transform="translate(0.365 67.161)"><path d="M357.328,2002.709a4.5,4.5,0,0,0-.694,1.422s.1.235.755.458a4.129,4.129,0,0,1,1.854.887c.477.523,1.056,1.4,1.687,1.464s.984-.621,1.067-.941a.987.987,0,0,0-.384-1.079,1.886,1.886,0,0,0-.818-.192l-.322-.63A9.315,9.315,0,0,0,357.328,2002.709Z" transform="translate(-356.366 -2002.709)" fill="#001135"/><path d="M360.633,2008.531c-.631-.065-1.21-.941-1.687-1.464a4.128,4.128,0,0,0-1.854-.887c-.566-.194-.719-.4-.749-.447a2.191,2.191,0,0,0-.274.735s.1.235.756.458a14.575,14.575,0,0,1,1.784.816l.181-.524c.032.031.062.062.092.1.476.522,1.056,1.4,1.687,1.463s.985-.62,1.067-.941c.008-.033.015-.072.021-.11C361.525,2008.07,361.187,2008.586,360.633,2008.531Z" transform="translate(-356.069 -2004.299)" fill="#000508"/></g><path d="M363.462,1950.184s-1.367,7.493-1.547,8.488-2.063,3.446-2.353,5.25-2.085,9.09-2.085,9.09a3.508,3.508,0,0,1,2.107.878,2.168,2.168,0,0,0,1.793.647s.828-4,1.41-5.643,2.035-6.246,2.753-7.38,3.721-11.674,3.721-11.674l-.4-2.317-4.56-1.561Z" transform="translate(-356.444 -1905.713)" fill="#16375b"/><path d="M372.03,1949.841l-.4-2.317-4.56-1.561-.5,2.519c1.09.79,2.929,2.276,2.929,3.6a13.024,13.024,0,0,1-1.406,5.656,5.341,5.341,0,0,0-.951,2.519,7.059,7.059,0,0,1-1,2.9c-.348.255-2.329,6.757-3.4,11.05a2.214,2.214,0,0,0,1.4.326s.828-4,1.41-5.643,2.035-6.246,2.753-7.38S372.03,1949.841,372.03,1949.841Z" transform="translate(-359.213 -1905.713)" fill="#092a4e"/><g transform="translate(13.792 62.952)"><path d="M388.551,1995.481s1.97.914,2.452.228-1.225-1.876-1.225-1.876Z" transform="translate(-386.575 -1993.833)" fill="#001135"/><path d="M384.508,1995.425s-.279,1.454,0,1.817.9.449,1.647.215a7,7,0,0,1,2.526-.588,4.058,4.058,0,0,0,2.889-1.145.993.993,0,0,0-.28-1.644c-.611-.246-2.754.054-3.6-.246a.42.42,0,0,0,.042.449c.165.257.714.61.549.993s-.859.322-1.656.118A6.427,6.427,0,0,0,384.508,1995.425Z" transform="translate(-384.384 -1993.833)" fill="#001135"/><path d="M391.926,1995.575a1.145,1.145,0,0,1-.267,1.064,4.061,4.061,0,0,1-2.889,1.145,6.987,6.987,0,0,0-2.526.588c-.746.234-1.366.149-1.647-.215a.36.36,0,0,1-.043-.075,1.028,1.028,0,0,0,.122.548c.28.363.9.448,1.647.213.4-.125.8-.292,1.243-.416l-.048-.278a4.242,4.242,0,0,1,1.332-.187,4.055,4.055,0,0,0,2.888-1.142A1.086,1.086,0,0,0,391.926,1995.575Z" transform="translate(-384.473 -1994.749)" fill="#000508"/></g><path d="M383.95,1951.227a24.289,24.289,0,0,1,0,5.58,70.4,70.4,0,0,0-.728,8.1,23.645,23.645,0,0,0,.443,4.648s-1.734,3.184-3.938,2.212c0,0-.1-3.635-.231-5.428a20.164,20.164,0,0,1,.069-5.063,12.639,12.639,0,0,0,.294-2.15l-2.086-8.186-2.337-3.372,7.625-.254Z" transform="translate(-365.887 -1906.421)" fill="#16375b"/><path d="M367.425,1913.275a4.305,4.305,0,0,0-2.023-.767c-.709-.012-2.752-.115-3.195,1.638a9.728,9.728,0,0,0,1.034,6.477,22.786,22.786,0,0,0,3.125,4.063v3.657s.551,1.27,3.143,2.209,4.98,1.093,6.752-1.041c0,0-.935-3.606-1.083-4.241s-2.415-8.781-2.415-8.781l-1.6-1.681Z" transform="translate(-358.833 -1888.12)" fill="#dbe8f5"/><g transform="translate(6.537 23.622)"><path d="M369.567,1910.9s.92.3,2.525.9a6.218,6.218,0,0,1,2.428,1.584l.354.579a36.328,36.328,0,0,1-4.327-1.191c-1.359-.555-1.461-1.208-1.461-1.208Z" transform="translate(-369.085 -1910.899)" fill="#f5ffff"/></g><path d="M381.08,1934.947s-.935-3.606-1.083-4.241c-.118-.5-1.564-5.717-2.161-7.865l-1.655,1.236s-.618.419-.432,1.657.506,2.127.2,2.356-1.217-.127-.8.508,1.231,1.905.049,2.286-4.012-.762-4.012-.762v3.657s.552,1.27,3.143,2.209S379.308,1937.081,381.08,1934.947Z" transform="translate(-363.652 -1893.556)" fill="#c2cfdc"/><path d="M381.166,1921.133c.271-.33.763-.737,1.87,0a4.684,4.684,0,0,1,1.969,3,7.579,7.579,0,0,0,.861,2.515,12.081,12.081,0,0,0,1.994,2.692c.714.737,1.919,2.007,1.919,2.007s.886,1.168.567,1.752-.69.457-2.314-.279a15.607,15.607,0,0,1-4.849-3.887C382.1,1927.557,378.926,1923.85,381.166,1921.133Z" transform="translate(-368.488 -1892.44)" fill="#dbe8f5"/><g transform="translate(36.418 0)"><g transform="translate(0.735)"><path d="M440.629,1862.858a3.358,3.358,0,0,1,.743,2.427c-.045.807-.265.955-.265.955s.4.609.3.743a2.657,2.657,0,0,1-.669.355,2.847,2.847,0,0,1-.155.733,3.847,3.847,0,0,0-.46.925c-.029.265-.2.7-.5.754s-1.4-.345-1.6-.035a16.524,16.524,0,0,0-.693,2.066,5.677,5.677,0,0,1-2.589-1.394c-1.324-1.187-1.078-1.772-1.078-1.772a2.293,2.293,0,0,0,.661-1.364c-.042-.641-.657-1.943-.073-3.371a3.19,3.19,0,0,1,3.114-2.109A3.913,3.913,0,0,1,440.629,1862.858Z" transform="translate(-433.644 -1861.441)" fill="#ffcda8"/><path d="M439.855,1875.374c.1-.153.42-.133.755-.079-.479-.27-1.057-.677-1-1.054.1-.636.207-1.72.207-1.72l-1.245.2a12.347,12.347,0,0,1-1.444,3.778,14.868,14.868,0,0,1,2.032.945A16.535,16.535,0,0,1,439.855,1875.374Z" transform="translate(-435.477 -1867.098)" fill="#d9a782"/><path d="M442.244,1873.823c.082-.4.014-.66-.4-.621a.871.871,0,0,0-.58,1.165C441.477,1874.893,441.916,1875.424,442.244,1873.823Z" transform="translate(-437.62 -1867.455)" fill="#ffcda8"/><path d="M439.677,1861.3c-1.838-.439-4.212-.348-5.178,1.639s-.22,2.8-.22,2.8h0c.089.481.214.882.233,1.158a1.111,1.111,0,0,1-.067.432,3.091,3.091,0,0,0,1.1.6c.7.154.682.326,1.242-.249s1.135-1.172,1.653-.951.842.455.983.223a1.168,1.168,0,0,0,.212-.545c.049-.267.545-.46.778-.838s-.149-.935.339-1.215a3.612,3.612,0,0,0,.741-.435.638.638,0,0,0,.382-.432C441.951,1863.166,441.514,1861.741,439.677,1861.3Z" transform="translate(-433.833 -1861.087)" fill="#563317"/><path d="M438.743,1871.322c.516.22.842.455.983.223a1.166,1.166,0,0,0,.212-.545c.049-.268.545-.46.778-.838a.67.67,0,0,0,.083-.351c-.7.647-3.885,1.205-4.855,1.054a4.025,4.025,0,0,1-1.358-.537c.089.481.214.882.233,1.159a1.111,1.111,0,0,1-.067.432,3.089,3.089,0,0,0,1.1.6c.7.154.682.326,1.242-.249S438.225,1871.1,438.743,1871.322Z" transform="translate(-434.139 -1865.674)" fill="#563317" opacity="0.3" style="mix-blend-mode:multiply;isolation:isolate"/></g><path d="M432.99,1875.767a6.147,6.147,0,0,1,1.733,1.056c.7.626,2.138,2.055,2.138,2.055l.3,1.5a21.032,21.032,0,0,1-4.366-3.01c-1.106-1.078-.575-1.133-.575-1.133Z" transform="translate(-432.095 -1868.806)" fill="#e8f5ff"/></g><g transform="translate(36.105 6.962)"><path d="M432.288,1875.767a27.629,27.629,0,0,1,2.467,1.644,6.358,6.358,0,0,1,1.924,2.2l.457,1.02a33.117,33.117,0,0,1-4.339-2.4,3.607,3.607,0,0,1-1.364-1.884Z" transform="translate(-431.433 -1875.767)" fill="#3d5e82"/></g></g><g transform="translate(190.682 1692.975)"><g transform="translate(10.819 3.298)"><path d="M321.5,1875.689,314,1880.014l-7.491-4.325,7.491-4.325Z" transform="translate(-306.513 -1871.364)" fill="#91cc50"/><path d="M329.8,1889.135l-7.491,4.326v-8.651l7.491-4.325Z" transform="translate(-314.818 -1876.159)" fill="#459c00"/><path d="M314,1884.809v8.651l-7.491-4.326v-8.65Z" transform="translate(-306.513 -1876.159)" fill="#59ad15"/></g><g transform="translate(0)"><path d="M303.2,1944.687s0,3.83.128,4.979a42.367,42.367,0,0,0,1.181,5.33c.382,1.213.54,2.045.638,2.286s.111.5.258.525.863.023.863.023a2.14,2.14,0,0,1,.125.779c-.063.205-.815.4-.931.394s-1.757-.834-1.757-.834l-1.147-1.147-.515-.834a.5.5,0,0,0,.2-.591c-.118-.411-1.64-4.5-1.64-4.5l.438-6.922Z" transform="translate(-292.588 -1906.349)" fill="#a46d4f"/><path d="M302.762,1969.5s-.88.77-.786,1.477.612,1.1.786,1.806.377,1.776.377,1.776h.282s-.313-2.1.079-2.263.456-.219.942.1,2.058,1.084,2.546.676a6.276,6.276,0,0,0,1.3-2.341c.078-.471,0-.58-.441-.471s-1.728.6-1.728.6v.268s.737.077.6.377-.2.456-.8.188-1.445-1.4-2.011-1.68S302.762,1969.5,302.762,1969.5Z" transform="translate(-293.305 -1919.666)" fill="url(#b)"/><path d="M297.113,1944.82s-.575,1.379-1.047,2.425-2.585,5.291-3.317,6.564a29.1,29.1,0,0,0-2.113,4.04,33.318,33.318,0,0,0-.718,3.6c-.006.289-.022.266.1.391s.572.589.289.679-.945-.167-1.1-1.1-.9-3.563-.9-3.563a.568.568,0,0,0,.476-.324c.2-.336,1.551-5.909,1.694-6.738a23.892,23.892,0,0,1,1.915-3.845c.478-.926.59-.782.766-1.612a18.989,18.989,0,0,0,.207-2.537Z" transform="translate(-286.124 -1905.623)" fill="#bd8668"/><path d="M303.167,1918.568a7.9,7.9,0,0,1,.162,3.283c-.323,1.594-3.288,9.857-3.288,9.857a10.942,10.942,0,0,1-2.81-.107,3.284,3.284,0,0,1-1.7-.989l.053-2.528-1.46-6.363a3.3,3.3,0,0,1-.948-3.4C293.683,1916,303.167,1918.568,303.167,1918.568Z" transform="translate(-288.627 -1892.244)" fill="#841d83"/><path d="M285.914,1974.539s-1.084.126-1.461.723-.063,1.3-.063,1.9a19.507,19.507,0,0,1-.691,2.827l.314.11a12.085,12.085,0,0,1,1.021-1.979c.267-.219.188-.141.188.031a1.631,1.631,0,0,0,.55,1.54,2.8,2.8,0,0,0,2.167.8,1.912,1.912,0,0,0,1.209-1.1c.079-.249.221-.47-.392-.627s-1.162-.234-1.162-.234.2.4,0,.3a4.324,4.324,0,0,1-.393-1.9C287.155,1976.172,286.778,1974.728,285.914,1974.539Z" transform="translate(-283.699 -1922.313)" fill="url(#b)"/><path d="M302.225,1932.911a11.538,11.538,0,0,0,2.628.069s2.965-8.262,3.288-9.857a7.9,7.9,0,0,0-.162-3.283s-.1-.027-.274-.072l-2.074,2.259S303.776,1928.551,302.225,1932.911Z" transform="translate(-293.439 -1893.516)" fill="#6b046a"/><path d="M294.838,1882.766s-1.67.576-1.763,3.217,2.039,6.783,4.256,7.169.688-4.5.688-4.5Z" transform="translate(-288.627 -1874.061)" fill="#bcaf9c"/><path d="M331.827,1894.144a1.987,1.987,0,0,1-.315-.725c0-.252-.094-.861.064-.946s.651.062.808.6S331.827,1894.144,331.827,1894.144Z" transform="translate(-308.823 -1879.153)" fill="#d9a782"/><path d="M298.781,1884.1l.844-.4a12.02,12.02,0,0,0,1.924,1.633c.4.112,2.743,2.5,2.765,4.58.006.52-1.515,1.719-1.569,2.381-.162,1.986-.711,3.12-.644,4.091.09,1.3,1.235,5.154,1.235,6.328a9.6,9.6,0,0,1-5.427.729,12.977,12.977,0,0,1-5.894-2.568,25.917,25.917,0,0,1,.871-3.663c.4-.938,1.87-2.746,2.182-3.662a6.569,6.569,0,0,0-.866-4.421,6.481,6.481,0,0,1-1.069-4.779c.4-1.586,1.08-1.586,1.08-1.586Z" transform="translate(-288.072 -1874.061)" fill="#efe2cf"/><g transform="translate(4.998)"><path d="M301.588,1876.433a8.719,8.719,0,0,1,.158-2.483c.269-.671.5-.782.809-.852.236-.054.72.081,1.266-1.01a4.318,4.318,0,0,0,.434-2.02,3.117,3.117,0,0,0,.153-1.238c-.078-.45-.227-2.125-1.546-2.7a4.637,4.637,0,0,0-3.809.036,3.475,3.475,0,0,0-1.568,2.929c.006,1.234.679,2,.689,2.845a4.594,4.594,0,0,1-1.01,2.524c-.5.651.544,1.568,1.26,1.9A4.182,4.182,0,0,0,301.588,1876.433Z" transform="translate(-295.706 -1865.112)" fill="#ffcda8"/><path d="M305.79,1877.077a15.659,15.659,0,0,1-.04-1.688l-1.525,1.148s.117,3.11-.777,4.461a.829.829,0,0,0-.1.79,4.257,4.257,0,0,0,1.528-.285,8.72,8.72,0,0,1,.158-2.483c.269-.671.5-.781.809-.852a1.669,1.669,0,0,0,.5-.108A1.475,1.475,0,0,1,305.79,1877.077Z" transform="translate(-298.999 -1870.182)" fill="#d9a782"/><path d="M308.086,1879.093c-.376-2.443-1.2-4.22-.33-5.094l.2-.3c.018,0,.113.337.388.263.138-.038.318-.78.48-1.2.04-.1.094-.234.158-.377a12.823,12.823,0,0,1-1.086,1.012l-.073-.078a8.411,8.411,0,0,0,1.729-1.951,8.113,8.113,0,0,1-1.48,1.459c-.565.32-1.237.681-.992,2.35.2,1.321.974,3.527.924,5.015A2.66,2.66,0,0,0,308.086,1879.093Z" transform="translate(-300.963 -1868.066)" fill="#6d2d10"/><path d="M302.334,1865.55c-.514-.624-1.406-1.316-3.433-1.1a3.339,3.339,0,0,0-2.158,1.391,4.53,4.53,0,0,0-.736,3.194c.1,1.729.01,3.191-1.11,4.306a3.457,3.457,0,0,0-.358,3.442,3.177,3.177,0,0,1,.056-2.248l.011-.026a.222.222,0,0,0-.011.026,3.306,3.306,0,0,0,.194,2.606,1.483,1.483,0,0,0,.409.316,12.08,12.08,0,0,0,3.78,1.283,2.423,2.423,0,0,0,1.2-.62,3.946,3.946,0,0,1-.484.509,3.246,3.246,0,0,0,1.525-1.927,5.421,5.421,0,0,1-.353,1.2,4.467,4.467,0,0,0,.614-1.687,7.653,7.653,0,0,0-.34-1.975h0c-.386-1.828-.825-3.171-.107-3.894l.2-.3c.018,0,.113.337.388.263.138-.037.318-.78.48-1.2.04-.1.094-.234.158-.377C303.985,1867.292,302.334,1865.55,302.334,1865.55Z" transform="translate(-294.238 -1864.41)" fill="#7a3a1d"/><path d="M302.718,1871.688c-.374.63-1.035.785-1.8,1.514s-.754,2.47-.281,4.057a9.93,9.93,0,0,1,.422,2.881,6.887,6.887,0,0,0-.646-2.523,5.68,5.68,0,0,1,.276,2.8,2.925,2.925,0,0,1-1.335,1.658,5.02,5.02,0,0,0,.719-1.215,2.9,2.9,0,0,1-1.394,1.253,4.991,4.991,0,0,0,1.264-4.473c.095,4.141-2.507,4.3-2.507,4.3l.211-.405c-.144.156-.486.418-.721.26a1.7,1.7,0,0,1-.41-.693l-.022.573a2.461,2.461,0,0,1-.569-.744l-.017.481c-.844-1.232-.116-3.808-.116-3.808a5.4,5.4,0,0,0-.346,3.574,3.011,3.011,0,0,1-.613-1.986,2.045,2.045,0,0,0-.038,1.008,2.928,2.928,0,0,1,.43-2.566,6.3,6.3,0,0,0,.864-2.205,5.249,5.249,0,0,1-.42.949,4.768,4.768,0,0,0,.375-2.556h0a4.394,4.394,0,0,1-1.141,3.348,3.457,3.457,0,0,0-.358,3.442,3.176,3.176,0,0,1,.056-2.248l.011-.026a.206.206,0,0,0-.011.026,3.305,3.305,0,0,0,.194,2.605,1.484,1.484,0,0,0,.409.316,12.083,12.083,0,0,0,3.78,1.283,2.421,2.421,0,0,0,1.2-.62,3.939,3.939,0,0,1-.484.509,3.247,3.247,0,0,0,1.525-1.927,5.42,5.42,0,0,1-.353,1.2,4.467,4.467,0,0,0,.614-1.687,7.654,7.654,0,0,0-.34-1.975h0c-.386-1.828-.825-3.171-.107-3.894l.2-.3c.018,0,.113.337.388.263.138-.037.318-.78.48-1.2.04-.1.094-.234.158-.377l-.548.265A3.5,3.5,0,0,0,302.718,1871.688Z" transform="translate(-294.238 -1868.237)" fill="#6d2d10"/><path d="M308.3,1877.2c-.049.078-.615.127-.521-.851s.749-1.206.734-.491A5.451,5.451,0,0,1,308.3,1877.2Z" transform="translate(-301.354 -1870.209)" fill="#ffcda8"/><path d="M300.844,1864.45a3.337,3.337,0,0,0-2.158,1.391,4.531,4.531,0,0,0-.736,3.193c.021.339.033.668.031.986a7.547,7.547,0,0,1,.205.771,10.132,10.132,0,0,1-.168,2.279,7.569,7.569,0,0,0,.313-1.5,11.548,11.548,0,0,1-.263,2.655,10.331,10.331,0,0,0,.71-4.85,5.106,5.106,0,0,1,2.1-4.3,3.125,3.125,0,0,1,2.2-.4A4.682,4.682,0,0,0,300.844,1864.45Z" transform="translate(-296.181 -1864.41)" fill="#6d2d10"/><g transform="translate(2.303 2.401)" opacity="0.5"><path d="M300.911,1869.473a1.964,1.964,0,0,0-.252.292,3.173,3.173,0,0,0-.458.909,3.558,3.558,0,0,0-.142.667,5.758,5.758,0,0,0-.023.766c.009.534.028,1.107.025,1.685a11.74,11.74,0,0,1-.344,3.122,3.952,3.952,0,0,1-.4.946,2.5,2.5,0,0,1-.224.316,2.513,2.513,0,0,0,.216-.329,4.037,4.037,0,0,0,.368-.961,8.749,8.749,0,0,0,.231-1.434c.046-.529.062-1.1.064-1.66s-.01-1.131-.011-1.665a5.784,5.784,0,0,1,.034-.773,3.519,3.519,0,0,1,.157-.677,3.122,3.122,0,0,1,.489-.914A1.91,1.91,0,0,1,300.911,1869.473Z" transform="translate(-299.095 -1869.473)" fill="#6d2d10"/></g><g transform="translate(3.509 3.722)"><path d="M301.638,1880.636a11.757,11.757,0,0,0,.451-1.246,8.887,8.887,0,0,0,.3-1.331,4.921,4.921,0,0,0,.048-.768c-.008-.261-.037-.533-.056-.8a21.614,21.614,0,0,1-.1-2.95,4.155,4.155,0,0,1,.154-.951,1.291,1.291,0,0,1,.151-.331,1.312,1.312,0,0,0-.139.34,4.233,4.233,0,0,0-.124.96,27.325,27.325,0,0,0,.141,2.925c.02.265.045.527.053.794a4.7,4.7,0,0,1-.056.774,8.193,8.193,0,0,1-.327,1.336A10.473,10.473,0,0,1,301.638,1880.636Z" transform="translate(-301.638 -1872.258)" fill="#6d2d10"/></g><g transform="translate(3.682 1.129)"><path d="M305.027,1866.792a2.031,2.031,0,0,0-.736.172,2.813,2.813,0,0,0-.668.4A3.5,3.5,0,0,0,303,1868a5.582,5.582,0,0,0-.774,1.488c-.153.432-.221.728-.224.727a7.366,7.366,0,0,1,.186-.75,4.917,4.917,0,0,1,.744-1.517,3.252,3.252,0,0,1,.638-.644,2.708,2.708,0,0,1,.7-.381A1.973,1.973,0,0,1,305.027,1866.792Z" transform="translate(-302.002 -1866.791)" fill="#6d2d10"/></g><g transform="translate(4.72 2.015)" opacity="0.5"><path d="M306.906,1868.659a2.255,2.255,0,0,0-.384.174,3.262,3.262,0,0,0-.857.692,3.469,3.469,0,0,0-.732,1.373,4.606,4.606,0,0,0-.153.875c-.025.3-.041.615-.047.927-.014.625.025,1.245.031,1.827a7.427,7.427,0,0,1-.142,1.578,8.816,8.816,0,0,1-.293,1.074c-.085.254-.14.4-.139.4s.051-.147.129-.407a9.517,9.517,0,0,0,.264-1.09,7.784,7.784,0,0,0,.108-1.572c-.014-.576-.058-1.192-.043-1.808.005-.307.022-.615.049-.918a4.577,4.577,0,0,1,.16-.882,3.494,3.494,0,0,1,.763-1.388,3.23,3.23,0,0,1,.892-.686A2.2,2.2,0,0,1,306.906,1868.659Z" transform="translate(-304.19 -1868.659)" fill="#6d2d10"/></g></g><path d="M312.229,1905.387c0-1.174-1.145-5.033-1.235-6.329-.066-.971.482-2.1.644-4.091.054-.662,1.574-1.861,1.569-2.381-.022-2.077-2.363-4.468-2.765-4.58a1.089,1.089,0,0,1-.28-.159l-1.233,3.615a10.939,10.939,0,0,1,.361,4.586c-.351,1.568.521,6.9.2,10.09A8.22,8.22,0,0,0,312.229,1905.387Z" transform="translate(-296.964 -1876.733)" fill="#bcaf9c"/><path d="M329.15,1893.407a7.011,7.011,0,0,1-.146-.914c-.021-.368-.031-.893-.346-.84s-.316.536-.316.819a7.854,7.854,0,0,1-.442,1.239c-.136.451-.272,1.145-.125,1.271S329.244,1894.321,329.15,1893.407Z" transform="translate(-306.839 -1878.731)" fill="#ffcda8"/><path d="M328.582,1894.333a.859.859,0,0,0,.725-.084,1.057,1.057,0,0,0,.379-.746c-.043-.115.45-.168.5.116a11.058,11.058,0,0,1,.17,1.155,7.7,7.7,0,0,1-.609,1.407,6.214,6.214,0,0,1-1.325,1.008l-1.135-1.135Z" transform="translate(-306.618 -1879.657)" fill="#ffcda8"/><path d="M317.175,1892.939s.993.557,1.067,1.4c0,0-3.994,3.739-5.152,3.991s-3.013-3.43-3.548-4.128-2.2-2.9-1.811-4.365,1.647-2.375,2.331-1.514,3.785,6.785,3.785,6.785Z" transform="translate(-296.304 -1876.807)" fill="#efe2cf"/></g></g></g></g></svg>