<svg xmlns="http://www.w3.org/2000/svg" xmlns:xlink="http://www.w3.org/1999/xlink" width="841.395" height="394.291" viewBox="0 0 841.395 394.291"><defs><linearGradient id="a" x1="0.511" y1="1.052" x2="0.494" y2="0.498" gradientUnits="objectBoundingBox"><stop offset="0"/><stop offset="1" stop-opacity="0"/></linearGradient><linearGradient id="b" x1="-0.058" y1="0.5" x2="0.531" y2="0.5" xlink:href="#a"/><linearGradient id="c" y1="0.5" x2="1" y2="0.5" gradientUnits="objectBoundingBox"><stop offset="0" stop-color="#fec95c" stop-opacity="0"/><stop offset="1" stop-color="#fec95c"/></linearGradient><linearGradient id="d" x1="0.066" y1="0.769" x2="0.529" y2="0.457" xlink:href="#a"/><linearGradient id="e" x1="0" y1="0.5" x2="1" y2="0.5" xlink:href="#a"/><clipPath id="f"><path d="M870.693,1829.29l.015-10.049a141.512,141.512,0,0,0-32.224-85.807l-33.238,32.892a94.527,94.527,0,0,1,18,40.333l45.4,41.979A141.371,141.371,0,0,0,870.693,1829.29Z" fill="none"/></clipPath><linearGradient id="g" x1="0.222" y1="0.942" x2="0.528" y2="0.372" xlink:href="#a"/><linearGradient id="h" x1="-6.828" y1="0.5" x2="-5.829" y2="0.5" gradientUnits="objectBoundingBox"><stop offset="0.039" stop-color="#fff"/><stop offset="0.317" stop-color="#fcfdfe"/><stop offset="0.507" stop-color="#f3f7fb"/><stop offset="0.67" stop-color="#e3ecf6"/><stop offset="0.819" stop-color="#ceddf0"/><stop offset="0.956" stop-color="#b2cbe8"/><stop offset="1" stop-color="#a8c4e5"/></linearGradient><linearGradient id="i" x1="-0.281" y1="0.5" x2="0.719" y2="0.5" xlink:href="#h"/><linearGradient id="j" x1="-0.084" y1="0.892" x2="0.709" y2="0.095" xlink:href="#h"/><linearGradient id="k" x1="-0.103" y1="0.5" x2="0.897" y2="0.5" xlink:href="#h"/><linearGradient id="l" x1="0.609" y1="0.806" x2="0.397" y2="0.172" gradientUnits="objectBoundingBox"><stop offset="0" stop-color="#9fb0bf"/><stop offset="0.254" stop-color="#a2b3c2"/><stop offset="0.496" stop-color="#aebdcb"/><stop offset="0.732" stop-color="#c1ceda"/><stop offset="0.964" stop-color="#dce5f0"/><stop offset="1" stop-color="#e1eaf4"/></linearGradient><linearGradient id="m" x1="1.535" y1="0.352" x2="1.291" y2="-0.274" gradientUnits="objectBoundingBox"><stop offset="0" stop-color="#9fb0bf"/><stop offset="0.022" stop-color="#a9b8c5"/><stop offset="0.092" stop-color="#c3ced7"/><stop offset="0.173" stop-color="#d9e0e6"/><stop offset="0.267" stop-color="#eaeef1"/><stop offset="0.383" stop-color="#f6f7f9"/><stop offset="0.547" stop-color="#fdfdfd"/><stop offset="1" stop-color="#fff"/></linearGradient></defs><g transform="translate(-322 -1372)"><g transform="translate(181.644 -262.601)"><path d="M716.828,1730.084l-27.673-21.751,31.549-24.8a140.91,140.91,0,0,0-131.515,135.7l.011,10.055a140.168,140.168,0,0,0,28.142,79.488h69.59a95.131,95.131,0,0,1-51.759-79.488l-.012-10.055A95.116,95.116,0,0,1,716.828,1730.084Z" fill="#5669ef"/><path d="M589.189,1819.236l.011,10.055a140.168,140.168,0,0,0,28.142,79.488h69.59a95.131,95.131,0,0,1-51.759-79.488l-.012-10.055C637.5,1773.554,591.658,1746.786,589.189,1819.236Z" opacity="0.3" fill="url(#a)" style="mix-blend-mode:multiply;isolation:isolate"/><path d="M929.557,1983.508v-18.59H784.217a150.513,150.513,0,0,0,54.641-36.432q4.475-4.659,8.491-9.63h82.208v-17.395l52.2,41.024Z" fill="#5669ef"/><path d="M870.708,1819.241l-.015,10.049a140.907,140.907,0,0,1-134.432,135.488h-.749l28.357-22.286-30.239-23.769a92.025,92.025,0,0,0,23.065-3.595A95.109,95.109,0,0,0,824.7,1829.29l.03-10.049a95.163,95.163,0,0,0-67.117-86.052v16.167l-52.187-41.022,52.187-41.023v18.248C821.136,1697.52,868.552,1752.507,870.708,1819.241Z" fill="#fa4a56"/><path d="M746.338,1942.485l-52.193-41.021v17.4l-102.006.046,30.064,23.578-30.064,22.355,102.006.075v18.59Z" fill="#ff9e22"/><path d="M694.145,1918.861l-102.006.046,30.064,23.578-30.064,22.355,102.006.075Z" opacity="0.3" fill="url(#b)" style="mix-blend-mode:multiply;isolation:isolate"/><path d="M551.928,1983.508v-18.6l-411.572-.011v-46.028l411.572-.011v-17.4l52.2,41.017Z" fill="url(#c)"/><path d="M823.646,1839.024a95.185,95.185,0,0,1-66.951,76.1,92.025,92.025,0,0,1-23.065,3.595l30.24,23.769-28.358,22.286h.749a140.923,140.923,0,0,0,133.734-125.754Z" opacity="0.3" fill="url(#d)" style="mix-blend-mode:multiply;isolation:isolate"/><path d="M907.42,1918.856H847.349q-4.021,4.977-8.491,9.63a150.513,150.513,0,0,1-54.641,36.432h123.2Z" opacity="0.3" fill="url(#e)" style="mix-blend-mode:multiply;isolation:isolate"/><g opacity="0.3"><g clip-path="url(#f)"><path d="M868.51,1756.024c24.22,0,43.391,34.512,0,34.512v17.582l-32.83-34.564,32.83-34.547Z"/></g></g><path d="M879.51,1756.024a43.473,43.473,0,1,0-44.694-42.2c0,.378,0,.738.017,1.1-8.62-8.414-30.134-23.369-31.164-23.97a79.209,79.209,0,0,1,155.041,21.8v-.364a79.216,79.216,0,0,1-79.2,78.15v17.582l-32.83-34.564,32.83-34.547Z" fill="#1bb26a"/><path d="M879.51,1669.113a44.755,44.755,0,0,0-44.694,44.712c0,.378,0,.738.017,1.1-8.62-8.414-30.134-23.369-31.164-23.97A79.241,79.241,0,0,1,879.51,1634.6C922.9,1634.6,903.73,1669.113,879.51,1669.113Z" opacity="0.3" fill="url(#g)" style="mix-blend-mode:multiply;isolation:isolate"/><g opacity="0.5"><path d="M851.936,1822.741l.055-3.8,4.317.064-.184,12.48-4.316-.063.055-3.77-14.925-.218.073-4.915Z" fill="#fff"/><path d="M855.919,1834.905l-1.3,10.818-4.286-.517.716-5.937-2.969-.359-.694,5.758-4.286-.517.694-5.757-3.278-.4-.717,5.939-4.285-.517,1.3-10.818Z" fill="#fff"/><path d="M840.354,1850.787c-2.167-.548-2.883.692-3.037,1.3a1.857,1.857,0,0,0,1.33,2.268c.984.249,1.484-.456,3.421-3.024.862-1.177,2.994-4.1,6.5-3.21,3.756.95,4.887,4.858,4.1,7.983-.65,2.571-2.88,5.869-7.386,4.809l1.193-4.714c.656.059,1.879.208,2.249-1.255a1.6,1.6,0,0,0-1.048-2.007c-.858-.217-1.211.229-3.572,3.2-2.444,3.084-4.28,3.557-6.448,3.009-2.974-.752-5.579-3.075-4.328-8.015,1.238-4.891,4.609-6.13,8.232-5.079Z" fill="#fff"/><path d="M844.448,1866.864l1.383-3.535,4.021,1.572-4.549,11.624-4.02-1.573,1.374-3.511-13.9-5.439,1.791-4.577Z" fill="#fff"/></g><g opacity="0.5"><path d="M624.1,1843l-19.185,1.445-.494-6.558,12.095-4.536-12.63-2.568-.5-6.585,19.184-1.445.34,4.511-14.374.926,14.675,3.067.244,3.24-14.05,5.229,14.351-1.237Z" fill="#fff"/><path d="M603.846,1818.4l.977-10.849,4.3.387-.537,5.956,2.977.269.521-5.774,4.3.387-.521,5.775,3.288.3.538-5.955,4.3.386-.978,10.85Z" fill="#fff"/><path d="M605.593,1802.3l1.44-6.126c.691-2.937,1.651-4.635,2.7-5.482a6.962,6.962,0,0,1,8.822.658,5.509,5.509,0,0,1,1.428,2.9l7.8-2.254-1.161,4.936-10.185,2.761.184-.785a5.874,5.874,0,0,0,.172-3.005,2.867,2.867,0,0,0-2.054-1.6,2.615,2.615,0,0,0-2.438.6,4.033,4.033,0,0,0-.965,1.83l-.416,1.772,14.53,3.416-1.125,4.784Z" fill="#fff"/><path d="M621.626,1773.526a5.368,5.368,0,0,0-1.595.417,4.787,4.787,0,0,0-2.374,2.489,5.277,5.277,0,0,0,3.057,7.034c3.7,1.6,6.432-.344,7.389-2.565a5.173,5.173,0,0,0,.4-3.109,3.893,3.893,0,0,0-1.426-2.341l-2.273,5.278-3.606-1.553,4.515-10.484a12.366,12.366,0,0,1,4.713,2.993,10.208,10.208,0,0,1,1.646,10.9,10.059,10.059,0,0,1-13.306,5.394c-5.279-2.272-7.269-8.168-5.027-13.375a10.058,10.058,0,0,1,10.063-6.14Z" fill="#fff"/><path d="M620.731,1761.336l5.85-9.188,3.64,2.318-3.211,5.044,2.521,1.6,3.114-4.889,3.639,2.317-3.113,4.89,2.785,1.773,3.211-5.043,3.64,2.317-5.85,9.188Z" fill="#fff"/></g><g opacity="0.5"><path d="M636.45,1932.915h7.072a7.449,7.449,0,0,1,4.655,1.3,4.425,4.425,0,0,1,1.716,3.744,4.345,4.345,0,0,1-2.237,3.874,4.43,4.43,0,0,1,3.172,4.472,5.539,5.539,0,0,1-1.767,4.186c-1.768,1.483-3.042,1.664-6.292,1.664H636.45Zm4.914,7.307h1.742a3.474,3.474,0,0,0,1.3-.182,1.347,1.347,0,0,0,.781-1.352,1.252,1.252,0,0,0-.754-1.274,3.4,3.4,0,0,0-1.327-.183h-1.742Zm0,7.618h2.315a3.648,3.648,0,0,0,1.456-.234,1.592,1.592,0,0,0,.987-1.612,1.423,1.423,0,0,0-.935-1.456,4.051,4.051,0,0,0-1.508-.208h-2.315Z" fill="#fff"/><path d="M657.874,1932.915v11.623a6.236,6.236,0,0,0,.338,2.315,2.166,2.166,0,0,0,2.158,1.351,2.06,2.06,0,0,0,2.132-1.248,6.394,6.394,0,0,0,.312-2.418v-11.623h4.915v11.623c0,3.224-.7,4.654-1.925,5.9a7.193,7.193,0,0,1-5.382,2.081,7.745,7.745,0,0,1-5.538-2.055c-1.586-1.742-1.924-3.094-1.924-5.928v-11.623Z" fill="#fff"/><path d="M671.16,1932.915h4.914v19.241H671.16Z" fill="#fff"/><path d="M679.687,1932.915H684.6v14.925H690.3v4.316H679.687Z" fill="#fff"/><path d="M692.22,1932.915h6.37c2.158,0,6.006,0,8.5,3.589a9.832,9.832,0,0,1,1.768,5.979c0,5.253-2.6,9.673-9.906,9.673H692.22Zm4.914,14.925h2.106c3.666,0,4.706-2.548,4.706-5.278a6.778,6.778,0,0,0-.936-3.562,4.047,4.047,0,0,0-3.744-1.769h-2.132Z" fill="#fff"/></g><g opacity="0.5"><path d="M849.908,1932.915h6.37c2.159,0,6.006,0,8.5,3.589a9.833,9.833,0,0,1,1.769,5.979c0,5.253-2.6,9.673-9.906,9.673h-6.735Zm4.914,14.925h2.107c3.666,0,4.706-2.548,4.706-5.278A6.779,6.779,0,0,0,860.7,1939a4.045,4.045,0,0,0-3.744-1.769h-2.132Z" fill="#fff"/><path d="M869.2,1932.915h10.895v4.316h-5.981v2.991h5.8v4.316h-5.8v3.3h5.981v4.316H869.2Z" fill="#fff"/><path d="M889.22,1932.915c3.562,0,4.888.547,5.928,1.4a6.544,6.544,0,0,1,2.262,5.1,6.945,6.945,0,0,1-2.028,5.044c-1.326,1.118-2.626,1.664-5.616,1.664h-1.924v6.032h-4.914v-19.241Zm-1.378,8.893h1.794a4.8,4.8,0,0,0,1.9-.287,2,2,0,0,0,1.17-2.027,1.925,1.925,0,0,0-1.223-1.976,5.281,5.281,0,0,0-2.027-.287h-1.612Z" fill="#fff"/><path d="M899.594,1932.915h4.914v14.925H910.2v4.316H899.594Z" fill="#fff"/><path d="M910.254,1942.744a9.77,9.77,0,1,1,0,.026Zm4.914-.234c0,2.938,2,5.694,5.3,5.694,3.484,0,5.174-3.172,5.174-5.642,0-2.5-1.69-5.694-5.226-5.694a5.355,5.355,0,0,0-5.252,5.615Z" fill="#fff"/><path d="M935.761,1945.162l-5.746-12.247h5.33l2.859,7.723,2.887-7.723h5.278l-5.694,12.247v6.994h-4.914Z" fill="#fff"/></g><g opacity="0.5"><path d="M908.623,1651.536l7.44,4.081-1.676,3.058-3.96-2.172-1.273,2.32,3.813,2.091-1.677,3.058-3.812-2.091-2.849,5.193-3.481-1.909Z" fill="#fff"/><path d="M919.5,1658.137l3.129,2.44-9.553,12.251-3.129-2.439Z" fill="#fff"/><path d="M924.155,1672.032l2.464-8.357,2.893,3.438-1.673,4.894,5.053-.877,2.879,3.423-8.678,1.1-2.806,9.386L921.4,1681.6l2.045-6.114-6.264,1.1-2.853-3.391Z" fill="#fff"/><path d="M938.5,1679.446l3.823,7.921-3.138,1.515-2.1-4.348-2.174,1.049,2.035,4.216-3.138,1.514-2.036-4.215-2.4,1.159,2.1,4.348-3.139,1.515-3.823-7.922Z" fill="#fff"/><path d="M944.335,1692.617l1.027,5.043c.349,1.708.97,4.755-1.467,7.31a7.957,7.957,0,0,1-4.45,2.365c-4.158.848-8.077-.5-9.256-6.282l-1.086-5.331Zm-11.023,6.3.34,1.667c.592,2.9,2.777,3.314,4.939,2.874a5.489,5.489,0,0,0,2.669-1.316,3.269,3.269,0,0,0,.795-3.249l-.344-1.688Z" fill="#fff"/></g></g><g transform="translate(637 1420.626)"><g transform="translate(74.486 172.919)"><path d="M382.835,1691.4a12.727,12.727,0,0,1-.7,5.331c-1.016,2.792-4.543,9.136-4.457,11.758s1.182,4.588,3.622,4.861c1.879.208,7.665-1.6,9.609-6.165s.294-5.814,1.311-7.76,2.208-6.079,1.531-9.126S382.835,1691.4,382.835,1691.4Z" transform="translate(-377.674 -1689.185)" fill="#001135"/><g transform="translate(0 5.498)"><path d="M390.906,1702.312c-1.944,4.567-7.729,6.372-9.609,6.164-2.356-.262-3.458-2.109-3.607-4.595-.009.144-.02.285-.015.412.086,2.622,1.182,4.588,3.622,4.859,1.879.21,7.665-1.6,9.609-6.164a10.5,10.5,0,0,0,1.008-4.757A11.118,11.118,0,0,1,390.906,1702.312Z" transform="translate(-377.674 -1689.807)" fill="#000508"/><path d="M387.252,1697.5a3.552,3.552,0,0,0-.353,1.987,3.252,3.252,0,0,1,.046-.44l.185.874,1.542-4.893.091-2.273A17.446,17.446,0,0,1,387.252,1697.5Z" transform="translate(-372.709 -1692.757)" fill="#000508"/></g></g><path d="M386.3,1685.847l-12.394-.554h-.272a7.555,7.555,0,0,1-3.709,3.927c-2.6,1.054-9.4,3.818-11.341,6.419-1.586,2.131,1.88,5.089,9.127,3.319,5.138-1.252,5.7-3.875,11.732-3.984,4.127-.076,7.466-1.549,8.185-2.322Z" transform="translate(-313.68 -1518.362)" fill="#001135"/><path d="M379.44,1692.307c-6.032.11-6.594,2.731-11.732,3.984-5.623,1.374-8.967-.1-9.445-1.825-.566,2.024,2.895,4.288,9.445,2.687,4.9-1.2,5.644-3.635,10.943-3.95l.125.71s6.638,0,8.85-1.883v-1.184l-.306-.6A15.688,15.688,0,0,1,379.44,1692.307Z" transform="translate(-313.68 -1515.696)" fill="#000508"/><path d="M367.3,1719.06a81.728,81.728,0,0,0,.969-27.773c-1.494-10.093-5.12-41.336-.776-61.874,0,0,2.568,4.334,9.672,7.116s8.55,8.3,8.55,8.3l-1.2,19.267s-3.009,9.015-2.653,14.443c.36,5.465,1.324,6.73,1.505,16.138s-.134,25.487-.134,25.487S374.214,1721.907,367.3,1719.06Z" transform="translate(-309.787 -1548.472)" fill="#0f2841"/><path d="M396.876,1696.933c-1.125-9.222-2.433-17.386-2-23.743s3.387-33.868.209-41.284l-22.255,3.52s3.356,33.012,6.9,47.87,5,44.3,5,44.3.3,3.549,4.6,3.737,7-7.6,7-7.6S398,1706.158,396.876,1696.933Z" transform="translate(-305.796 -1547.129)" fill="#1c354e"/><g transform="translate(0 27.26)"><path d="M348.655,1608.595c.383-1-.932-3.708-1.016-3.894a13.063,13.063,0,0,0-1.784-4.03,31.872,31.872,0,0,0-3.019-3.078c-.645-.739-2.2-1.017-2.7-1.506s-3.15-2.2-4.209-1.3.437,2.544,1.439,2.995a4.159,4.159,0,0,0,1.374.453l1.1,1.112a11.673,11.673,0,0,0-2.676-.157s-2.518-1.773-3.3-2.19-3.285-2.083-3.941-1.794a.907.907,0,0,0-.462,1.434,12.186,12.186,0,0,0,.749,2.239,11.266,11.266,0,0,0,1.38,2.237,5.413,5.413,0,0,0,1,.862l.468,1.059a4.49,4.49,0,0,0,0,1.473,5.5,5.5,0,0,0,1.34,2.273,9.329,9.329,0,0,0,3.479,1.887c1.425.357,4.061.885,5.09,1.063s1.568.947,2.255,1.212S348.535,1608.907,348.655,1608.595Z" transform="translate(-329.27 -1594.529)" fill="#ffcda8"/><g transform="translate(0 0.651)"><path d="M335.545,1599.493a1.968,1.968,0,0,0,1,.619l-.648.77s-.966-.875-1.057-1a3.15,3.15,0,0,1-.212-.855,1.9,1.9,0,0,0-.84-.931.886.886,0,0,0-1.1.208l-.714-.558a6.17,6.17,0,0,1-.477-1c-.094-.332-.5-.465-.948-.661s-1.079.33-1.079.33a.907.907,0,0,1,.462-1.434.453.453,0,0,1,.106-.023l.932.941a16.637,16.637,0,0,0,2.105,1.6A10.641,10.641,0,0,1,335.545,1599.493Z" transform="translate(-329.27 -1594.952)" fill="#d9a782"/><path d="M333.1,1603.615a5.5,5.5,0,0,1-1.34-2.272,3.646,3.646,0,0,1-.054-.94c.546.143,1.177,1.138,1.308,1.5.154.435.4.752,1.281,1.3a22.081,22.081,0,0,0,5.449,1.834,28.7,28.7,0,0,1,4.912.619,4.7,4.7,0,0,1,1.187,1.171c-.754.579-1.577,1.084-1.917.952-.686-.264-1.225-1.032-2.254-1.212s-3.666-.705-5.09-1.062A9.329,9.329,0,0,1,333.1,1603.615Z" transform="translate(-327.963 -1592.016)" fill="#d9a782"/><path d="M332.6,1597.829c.149-.083.462.374.408.714a10.575,10.575,0,0,0,.982,3.478c.414.47,1.21,1.345,1.21,1.345l-1.325-.512a11.745,11.745,0,0,0-1.047-1.373,2.725,2.725,0,0,0-1.086-.419l-.166-.375C332.077,1600.145,332.46,1597.905,332.6,1597.829Z" transform="translate(-328.03 -1593.407)" fill="#d9a782"/><path d="M331.518,1597.439a6.092,6.092,0,0,1,.625,1.454,15.394,15.394,0,0,1,.008,1.782,4.886,4.886,0,0,1-.751-.687,11.292,11.292,0,0,1-1.38-2.238,8.446,8.446,0,0,1-.375-.934,3.671,3.671,0,0,1,.652-.2A4.507,4.507,0,0,1,331.518,1597.439Z" transform="translate(-329.068 -1594.054)" fill="#d9a782"/></g><path d="M335.846,1598.865c.823.037,1.8.192,1.8.192l-1.1-1.112a4.161,4.161,0,0,1-1.374-.452c-.816-.367-1.954-1.529-1.782-2.432a2.363,2.363,0,0,0,.62.988,5.676,5.676,0,0,0,3,1c.506-.149.006.109.285.451a2.609,2.609,0,0,0,1.6.951c.668.039-.551,1.849.04,2.943A36.843,36.843,0,0,0,335.846,1598.865Z" transform="translate(-327.064 -1594.242)" fill="#d9a782"/></g><path d="M342.58,1604.774s-1.462,4.362-3.109,6.186l2.5,1.465s.823,1.216,1.431,1.432,5.246,3.28,6.577,4.182c1.217.822,13.012,8.008,15.3,7.956s7.516-4.346,10.444-6.24,8.867-6.114,8.867-6.114l6.974-18.929a10.526,10.526,0,0,0-6.4.624,17.39,17.39,0,0,0-7.082,6.615,21.559,21.559,0,0,1-5.6,6.412c-2.678,2.288-8.014,6.455-8.014,6.455s-6.688-3.785-9.939-5.061-6.688-3.442-7.439-3.586-2.034-.358-2.034-.358Z" transform="translate(-323.773 -1567.301)" fill="#dbe8f5"/><path d="M388.069,1598.222a13.544,13.544,0,0,0-4.356,4.625c-2.1,3.385-3.061,6.449-4.406,8.221a15.564,15.564,0,0,1-7.149,4.678c-2.525.644-7.094-.538-7.094-.538s.054,3.978-3.493,3.6-16.113-6.177-18.383-9.138l1.5.322-.86-1.13.592-1.451-1.8,1.8-1.987-1.986a9.52,9.52,0,0,1-1.165,1.709l2.5,1.466s.823,1.216,1.431,1.431,5.246,3.281,6.577,4.183c1.217.821,13.012,8.008,15.3,7.956s7.516-4.346,10.444-6.24,8.867-6.113,8.867-6.113l4.7-12.764Z" transform="translate(-323.773 -1565.279)" fill="#c2cfdc"/><path d="M382.813,1595.8s-7.61,7.887-.2,10.56c4.559,1.646,13.352-9.247,13.352-9.247s11.515,9.046,13.6,13.192-6.955,18.5-6.955,18.5-5.3,10.185-5.13,13.987,3.4,7.789,1.153,9.584c0,0-5.543,7.466-20.047,4.573s-11.818-11.376-11.818-11.376.465-2.238.714-4.064c.894-6.526.631-8.647.965-12.655s.911-7.362.911-7.362-1.513-14.246,1.88-20.861,5.589-6.2,5.589-6.2Z" transform="translate(-309.171 -1567.327)" fill="#dbe8f5"/><path d="M399.8,1607.756l-5.146.813a3.7,3.7,0,0,0-4.929,1.483c-1.948,3.082-2.93,11.289-5.01,16.32-1.739,4.2,3.008,15.365.859,21.628a11.8,11.8,0,0,0,3.5-2.809c2.247-1.8-.989-5.78-1.152-9.584s5.131-13.988,5.131-13.988S398.132,1613.539,399.8,1607.756Z" transform="translate(-299.608 -1560.142)" fill="#c2cfdc"/><path d="M390.691,1590.519l-14.995,7.35s-3.812,5.532,1.288,8.335,14.353-7.533,13.5-8.941S390.691,1590.519,390.691,1590.519Z" transform="translate(-304.991 -1569.43)" fill="#d9a782"/><path d="M382,1604.164l-1.9-4.053-3.976,2.349.874,2.9s-5.087,13.464-6.348,25.539c-.879,8.427-1.365,12.817-1.365,12.817l1.908,4,3.55-2.512s-.012-27.2,4.272-39.159Z" transform="translate(-307.707 -1564.262)" fill="#b00052"/><path d="M389.342,1594.292s-6.562,8.363-13.026,8.953l1.182,5.9a28.118,28.118,0,0,0,13.706-12.071Z" transform="translate(-303.92 -1567.397)" fill="#e8f5ff"/><path d="M373.319,1605.844l4.658-2.927a37.8,37.8,0,0,1-.229-7.5l-1.713-.519S372.664,1600.236,373.319,1605.844Z" transform="translate(-305.58 -1567.069)" fill="#e8f5ff"/><g transform="translate(67.071)"><path d="M390.864,1579.781c-3.164-2.222-8.244-2.088-11.871.259a11.022,11.022,0,0,0-4.973,6.554c-.345,1.31-.763,2.433-1.1,3.423s.674,2.267.674,2.267c-1.152,1.388-.348,4.755-.128,5.572a1.834,1.834,0,0,0-.209.759.889.889,0,0,0,.617.847,18.491,18.491,0,0,1,.4,2.927c-.018.807-.178,3.492,2.978,3.609s7.74-1.657,10.653-3.887a20.953,20.953,0,0,0,6.966-11.407A10.466,10.466,0,0,0,390.864,1579.781Z" transform="translate(-372.856 -1576.071)" fill="#ffcda8"/><path d="M373.423,1593.28h0c.466-1.057,1.58-2.687,1.9-3.757.416-1.387-2.342-2.838-2.342-2.838h0a4.357,4.357,0,0,0,.577,1.021C372.4,1589.1,373.2,1592.463,373.423,1593.28Z" transform="translate(-372.808 -1571.495)" fill="#d9a782"/><path d="M391.14,1579.057a12.4,12.4,0,0,0-13.783-.282,11.229,11.229,0,0,0-3.621,4.073c-1.1,1.885-1.2,5.772,3.27,6.212a33.434,33.434,0,0,0,8.071-.586c2.587,1.756,1.49,4.527,1.822,5.469s.694,2.147,1.277,2.5c.361.212,1.056-.366,1.234-.566.437-.483,3.49-3.872,3.59.393a19.417,19.417,0,0,0,1.742-4.82,12.15,12.15,0,0,0,.251-2.021h0C395.861,1587.768,395.844,1582.485,391.14,1579.057Z" transform="translate(-372.723 -1576.815)" fill="#563317"/><path d="M382.095,1589.527c.338.941.694,2.146,1.277,2.5.362.212,1.056-.366,1.234-.566.437-.483,3.49-3.872,3.59.393a19.4,19.4,0,0,0,1.742-4.82,12.132,12.132,0,0,0,.251-2.02,23.863,23.863,0,0,1-8.17,1.978C382.133,1588.062,381.919,1589.041,382.095,1589.527Z" transform="translate(-367.918 -1572.399)" fill="#634024"/><path d="M375.179,1598.1a15.569,15.569,0,0,0-.336-5.9c-.038-.171-.768,0-1.323-.191h0a18.53,18.53,0,0,1,.4,2.927C373.9,1595.56,373.811,1597.274,375.179,1598.1Z" transform="translate(-372.498 -1568.624)" fill="#d9a782"/><path d="M383.519,1593.719c.38.253,1.268.628,3.045-1.2s1.784-3.586.933-4.19a1.453,1.453,0,0,0-2.148.4A45.858,45.858,0,0,0,383.519,1593.719Z" transform="translate(-367.11 -1570.779)" fill="#f2a983"/><path d="M383.519,1593.719c.38.253,1.268.628,3.045-1.2s1.784-3.586.933-4.19a1.453,1.453,0,0,0-2.148.4A45.858,45.858,0,0,0,383.519,1593.719Z" transform="translate(-367.11 -1570.779)" fill="#ffcda8"/></g><g transform="translate(120.291 28.932)"><path d="M407.44,1616.249l3.056-4.193s-1.482-3.409-1.6-4.013,1.925-4.005,2.106-4.437,1.114-1.232,1.634-.784c0,0,1.042-2.249,1.784-3.806s2.05-3.787,3.044-3.342.728.969.149,2.359-2.028,4.838-2.028,4.838l.645-.171a16.112,16.112,0,0,1,1.84-2.956,1.333,1.333,0,0,1,1.7.361,4.052,4.052,0,0,1,.8,1.574s1.026-.383,1.436.422a2.619,2.619,0,0,1,.223,1.847,4.656,4.656,0,0,1-.822,1.334,2.56,2.56,0,0,0,.929-.27c.292-.2,1.448-.472,1.656.268s.125,1.41-1,2.2a7.781,7.781,0,0,0-2.617,3.2c-.3.944-2.373,2.667-3.392,3.351a11.993,11.993,0,0,0-2.991,3.609c-.762,1.343-1.314,2.439-1.314,2.439Z" transform="translate(-407.44 -1595.616)" fill="#ffcda8"/><path d="M411.418,1605.819s-.78,1.1-.526,1.758,1.484,1,1.938,1.8a2.084,2.084,0,0,0,1.6.838,1.746,1.746,0,0,0,2.536.84,6.1,6.1,0,0,0,1.4-1.759,4.388,4.388,0,0,0-1.525-1.909c-.8-.277-1.14.619-.971-.843s.425-2.707-.4-3.675a2.048,2.048,0,0,1-.615-1.753l.645-.17s.606-1.184,1.154-2.061c.24.1.631.324.6.685-.048.515-.518,1.882.211,2.414a1.993,1.993,0,0,0,1.128.506s-.823,1.386.149,1.723,1.928-.686,1.928-.686a3.468,3.468,0,0,0,.6-.12c-.386.451-1.023,1.305-.917,1.84.148.759.552,1.3.982,1.247h0a7.019,7.019,0,0,0-1.7,2.423c-.3.944-2.373,2.667-3.392,3.351a12,12,0,0,0-2.991,3.609c-.762,1.343-1.314,2.439-1.314,2.439l-1.2-.874c.628-1.9.909-5.378.585-5.75a19.263,19.263,0,0,0-1.56-1.393s-.517-1.191-.965-2.293c.289-.414.8-1.152,1.2-1.809a.746.746,0,0,0-.449-1.233s1.774-.574,1.83-.615a10.968,10.968,0,0,0,1.246-2.365,22.389,22.389,0,0,0-.777,2.481A6.521,6.521,0,0,1,411.418,1605.819Z" transform="translate(-406.708 -1593.857)" fill="#d9a782"/></g><path d="M420.644,1608.8s-.328,3.238,4.558,4.561l-1.547,3.523a18.882,18.882,0,0,1-.96,2.329c-.6,1.19-9.178,15.057-10.687,16.352s-6.746-.485-8.31-1.834-9.391-13.76-11.12-16.188-4.858-4.011-4.834-7.956c.017-2.486,2.785-8.558,6.833-6.884s6.422,5.935,7.988,8.419,7.014,11.062,7.014,11.062,6.243-8.688,6.889-9.174,1.717-1.16,1.717-1.16Z" transform="translate(-297.761 -1563.023)" fill="#dbe8f5"/><path d="M416.93,1613.2l1.547-3.524a10.625,10.625,0,0,1-1.25-.423l-1.432,2.936a19.934,19.934,0,0,1-1.867-1.1l1.339,1.336-.828,1.674,1.014-1.017a67.774,67.774,0,0,1-4.493,7.674c-1.447,1.871-5.954,10.188-10.732,10.924,1.97.659,4.162.966,5.055.2,1.51-1.3,10.09-15.162,10.687-16.352A18.917,18.917,0,0,0,416.93,1613.2Z" transform="translate(-291.036 -1559.338)" fill="#c2cfdc"/></g><g transform="translate(184.722 203.36)"><path d="M9198.677,6906.909,9160.4,6927l-38.119-22.008,38.639-20.283-30.976-18.211c-6.235-3.6-6.259-8.01-.061-11.679l66.19-39.182,128.021,73.913-77.207,45.7Z" transform="translate(-8828.774 -5377.722)" fill="#b2bdda" stroke="rgba(0,0,0,0)" stroke-miterlimit="10" stroke-width="1" style="mix-blend-mode:multiply;isolation:isolate"/><rect width="4.091" height="61.489" rx="1.873" transform="translate(484.854 1454.594) rotate(-8.434)" fill="#918093"/><path d="M416.59,1562.923h0a2.026,2.026,0,0,1-1.845-2.192l7.958-92.4a2.026,2.026,0,0,1,2.193-1.844h0a2.026,2.026,0,0,1,1.844,2.192l-7.958,92.4A2.025,2.025,0,0,1,416.59,1562.923Z" fill="#918093"/><path d="M423.055,1511.46l-3.854-2.637,1.1-11.1,4.1.641Z" fill="#6b5e6d"/><path d="M488.449,1478.788l3.658-2.9-1.882-10.993-4.049.929Z" fill="#6b5e6d"/><path d="M340.678,1504.005l-39.3-22.689c-3.642-2.1-2.168-6.715,3.275-10.25l14.127-9.172c5.443-3.534,27.453-5.98,31.1-3.877l24.6,15.126c3.642,2.1,2.285,15.552-3.158,19.087L357.2,1501.4C351.753,1504.936,344.32,1506.107,340.678,1504.005Z" fill="#bc4073"/><path d="M367.335,1506.535c-.238.185-3.71,1.7-3.933,1.87-.341.266-1.354.994-1.963,1.385-1.283.823-4.076,4.064-8.2,1.448-6.034-3.827,9.365-12.936,9.365-12.936l6.76-3.067a2.862,2.862,0,0,1,2.6.142h0a3,3,0,0,1,1.094,4.2C371.487,1501.975,371.327,1503.419,367.335,1506.535Z" fill="#15253d"/><path d="M366.735,1504.635c-.237.185-3.709,1.7-3.932,1.87-.341.266-1.355.994-1.964,1.385-1.282.823-4.076,4.064-8.2,1.448-6.034-3.827,9.366-12.936,9.366-12.936l6.76-3.067a2.865,2.865,0,0,1,2.6.142h0a3,3,0,0,1,1.093,4.195C370.888,1500.076,370.728,1501.519,366.735,1504.635Z" fill="#894e4e"/><path d="M371.1,1500.133c.372-.64.958-1.858,1.445-2.6a2.992,2.992,0,0,0-3.78-4.194l-3.3,1.5A12.918,12.918,0,0,1,371.1,1500.133Z" fill="#915350"/><path d="M337.436,1477.863c27.2-18.522,24.785-10.477,25.239,2.646.077,2.216-5.65,11.076-5.978,19.2" fill="none" stroke="#ceab8b" stroke-miterlimit="10" stroke-width="3.862"/><path d="M361.5,1498.573c-2.57,2.007-7.637,1.432-9.4-1.385-.113,1.493-.2,2.986-.246,4.48-.186,6.086,9.275,6.627,9.462.518C361.355,1500.982,361.418,1499.777,361.5,1498.573Z" fill="#e1eaf4"/><path d="M349.672,1496.1l-.125,4.2a.861.861,0,0,0,.14.505,7.653,7.653,0,0,0,7.484,3.34,17.13,17.13,0,0,0,7.065-2.155.875.875,0,0,0,.4-.774l-.157-4.287a.876.876,0,0,0-1.27-.755c-2.091,1.084-6.681,2.613-12.19-.781A.879.879,0,0,0,349.672,1496.1Z" fill="#e5c2a5"/><path d="M330.958,1476.424h0c.529,1.136-1.591-4.254-.751-3.324,1.75,1.938,11.3,13.719,13.788,14.514,3,.96-4.819-6.01-4.819-6.01S364.2,1467,363.669,1466.275c-4.118-5.646-8.023-7.412-15.918-4.341C338.764,1465.43,328.427,1470.986,330.958,1476.424Z" fill="#bc9a7e"/><path d="M382.588,1515.123c-.244.178-3.763,1.574-3.992,1.74-.35.255-1.386.949-2.008,1.32-1.308.78-4.207,3.927-8.243,1.177-5.9-4.024,9.786-12.621,9.786-12.621l6.857-2.842a2.86,2.86,0,0,1,2.594.227h0a3,3,0,0,1,.955,4.228C386.889,1510.7,386.681,1512.14,382.588,1515.123Z" fill="#15253d"/><path d="M382.052,1513.2c-.244.177-3.764,1.573-3.992,1.74-.35.254-1.387.949-2.008,1.319-1.309.781-4.208,3.928-8.243,1.178-5.9-4.024,9.786-12.621,9.786-12.621l6.857-2.843a2.861,2.861,0,0,1,2.593.228h0a3,3,0,0,1,.955,4.228C386.352,1508.785,386.145,1510.222,382.052,1513.2Z" fill="#894e4e"/><path d="M386.562,1508.848c.393-.627,1.018-1.825,1.53-2.554a2.993,2.993,0,0,0-3.64-4.316l-3.347,1.387A12.922,12.922,0,0,1,386.562,1508.848Z" fill="#915350"/><path d="M348.4,1485.428c20.59-14.859,24.893-16.893,24.06-3.28-.136,2.214.315,17.7-.281,25.806" fill="none" stroke="#ceab8b" stroke-miterlimit="10" stroke-width="3.862"/><path d="M377.017,1506.974c-2.634,1.921-7.679,1.18-9.346-1.694-.161,1.489-.3,2.979-.393,4.47-.387,6.077,9.052,6.929,9.44.829C376.794,1509.376,376.9,1508.175,377.017,1506.974Z" fill="#e1eaf4"/><path d="M365.278,1504.116l-.263,4.19a.866.866,0,0,0,.124.509,7.652,7.652,0,0,0,7.37,3.585,17.13,17.13,0,0,0,7.131-1.922.873.873,0,0,0,.429-.76l-.016-4.29a.875.875,0,0,0-1.244-.8c-2.126,1.015-6.764,2.392-12.158-1.182A.88.88,0,0,0,365.278,1504.116Z" fill="#e5c2a5"/><path d="M1.562,0H1.69A1.563,1.563,0,0,1,3.253,1.563V43.013A1.563,1.563,0,0,1,1.69,44.576H1.562A1.562,1.562,0,0,1,0,43.014V1.562A1.562,1.562,0,0,1,1.562,0Z" transform="matrix(-0.989, 0.147, -0.147, -0.989, 374.075, 1526.637)" fill="#513554"/><rect width="63.2" height="3.357" rx="1.432" transform="matrix(0.147, -0.989, 0.989, 0.147, 294.701, 1474.029)" fill="#6b5e6d"/><rect width="10.742" height="6.239" transform="translate(291.313 1417.092)" fill="#a8c4e5"/><rect width="10.742" height="6.239" transform="translate(486.626 1456.982)" fill="#a8c4e5"/><path d="M425.358,1502.042l-132.675-76.6c-2.08-1.2-1.819-3.3.582-4.684l61.909-35.744c2.4-1.386,6.035-1.537,8.115-.336l132.675,76.6c2.08,1.2,1.819,3.3-.583,4.685L433.472,1501.7C431.071,1503.092,427.438,1503.242,425.358,1502.042Z" fill="#a8c4e5"/><path d="M425.358,1496.057l-132.675-76.6c-2.08-1.2-1.819-3.3.582-4.684l61.909-35.744c2.4-1.386,6.035-1.537,8.115-.336l132.675,76.6c2.08,1.2,1.819,3.3-.583,4.685l-61.909,35.743C431.071,1497.108,427.438,1497.258,425.358,1496.057Z" fill="#e9f5ff"/><path d="M331.075,1461.507l-27.464,21.217c-4.486,2.746-7.853.02-7.849-4.7l-.523-7.684c0-4.719,3.678-10.827,8.163-13.573l27.694-16.955c4.485-2.747,8.151-1.132,8.147,3.587l-.005,4.533C339.234,1452.653,335.56,1458.76,331.075,1461.507Z" fill="#a33467"/><path d="M295.461,1528.812h0a1.626,1.626,0,0,1-1.37-1.847l7.653-51.6a1.627,1.627,0,0,1,1.847-1.37h0a1.627,1.627,0,0,1,1.37,1.847l-7.653,51.6A1.626,1.626,0,0,1,295.461,1528.812Z" fill="#513554"/><path d="M331.632,1550.759h0a1.682,1.682,0,0,1-1.417-1.911l8.632-58.207a1.683,1.683,0,0,1,1.912-1.417h0a1.682,1.682,0,0,1,1.417,1.911l-8.632,58.206A1.682,1.682,0,0,1,331.632,1550.759Z" fill="#513554"/><path d="M338.562,1509.517l-34.743-20.059a16.738,16.738,0,0,1-5.8-6.451c-1.4-3.21,1.936-5.532,5.671-3.376l36.531,21.507c3.735,2.156,5.144,4.408,4.541,7.082C344.763,1508.22,343.3,1511.959,338.562,1509.517Z" fill="#d84177"/><path d="M408.081,1439.341l-38.64-22.308a.707.707,0,0,0-.714,0L357,1423.959a.708.708,0,0,0,.006,1.223l38.509,22.234a.71.71,0,0,0,.708,0l11.861-6.848A.709.709,0,0,0,408.081,1439.341Z" fill="#a8c4e5"/><path d="M396.247,1445.891l-38.51-22.233a.708.708,0,0,1-.005-1.223l11.73-6.923a.707.707,0,0,1,.714,0l38.64,22.309a.708.708,0,0,1,0,1.226l-11.861,6.848A.706.706,0,0,1,396.247,1445.891Z" fill="#fff"/><path d="M371.371,1418.971a.327.327,0,0,1-.283-.032l-2.6-1.5c-.094-.054-.12-.127-.058-.163l1.721-.994a.328.328,0,0,1,.283.033l2.6,1.5c.094.054.119.127.057.163Z" fill="#a8c4e5"/><path d="M374.385,1423.448a.327.327,0,0,1-.284-.033l-2.6-1.5c-.094-.054-.119-.127-.056-.163l1.722-.994a.321.321,0,0,1,.28.032l2.6,1.5c.1.054.12.127.058.162Z" fill="#a8c4e5"/><path d="M372.861,1425.306a.326.326,0,0,1-.282-.033l-2.6-1.5c-.092-.053-.12-.127-.058-.163l1.722-.995a.334.334,0,0,1,.282.034l2.6,1.5c.093.054.119.127.058.163Z" fill="#a8c4e5"/><path d="M368.739,1425.665a.328.328,0,0,1-.281-.033l-2.6-1.5c-.093-.053-.119-.127-.057-.162l1.721-.995a.328.328,0,0,1,.282.032l2.6,1.5c.093.053.118.127.056.162Z" fill="#a8c4e5"/><path d="M366.069,1427.207a.42.42,0,0,1-.335-.064l-3.4-1.964c-.122-.07-.172-.158-.11-.193l2.021-1.168a.427.427,0,0,1,.335.063l3.4,1.965c.123.071.171.158.11.193Z" fill="#a8c4e5"/><path d="M388.43,1440.13a.326.326,0,0,1-.264-.044l-2.6-1.5c-.094-.055-.129-.124-.078-.154l.748-.431a.322.322,0,0,1,.265.045l2.6,1.5c.093.054.127.122.076.152Z" fill="#a8c4e5"/><path d="M391.9,1442.185a.32.32,0,0,1-.263-.044l-2.6-1.5c-.1-.055-.13-.124-.079-.153l.748-.432a.322.322,0,0,1,.265.045l2.6,1.5c.094.054.127.123.076.152Z" fill="#a8c4e5"/><path d="M395.581,1444.26a.32.32,0,0,1-.26-.046l-2.6-1.5c-.093-.054-.131-.122-.081-.151l.72-.416a.327.327,0,0,1,.261.047l2.6,1.5c.093.054.129.122.08.151Z" fill="#a8c4e5"/><path d="M393.318,1441.392a.322.322,0,0,1-.261-.046l-2.6-1.5c-.093-.054-.13-.122-.08-.151l.719-.416a.33.33,0,0,1,.262.047l2.6,1.5c.094.054.13.122.08.151Z" fill="#a8c4e5"/><path d="M383.94,1437.518a.328.328,0,0,1-.284-.034l-16.906-9.756c-.092-.053-.119-.127-.057-.163l2.021-1.167a.333.333,0,0,1,.282.033l16.906,9.756c.094.054.12.129.059.164Z" fill="#a8c4e5"/><path d="M382.208,1436.039a.933.933,0,0,1-.143-.075L368.61,1428.2a.962.962,0,0,1-.129-.082l.126-.073a1.015,1.015,0,0,1,.142.074l13.455,7.765a.784.784,0,0,1,.13.083Z" fill="#a8c4e5"/><path d="M372.3,1427.719a.327.327,0,0,1-.282-.034l-2.6-1.5c-.092-.053-.119-.127-.058-.163l1.722-.994a.328.328,0,0,1,.283.033l2.6,1.5c.094.054.119.127.057.163Z" fill="#a8c4e5"/><path d="M375.877,1429.783a.331.331,0,0,1-.281-.033l-2.6-1.5c-.093-.054-.119-.128-.058-.163l1.722-.995a.335.335,0,0,1,.283.033l2.6,1.5c.092.054.117.127.056.163Z" fill="#a8c4e5"/><path d="M379.454,1431.847a.328.328,0,0,1-.281-.033l-2.6-1.5c-.093-.053-.118-.127-.057-.162l1.722-.995a.329.329,0,0,1,.282.032l2.6,1.5c.093.053.118.127.056.162Z" fill="#a8c4e5"/><path d="M383.032,1433.911a.326.326,0,0,1-.282-.032l-2.6-1.5c-.094-.054-.119-.127-.058-.163l1.722-.994a.328.328,0,0,1,.283.033l2.6,1.5c.093.054.118.127.056.163Z" fill="#a8c4e5"/><path d="M386.609,1435.976a.329.329,0,0,1-.283-.034l-2.6-1.5c-.093-.053-.118-.127-.057-.162l1.722-.995a.327.327,0,0,1,.281.033l2.6,1.5c.094.054.12.128.058.164Z" fill="#a8c4e5"/><path d="M390.187,1438.039a.329.329,0,0,1-.282-.033l-2.6-1.5c-.093-.054-.119-.128-.057-.163l1.721-.995a.332.332,0,0,1,.283.033l2.6,1.5c.093.054.118.128.056.163Z" fill="#a8c4e5"/><path d="M398.244,1442.689a.33.33,0,0,1-.282-.033l-7.078-4.085c-.093-.054-.119-.127-.057-.163l1.721-.994a.328.328,0,0,1,.283.032l7.078,4.085c.093.054.118.127.057.163Z" fill="#a8c4e5"/><path d="M376.421,1427.359a.321.321,0,0,1-.281-.033l-2.6-1.5c-.093-.054-.119-.126-.057-.162l1.722-.995a.328.328,0,0,1,.281.033l2.6,1.5c.094.055.118.127.057.162Z" fill="#a8c4e5"/><path d="M380,1429.424a.327.327,0,0,1-.281-.033l-2.6-1.5c-.093-.053-.119-.126-.057-.162l1.722-.995a.329.329,0,0,1,.28.033l2.6,1.5c.093.053.119.127.058.162Z" fill="#a8c4e5"/><path d="M383.576,1431.488a.326.326,0,0,1-.282-.033l-2.6-1.5c-.092-.053-.121-.127-.059-.163l1.722-.995a.334.334,0,0,1,.282.034l2.6,1.5c.093.053.119.127.058.162Z" fill="#a8c4e5"/><path d="M387.153,1433.552a.326.326,0,0,1-.282-.033l-2.6-1.5c-.094-.054-.12-.126-.058-.162l1.722-.995a.33.33,0,0,1,.282.033l2.6,1.5c.093.054.119.127.058.162Z" fill="#a8c4e5"/><path d="M390.732,1435.616a.329.329,0,0,1-.282-.033l-2.6-1.5c-.093-.054-.119-.126-.057-.162l1.722-.995a.328.328,0,0,1,.281.033l2.6,1.5c.093.053.118.127.057.162Z" fill="#a8c4e5"/><path d="M394.308,1437.679a.326.326,0,0,1-.281-.032l-2.6-1.5c-.1-.055-.121-.127-.059-.163l1.722-.995a.33.33,0,0,1,.282.034l2.6,1.5c.093.053.118.126.057.162Z" fill="#a8c4e5"/><path d="M397.885,1439.744a.327.327,0,0,1-.281-.033l-2.6-1.5c-.093-.053-.119-.126-.056-.162l1.722-.994a.325.325,0,0,1,.28.032l2.6,1.5c.093.053.119.127.058.162Z" fill="#a8c4e5"/><path d="M377.945,1425.5a.325.325,0,0,1-.283-.033l-2.6-1.5c-.093-.053-.118-.126-.056-.162l1.722-.995a.325.325,0,0,1,.28.033l2.6,1.5c.094.054.119.127.058.162Z" fill="#a8c4e5"/><path d="M381.522,1427.565a.328.328,0,0,1-.282-.032l-2.6-1.5c-.093-.054-.119-.127-.057-.164l1.722-.994a.326.326,0,0,1,.282.033l2.6,1.5c.092.054.118.127.056.162Z" fill="#a8c4e5"/><path d="M385.1,1429.629a.324.324,0,0,1-.283-.032l-2.6-1.5c-.093-.054-.119-.127-.056-.163l1.722-1a.325.325,0,0,1,.28.033l2.6,1.5c.094.054.119.128.058.163Z" fill="#a8c4e5"/><path d="M388.676,1431.693a.322.322,0,0,1-.282-.032l-2.6-1.5c-.094-.054-.12-.127-.057-.163l1.722-.995a.328.328,0,0,1,.281.033l2.6,1.5c.093.054.118.126.056.162Z" fill="#a8c4e5"/><path d="M392.254,1433.756a.322.322,0,0,1-.281-.031l-2.6-1.5c-.094-.055-.118-.127-.056-.164l1.722-.994a.328.328,0,0,1,.281.033l2.6,1.5c.092.053.118.127.057.162Z" fill="#a8c4e5"/><path d="M395.832,1435.821a.324.324,0,0,1-.284-.033l-2.6-1.5c-.092-.053-.118-.126-.055-.163l1.721-.994a.327.327,0,0,1,.281.033l2.6,1.5c.094.054.12.127.059.163Z" fill="#a8c4e5"/><path d="M399.408,1437.885a.325.325,0,0,1-.282-.032l-2.6-1.5c-.094-.054-.119-.127-.056-.163l1.722-.995a.328.328,0,0,1,.281.033l2.6,1.5c.093.054.118.127.057.163Z" fill="#a8c4e5"/><path d="M370.808,1421.384a.328.328,0,0,1-.283-.033l-4.4-2.542c-.094-.054-.12-.127-.057-.164l1.722-.994a.328.328,0,0,1,.281.033l4.4,2.542c.094.055.12.128.058.163Z" fill="#a8c4e5"/><path d="M405.356,1438.58a.328.328,0,0,1-.283-.033l-4.4-2.542c-.092-.053-.118-.127-.056-.163l1.721-.994a.329.329,0,0,1,.282.033l4.4,2.542c.093.054.119.127.057.163Z" fill="#a8c4e5"/><path d="M369.283,1423.242a.324.324,0,0,1-.282-.034l-5.251-3.03c-.094-.054-.12-.127-.058-.163l1.722-.995a.331.331,0,0,1,.282.034l5.251,3.03c.1.055.119.128.058.163Z" fill="#a8c4e5"/><path d="M365.163,1423.6a.326.326,0,0,1-.282-.033l-3.5-2.02c-.094-.055-.119-.128-.057-.163l1.721-.995a.328.328,0,0,1,.283.033l3.5,2.021c.094.054.119.127.057.163Z" fill="#a8c4e5"/><path d="M374.947,1421.035a.325.325,0,0,1-.283-.033l-2.6-1.5c-.093-.054-.119-.127-.057-.163l1.721-.994a.328.328,0,0,1,.283.033l2.6,1.5c.1.054.12.127.057.163Z" fill="#a8c4e5"/><path d="M378.509,1423.089a.328.328,0,0,1-.283-.033l-2.6-1.5c-.093-.054-.119-.128-.057-.164l1.721-.994a.326.326,0,0,1,.282.033l2.6,1.5c.094.054.12.128.058.164Z" fill="#a8c4e5"/><path d="M382.084,1425.152a.323.323,0,0,1-.281-.032l-2.6-1.5c-.093-.054-.119-.127-.056-.163l1.721-.994a.326.326,0,0,1,.281.032l2.6,1.5c.094.054.119.126.056.162Z" fill="#a8c4e5"/><path d="M385.663,1427.217a.328.328,0,0,1-.283-.033l-2.6-1.5c-.094-.054-.12-.127-.058-.163l1.721-.994a.325.325,0,0,1,.283.033l2.6,1.5c.093.054.119.127.057.163Z" fill="#a8c4e5"/><path d="M389.239,1429.281a.325.325,0,0,1-.282-.032l-2.6-1.5c-.094-.054-.12-.128-.057-.163l1.721-.995a.326.326,0,0,1,.282.033l2.6,1.5c.094.055.118.127.056.163Z" fill="#a8c4e5"/><path d="M392.818,1431.345a.326.326,0,0,1-.282-.033l-2.6-1.5c-.093-.053-.118-.126-.056-.162l1.721-.994a.325.325,0,0,1,.282.032l2.6,1.5c.092.053.118.126.056.162Z" fill="#a8c4e5"/><path d="M396.395,1433.409a.328.328,0,0,1-.283-.033l-2.6-1.5c-.094-.054-.12-.128-.058-.164l1.721-.994a.325.325,0,0,1,.283.034l2.6,1.5c.093.054.119.127.057.163Z" fill="#a8c4e5"/><path d="M399.971,1435.473a.327.327,0,0,1-.281-.032l-2.6-1.5c-.092-.053-.117-.126-.055-.162l1.721-.994a.326.326,0,0,1,.281.032l2.6,1.5c.092.054.117.126.055.162Z" fill="#a8c4e5"/><path d="M402.051,1437.293a.406.406,0,0,0-.152-.05.213.213,0,0,0-.128.018l-1.721.994a.06.06,0,0,0-.032.075.189.189,0,0,0,.086.088l.679.391-2.258,1.3a.058.058,0,0,0-.029.075.183.183,0,0,0,.087.088l1.75,1.01a.42.42,0,0,0,.153.051.221.221,0,0,0,.13-.017l4.092-2.365a.056.056,0,0,0,.029-.074.187.187,0,0,0-.088-.089Z" fill="#a8c4e5"/><path d="M318.692,1429.255c15.6,21.154,5.815,3.39,12.583,3.623,14.609.5,26.176-14.573,33.332-13.323" fill="none" stroke="#ffaa82" stroke-miterlimit="10" stroke-width="2.485"/><ellipse cx="4.143" cy="7.175" rx="4.143" ry="7.175" transform="translate(417.063 1448.673) rotate(-89.694)" fill="#a8c4e5"/><ellipse cx="3.64" cy="6.298" rx="3.64" ry="6.298" transform="translate(457.103 1457.515) rotate(-89.78)" fill="#a8c4e5"/><ellipse cx="3.662" cy="6.342" rx="3.662" ry="6.342" transform="translate(415.583 1447.783) rotate(-89.689)" fill="#8585ff"/><path d="M427.227,1444.277l-11.624-.044V1433.88l11.624.1Z" fill="#8585ff"/><path d="M424.834,1433.924v9.46l-.012.367c.01,1.595-.814,1.874-2.053,2.59a8.435,8.435,0,0,1-2.6,1.075,9.87,9.87,0,0,0,6.343-1.165c1.24-.716,1.846-1.271,1.836-2.867h0l-.038-9.384Z" fill="#7878ea"/><ellipse cx="3.662" cy="6.342" rx="3.662" ry="6.342" transform="matrix(0.005, -1, 1, 0.005, 415.583, 1437.604)" fill="#b3b3ff"/><path d="M425.7,1436.065a8.191,8.191,0,0,1-7.413-.014c-2.053-1.185-2.064-3.1-.023-4.28a8.192,8.192,0,0,1,7.413.014C427.726,1432.97,427.736,1434.887,425.7,1436.065Z" fill="#a1a1e5"/><path d="M425.672,1433.629a8.189,8.189,0,0,0-7.413-.013,3.27,3.27,0,0,0-1.271,1.207,3.338,3.338,0,0,0,1.294,1.228,8.191,8.191,0,0,0,7.413.014,3.283,3.283,0,0,0,1.272-1.208A3.34,3.34,0,0,0,425.672,1433.629Z" fill="#565682"/><path d="M418.259,1436.065a3.28,3.28,0,0,1-1.271-1.208,2.842,2.842,0,0,1,.606-.736,8.1,8.1,0,0,1,5.153.758,3.284,3.284,0,0,1,1.271,1.207,1.717,1.717,0,0,1,.222.571c-.306.074-.587.133-.828.166A8.112,8.112,0,0,1,418.259,1436.065Z" fill="#6b6b9b"/><path d="M426.3,1437.953c1.15.62,2.385,1.113,2.437,1.886.1,1.4.1,3.5.042,4.9a.794.794,0,0,1-.491.783c-.3.1-1.727-.68-2.045-.841" fill="none" stroke="#45446c" stroke-miterlimit="10" stroke-width="0.542"/><path d="M314.885,1423.935c-2.407,2.6-2.335,4.286-2.628,7.98a7.7,7.7,0,0,0,5.258,7.991l33.955,11.354s9.5-13.2-1.65-17.993c-5.8-2.492-9.724-5.936-14.069-8.951C329.37,1419.887,320.446,1417.921,314.885,1423.935Z" fill="#56547f"/><path d="M311.578,1482.026c-2.27-.808-1.647-32.279,1.046-53.8l39.738,18.111c-3.518,18.626-3.506,32.761-1.938,54.962Z" fill="#56547f"/><path d="M352.362,1446.335l-6.6-2.943c-4.012,18.928-4.8,32.66-1.892,53.989l-.109-.031c.01,1.235-.921,2.577-2.737,3.644h0c-3.235,1.9,1.5,2.867,4.741.966l8.413-16.571C352.362,1467.169,347.852,1471.034,352.362,1446.335Z" fill="#46466b"/><path d="M373.947,1492.118l-27.693,16.955c-4.486,2.747-7.953,1.458-7.7-2.864l.238-4.151c.248-4.322,4.121-10.1,8.606-12.851l27.694-16.955c4.485-2.747,7.952-1.458,7.7,2.864l-.238,4.151C382.3,1483.589,378.432,1489.372,373.947,1492.118Z" fill="#d84177"/><path d="M297.727,1481.144l-4.282-38.68c-.833-5.628,4.086-7.169,10.653-3.337l26.263,15.321a26.946,26.946,0,0,1,10.884,12.179l9.932,25.111c2.848,7.2-6.8,18.927-13.424,14.966Z" fill="#d84177"/><path d="M402.6,1455.484l-5.226,3.582a4.259,4.259,0,0,1-5.9-1.1h0a4.258,4.258,0,0,1,1.1-5.9l5.226-3.582a4.26,4.26,0,0,1,5.9,1.1h0A4.259,4.259,0,0,1,402.6,1455.484Z" fill="#45446c"/><path d="M354.857,1444.739c10.021,8.9,10.524,14,17.292,13.793,6.518-.2,17.768-8.358,25.516-10.2" fill="none" stroke="#ffaa82" stroke-miterlimit="10" stroke-width="2.485"/><path d="M345.259,1443.961l14.268,13.92c4.636,3.4,10.728-5.143,7.132-8.255l-13.891-14.539c-2.307-1.981-5.424-1.97-7.209.024h0C343.7,1437.189,343.109,1441.593,345.259,1443.961Z" fill="#56547f"/><path d="M357.045,1454.563c2.838-.929,5.724-2.143,7.058-6.746" fill="none" stroke="#fcfeff" stroke-miterlimit="10" stroke-width="0.811"/><path d="M379.706,1402.668H379.7a.462.462,0,0,0-.267-.393l-6.732-3.887a1.749,1.749,0,0,0-1.574.065l-12.187,7.037a.663.663,0,0,0-.382.488l0,0,.02.674,0,0a.429.429,0,0,0,.248.515l6.732,3.886a1.435,1.435,0,0,0,.763.156,1.8,1.8,0,0,0,.81-.221l12.188-7.036a.655.655,0,0,0,.381-.5h0Z" fill="#a8c4e5"/><path d="M357.585,1406.009l-.021-.674.871.563a4.179,4.179,0,0,1-.272.59Z" fill="url(#h)"/><path d="M364.569,1410.413l-6.733-3.886c-.4-.233-.352-.64.113-.909l12.188-7.036a1.747,1.747,0,0,1,1.573-.065l6.732,3.886c.4.233.353.64-.113.909l-12.187,7.036A1.747,1.747,0,0,1,364.569,1410.413Z" fill="url(#i)"/><path d="M365.3,1406.678l4.836-8.1a1.747,1.747,0,0,1,1.573-.065l6.732,3.886c.4.233.353.64-.113.909l-12.187,7.036a1.8,1.8,0,0,1-.81.221Z" fill="#b2d0ed"/><path d="M370.6,1403.993l1.236-1.677,6.874-.289,0,.786-7.512,2.394Z" fill="#8db0da"/><path d="M358.522,1406.473c0,.117-.082.164-.184.1a.406.406,0,0,1-.185-.318c0-.117.083-.164.185-.106A.407.407,0,0,1,358.522,1406.473Z" fill="#45446c"/><path d="M364.569,1409.644l-6.733-3.887c-.4-.233-.352-.639.113-.908l12.188-7.037a1.747,1.747,0,0,1,1.573-.065l6.732,3.887c.4.233.353.639-.113.908l-12.187,7.037A1.75,1.75,0,0,1,364.569,1409.644Z" fill="#45446c"/><path d="M375.3,1400.491l-1.859-1.073c-.076-.044-.067-.122.022-.173h0a.335.335,0,0,1,.3-.013l1.859,1.074c.077.044.067.122-.022.173h0A.332.332,0,0,1,375.3,1400.491Z" fill="#565682"/><path d="M361.8,1408.572l-1.493-.862a.273.273,0,0,1-.115-.219h0c0-.085.051-.124.115-.087l1.493.862a.275.275,0,0,1,.115.219h0C361.919,1408.57,361.867,1408.609,361.8,1408.572Z" fill="#45446c"/><path d="M376.6,1403.965l.736-.424a.193.193,0,0,0,.079-.152h0c0-.058-.036-.085-.079-.06l-.736.425a.191.191,0,0,0-.079.151h0C376.516,1403.963,376.552,1403.99,376.6,1403.965Z" fill="#565682"/><path d="M375.553,1404.62l.735-.424a.2.2,0,0,0,.079-.152h0c0-.058-.036-.085-.079-.06l-.735.425a.189.189,0,0,0-.08.151h0C375.473,1404.618,375.509,1404.645,375.553,1404.62Z" fill="#565682"/><path d="M362.627,1407.206a1.251,1.251,0,0,1-1.132,0,.345.345,0,0,1,0-.654,1.253,1.253,0,0,1,1.133,0A.345.345,0,0,1,362.627,1407.206Z" fill="#565682"/><path d="M370.516,1398.215l-10.248,5.917a.358.358,0,0,0,0,.62l6.222,3.592a.358.358,0,0,0,.358,0l10.249-5.917a.358.358,0,0,0,0-.62l-6.223-3.592A.358.358,0,0,0,370.516,1398.215Z" fill="#97cbff"/><ellipse cx="4.019" cy="6.962" rx="4.019" ry="6.962" transform="translate(452.925 1456.188) rotate(-89.689)" fill="#87a6c4"/><path d="M449.693,1442.446l3.276,10.043,13.851.228,3.162-9.679Z" fill="#87a6c4"/><path d="M466.047,1443.089l-3.162,9.878h0a4.413,4.413,0,0,1-1.972,2.22,8.565,8.565,0,0,1-2.84.942,10.625,10.625,0,0,0,6.775-.925,4.435,4.435,0,0,0,1.972-2.237h0l3.162-9.878Z" fill="#7694ad"/><ellipse cx="5.938" cy="10.285" rx="5.938" ry="10.285" transform="matrix(0.005, -1, 1, 0.005, 449.592, 1447.689)" fill="#93b5d1"/><ellipse cx="5.097" cy="8.828" rx="5.097" ry="8.828" transform="matrix(0.005, -1, 1, 0.005, 450.982, 1446.664)" fill="#353559"/><path d="M453.1,1439.58h0a3.883,3.883,0,0,1-.879-1.893,1.743,1.743,0,0,1,.884-1.771,2.09,2.09,0,0,1,2.211.662c.579.579.991,1.317,1.616,1.846q-1.2-3.8-2.4-7.6a4.786,4.786,0,0,1-.326-2.37,1.643,1.643,0,0,1,1.688-1.4c1.529.251,1.3,2.839,2.665,3.581a19.537,19.537,0,0,1-2-6.035,6.1,6.1,0,0,1,.3-3.663,2.632,2.632,0,0,1,3.072-1.471c1.44.547,1.721,2.427,1.772,3.967q.1,2.971.2,5.942c.486-1.983,1.239-4.272,3.177-4.916a12.67,12.67,0,0,1-1.129,8.076,3.1,3.1,0,0,1,2.552-1.534,8.907,8.907,0,0,1-2.459,7.738q.827-.918,1.652-1.838a5.524,5.524,0,0,1-1.663,5.4C460.539,1445.375,455.465,1442.687,453.1,1439.58Z" fill="#27e0c0"/><path d="M385.758,1405.433l50.773,29.973a1.2,1.2,0,0,0,1.206-.025l3.667-2.117a1.234,1.234,0,0,0,.171-2.112L390.8,1401.178a1.2,1.2,0,0,0-1.206.026l-3.667,2.117A1.234,1.234,0,0,0,385.758,1405.433Z" fill="#a8c4e5"/><path d="M438.736,1432.969l2.8-1.909-7.662-9.435,2.693,4.471Z" fill="#8aacce"/><path d="M381.712,1351.285l2.716-2.191,6.012,6.741a43.545,43.545,0,0,1-4.182,2.82C385.909,1358.655,381.712,1351.285,381.712,1351.285Z" fill="#b5cfea"/><path d="M403.064,1428.949l-11.452-6.612c-.919-.53-.892-1.393.059-1.9l16.174-8.577a3.579,3.579,0,0,1,3.152.044l10.3,5.946c.872.5.9,1.314.06,1.83l-15.022,9.243A3.542,3.542,0,0,1,403.064,1428.949Z" fill="#8aacce"/><path d="M403.064,1427.4l-11.452-6.612c-.919-.531-.892-1.394.059-1.9l16.174-8.577a3.576,3.576,0,0,1,3.152.044l10.3,5.946c.872.5.9,1.314.06,1.83l-15.022,9.243A3.542,3.542,0,0,1,403.064,1427.4Z" fill="url(#j)"/><g opacity="0.29" style="mix-blend-mode:multiply;isolation:isolate"><path d="M400.5,1414.2l14.036,8.181,2.912-1.792-13.9-8.006Z" fill="#45446c"/></g><path d="M440.943,1381.476l-.073.018h.016l-55.279-32.034-.514-.331a.614.614,0,0,0-.933.558l.466.138h.311v50.857a1.794,1.794,0,0,0,.674,1.515s55.922,27.183,55.922,26.616l.06-45.92v-.083A1.56,1.56,0,0,0,440.943,1381.476Z" fill="#b5cfea"/><path d="M418.105,1401.307c7.186-7.227,11.232,13.28,15.774,24.521a8.016,8.016,0,0,0,7.631,5.289l.083-47.923v-.219a2.273,2.273,0,0,0-.161-.96Z" fill="#8aacce"/><path d="M438.239,1432.953l-55.883-32.036a1.836,1.836,0,0,1-.838-1.436l.006-47.228c0-.526.378-.739.839-.475l55.883,32.036a1.841,1.841,0,0,1,.839,1.436l-.007,47.229C439.078,1433,438.7,1433.217,438.239,1432.953Z" fill="url(#k)"/><path d="M438.276,1426.445l-56.111-32.4a1.731,1.731,0,0,1-.775-1.349l-.09-40.923c0-.5.346-.7.771-.456l56.111,32.4a1.729,1.729,0,0,1,.775,1.349l.09,40.922C439.048,1426.485,438.7,1426.69,438.276,1426.445Z" fill="#45446c"/><path d="M436.133,1420.911l-52.794-30.48.114-35.479,52.794,30.48Z" fill="#97cbff"/><path d="M423.251,1385.626l-28.705-16.573a1.825,1.825,0,0,1-.762-1.456h0c0-.561.341-.819.762-.576l28.705,16.573a1.825,1.825,0,0,1,.762,1.456h0C424.013,1385.611,423.672,1385.869,423.251,1385.626Z" fill="#6f6f9e"/><path d="M423.55,1394.9l-23.118-13.347a1.825,1.825,0,0,1-.762-1.456h0c0-.561.341-.819.762-.576l23.118,13.347a1.824,1.824,0,0,1,.762,1.456h0C424.312,1394.885,423.971,1395.143,423.55,1394.9Z" fill="#d84177"/><path d="M423.55,1399.966l-7.645-4.414a1.825,1.825,0,0,1-.762-1.456h0c0-.561.341-.819.762-.576l7.645,4.414a1.825,1.825,0,0,1,.762,1.456h0C424.312,1399.951,423.971,1400.209,423.55,1399.966Z" fill="#6f6f9e"/><path d="M404.469,1388.949l-3.7-2.137a1.825,1.825,0,0,1-.762-1.456h0c0-.561.341-.819.762-.576l3.7,2.137a1.825,1.825,0,0,1,.762,1.456h0C405.231,1388.934,404.89,1389.192,404.469,1388.949Z" fill="#6f6f9e"/><path d="M399.843,1391.659l-4.886-2.821a1.826,1.826,0,0,1-.762-1.456h0c0-.561.342-.819.762-.576l4.886,2.821a1.825,1.825,0,0,1,.762,1.456h0C400.605,1391.644,400.264,1391.9,399.843,1391.659Z" fill="#6f6f9e"/><path d="M407.7,1401.3l-12.742-7.357a1.826,1.826,0,0,1-.763-1.456h0c0-.561.342-.819.762-.576l12.743,7.357a1.825,1.825,0,0,1,.762,1.456h0C408.462,1401.289,408.121,1401.547,407.7,1401.3Z" fill="#d84177"/><path d="M423.4,1405.26l-19.864-11.468a1.825,1.825,0,0,1-.762-1.456h0c0-.561.341-.819.762-.576l19.864,11.468a1.827,1.827,0,0,1,.762,1.456h0C424.163,1405.245,423.821,1405.5,423.4,1405.26Z" fill="#6f6f9e"/><path d="M412.246,1393.439l-3.2-1.849a1.825,1.825,0,0,1-.762-1.456h0c0-.561.341-.819.762-.576l3.2,1.849a1.825,1.825,0,0,1,.762,1.456h0C413.008,1393.424,412.667,1393.682,412.246,1393.439Z" fill="#6f6f9e"/><path d="M408.4,1381.175l-7.971-4.6a1.825,1.825,0,0,1-.762-1.456h0c0-.561.341-.819.762-.576l7.971,4.6a1.825,1.825,0,0,1,.762,1.456h0C409.165,1381.16,408.824,1381.418,408.4,1381.175Z" fill="#6f6f9e"/><path d="M413.466,1384.1l-2.238-1.292a1.825,1.825,0,0,1-.762-1.456h0c0-.561.341-.819.762-.576l2.238,1.292a1.827,1.827,0,0,1,.762,1.456h0C414.228,1384.083,413.886,1384.341,413.466,1384.1Z" fill="#d84177"/><path d="M385.237,1389.829l33.739-12.42,12.169,6.78-33.587,12.041Z" fill="#fff" opacity="0.28"/><path d="M385.518,1387.035l30.714-10.712-6.856-3.531-23.858,8.474Z" fill="#fff" opacity="0.28"/><path d="M408.046,1412.313c0,1.21-.855,1.7-1.91,1.089a4.208,4.208,0,0,1-1.91-3.295c0-1.21.855-1.7,1.91-1.089A4.208,4.208,0,0,1,408.046,1412.313Z" fill="#a8c4e5"/><path d="M343.832,1402.24l-.018,1.276s-.029,3.85-3.708,1.671-3.317-6.964-3.317-6.964S339.68,1398.031,343.832,1402.24Z" fill="#fff" opacity="0.46"/><path d="M340.076,1405.3c4.8,2.814,4.853-1.676,4.853-1.676l.039.021-.068-1.532c-5.259-5.006-8.767-4.959-8.767-4.959A8.293,8.293,0,0,0,340.076,1405.3Zm-3.1-6.885s2.812-.005,6.836,3.875l-.022,1.1s-.04,3.335-3.611,1.241A6.871,6.871,0,0,1,336.974,1398.412Z" fill="#513554"/><path d="M346.729,1404.573l-2.863-1.487-.074-1.667,2.863,1.487Z" fill="#513554"/><path d="M336.306,1398.437l-.507-.263a1.17,1.17,0,0,1-.53-.911h0c-.016-.36.195-.535.471-.391l.508.263a1.173,1.173,0,0,1,.529.911h0C336.793,1398.406,336.582,1398.581,336.306,1398.437Z" fill="#513554"/><path d="M354.82,1408.053l-.507-.263a1.171,1.171,0,0,1-.53-.911h0c-.016-.36.2-.535.472-.391l.507.263a1.171,1.171,0,0,1,.53.911h0C355.308,1408.022,355.1,1408.2,354.82,1408.053Z" fill="#513554"/><path d="M346.844,1403.9l.132,1.317a7.151,7.151,0,0,0,3.918,5.526c3.547,1.582,2.755-3.657,2.755-3.657S350.693,1403.91,346.844,1403.9Z" fill="#fff" opacity="0.46"/><path d="M354.471,1406.676a15.041,15.041,0,0,0-8.73-4.129l.068,1.532.039.019a9.08,9.08,0,0,0,5.236,6.917C355.854,1413.17,354.471,1406.676,354.471,1406.676Zm-3.553,3.536a6.748,6.748,0,0,1-3.9-5.14l-.124-1.181a11.7,11.7,0,0,1,6.807,3.211S354.467,1411.816,350.918,1410.212Z" fill="#513554"/><path d="M347.655,1405.95h0c-.115-.152-.143-.34-.064-.419l.925-.92c.079-.079.236-.019.351.133h0c.115.152.143.339.064.418l-.925.92C347.927,1406.161,347.769,1406.1,347.655,1405.95Z" fill="#fcfeff"/><path d="M337.429,1400.426h0c-.115-.152-.143-.339-.064-.418l.925-.92c.079-.079.236-.02.351.132h0c.115.153.143.34.064.419l-.925.92C337.7,1400.638,337.543,1400.579,337.429,1400.426Z" fill="#fcfeff"/><path d="M330.554,1425.354l2.367-13.3,8.271,5.045-1.884,12.094C339.159,1431.154,330.173,1429.852,330.554,1425.354Z" fill="#ffaa82"/><path d="M336.4,1393.7s-7.741-5.4-8.437,6.924a21.526,21.526,0,0,0,11.522,20c4.385,2.315,10.011-.073,10.473-4.331,1.385-6.175,1.7-12-.145-17.12.557-5.135-3.167-3.489-9.426-4.144Z" fill="#ffaa82"/><path d="M331.788,1418.638a7.971,7.971,0,0,0-1.925-1.686c-2.613-1.5-7.62-5.588-6.545-14.62,1.559-13.1,13.085-10.532,20.348-11.656,2.958-.457,5.081-.456,7.991,2.417,2.645,2.614-.232,8.037-4.224,8.192-1.584.062-1.079,4.345-1.472,5.786-.7,2.561-2.376,3.745-3.1,6.226-.686,2.347-4.408,5.651-6.67,6.04C333.509,1419.8,332.318,1419.232,331.788,1418.638Z" fill="#492817"/><path d="M354.6,1408.444l-11.2.5a.727.727,0,0,1-.756-.692h0a.726.726,0,0,1,.691-.756l11.2-.5a.728.728,0,0,1,.756.692h0A.726.726,0,0,1,354.6,1408.444Z" fill="#513554"/><path d="M345.012,1410.855c.072,2.089-1.082,3.824-2.578,3.876a1.982,1.982,0,0,1-.482-.043c-1.279-.272-2.294-1.785-2.359-3.645-.072-2.089,1.082-3.824,2.579-3.876S344.94,1408.766,345.012,1410.855Z" fill="#ffaa82"/><path d="M344.829,1430.566c-9.115-1.813-15.987,3.656-16.787-9.649h0a2.888,2.888,0,0,1,3.907,1.054c1.346,2.347,4.574,3.942,8.357,3.664a2.77,2.77,0,0,1,2.686,1.444Z" fill="#6f6f9e"/><path d="M419.194,1475.346l-17.269-9.971a.319.319,0,0,1,0-.553l23.675-13.668a.319.319,0,0,1,.319,0l17.27,9.97a.32.32,0,0,1,0,.553l-23.675,13.669A.321.321,0,0,1,419.194,1475.346Z" fill="#dd4078"/><rect width="0.581" height="0.872" transform="translate(401.788 1464.299)" fill="#dd4078"/><rect width="0.872" height="0.581" transform="translate(442.755 1460.812)" fill="#dd4078"/><path d="M419.194,1474.76l-17.269-9.97a.319.319,0,0,1,0-.553l23.675-13.669a.319.319,0,0,1,.319,0l17.27,9.971a.32.32,0,0,1,0,.553l-23.675,13.668A.321.321,0,0,1,419.194,1474.76Z" fill="#ef487c"/><path d="M436.451,1485.274l-17.269-9.97a.319.319,0,0,1,0-.553l23.674-13.669a.321.321,0,0,1,.32,0l17.269,9.971a.318.318,0,0,1,0,.552l-23.675,13.669A.319.319,0,0,1,436.451,1485.274Z" fill="#dd4078"/><rect width="0.581" height="0.581" transform="translate(419.221 1474.468)" fill="#dd4078"/><rect width="0.872" height="0.291" transform="translate(459.897 1470.69)" fill="#dd4078"/><path d="M436.451,1484.689l-17.269-9.971a.319.319,0,0,1,0-.553l23.674-13.668a.321.321,0,0,1,.32,0l17.269,9.97a.319.319,0,0,1,0,.553l-23.675,13.669A.319.319,0,0,1,436.451,1484.689Z" fill="#ef487c"/><path d="M407.933,1466.436l11.25,7.259,6.829-5.434S412.756,1462.86,407.933,1466.436Z" fill="#dd4078"/><path d="M419.28,1473.5c-.973-3.669-7.745-5.165-15.489-8.943-.248-.143-.216-.4.07-.56l21-12.126a1.084,1.084,0,0,1,.971-.04c9.619,2.848,15.613,5.8,15.488,8.942Z" fill="url(#l)"/><path d="M419.28,1473.5c.706-4.278-6.112-6.461-13.014-10.856-.22-.164-.173-.434.1-.6l20.314-12.12a.884.884,0,0,1,.9,0c8.7,3.476,14.061,7.356,13.722,10.722Z" fill="url(#m)"/><path d="M436.162,1456.247l-7.446-4.763c-.1-.061-.078-.159.037-.218h0a.42.42,0,0,1,.38,0l7.447,4.763c.1.061.078.159-.037.218h0A.425.425,0,0,1,436.162,1456.247Z" fill="#7474a3" opacity="0.32"/><path d="M433.719,1457.825l-7.446-4.763c-.1-.061-.078-.158.037-.218h0a.42.42,0,0,1,.38,0l7.447,4.763c.1.06.078.158-.037.218h0A.422.422,0,0,1,433.719,1457.825Z" fill="#7474a3" opacity="0.32"/><path d="M431.276,1459.4l-7.446-4.763c-.1-.061-.078-.159.037-.218h0a.425.425,0,0,1,.381,0l7.446,4.763c.1.061.078.159-.037.218h0A.425.425,0,0,1,431.276,1459.4Z" fill="#7474a3" opacity="0.32"/><path d="M428.834,1460.982l-7.447-4.763c-.1-.06-.078-.158.037-.218h0a.422.422,0,0,1,.381,0l7.446,4.763c.1.061.078.158-.037.218h0A.42.42,0,0,1,428.834,1460.982Z" fill="#7474a3" opacity="0.32"/><path d="M426.391,1462.561l-7.447-4.763c-.1-.061-.078-.159.037-.218h0a.425.425,0,0,1,.381,0l7.446,4.763c.1.061.078.159-.037.218h0A.42.42,0,0,1,426.391,1462.561Z" fill="#7474a3" opacity="0.32"/><path d="M423.891,1464.742l-7.447-4.763c-.1-.061-.078-.158.037-.218h0a.425.425,0,0,1,.381,0l7.446,4.764c.1.06.078.158-.037.218h0A.423.423,0,0,1,423.891,1464.742Z" fill="#7474a3" opacity="0.32"/><path d="M421.448,1466.321,414,1461.557c-.1-.06-.078-.158.037-.218h0a.425.425,0,0,1,.381,0l7.446,4.763c.1.061.078.158-.037.218h0A.423.423,0,0,1,421.448,1466.321Z" fill="#7474a3" opacity="0.32"/><path d="M419.005,1467.9l-7.447-4.763c-.094-.061-.078-.158.038-.218h0a.42.42,0,0,1,.38,0l7.446,4.763c.1.06.079.158-.037.218h0A.423.423,0,0,1,419.005,1467.9Z" fill="#7474a3" opacity="0.32"/><path d="M419.183,1473.695l9.152,4.453S421.887,1470.644,419.183,1473.695Z" fill="#dd4078"/><path d="M419.28,1473.5a4.147,4.147,0,0,1,3.838.627c1.714,1.418,12.647,9.633,12.647,9.633l22.22-12.706s-11.873-11.519-16.663-10.281Z" fill="#fff"/><path d="M451.173,1467.99l-7.338-4.93c-.093-.063-.074-.16.043-.217h0a.422.422,0,0,1,.38.01l7.337,4.93c.093.063.074.16-.042.217h0A.421.421,0,0,1,451.173,1467.99Z" fill="#7474a3" opacity="0.32"/><path d="M448.7,1469.513l-7.338-4.93c-.093-.063-.074-.16.043-.217h0a.422.422,0,0,1,.38.01l7.337,4.93c.093.063.075.16-.042.217h0A.421.421,0,0,1,448.7,1469.513Z" fill="#7474a3" opacity="0.32"/><path d="M446.217,1471.036l-7.337-4.93c-.094-.063-.075-.16.042-.217h0a.422.422,0,0,1,.38.01l7.337,4.93c.094.063.075.16-.042.217h0A.421.421,0,0,1,446.217,1471.036Z" fill="#7474a3" opacity="0.32"/><path d="M443.739,1472.559l-7.337-4.93c-.094-.063-.075-.16.042-.217h0a.421.421,0,0,1,.38.01l7.337,4.93c.094.063.075.16-.042.217h0A.422.422,0,0,1,443.739,1472.559Z" fill="#7474a3" opacity="0.32"/><path d="M441.261,1474.082l-7.337-4.93c-.093-.063-.075-.16.042-.217h0a.425.425,0,0,1,.38.01l7.337,4.93c.094.063.075.16-.042.217h0A.422.422,0,0,1,441.261,1474.082Z" fill="#7474a3" opacity="0.32"/><path d="M438.712,1476.206l-7.337-4.93c-.093-.062-.074-.16.042-.217h0a.427.427,0,0,1,.381.01l7.337,4.93c.093.063.074.16-.042.218h0A.424.424,0,0,1,438.712,1476.206Z" fill="#7474a3" opacity="0.32"/><path d="M436.234,1477.729l-7.337-4.93c-.093-.062-.074-.16.042-.217h0a.427.427,0,0,1,.381.01l7.337,4.93c.093.063.074.16-.042.218h0A.424.424,0,0,1,436.234,1477.729Z" fill="#7474a3" opacity="0.32"/><path d="M433.757,1479.252l-7.338-4.93c-.093-.062-.074-.159.043-.217h0a.422.422,0,0,1,.38.011l7.337,4.93c.093.062.075.159-.042.217h0A.421.421,0,0,1,433.757,1479.252Z" fill="#7474a3" opacity="0.32"/><path d="M449.28,1463.939c-2.55,2.276-9.463,7.709-13.132,10.542a.222.222,0,0,0,.154.4l2.737-.211a.222.222,0,0,1,.228.289l-.61,1.9a.222.222,0,0,0,.337.251c1.526-1.091,5.713-5.647,11.764-11.584a1.086,1.086,0,0,0-.17-1.687h0A1.083,1.083,0,0,0,449.28,1463.939Z" fill="#7878ea"/><path d="M477.993,1387.936l-16.65-9.65a1.571,1.571,0,0,0-1.74-.086l0,0-2.8,1.587a31.264,31.264,0,0,1,1.933,3.624v15.054a6.213,6.213,0,0,0,2.6,4.955l13.573,7.838c1.267,2.132,2.123,3.527,2.123,3.527l2.624-1.514v-.005c.581-.273.871-1.035.871-2.156v-18.216A6.162,6.162,0,0,0,477.993,1387.936Z" fill="#7878ea"/><path d="M475.177,1414.746l-16.714-9.65a6.21,6.21,0,0,1-2.594-4.955v-18.216c0-1.91,1.161-2.788,2.594-1.961l16.714,9.65a6.211,6.211,0,0,1,2.594,4.956v18.216C477.771,1414.7,476.61,1415.573,475.177,1414.746Z" fill="#8585ff"/><path d="M472.979,1415.7l-16.715-9.65a6.213,6.213,0,0,1-2.593-4.956v-18.216c0-1.91,1.161-2.787,2.593-1.96l16.715,9.65a6.211,6.211,0,0,1,2.593,4.955v18.216C475.572,1415.649,474.411,1416.527,472.979,1415.7Z" fill="#8585ff" opacity="0.47"/><path d="M462.224,1400.756l-4.432-7.644,4.826-2.752.932,1.634-3.18,1.813,3.482,6.005Z" fill="#fff"/><path d="M471,1405.427l-.932-1.634,3.134-1.787-3.528-6.085,1.627-.943,4.478,7.724Z" fill="#fff"/><rect width="12.669" height="1.881" transform="translate(464.434 1403.993) rotate(-74.85)" fill="#fff"/><path d="M447.133,1337.6l-16.681-9.65a1.6,1.6,0,0,0-1.755-.086l-.005,0-2.746,1.588s.829,1.664,1.991,3.623v15.054a6.164,6.164,0,0,0,2.537,4.955l13.543,7.838c1.267,2.132,2.169,3.527,2.169,3.527l2.67-1.514v-.005a3.042,3.042,0,0,0,.872-2.156v-18.216A6.212,6.212,0,0,0,447.133,1337.6Z" fill="#22c6a6"/><path d="M444.256,1364.409l-16.714-9.65a6.209,6.209,0,0,1-2.594-4.955v-18.216c0-1.91,1.161-2.788,2.594-1.961l16.714,9.65a6.214,6.214,0,0,1,2.594,4.956v18.216C446.85,1364.359,445.688,1365.237,444.256,1364.409Z" fill="#27e0c0"/><path d="M441.511,1365.2l-16.715-9.65a6.214,6.214,0,0,1-2.594-4.956v-18.216c0-1.91,1.162-2.788,2.594-1.961l16.715,9.651a6.211,6.211,0,0,1,2.593,4.955v18.216C444.1,1365.154,442.943,1366.032,441.511,1365.2Z" fill="#27e0c0" opacity="0.36"/><path d="M442.394,1348.771h0c-.819-.473-1.229-1.845-.65-2.175h0c.655-.373.655-1.592,0-2.723l-.337-.581c-.655-1.13-1.718-1.744-2.373-1.37h0c-.579.33-1.568-.712-1.568-1.651h0a3.7,3.7,0,0,0-1.678-2.894l-.477-.275c-.927-.535-1.678-.107-1.678.956h0c0,.94-.989.839-1.568-.16h0c-.655-1.13-1.718-1.743-2.373-1.37l-.337.192c-.655.374-.655,1.593,0,2.723h0c.579,1,.169,1.9-.65,1.425h0c-.926-.535-1.678-.107-1.678.956v.548a3.7,3.7,0,0,0,1.678,2.894c.819.472,1.229,1.844.65,2.174h0c-.655.374-.655,1.593,0,2.723l.337.582c.655,1.13,1.718,1.743,2.373,1.37h0c.579-.33,1.568.711,1.568,1.651h0a3.7,3.7,0,0,0,1.678,2.894l.477.275c.927.535,1.678.107,1.678-.957,0-.939.989-.838,1.568.161.655,1.13,1.718,1.743,2.373,1.369l.337-.192c.655-.374.655-1.593,0-2.723h0c-.579-1-.169-1.9.65-1.424h0c.926.535,1.678.106,1.678-.957v-.547A3.7,3.7,0,0,0,442.394,1348.771Zm-6.844,3.025a9.173,9.173,0,0,1-4.164-7.182c0-2.638,1.864-3.7,4.164-2.374a9.176,9.176,0,0,1,4.163,7.182C439.713,1352.061,437.849,1353.124,435.55,1351.8Z" fill="#fff"/><path d="M477.873,1353.659l-16.71-9.65a1.621,1.621,0,0,0-1.77-.086l-.012,0-2.837,1.587a34.2,34.2,0,0,1,1.9,3.624v15.054a6.235,6.235,0,0,0,2.625,4.955l13.586,7.838c1.266,2.132,2.1,3.527,2.1,3.527l2.605-1.514v0a2.321,2.321,0,0,0,1.162-2.156v-18.216A6.263,6.263,0,0,0,477.873,1353.659Z" fill="#f1a32f"/><path d="M474.938,1380.469l-16.715-9.65a6.213,6.213,0,0,1-2.594-4.956v-18.215c0-1.91,1.162-2.788,2.594-1.961l16.715,9.65a6.212,6.212,0,0,1,2.593,4.956v18.216C477.531,1380.418,476.37,1381.3,474.938,1380.469Z" fill="#ffd22d"/><path d="M472.59,1381.993l-16.715-9.65a6.213,6.213,0,0,1-2.593-4.956v-18.216c0-1.91,1.161-2.788,2.593-1.961l16.715,9.65a6.213,6.213,0,0,1,2.593,4.956v18.216C475.183,1381.942,474.022,1382.82,472.59,1381.993Z" fill="#ffd22d" opacity="0.36"/><path d="M468.333,1370.35l.294.169c.648.375.818.207.818-.767,0-.957-.062-1.844-.062-2.925,0-1.347.371-1.647,1.143-1.414v-.071a3.155,3.155,0,0,1-1.143-2.733c0-1.081.062-1.9.062-2.853,0-.975-.17-1.339-.818-1.713l-.294-.17v-1.382l.973.562a3.64,3.64,0,0,1,1.977,3.658c0,1.258-.154,1.825-.154,2.941a2.5,2.5,0,0,0,1.328,2.079v1.524c-1-.545-1.328-.076-1.328.544,0,1.117.154,1.862.154,3.12,0,1.914-.618,2.16-1.977,1.375l-.973-.562Z" fill="#fff"/><path d="M463.508,1368.946l-.973-.561a3.641,3.641,0,0,1-1.977-3.658c0-1.259.154-1.825.154-2.942a2.492,2.492,0,0,0-1.328-2.078v-1.524c1,.544,1.328.075,1.328-.545,0-1.116-.154-1.861-.154-3.119,0-1.915.618-2.161,1.977-1.376l.973.562v1.382l-.294-.169c-.648-.375-.818-.207-.818.768,0,.957.062,1.843.062,2.924,0,1.347-.371,1.647-1.143,1.414v.071a3.155,3.155,0,0,1,1.143,2.733c0,1.082-.062,1.9-.062,2.854,0,.974.17,1.338.818,1.713l.294.169Z" fill="#fff"/></g><g transform="translate(717.366 1376.311)"><g transform="translate(0 0)"><path d="M329.157,1703.47l-.068,23.955,41.549,23.989-.036,12.849,7.9-8.308,6.885,3.975.068-23.955Z" transform="translate(-329.089 -1703.47)" fill="#605e5e"/></g><g transform="translate(12.491 16.988)"><path d="M342.739,1728.459a6.5,6.5,0,0,0-2.942-5.094c-1.625-.938-2.942-.179-2.942,1.7a6.5,6.5,0,0,0,2.942,5.094C341.423,1731.1,342.739,1730.335,342.739,1728.459Z" transform="translate(-311.471 -1708.306)" fill="#bdd7ff"/><path d="M350.557,1723.945a6.5,6.5,0,0,0-2.942-5.094c-1.625-.938-2.942-.179-2.942,1.7a6.5,6.5,0,0,0,2.942,5.1C349.241,1726.583,350.557,1725.821,350.557,1723.945Z" transform="translate(-331.981 -1711.12)" fill="#bdd7ff"/><path d="M358.377,1719.432a6.506,6.506,0,0,0-2.942-5.1c-1.625-.938-2.943-.177-2.943,1.7a6.5,6.5,0,0,0,2.943,5.1C357.059,1722.069,358.377,1721.307,358.377,1719.432Z" transform="translate(-352.492 -1713.935)" fill="#bdd7ff"/></g></g><g transform="translate(21 -13)"><g transform="translate(589.375 1430.836)" opacity="0.29"><path d="M397.572,1698.547l-13.039,7.528v-2.755l13.039-7.528Z" transform="translate(-384.534 -1679.781)" fill="#605e5e"/><path d="M394.549,1704.625l-10.015,5.782v-2.755l10.015-5.782Z" transform="translate(-384.534 -1675.993)" fill="#605e5e"/><path d="M397.118,1702.139l-5.493,3.171v-2.755l5.493-3.171Z" transform="translate(-380.112 -1677.542)" fill="#605e5e"/><path d="M396.032,1697.136l-2.663,1.538v-2.755l2.663-1.538Z" transform="translate(-379.026 -1680.661)" fill="#605e5e"/><path d="M387.2,1704.685l-2.663,1.538v-2.755l2.663-1.538Z" transform="translate(-384.534 -1675.955)" fill="#605e5e"/><path d="M391.328,1702.712l-4.522,2.611v-2.755l4.522-2.611Z" transform="translate(-383.117 -1677.185)" fill="#605e5e"/><path d="M395,1700.591l-4.522,2.611v-2.755l4.522-2.611Z" transform="translate(-380.826 -1678.508)" fill="#605e5e"/><path d="M412.231,1690.1l-13.039,7.528v-2.755l13.039-7.528Z" transform="translate(-375.395 -1685.05)" fill="#605e5e"/><path d="M409.208,1696.173l-10.015,5.782V1699.2l10.015-5.782Z" transform="translate(-375.395 -1681.261)" fill="#605e5e"/><path d="M411.777,1693.687l-5.493,3.171V1694.1l5.493-3.172Z" transform="translate(-370.974 -1682.811)" fill="#605e5e"/><path d="M410.691,1688.685l-2.663,1.538v-2.755l2.663-1.538Z" transform="translate(-369.887 -1685.93)" fill="#605e5e"/><path d="M401.856,1696.233l-2.663,1.538v-2.755l2.663-1.538Z" transform="translate(-375.395 -1681.224)" fill="#605e5e"/><path d="M405.987,1694.26l-4.522,2.611v-2.755l4.522-2.611Z" transform="translate(-373.978 -1682.454)" fill="#605e5e"/><path d="M409.661,1692.139l-4.522,2.611v-2.755l4.522-2.611Z" transform="translate(-371.688 -1683.776)" fill="#605e5e"/></g><g transform="translate(589.375 1410.283)" opacity="0.29"><path d="M397.572,1685.887l-13.039,7.528v-2.755l13.039-7.528Z" transform="translate(-384.534 -1667.121)" fill="#605e5e"/><path d="M394.549,1691.965l-10.015,5.782v-2.755l10.015-5.782Z" transform="translate(-384.534 -1663.333)" fill="#605e5e"/><path d="M397.118,1689.479l-5.493,3.172V1689.9l5.493-3.171Z" transform="translate(-380.112 -1664.883)" fill="#605e5e"/><path d="M396.032,1684.476l-2.663,1.538v-2.755l2.663-1.538Z" transform="translate(-379.026 -1668.001)" fill="#605e5e"/><path d="M387.2,1692.025l-2.663,1.538v-2.755l2.663-1.538Z" transform="translate(-384.534 -1663.295)" fill="#605e5e"/><path d="M391.328,1690.052l-4.522,2.611v-2.755l4.522-2.611Z" transform="translate(-383.117 -1664.525)" fill="#605e5e"/><path d="M395,1687.931l-4.522,2.611v-2.755l4.522-2.611Z" transform="translate(-380.826 -1665.848)" fill="#605e5e"/><path d="M412.231,1677.436l-13.039,7.528v-2.755l13.039-7.528Z" transform="translate(-375.395 -1672.39)" fill="#605e5e"/><path d="M409.208,1683.513l-10.015,5.782v-2.755l10.015-5.782Z" transform="translate(-375.395 -1668.601)" fill="#605e5e"/><path d="M411.777,1681.027l-5.493,3.171v-2.755l5.493-3.171Z" transform="translate(-370.974 -1670.151)" fill="#605e5e"/><path d="M410.691,1676.025l-2.663,1.538v-2.755l2.663-1.538Z" transform="translate(-369.887 -1673.27)" fill="#605e5e"/><path d="M401.856,1683.573l-2.663,1.538v-2.755l2.663-1.538Z" transform="translate(-375.395 -1668.564)" fill="#605e5e"/><path d="M405.987,1681.6l-4.522,2.611v-2.755l4.522-2.611Z" transform="translate(-373.978 -1669.794)" fill="#605e5e"/><path d="M409.661,1679.479l-4.522,2.611v-2.755l4.522-2.611Z" transform="translate(-371.688 -1671.117)" fill="#605e5e"/></g></g><path d="M-42.32-11.08c-.48,1.04-2.4,5-7.12,5-4.92,0-7.96-4.32-7.96-8.8,0-4.2,2.84-8.64,7.92-8.64a7.672,7.672,0,0,1,7.16,5.16h7.92a15.138,15.138,0,0,0-15.04-11.8A15.272,15.272,0,0,0-64.96-14.84,15.4,15.4,0,0,0-49.36.56,15.172,15.172,0,0,0-34.4-11.08ZM-30.48,0h7.56V-29.6h-7.56Zm13.12,4h7.4L.6-29.6H-6.76ZM27.6-11.08c-.48,1.04-2.4,5-7.12,5-4.92,0-7.96-4.32-7.96-8.8,0-4.2,2.84-8.64,7.92-8.64a7.672,7.672,0,0,1,7.16,5.16h7.92a15.138,15.138,0,0,0-15.04-11.8A15.272,15.272,0,0,0,4.96-14.84,15.4,15.4,0,0,0,20.56.56,15.172,15.172,0,0,0,35.52-11.08ZM39.44,0H49.8C61.04,0,65.04-6.8,65.04-14.88a15.13,15.13,0,0,0-2.72-9.2c-3.84-5.52-9.76-5.52-13.08-5.52h-9.8ZM47-22.96h3.28c3.36,0,4.88,1.4,5.76,2.72a10.428,10.428,0,0,1,1.44,5.48c0,4.2-1.6,8.12-7.24,8.12H47Z" transform="translate(910 1574)" fill="#44607e"/></g></svg>