<svg xmlns="http://www.w3.org/2000/svg" xmlns:xlink="http://www.w3.org/1999/xlink" width="300.5" height="309.5" viewBox="0 0 300.5 309.5"><defs><linearGradient id="a" x1="-1.985" y1="0.5" x2="-0.985" y2="0.5" gradientUnits="objectBoundingBox"><stop offset="0.039" stop-color="#fff"/><stop offset="0.317" stop-color="#fcfdfe"/><stop offset="0.507" stop-color="#f3f7fb"/><stop offset="0.67" stop-color="#e3ecf6"/><stop offset="0.819" stop-color="#ceddf0"/><stop offset="0.956" stop-color="#b2cbe8"/><stop offset="1" stop-color="#a8c4e5"/></linearGradient><linearGradient id="b" x1="-0.082" y1="0.5" x2="0.918" y2="0.5" xlink:href="#a"/><linearGradient id="c" x1="0.052" y1="0.892" x2="0.845" y2="0.095" xlink:href="#a"/><linearGradient id="d" x1="-0.03" y1="0.5" x2="0.97" y2="0.5" xlink:href="#a"/><linearGradient id="e" x1="0.609" y1="0.806" x2="0.397" y2="0.172" gradientUnits="objectBoundingBox"><stop offset="0" stop-color="#9fb0bf"/><stop offset="0.254" stop-color="#a2b3c2"/><stop offset="0.496" stop-color="#aebdcb"/><stop offset="0.732" stop-color="#c1ceda"/><stop offset="0.964" stop-color="#dce5f0"/><stop offset="1" stop-color="#e1eaf4"/></linearGradient><linearGradient id="f" x1="2.762" y1="-0.305" x2="2.519" y2="-0.931" gradientUnits="objectBoundingBox"><stop offset="0" stop-color="#9fb0bf"/><stop offset="0.022" stop-color="#a9b8c5"/><stop offset="0.092" stop-color="#c3ced7"/><stop offset="0.173" stop-color="#d9e0e6"/><stop offset="0.267" stop-color="#eaeef1"/><stop offset="0.383" stop-color="#f6f7f9"/><stop offset="0.547" stop-color="#fdfdfd"/><stop offset="1" stop-color="#fff"/></linearGradient></defs><g transform="translate(-533 -660)"><g transform="translate(534 660)" fill="#fff" stroke="#b3b3b3" stroke-width="1" opacity="0"><rect width="299.5" height="309.5" stroke="none"/><rect x="0.5" y="0.5" width="298.5" height="308.5" fill="none"/></g><g transform="translate(496 -1873.799)"><g transform="translate(0 2431.203)"><rect width="300" height="200" transform="translate(37 193)" fill="none" opacity="0.8"/></g><g transform="translate(78.462 2606.011)"><path d="M423.841,2969.953l-6.952,5.2a154.947,154.947,0,0,0-44.35-4.931,43.266,43.266,0,0,1-13.842-1.8c-49.515-15.421-58.377-40.062-58.46-40.31l-13.911,2.609c.279.851,5.6,16.128,31.174,30.891a163.207,163.207,0,0,0,33.169,14.126,64.1,64.1,0,0,0,20.495,2.641,141.247,141.247,0,0,1,27.589,1.9l-5.486,2.282,7.61,4.576,34.654.858Z" transform="translate(-249.882 -2903.507)" fill="#b2bdda"/><g transform="translate(28.833 0)"><path d="M403.742,2922.635l-21.5-4.787-47.19-4.173-20.11-4.978-22.3-17.454-15.133-15.4-10.142-2.544v20c.279.851,5.6,16.128,31.174,30.891a163.192,163.192,0,0,0,33.169,14.126,64.118,64.118,0,0,0,20.495,2.641,135.2,135.2,0,0,1,36.391,3.758l-6.678,5,34.654.858v-20.991Z" transform="translate(-267.362 -2870.689)" fill="#a86e00"/><path d="M416.567,2926.679l-11.69-18.044-6.952,5.2a154.947,154.947,0,0,0-44.35-4.931,43.259,43.259,0,0,1-13.842-1.8c-49.515-15.421-58.378-40.062-58.46-40.31l-13.911,2.61c.279.85,5.6,16.128,31.174,30.891a163.191,163.191,0,0,0,33.169,14.126,64.1,64.1,0,0,0,20.495,2.641,135.185,135.185,0,0,1,36.391,3.759l-6.678,5Z" transform="translate(-267.362 -2866.796)" fill="#fdaa13"/><path d="M552.8,3013.875v20.032l34.653.826v-20Z" transform="translate(-438.253 -2954.851)" fill="#bd7d00"/></g><g transform="translate(0 53.657)"><path d="M281.144,3149.854l-4.552.43-2.013,3.1c-12.234-1.942-23.18-5.493-32.064-10.46-16.2-9.053-24.273-21.775-22.7-35.791s12.581-27.594,30.992-38.224c.153-.088.313-.173.467-.261l5.254,4.648,9.142-10.017,10.35-10.141-6.17-3.6-1.328-.537-6.913,6.4-23.019,2.03,5.394,4.772c-.821.45-1.639.9-2.437,1.364-21.295,12.294-34.026,28-35.848,44.211-1.789,15.925,7.173,30.391,25.261,40.834.326.188.658.376.99.562,13.169,7.363,30.231,12.053,49.342,13.563l6.884-11.3Z" transform="translate(-201.478 -3029.535)" fill="#b2bdda"/><path d="M287.279,3014.471l-4.056-3.868-5.192-2.356v10.147Z" transform="translate(-244.916 -3005.137)" fill="#214999"/><path d="M263.889,3104.874s-15.888-3.291-16.358-3.291c-.379,0-26.306-11.14-36.326-15.452a29.475,29.475,0,0,1-1.348-12.816c1.574-14.02,12.581-27.594,30.992-38.224.153-.088.313-.173.467-.261l5.254,4.648,17.32-18.978v-20l-12.285,6.226-2.507-3.387-21.623,10.69-18.8,23.1,1.633,8.811a65.084,65.084,0,0,0-6.177,7.375v-1.72l-8.516,3.756v20h0c-1.126,15.373,7.831,29.3,25.389,39.437.326.188.658.376.99.562,13.169,7.363,30.231,12.053,49.342,13.563l3.847-8.1v-20Z" transform="translate(-195.517 -3000.5)" fill="#0041af"/><path d="M275.179,3100.821c-16.513-1.3-31.254-5.355-42.628-11.714-16.2-9.053-24.273-21.776-22.7-35.792s12.581-27.594,30.992-38.224c.153-.088.313-.173.467-.261l5.254,4.648,17.32-18.978-35.258,3.109,5.394,4.773c-.821.45-1.639.9-2.437,1.364-21.295,12.294-34.026,28-35.848,44.211-1.789,15.925,7.173,30.391,25.261,40.835.326.188.658.376.99.562,13.169,7.363,30.231,12.053,49.342,13.563Z" transform="translate(-195.514 -3000.5)" fill="#005ac8"/><path d="M314.195,3060.854v-20l-5.254-4.648-.467,20Z" transform="translate(-263.142 -3021.878)" fill="#214999"/></g><g transform="translate(-1609.254 -1588.856)"><path d="M1745.8,2059.342l-65.638-38.591c-3.5-2.021-3.515-4.5-.036-6.555l37.153-21.992,71.856,41.486Z" transform="translate(-14.966 -317.662)" fill="#b2bdda"/><path d="M2332.729,2082.589l.192-.029a1.051,1.051,0,0,0,.886-1.194l-4.755-32.061a1.052,1.052,0,0,0-1.194-.886l-.192.029a1.051,1.051,0,0,0-.886,1.194l4.755,32.061A1.051,1.051,0,0,0,2332.729,2082.589Z" transform="translate(-558.33 -364.701)" fill="#918093"/><path d="M2085.61,2144.65h0a1.137,1.137,0,0,1-1.036-1.23l4.467-51.862a1.137,1.137,0,0,1,1.231-1.035h0a1.137,1.137,0,0,1,1.035,1.231l-4.467,51.861A1.137,1.137,0,0,1,2085.61,2144.65Z" transform="translate(-355.629 -399.944)" fill="#918093"/><path d="M2102.1,2205.758l-2.163-1.48.619-6.229,2.3.36Z" transform="translate(-368.487 -489.937)" fill="#6b5e6d"/><path d="M2331.726,2092.844l2.053-1.628-1.057-6.171-2.273.522Z" transform="translate(-561.411 -395.362)" fill="#6b5e6d"/><path d="M1667.3,2194.406l39.1-20.526,21.4,12.354-39.1,20.525Z" transform="translate(-6.411 -469.71)" fill="#b2bdda"/><path d="M1710.706,2084.949l-22.058-12.735c-2.044-1.181-1.217-3.769,1.839-5.753l7.929-5.148c3.055-1.984,15.41-3.357,17.454-2.177l13.811,8.49c2.044,1.18,1.282,8.729-1.773,10.713l-7.929,5.148C1716.922,2085.472,1712.75,2086.129,1710.706,2084.949Z" transform="translate(-23.335 -373.313)" fill="#bc4073"/><g transform="translate(1685.552 1690.861)"><path d="M1876.775,2195.11c-.134.1-2.082.952-2.207,1.05-.192.149-.76.558-1.1.778-.72.462-2.288,2.281-4.6.813-3.387-2.148,5.256-7.261,5.256-7.261l3.794-1.721a1.607,1.607,0,0,1,1.459.08h0a1.682,1.682,0,0,1,.614,2.355A10.548,10.548,0,0,1,1876.775,2195.11Z" transform="translate(-1859.993 -2172.915)" fill="#15253d"/><path d="M1874.712,2188.572c-.134.1-2.082.953-2.208,1.05-.191.149-.76.558-1.1.777-.719.462-2.288,2.281-4.6.813-3.387-2.148,5.257-7.261,5.257-7.261l3.794-1.721a1.607,1.607,0,0,1,1.459.08h0a1.682,1.682,0,0,1,.614,2.355A10.547,10.547,0,0,1,1874.712,2188.572Z" transform="translate(-1858.266 -2167.444)" fill="#894e4e"/><path d="M1918.146,2186.045c.209-.359.538-1.043.812-1.461a1.68,1.68,0,0,0-2.122-2.354l-1.852.84A7.247,7.247,0,0,1,1918.146,2186.045Z" transform="translate(-1899.25 -2167.444)" fill="#915350"/><path d="M1818.509,2098.374c15.269-10.4,13.912-5.881,14.167,1.485.043,1.244-3.172,6.217-3.356,10.779" transform="translate(-1818.509 -2092.272)" fill="none" stroke="#ceab8b" stroke-miterlimit="10" stroke-width="13.291"/><g transform="translate(8.092 16.948)"><path d="M1873.546,2196.977c-1.443,1.126-4.286.8-5.274-.778-.063.838-.112,1.677-.138,2.515-.1,3.416,5.206,3.72,5.311.291C1873.465,2198.329,1873.5,2197.653,1873.546,2196.977Z" transform="translate(-1868.132 -2196.199)" fill="#e1eaf4"/></g><path d="M1860.262,2190.028l-.07,2.355a.486.486,0,0,0,.078.283,4.3,4.3,0,0,0,4.2,1.875,9.619,9.619,0,0,0,3.966-1.21.489.489,0,0,0,.226-.434l-.088-2.406a.491.491,0,0,0-.713-.424,6.72,6.72,0,0,1-6.842-.438A.494.494,0,0,0,1860.262,2190.028Z" transform="translate(-1853.394 -2173.688)" fill="#e5c2a5"/></g><path d="M1793.476,2078.689h0c.3.638-.893-2.388-.421-1.866.982,1.088,6.343,7.7,7.739,8.146,1.686.539-2.7-3.374-2.7-3.374s14.043-8.2,13.748-8.6c-2.311-3.17-4.5-4.161-8.934-2.437C1797.858,2072.519,1792.055,2075.637,1793.476,2078.689Z" transform="translate(-111.561 -382.534)" fill="#bc9a7e"/><g transform="translate(1691.706 1694.244)"><path d="M1929.062,2224.986c-.137.1-2.113.883-2.241.976-.2.143-.779.533-1.127.741-.734.438-2.362,2.2-4.627.661-3.314-2.258,5.493-7.084,5.493-7.084l3.849-1.6a1.6,1.6,0,0,1,1.456.128h0a1.682,1.682,0,0,1,.536,2.373A10.543,10.543,0,0,1,1929.062,2224.986Z" transform="translate(-1909.872 -2201.352)" fill="#15253d"/><path d="M1927.214,2218.383c-.137.1-2.112.884-2.241.977-.2.143-.778.533-1.127.74-.735.438-2.362,2.2-4.627.661-3.314-2.259,5.493-7.084,5.493-7.084l3.849-1.6a1.607,1.607,0,0,1,1.456.128h0a1.682,1.682,0,0,1,.536,2.374A10.545,10.545,0,0,1,1927.214,2218.383Z" transform="translate(-1908.327 -2195.826)" fill="#894e4e"/><path d="M1971.875,2215.938c.221-.352.572-1.025.859-1.434a1.679,1.679,0,0,0-2.043-2.422l-1.878.779A7.25,7.25,0,0,1,1971.875,2215.938Z" transform="translate(-1950.455 -2195.826)" fill="#915350"/><path d="M1856.25,2119.977c11.557-8.34,13.972-9.482,13.5-1.841-.076,1.242.177,9.932-.157,14.485" transform="translate(-1856.25 -2113.012)" fill="none" stroke="#ceab8b" stroke-miterlimit="10" stroke-width="13.291"/><g transform="translate(10.589 18.108)"><path d="M1926.654,2225c-1.479,1.078-4.31.663-5.246-.951-.091.835-.168,1.672-.221,2.509-.217,3.411,5.081,3.889,5.3.466C1926.529,2226.351,1926.587,2225.677,1926.654,2225Z" transform="translate(-1921.181 -2224.052)" fill="#e1eaf4"/></g><path d="M1913.575,2217.691l-.148,2.351a.488.488,0,0,0,.07.286,4.3,4.3,0,0,0,4.136,2.012,9.606,9.606,0,0,0,4-1.079.489.489,0,0,0,.241-.427l-.009-2.408a.491.491,0,0,0-.7-.447,6.722,6.722,0,0,1-6.824-.664A.494.494,0,0,0,1913.575,2217.691Z" transform="translate(-1904.102 -2200.236)" fill="#e5c2a5"/></g><path d="M.913,0h0a.913.913,0,0,1,.913.913V24.107a.913.913,0,0,1-.913.913h0A.913.913,0,0,1,0,24.107V.913A.913.913,0,0,1,.913,0Z" transform="matrix(-0.989, 0.147, -0.147, -0.989, 1706.117, 1724.339)" fill="#513554"/><path d="M1673.06,1937.133l-.274-.041a.8.8,0,0,1-.677-.913l4.968-33.5a.8.8,0,0,1,.913-.677l.274.041a.8.8,0,0,1,.677.913l-4.968,33.5A.8.8,0,0,1,1673.06,1937.133Z" transform="translate(-10.425 -242.163)" fill="#6b5e6d"/><g transform="translate(1659.644 1640.844)"><rect width="6.03" height="3.502" transform="translate(0.019 22.008)" fill="#a8c4e5"/><rect width="6.03" height="3.502" transform="translate(109.647 44.398)" fill="#a8c4e5"/><path d="M1734.9,1872.5l-74.47-42.995c-1.167-.674-1.021-1.851.327-2.63l34.749-20.062a5.062,5.062,0,0,1,4.555-.189l74.47,43c1.168.674,1.021,1.851-.327,2.63l-34.749,20.063A5.062,5.062,0,0,1,1734.9,1872.5Z" transform="translate(-1659.644 -1802.807)" fill="#a8c4e5"/><path d="M1734.9,1851.9l-74.47-43c-1.167-.674-1.021-1.851.327-2.63l34.749-20.062a5.063,5.063,0,0,1,4.555-.189l74.47,43c1.168.674,1.021,1.851-.327,2.63l-34.749,20.062A5.061,5.061,0,0,1,1734.9,1851.9Z" transform="translate(-1659.644 -1785.57)" fill="#e9f5ff"/></g><path d="M1693.39,2007.043l-15.416,11.909c-2.518,1.541-4.408.011-4.406-2.638l-.293-4.312c0-2.649,2.064-6.077,4.582-7.619l15.544-9.517c2.518-1.541,4.575-.635,4.573,2.014l0,2.544C1697.969,2002.073,1695.907,2005.5,1693.39,2007.043Z" transform="translate(-11.408 -319.26)" fill="#a33467"/><path d="M1670.04,2147.079h0a.913.913,0,0,1-.769-1.037l4.3-28.965a.913.913,0,0,1,1.037-.769h0a.913.913,0,0,1,.769,1.037l-4.3,28.965A.913.913,0,0,1,1670.04,2147.079Z" transform="translate(-8.049 -421.519)" fill="#513554"/><path d="M1794.4,2203.275h0a.944.944,0,0,1-.8-1.073l4.845-32.671a.945.945,0,0,1,1.073-.8h0a.945.945,0,0,1,.8,1.073l-4.845,32.671A.944.944,0,0,1,1794.4,2203.275Z" transform="translate(-112.104 -465.396)" fill="#513554"/><path d="M1704.667,2150.133l-19.5-11.259a9.392,9.392,0,0,1-3.255-3.621c-.785-1.8,1.087-3.105,3.183-1.9l20.5,12.072c2.1,1.21,2.887,2.474,2.549,3.975C1708.147,2149.405,1707.324,2151.5,1704.667,2150.133Z" transform="translate(-18.483 -435.403)" fill="#d84177"/><path d="M1913.506,1932.567l-21.688-12.522a.4.4,0,0,0-.4,0l-6.584,3.886a.4.4,0,0,0,0,.686l21.615,12.479a.4.4,0,0,0,.4,0l6.658-3.844A.4.4,0,0,0,1913.506,1932.567Z" transform="translate(-188.302 -257.226)" fill="#a8c4e5"/><g transform="translate(1696.748 1661.91)"><path d="M1908.979,1931.852l-21.615-12.479a.4.4,0,0,1,0-.687l6.584-3.886a.4.4,0,0,1,.4,0l21.688,12.522a.4.4,0,0,1,0,.688l-6.657,3.844A.4.4,0,0,1,1908.979,1931.852Z" transform="translate(-1887.165 -1914.745)" fill="#fff"/><path d="M1926.749,1919.188a.184.184,0,0,1-.158-.018l-1.458-.842c-.052-.03-.067-.071-.032-.091l.966-.558a.184.184,0,0,1,.159.019l1.458.841c.053.03.067.072.032.092Z" transform="translate(-1918.898 -1917.191)" fill="#a8c4e5"/><path d="M1937.123,1934.6a.183.183,0,0,1-.159-.019l-1.458-.841c-.053-.03-.067-.071-.031-.091l.966-.558a.183.183,0,0,1,.157.019l1.458.841c.053.031.067.072.033.091Z" transform="translate(-1927.579 -1930.087)" fill="#a8c4e5"/><path d="M1931.879,1940.992a.182.182,0,0,1-.158-.019l-1.458-.842c-.052-.03-.068-.071-.032-.091l.966-.558a.186.186,0,0,1,.158.019l1.458.842c.052.03.067.072.032.091Z" transform="translate(-1923.191 -1935.439)" fill="#a8c4e5"/><path d="M1917.7,1942.228a.184.184,0,0,1-.158-.019l-1.458-.842c-.052-.03-.067-.071-.032-.091l.967-.558a.185.185,0,0,1,.158.018l1.458.842c.052.03.066.071.032.091Z" transform="translate(-1911.321 -1936.474)" fill="#a8c4e5"/><path d="M1905.9,1945.531a.236.236,0,0,1-.188-.036l-1.911-1.1c-.068-.039-.1-.088-.061-.108l1.134-.655a.238.238,0,0,1,.188.036l1.911,1.1c.069.04.1.089.062.109Z" transform="translate(-1901.021 -1938.912)" fill="#a8c4e5"/><path d="M1985.492,1993.649a.179.179,0,0,1-.148-.025l-1.457-.841c-.053-.031-.073-.069-.044-.086l.419-.242a.184.184,0,0,1,.149.025l1.457.841c.052.03.072.069.043.085Z" transform="translate(-1968.066 -1979.776)" fill="#a8c4e5"/><path d="M1997.439,2000.722a.18.18,0,0,1-.148-.024l-1.457-.841c-.053-.031-.073-.069-.044-.086l.419-.242a.182.182,0,0,1,.149.025l1.457.841c.052.03.071.069.042.085Z" transform="translate(-1978.065 -1985.695)" fill="#a8c4e5"/><path d="M2010.109,2007.914a.182.182,0,0,1-.146-.026l-1.458-.841c-.052-.03-.073-.069-.045-.085l.4-.233a.184.184,0,0,1,.147.026l1.458.841c.053.031.073.069.045.084Z" transform="translate(-1988.669 -1991.722)" fill="#a8c4e5"/><path d="M2002.319,1998.043a.181.181,0,0,1-.146-.026l-1.458-.841c-.052-.03-.073-.068-.045-.084l.4-.233a.182.182,0,0,1,.146.026l1.458.841c.053.03.073.068.045.084Z" transform="translate(-1982.149 -1983.461)" fill="#a8c4e5"/><path d="M1928.791,1958.739a.186.186,0,0,1-.16-.019l-9.489-5.476c-.051-.03-.067-.072-.032-.092l1.135-.655a.187.187,0,0,1,.159.019l9.489,5.476c.053.03.067.072.033.092Z" transform="translate(-1913.885 -1946.332)" fill="#a8c4e5"/><path d="M1933.067,1962.709a.561.561,0,0,1-.08-.042l-7.552-4.358a.456.456,0,0,1-.072-.046l.07-.041a.517.517,0,0,1,.08.041l7.552,4.358a.49.49,0,0,1,.073.046Z" transform="translate(-1919.133 -1951.132)" fill="#a8c4e5"/><path d="M1929.949,1949.294a.185.185,0,0,1-.159-.019l-1.458-.842c-.052-.03-.067-.072-.032-.092l.966-.558a.184.184,0,0,1,.159.019l1.458.841c.053.031.067.072.032.092Z" transform="translate(-1921.577 -1942.386)" fill="#a8c4e5"/><path d="M1942.263,1956.4a.184.184,0,0,1-.158-.019l-1.458-.841c-.052-.03-.067-.072-.032-.092l.966-.558a.186.186,0,0,1,.159.018l1.458.842c.052.03.066.071.031.091Z" transform="translate(-1931.882 -1948.334)" fill="#a8c4e5"/><path d="M1954.576,1963.505a.185.185,0,0,1-.158-.018l-1.458-.842c-.052-.03-.066-.071-.032-.091l.966-.558a.185.185,0,0,1,.158.018l1.458.842c.052.03.066.071.031.092Z" transform="translate(-1942.188 -1954.281)" fill="#a8c4e5"/><path d="M1966.885,1970.609a.184.184,0,0,1-.158-.018l-1.458-.842c-.053-.031-.067-.072-.033-.092l.967-.558a.184.184,0,0,1,.159.019l1.458.842c.052.03.067.072.032.092Z" transform="translate(-1952.489 -1960.226)" fill="#a8c4e5"/><path d="M1979.2,1977.715a.185.185,0,0,1-.159-.019l-1.458-.841c-.052-.03-.066-.072-.032-.092l.966-.558a.185.185,0,0,1,.158.018l1.458.841c.053.031.067.072.033.092Z" transform="translate(-1962.794 -1966.174)" fill="#a8c4e5"/><path d="M1991.513,1984.815a.184.184,0,0,1-.158-.019l-1.458-.841c-.052-.031-.067-.072-.032-.092l.966-.558a.184.184,0,0,1,.159.018l1.458.842c.052.03.066.072.032.092Z" transform="translate(-1973.1 -1972.116)" fill="#a8c4e5"/><path d="M2006.339,1993.372a.184.184,0,0,1-.158-.019l-3.973-2.292c-.052-.031-.067-.072-.032-.092l.966-.558a.186.186,0,0,1,.159.019l3.973,2.293c.052.03.067.071.032.091Z" transform="translate(-1983.404 -1978.062)" fill="#a8c4e5"/><path d="M1944.135,1948.059a.18.18,0,0,1-.157-.018l-1.458-.842c-.052-.03-.067-.071-.032-.091l.966-.558a.183.183,0,0,1,.158.018l1.458.842c.053.031.066.071.032.091Z" transform="translate(-1933.449 -1941.354)" fill="#a8c4e5"/><path d="M1956.448,1955.165a.183.183,0,0,1-.158-.019l-1.459-.842c-.052-.03-.066-.071-.032-.091l.967-.558a.183.183,0,0,1,.157.018l1.459.842c.052.03.066.071.032.091Z" transform="translate(-1943.754 -1947.301)" fill="#a8c4e5"/><path d="M1968.759,1962.269a.185.185,0,0,1-.158-.019l-1.458-.841c-.052-.03-.068-.071-.033-.092l.967-.558a.187.187,0,0,1,.158.019l1.458.841c.052.03.067.072.032.091Z" transform="translate(-1954.057 -1953.246)" fill="#a8c4e5"/><path d="M1981.071,1969.374a.182.182,0,0,1-.158-.018l-1.458-.841c-.053-.031-.067-.071-.033-.091l.967-.558a.184.184,0,0,1,.158.019l1.458.842c.052.03.066.071.032.091Z" transform="translate(-1964.362 -1959.193)" fill="#a8c4e5"/><path d="M1993.386,1976.475a.183.183,0,0,1-.158-.019l-1.459-.842c-.052-.03-.067-.071-.032-.091l.967-.558a.183.183,0,0,1,.157.019l1.459.842c.052.03.067.071.032.091Z" transform="translate(-1974.667 -1965.135)" fill="#a8c4e5"/><path d="M2005.7,1983.58a.182.182,0,0,1-.158-.019l-1.458-.841c-.053-.031-.068-.071-.033-.092l.967-.558a.185.185,0,0,1,.159.019l1.457.841c.052.03.067.071.032.091Z" transform="translate(-1984.971 -1971.082)" fill="#a8c4e5"/><path d="M2018.009,1990.685a.182.182,0,0,1-.158-.018l-1.459-.842c-.052-.03-.066-.07-.031-.091l.967-.559a.184.184,0,0,1,.157.019l1.459.842c.052.03.066.072.032.091Z" transform="translate(-1995.276 -1977.029)" fill="#a8c4e5"/><path d="M1949.38,1941.664a.182.182,0,0,1-.159-.018l-1.458-.842c-.052-.03-.066-.071-.031-.091l.967-.558a.184.184,0,0,1,.157.018l1.458.841c.052.031.067.072.032.092Z" transform="translate(-1937.839 -1936.002)" fill="#a8c4e5"/><path d="M1961.689,1948.767a.184.184,0,0,1-.158-.018l-1.458-.842c-.052-.03-.067-.071-.032-.092l.967-.558a.183.183,0,0,1,.158.019l1.458.841c.052.03.066.071.032.091Z" transform="translate(-1948.14 -1941.947)" fill="#a8c4e5"/><path d="M1974,1955.873a.184.184,0,0,1-.159-.018l-1.458-.841c-.052-.03-.066-.071-.031-.092l.966-.558a.183.183,0,0,1,.158.018l1.458.841c.052.031.067.072.033.092Z" transform="translate(-1958.445 -1947.894)" fill="#a8c4e5"/><path d="M1986.311,1962.976a.181.181,0,0,1-.158-.018l-1.458-.841c-.052-.031-.067-.072-.031-.092l.966-.558a.185.185,0,0,1,.158.019l1.458.842c.052.031.066.071.032.091Z" transform="translate(-1968.746 -1953.839)" fill="#a8c4e5"/><path d="M1998.628,1970.079a.183.183,0,0,1-.158-.018l-1.458-.842c-.053-.031-.067-.071-.032-.092l.967-.558a.183.183,0,0,1,.158.018l1.458.842c.052.03.066.071.032.091Z" transform="translate(-1979.055 -1959.783)" fill="#a8c4e5"/><path d="M2010.94,1977.183a.184.184,0,0,1-.16-.019l-1.458-.841c-.052-.03-.066-.071-.031-.092l.966-.558a.183.183,0,0,1,.158.018l1.458.841c.053.031.067.072.033.092Z" transform="translate(-1989.359 -1965.729)" fill="#a8c4e5"/><path d="M2023.251,1984.288a.184.184,0,0,1-.158-.018l-1.458-.842c-.053-.03-.067-.071-.031-.092l.966-.558a.183.183,0,0,1,.158.019l1.458.842c.052.03.066.071.032.091Z" transform="translate(-1999.662 -1971.674)" fill="#a8c4e5"/><path d="M1919.6,1924.487a.183.183,0,0,1-.159-.018l-2.472-1.427c-.052-.03-.067-.071-.032-.092l.966-.558a.184.184,0,0,1,.158.019l2.472,1.427c.052.03.067.072.033.091Z" transform="translate(-1912.068 -1921.136)" fill="#a8c4e5"/><path d="M2038.516,1983.676a.184.184,0,0,1-.159-.019l-2.473-1.427c-.052-.03-.067-.072-.031-.091l.966-.558a.184.184,0,0,1,.158.018l2.473,1.427c.052.03.067.071.032.092Z" transform="translate(-2011.589 -1970.672)" fill="#a8c4e5"/><path d="M1911.92,1929.474a.182.182,0,0,1-.158-.019l-2.947-1.7c-.053-.031-.067-.071-.033-.092l.967-.558a.184.184,0,0,1,.158.019l2.948,1.7c.053.031.067.072.033.091Z" transform="translate(-1905.241 -1925.08)" fill="#a8c4e5"/><path d="M1902.78,1933.621a.185.185,0,0,1-.158-.019l-1.965-1.134c-.052-.03-.067-.072-.032-.091l.966-.558a.185.185,0,0,1,.159.018l1.965,1.134c.052.03.067.072.032.092Z" transform="translate(-1898.413 -1929.025)" fill="#a8c4e5"/><path d="M1939.062,1926.294a.182.182,0,0,1-.159-.019l-1.457-.841c-.052-.031-.067-.072-.032-.092l.966-.558a.184.184,0,0,1,.158.019l1.458.841c.053.031.067.071.032.092Z" transform="translate(-1929.203 -1923.138)" fill="#a8c4e5"/><path d="M1951.316,1933.359a.185.185,0,0,1-.159-.019l-1.458-.842c-.052-.03-.067-.071-.032-.092l.966-.558a.185.185,0,0,1,.159.018l1.458.841c.053.03.067.072.032.092Z" transform="translate(-1939.458 -1929.051)" fill="#a8c4e5"/><path d="M1963.628,1940.464a.183.183,0,0,1-.158-.018l-1.458-.842c-.052-.03-.067-.071-.032-.091l.966-.558a.182.182,0,0,1,.158.018l1.458.842c.052.03.066.071.031.091Z" transform="translate(-1949.764 -1934.998)" fill="#a8c4e5"/><path d="M1975.942,1947.571a.184.184,0,0,1-.159-.019l-1.458-.841c-.053-.031-.067-.072-.032-.092l.966-.558a.183.183,0,0,1,.159.018l1.457.841c.052.031.067.072.032.092Z" transform="translate(-1960.069 -1940.945)" fill="#a8c4e5"/><path d="M1988.251,1954.674a.181.181,0,0,1-.158-.018l-1.458-.841c-.053-.031-.067-.072-.032-.092l.966-.558a.183.183,0,0,1,.159.019l1.458.841c.053.031.066.071.031.091Z" transform="translate(-1970.371 -1946.89)" fill="#a8c4e5"/><path d="M2000.568,1961.776a.184.184,0,0,1-.158-.018l-1.458-.842c-.052-.03-.066-.071-.031-.091l.966-.558a.185.185,0,0,1,.158.018l1.459.842c.052.03.066.071.031.091Z" transform="translate(-1980.679 -1952.834)" fill="#a8c4e5"/><path d="M2012.877,1968.879a.183.183,0,0,1-.159-.018l-1.458-.841c-.053-.031-.068-.072-.033-.092l.966-.558a.184.184,0,0,1,.159.019l1.458.842c.052.03.067.071.032.092Z" transform="translate(-1990.979 -1958.778)" fill="#a8c4e5"/><path d="M2025.189,1975.984a.182.182,0,0,1-.158-.018l-1.459-.842c-.052-.03-.066-.071-.031-.091l.966-.558a.183.183,0,0,1,.158.018l1.459.842c.052.03.066.071.031.091Z" transform="translate(-2001.285 -1964.725)" fill="#a8c4e5"/><path d="M2030.651,1989.9a.218.218,0,0,0-.085-.028.115.115,0,0,0-.072.01l-.966.558a.033.033,0,0,0-.018.042.106.106,0,0,0,.048.049l.381.22-1.267.732a.033.033,0,0,0-.017.042.106.106,0,0,0,.049.049l.982.567a.228.228,0,0,0,.086.029.119.119,0,0,0,.073-.01l2.3-1.327a.032.032,0,0,0,.016-.042.1.1,0,0,0-.049-.05Z" transform="translate(-2005.579 -1977.62)" fill="#a8c4e5"/></g><path d="M1754,1934.234c8.755,11.873,3.264,1.9,7.063,2.033,8.2.282,14.693-8.179,18.709-7.478" transform="translate(-78.965 -264.554)" fill="none" stroke="#ffaa82" stroke-miterlimit="10" stroke-width="8.552"/><ellipse cx="2.325" cy="4.027" rx="2.325" ry="4.027" transform="translate(1730.246 1680.579) rotate(-89.694)" fill="#a8c4e5"/><ellipse cx="2.043" cy="3.535" rx="2.043" ry="3.535" transform="translate(1752.72 1685.542) rotate(-89.78)" fill="#a8c4e5"/><g transform="translate(1729.415 1670.255)"><ellipse cx="2.055" cy="3.56" rx="2.055" ry="3.56" transform="translate(0 9.824) rotate(-89.689)" fill="#8585ff"/><path d="M2094.073,1984.141l-6.524-.025v-5.811l6.524.054Z" transform="translate(-2087.537 -1976.285)" fill="#8585ff"/><path d="M2105.885,1978.454v5.31l-.007.206c.006.9-.456,1.052-1.152,1.453a4.736,4.736,0,0,1-1.458.6,5.541,5.541,0,0,0,3.56-.654,1.58,1.58,0,0,0,1.03-1.609h0l-.021-5.267Z" transform="translate(-2100.694 -1976.409)" fill="#7878ea"/><ellipse cx="2.055" cy="3.56" rx="2.055" ry="3.56" transform="matrix(0.005, -1, 1, 0.005, 0, 4.11)" fill="#b3b3ff"/><path d="M2096.475,1970.923a4.6,4.6,0,0,1-4.161-.008,1.268,1.268,0,0,1-.013-2.4,4.6,4.6,0,0,1,4.161.008A1.268,1.268,0,0,1,2096.475,1970.923Z" transform="translate(-2090.799 -1967.677)" fill="#a1a1e5"/><path d="M2097.189,1974.868a4.6,4.6,0,0,0-4.161-.007,1.842,1.842,0,0,0-.714.678,1.878,1.878,0,0,0,.727.689,4.6,4.6,0,0,0,4.161.008,1.84,1.84,0,0,0,.713-.678A1.873,1.873,0,0,0,2097.189,1974.868Z" transform="translate(-2091.526 -1972.989)" fill="#565682"/><path d="M2093.028,1979.877a1.844,1.844,0,0,1-.714-.678,1.587,1.587,0,0,1,.34-.413,4.551,4.551,0,0,1,2.892.426,1.838,1.838,0,0,1,.713.678.958.958,0,0,1,.125.32,5.009,5.009,0,0,1-3.357-.332Z" transform="translate(-2091.526 -1976.631)" fill="#6b6b9b"/><path d="M2124.2,1992.322c.646.348,1.339.625,1.368,1.059.053.785.056,1.964.023,2.749a.444.444,0,0,1-.275.439c-.17.059-.969-.381-1.148-.472" transform="translate(-2118.186 -1988.016)" fill="none" stroke="#45446c" stroke-miterlimit="10" stroke-width="1.865"/></g><path d="M1733.25,1933.2c-1.351,1.461-1.31,2.406-1.475,4.48a4.318,4.318,0,0,0,2.951,4.485l19.059,6.373s5.331-7.41-.926-10.1c-3.255-1.4-5.458-3.332-7.9-5.024C1741.38,1930.931,1736.372,1929.827,1733.25,1933.2Z" transform="translate(-60.356 -266.51)" fill="#56547f"/><path d="M1725.506,1989.037c-1.274-.454-.924-18.118.587-30.2L1748.4,1969c-1.975,10.454-1.968,18.389-1.088,30.85Z" transform="translate(-54.468 -289.737)" fill="#56547f"/><path d="M1834.116,2012.695l-3.7-1.652c-2.252,10.625-2.695,18.332-1.062,30.3l-.062-.018a2.6,2.6,0,0,1-1.536,2.045h0c-1.816,1.067.845,1.609,2.661.542l4.722-9.3C1834.116,2024.389,1831.585,2026.558,1834.116,2012.695Z" transform="translate(-140.187 -333.428)" fill="#46466b"/><path d="M1842.174,2117.365l-15.544,9.517c-2.517,1.541-4.464.818-4.324-1.608l.134-2.33c.139-2.426,2.313-5.671,4.83-7.213l15.544-9.517c2.517-1.542,4.464-.818,4.324,1.608l-.134,2.33C1846.865,2112.577,1844.691,2115.823,1842.174,2117.365Z" transform="translate(-136.129 -412.4)" fill="#d84177"/><path d="M1669.238,2013.864l-2.4-21.711c-.468-3.159,2.293-4.024,5.979-1.873l14.741,8.6a15.123,15.123,0,0,1,6.109,6.836l5.575,14.095c1.6,4.041-3.814,10.624-7.535,8.4Z" transform="translate(-5.975 -315.06)" fill="#d84177"/><path d="M2008.605,2030.353l-2.933,2.01a2.391,2.391,0,0,1-3.314-.619h0a2.39,2.39,0,0,1,.619-3.314l2.933-2.01a2.391,2.391,0,0,1,3.313.618h0A2.391,2.391,0,0,1,2008.605,2030.353Z" transform="translate(-286.477 -345.951)" fill="#45446c"/><path d="M1878.469,2015.678c5.625,5,5.907,7.858,9.706,7.742,3.659-.111,9.973-4.691,14.322-5.725" transform="translate(-183.139 -337.308)" fill="none" stroke="#ffaa82" stroke-miterlimit="10" stroke-width="8.552"/><g transform="translate(1689.172 1672.123)"><path d="M1841.482,1983.18l8.008,7.813c2.6,1.906,6.021-2.886,4-4.634l-7.8-8.161a2.86,2.86,0,0,0-4.047.013h0A4.074,4.074,0,0,0,1841.482,1983.18Z" transform="translate(-1840.712 -1977.369)" fill="#56547f"/><path d="M1886,2030.061a5.165,5.165,0,0,0,3.962-3.786" transform="translate(-1878.615 -2018.3)" fill="none" stroke="#fcfeff" stroke-miterlimit="10" stroke-width="2.791"/></g><path d="M1903.072,1858.1h0a.26.26,0,0,0-.15-.221l-3.779-2.182a.981.981,0,0,0-.883.037l-6.841,3.949a.372.372,0,0,0-.214.274h0l.012.379,0,0a.241.241,0,0,0,.139.289l3.779,2.181a.809.809,0,0,0,.428.087,1.011,1.011,0,0,0,.455-.124l6.841-3.95a.366.366,0,0,0,.214-.279h0Z" transform="translate(-193.794 -203.34)" fill="#a8c4e5"/><g transform="translate(1696.85 1651.906)"><path d="M1887.8,1880.436l-.012-.379.489.316a2.393,2.393,0,0,1-.152.332Z" transform="translate(-1887.788 -1875.71)" fill="url(#a)"/><path d="M1891.719,1862.814l-3.779-2.182c-.226-.131-.2-.359.063-.51l6.841-3.949a.982.982,0,0,1,.883-.037l3.779,2.182c.227.131.2.359-.064.51l-6.841,3.949A.982.982,0,0,1,1891.719,1862.814Z" transform="translate(-1887.788 -1855.616)" fill="url(#b)"/><path d="M1914.418,1860.717l2.714-4.544a.982.982,0,0,1,.883-.037l3.779,2.182c.226.131.2.359-.063.51l-6.841,3.949a1.013,1.013,0,0,1-.454.124Z" transform="translate(-1910.075 -1855.616)" fill="#b2d0ed"/><path d="M1932.672,1869.775l.694-.941,3.858-.162v.441l-4.216,1.344Z" transform="translate(-1925.352 -1866.181)" fill="#8db0da"/><path d="M1890.023,1882.983c0,.065-.047.092-.1.059a.228.228,0,0,1-.1-.179c0-.066.046-.092.1-.059A.229.229,0,0,1,1890.023,1882.983Z" transform="translate(-1889.485 -1877.997)" fill="#45446c"/><path d="M1891.719,1860.166l-3.779-2.182c-.226-.131-.2-.359.063-.51l6.841-3.95a.981.981,0,0,1,.883-.036l3.779,2.182c.227.131.2.359-.064.51l-6.841,3.95A.981.981,0,0,1,1891.719,1860.166Z" transform="translate(-1887.788 -1853.4)" fill="#45446c"/><path d="M1943.335,1859.674l-1.043-.6c-.043-.025-.038-.069.012-.1h0a.188.188,0,0,1,.169-.007l1.043.6c.043.025.038.069-.012.1h0A.188.188,0,0,1,1943.335,1859.674Z" transform="translate(-1933.379 -1858.045)" fill="#565682"/><path d="M1897.748,1887.794l-.838-.484a.155.155,0,0,1-.065-.123h0c0-.047.029-.069.065-.049l.838.484a.155.155,0,0,1,.065.123h0C1897.812,1887.793,1897.783,1887.815,1897.748,1887.794Z" transform="translate(-1895.368 -1881.63)" fill="#45446c"/><path d="M1953.062,1873.484l.412-.238a.107.107,0,0,0,.045-.085h0c0-.033-.02-.048-.045-.034l-.412.238a.106.106,0,0,0-.044.085h0C1953.017,1873.483,1953.037,1873.5,1953.062,1873.484Z" transform="translate(-1942.38 -1869.905)" fill="#565682"/><path d="M1949.473,1875.737l.413-.238a.107.107,0,0,0,.044-.085h0c0-.033-.02-.048-.044-.034l-.413.238a.107.107,0,0,0-.044.085h0C1949.428,1875.736,1949.448,1875.752,1949.473,1875.737Z" transform="translate(-1939.376 -1871.791)" fill="#565682"/><path d="M1901.271,1884.221a.7.7,0,0,1-.635,0,.194.194,0,0,1,0-.367.7.7,0,0,1,.635,0A.194.194,0,0,1,1901.271,1884.221Z" transform="translate(-1898.429 -1878.823)" fill="#565682"/><path d="M1902.33,1855.413l-5.752,3.321a.2.2,0,0,0,0,.348l3.493,2.016a.2.2,0,0,0,.2,0l5.752-3.321a.2.2,0,0,0,0-.348l-3.493-2.016A.2.2,0,0,0,1902.33,1855.413Z" transform="translate(-1895.06 -1855.062)" fill="#97cbff"/></g><g transform="translate(1748.504 1664.118)"><ellipse cx="2.256" cy="3.908" rx="2.256" ry="3.908" transform="translate(1.871 20.679) rotate(-89.689)" fill="#87a6c4"/><path d="M2204.879,2007.786l1.839,5.637,7.774.128,1.774-5.433Z" transform="translate(-2204.823 -1994.82)" fill="#87a6c4"/><path d="M2238.192,2010l-1.775,5.545h0a2.476,2.476,0,0,1-1.106,1.246,4.823,4.823,0,0,1-1.594.529,5.964,5.964,0,0,0,3.8-.519,2.488,2.488,0,0,0,1.106-1.255h0L2240.4,2010Z" transform="translate(-2228.956 -1996.673)" fill="#7694ad"/><ellipse cx="3.333" cy="5.773" rx="3.333" ry="5.773" transform="matrix(0.005, -1, 1, 0.005, 0, 15.909)" fill="#93b5d1"/><ellipse cx="2.861" cy="4.955" rx="2.861" ry="4.955" transform="matrix(0.005, -1, 1, 0.005, 0.78, 15.333)" fill="#353559"/><path d="M2214.044,1939.638h0a2.175,2.175,0,0,1-.493-1.063.977.977,0,0,1,.5-.994,1.172,1.172,0,0,1,1.24.372c.325.325.556.739.907,1.036q-.673-2.134-1.348-4.266a2.681,2.681,0,0,1-.183-1.33.923.923,0,0,1,.948-.783c.858.141.732,1.594,1.5,2.01a10.967,10.967,0,0,1-1.124-3.387,3.423,3.423,0,0,1,.167-2.056,1.477,1.477,0,0,1,1.724-.826c.808.307.966,1.362.995,2.227q.056,1.668.112,3.335c.272-1.113.7-2.4,1.783-2.759a7.11,7.11,0,0,1-.634,4.533,1.74,1.74,0,0,1,1.432-.861,5,5,0,0,1-1.38,4.343l.927-1.032a3.1,3.1,0,0,1-.934,3.032C2218.219,1942.89,2215.372,1941.381,2214.044,1939.638Z" transform="translate(-2212.075 -1928.281)" fill="#27e0c0"/></g><g transform="translate(1710.172 1624.655)"><path d="M1983.324,1867.7l28.5,16.824a.672.672,0,0,0,.677-.014l2.058-1.188a.692.692,0,0,0,.1-1.185l-28.5-16.824a.672.672,0,0,0-.677.014l-2.058,1.188A.692.692,0,0,0,1983.324,1867.7Z" transform="translate(-1980.822 -1836.051)" fill="#a8c4e5"/><g transform="translate(0 0)"><path d="M2153.177,1942.491l1.574-1.072-4.3-5.3,1.512,2.509Z" transform="translate(-2120.938 -1895.382)" fill="#8aacce"/><path d="M1970.9,1687.715l1.525-1.23,3.374,3.783a24.414,24.414,0,0,1-2.347,1.583A47.33,47.33,0,0,1,1970.9,1687.715Z" transform="translate(-1970.669 -1686.455)" fill="#b5cfea"/><path d="M2009.466,1911.121l-6.428-3.711c-.516-.3-.5-.782.033-1.065l9.078-4.814a2.009,2.009,0,0,1,1.77.025l5.781,3.338c.49.283.5.737.034,1.027l-8.431,5.188A1.989,1.989,0,0,1,2009.466,1911.121Z" transform="translate(-1997.25 -1866.269)" fill="#8aacce"/><path d="M2009.466,1905.786l-6.428-3.711c-.516-.3-.5-.782.033-1.065l9.078-4.814a2.009,2.009,0,0,1,1.77.025l5.781,3.338c.49.283.5.737.034,1.027l-8.431,5.188A1.988,1.988,0,0,1,2009.466,1905.786Z" transform="translate(-1997.25 -1861.803)" fill="url(#c)"/><g transform="translate(10.779 35.669)" opacity="0.29" style="mix-blend-mode:multiply;isolation:isolate"><path d="M2035.581,1905.928l7.878,4.592,1.634-1.006-7.8-4.494Z" transform="translate(-2035.581 -1905.021)" fill="#45446c"/></g><path d="M2011.2,1704.5l-.041.01h.01l-31.028-17.98-.289-.186a.345.345,0,0,0-.524.313l.262.077h.174v28.546a1.008,1.008,0,0,0,.378.85s31.388,15.258,31.388,14.94l.034-25.775v-.046A.876.876,0,0,0,2011.2,1704.5Z" transform="translate(-1977.722 -1686.297)" fill="#b5cfea"/><path d="M2096.158,1810.623c4.034-4.056,6.3,7.454,8.854,13.764a4.5,4.5,0,0,0,4.283,2.969l.046-26.9v-.123a1.27,1.27,0,0,0-.09-.539Z" transform="translate(-2075.5 -1781.286)" fill="#8aacce"/><path d="M2002.068,1740.96l-31.367-17.981a1.032,1.032,0,0,1-.47-.806l0-26.509c0-.295.212-.415.471-.266l31.367,17.981a1.032,1.032,0,0,1,.47.806l0,26.509C2002.539,1740.988,2002.328,1741.108,2002.068,1740.96Z" transform="translate(-1970.109 -1693.86)" fill="url(#d)"/><path d="M2001.463,1736.018l-31.5-18.184a.971.971,0,0,1-.435-.757l-.05-22.969c0-.279.194-.394.433-.256l31.5,18.184a.971.971,0,0,1,.435.757l.05,22.969C2001.9,1736.041,2001.7,1736.156,2001.463,1736.018Z" transform="translate(-1969.482 -1692.571)" fill="#45446c"/><path d="M2006.134,1743.67l-29.633-17.109.064-19.914,29.633,17.109Z" transform="translate(-1975.357 -1703.329)" fill="#97cbff"/></g><g transform="translate(2.21 10.042)"><g transform="translate(4.798)"><path d="M2028.99,1758.367l-16.112-9.3a1.025,1.025,0,0,1-.427-.817h0c0-.315.191-.459.427-.323l16.112,9.3a1.024,1.024,0,0,1,.427.817h0C2029.417,1758.359,2029.226,1758.5,2028.99,1758.367Z" transform="translate(-2012.45 -1747.873)" fill="#6f6f9e"/><path d="M2046.113,1799.578l-12.976-7.492a1.024,1.024,0,0,1-.428-.817h0c0-.315.191-.46.428-.323l12.976,7.492a1.025,1.025,0,0,1,.428.817h0C2046.541,1799.57,2046.349,1799.715,2046.113,1799.578Z" transform="translate(-2029.405 -1783.879)" fill="#d84177"/><path d="M2090.682,1842.746l-4.292-2.478a1.025,1.025,0,0,1-.428-.817h0c0-.315.192-.46.428-.323l4.292,2.478a1.024,1.024,0,0,1,.428.817h0C2091.11,1842.738,2090.918,1842.882,2090.682,1842.746Z" transform="translate(-2073.974 -1824.203)" fill="#6f6f9e"/><path d="M2036.369,1811.388l-2.077-1.2a1.024,1.024,0,0,1-.428-.817h0c0-.315.191-.46.428-.323l2.077,1.2a1.024,1.024,0,0,1,.428.817h0C2036.8,1811.38,2036.605,1811.524,2036.369,1811.388Z" transform="translate(-2030.372 -1799.029)" fill="#6f6f9e"/><path d="M2017.037,1818.746l-2.743-1.583a1.026,1.026,0,0,1-.427-.817h0c0-.315.192-.46.427-.323l2.743,1.583a1.024,1.024,0,0,1,.427.817h0C2017.465,1818.737,2017.273,1818.882,2017.037,1818.746Z" transform="translate(-2013.636 -1804.865)" fill="#6f6f9e"/><path d="M2021.447,1838.875l-7.153-4.129a1.026,1.026,0,0,1-.427-.817h0c0-.315.192-.46.427-.323l7.153,4.129a1.025,1.025,0,0,1,.427.817h0C2021.875,1838.866,2021.683,1839.011,2021.447,1838.875Z" transform="translate(-2013.636 -1819.581)" fill="#d84177"/><path d="M2054.974,1840.649l-11.149-6.437a1.025,1.025,0,0,1-.428-.817h0c0-.315.192-.46.428-.323l11.149,6.437a1.025,1.025,0,0,1,.427.817h0C2055.4,1840.64,2055.21,1840.785,2054.974,1840.649Z" transform="translate(-2038.35 -1819.134)" fill="#6f6f9e"/><path d="M2064.571,1827.67l-1.8-1.038a1.024,1.024,0,0,1-.428-.817h0c0-.315.192-.46.428-.323l1.8,1.038a1.024,1.024,0,0,1,.428.817h0C2065,1827.662,2064.807,1827.807,2064.571,1827.67Z" transform="translate(-2054.208 -1812.791)" fill="#6f6f9e"/><path d="M2037.611,1777.53l-4.474-2.583a1.024,1.024,0,0,1-.428-.817h0c0-.315.191-.46.428-.323l4.474,2.583a1.025,1.025,0,0,1,.427.818h0C2038.039,1777.521,2037.847,1777.666,2037.611,1777.53Z" transform="translate(-2029.405 -1769.534)" fill="#6f6f9e"/><path d="M2071.552,1797.125l-1.256-.725a1.025,1.025,0,0,1-.428-.817h0c0-.315.192-.46.428-.323l1.256.725a1.026,1.026,0,0,1,.428.817h0C2071.979,1797.117,2071.787,1797.261,2071.552,1797.125Z" transform="translate(-2060.504 -1787.489)" fill="#d84177"/></g><path d="M1983.032,1790.912l18.938-6.971,6.83,3.806-18.852,6.759Z" transform="translate(-1983.032 -1778.059)" fill="#fff" opacity="0.28"/><path d="M1984,1776.047l17.24-6.012-3.848-1.982L1984,1772.809Z" transform="translate(-1983.842 -1764.762)" fill="#fff" opacity="0.28"/></g><path d="M2050.534,1893.828c0,.679-.48.953-1.072.611a2.362,2.362,0,0,1-1.072-1.849c0-.68.48-.953,1.072-.611A2.363,2.363,0,0,1,2050.534,1893.828Z" transform="translate(-2035.522 -1858.313)" fill="#a8c4e5"/></g><g transform="translate(1677.544 1647.9)"><g transform="translate(6.791 3.575)"><path d="M1820.208,1857.829l-.01.717s-.016,2.161-2.081.938-1.862-3.909-1.862-3.909S1817.878,1855.467,1820.208,1857.829Z" transform="translate(-1815.401 -1854.788)" fill="#fff" opacity="0.46"/><path d="M1816.068,1856.462c2.694,1.58,2.724-.941,2.724-.941l.022.012-.038-.86c-2.951-2.81-4.92-2.783-4.92-2.783A4.653,4.653,0,0,0,1816.068,1856.462Zm-1.741-3.864s1.579,0,3.837,2.175l-.012.621s-.023,1.872-2.027.7A3.857,3.857,0,0,1,1814.326,1852.6Z" transform="translate(-1813.369 -1851.705)" fill="#513554"/><path d="M1842.036,1868.348l-1.607-.835-.042-.936,1.607.834Z" transform="translate(-1835.603 -1863.997)" fill="#513554"/><path d="M1811.63,1851.662l-.284-.148a.656.656,0,0,1-.3-.511h0c-.009-.2.11-.3.265-.219l.285.148a.657.657,0,0,1,.3.511h0C1811.9,1851.644,1811.785,1851.743,1811.63,1851.662Z" transform="translate(-1811.047 -1850.755)" fill="#513554"/><path d="M1875.354,1884.759l-.285-.148a.656.656,0,0,1-.3-.511h0c-.009-.2.11-.3.265-.22l.285.148a.657.657,0,0,1,.3.511h0C1875.627,1884.742,1875.509,1884.84,1875.354,1884.759Z" transform="translate(-1864.379 -1878.455)" fill="#513554"/><g transform="translate(5.879 3.214)"><path d="M1850.89,1875.128l.074.739a4.015,4.015,0,0,0,2.2,3.1c1.992.888,1.547-2.053,1.547-2.053A5.927,5.927,0,0,0,1850.89,1875.128Z" transform="translate(-1850.271 -1874.367)" fill="#fff" opacity="0.46"/><path d="M1851.994,1872.778a8.444,8.444,0,0,0-4.9-2.318l.039.86.022.011a5.094,5.094,0,0,0,2.939,3.882C1852.77,1876.423,1851.994,1872.778,1851.994,1872.778Zm-1.994,1.985a3.787,3.787,0,0,1-2.187-2.885l-.069-.663a6.563,6.563,0,0,1,3.82,1.8S1851.992,1875.663,1850,1874.763Z" transform="translate(-1847.094 -1870.46)" fill="#513554"/><path d="M1853.368,1878.217h0c-.064-.085-.08-.19-.036-.235l.519-.516c.044-.044.133-.011.2.074h0c.064.085.08.19.036.235l-.519.516C1853.521,1878.335,1853.433,1878.3,1853.368,1878.217Z" transform="translate(-1852.294 -1876.306)" fill="#fcfeff"/></g><path d="M1818.172,1859.207h0c-.064-.085-.08-.191-.036-.235l.519-.516c.045-.044.133-.011.2.074h0c.064.086.08.191.036.235l-.519.516C1818.325,1859.325,1818.236,1859.292,1818.172,1859.207Z" transform="translate(-1816.959 -1857.183)" fill="#fcfeff"/></g><path d="M1794.789,1910.659l1.329-7.463,4.642,2.832-1.057,6.788C1799.619,1913.915,1794.575,1913.184,1794.789,1910.659Z" transform="translate(-1790.644 -1891.069)" fill="#ffaa82"/><path d="M1790.561,1836.6s-4.345-3.033-4.736,3.887a12.082,12.082,0,0,0,6.467,11.227c2.461,1.3,5.619-.041,5.879-2.431.778-3.466.952-6.735-.082-9.609.313-2.882-1.778-1.958-5.291-2.326Z" transform="translate(-1783.132 -1834.784)" fill="#ffaa82"/><path d="M1774.244,1844.656a4.469,4.469,0,0,0-1.081-.947c-1.467-.84-4.277-3.136-3.674-8.206.875-7.354,7.344-5.911,11.421-6.542a4.385,4.385,0,0,1,4.485,1.357c1.485,1.467-.13,4.511-2.371,4.6-.889.035-.606,2.438-.826,3.247-.392,1.438-1.334,2.1-1.741,3.495a6.3,6.3,0,0,1-3.744,3.39C1775.209,1845.307,1774.541,1844.989,1774.244,1844.656Z" transform="translate(-1769.406 -1828.835)" fill="#492817"/><path d="M1843.156,1886.586l-6.285.28a.408.408,0,0,1-.425-.388h0a.408.408,0,0,1,.388-.425l6.285-.28a.408.408,0,0,1,.424.388h0A.408.408,0,0,1,1843.156,1886.586Z" transform="translate(-1825.513 -1876.488)" fill="#513554"/><path d="M1828.967,1888.43c.041,1.172-.607,2.146-1.447,2.175a1.127,1.127,0,0,1-.27-.024,2.052,2.052,0,0,1-1.324-2.046c-.041-1.172.607-2.146,1.447-2.175S1828.927,1887.257,1828.967,1888.43Z" transform="translate(-1816.707 -1876.978)" fill="#ffaa82"/></g><path d="M1795.6,1938.053c-5.116-1.018-8.973,2.052-9.422-5.416h0a1.621,1.621,0,0,1,2.193.592,4.926,4.926,0,0,0,4.691,2.057,1.555,1.555,0,0,1,1.507.811Z" transform="translate(-105.899 -267.638)" fill="#6f6f9e"/><g transform="translate(1721.66 1681.211)"><g transform="translate(0 0.407)"><g transform="translate(0 0.329)"><path d="M2049.7,2051.214l-9.693-5.6a.179.179,0,0,1,0-.31l13.288-7.672a.179.179,0,0,1,.179,0l9.693,5.6a.179.179,0,0,1,0,.311l-13.288,7.672A.179.179,0,0,1,2049.7,2051.214Z" transform="translate(-2039.922 -2037.611)" fill="#dd4078"/><rect width="0.326" height="0.489" transform="translate(0.013 7.402)" fill="#dd4078"/><rect width="0.489" height="0.326" transform="translate(23.007 5.445)" fill="#dd4078"/></g><path d="M2049.7,2049.2l-9.693-5.6a.179.179,0,0,1,0-.31l13.288-7.672a.181.181,0,0,1,.179,0l9.693,5.6a.179.179,0,0,1,0,.311l-13.288,7.672A.181.181,0,0,1,2049.7,2049.2Z" transform="translate(-2039.922 -2035.596)" fill="#ef487c"/></g><g transform="translate(9.686 5.98)"><g transform="translate(0 0.329)"><path d="M2109.1,2085.385l-9.693-5.6a.179.179,0,0,1,0-.31l13.289-7.672a.178.178,0,0,1,.179,0l9.693,5.6a.179.179,0,0,1,0,.311l-13.289,7.672A.178.178,0,0,1,2109.1,2085.385Z" transform="translate(-2099.315 -2071.782)" fill="#dd4078"/><rect width="0.326" height="0.326" transform="translate(0.112 7.537)" fill="#dd4078"/><rect width="0.489" height="0.163" transform="translate(22.943 5.417)" fill="#dd4078"/></g><path d="M2109.1,2083.371l-9.693-5.6a.179.179,0,0,1,0-.31l13.289-7.672a.178.178,0,0,1,.179,0l9.693,5.6a.179.179,0,0,1,0,.31l-13.289,7.672A.181.181,0,0,1,2109.1,2083.371Z" transform="translate(-2099.315 -2069.768)" fill="#ef487c"/></g><path d="M2061.15,2086.832l6.314,4.074,3.833-3.05S2063.857,2084.824,2061.15,2086.832Z" transform="translate(-2057.688 -2077.494)" fill="#dd4078"/><path d="M2055.106,2051.97c-.546-2.059-4.347-2.9-8.693-5.019-.139-.08-.122-.222.039-.315l11.788-6.806a.606.606,0,0,1,.545-.022c5.4,1.6,8.763,3.258,8.694,5.019Z" transform="translate(-2045.276 -2038.668)" fill="url(#e)"/><path d="M2062.317,2046.4c.4-2.4-3.43-3.626-7.3-6.093-.123-.092-.1-.243.059-.336l11.4-6.8a.5.5,0,0,1,.506,0c4.886,1.951,7.893,4.129,7.7,6.019Z" transform="translate(-2052.486 -2033.098)" fill="url(#f)"/><g transform="translate(5.462 0.798)"><path d="M2136.682,2040.811l-4.18-2.674c-.053-.034-.044-.089.021-.122h0a.237.237,0,0,1,.213,0l4.18,2.674c.053.034.044.089-.021.122h0A.236.236,0,0,1,2136.682,2040.811Z" transform="translate(-2122.838 -2037.99)" fill="#7474a3" opacity="0.32"/><path d="M2128.275,2046.244l-4.18-2.674c-.053-.034-.044-.089.021-.123h0a.238.238,0,0,1,.214,0l4.18,2.673c.053.034.044.089-.021.123h0A.237.237,0,0,1,2128.275,2046.244Z" transform="translate(-2115.801 -2042.537)" fill="#7474a3" opacity="0.32"/><path d="M2119.866,2051.677l-4.18-2.674c-.053-.034-.044-.088.021-.122h0a.238.238,0,0,1,.213,0l4.18,2.673c.053.034.044.089-.021.123h0A.237.237,0,0,1,2119.866,2051.677Z" transform="translate(-2108.764 -2047.084)" fill="#7474a3" opacity="0.32"/><path d="M2111.458,2057.11l-4.18-2.674c-.053-.034-.044-.089.021-.122h0a.239.239,0,0,1,.214,0l4.179,2.674c.053.034.044.089-.021.122h0A.237.237,0,0,1,2111.458,2057.11Z" transform="translate(-2101.727 -2051.631)" fill="#7474a3" opacity="0.32"/><path d="M2103.051,2062.543l-4.18-2.673c-.053-.034-.044-.089.021-.122h0a.236.236,0,0,1,.214,0l4.18,2.674c.053.034.044.089-.021.122h0A.236.236,0,0,1,2103.051,2062.543Z" transform="translate(-2094.691 -2056.178)" fill="#7474a3" opacity="0.32"/><path d="M2094.446,2070.05l-4.18-2.674c-.053-.033-.043-.088.021-.122h0a.236.236,0,0,1,.214,0l4.18,2.674c.053.033.044.088-.021.122h0A.237.237,0,0,1,2094.446,2070.05Z" transform="translate(-2087.489 -2062.461)" fill="#7474a3" opacity="0.32"/><path d="M2086.037,2075.484l-4.18-2.674c-.053-.034-.043-.089.021-.123h0a.238.238,0,0,1,.214,0l4.18,2.674c.053.034.044.089-.021.123h0A.238.238,0,0,1,2086.037,2075.484Z" transform="translate(-2080.452 -2067.008)" fill="#7474a3" opacity="0.32"/><path d="M2077.63,2080.917l-4.18-2.674c-.053-.034-.043-.089.021-.123h0a.237.237,0,0,1,.213,0l4.18,2.674c.053.034.044.089-.021.122h0A.236.236,0,0,1,2077.63,2080.917Z" transform="translate(-2073.415 -2071.555)" fill="#7474a3" opacity="0.32"/></g><path d="M2099.869,2113.239l5.137,2.5S2101.387,2111.526,2099.869,2113.239Z" transform="translate(-2090.093 -2099.827)" fill="#dd4078"/><path d="M2100.2,2077.738a2.328,2.328,0,0,1,2.155.352c.962.8,7.1,5.407,7.1,5.407l12.473-7.132s-6.665-6.466-9.353-5.771Z" transform="translate(-2090.372 -2064.436)" fill="#fff"/><path d="M2188.666,2080.764l-4.118-2.767c-.052-.035-.042-.09.024-.122h0a.237.237,0,0,1,.213.006l4.118,2.767c.052.035.042.09-.023.122h0A.239.239,0,0,1,2188.666,2080.764Z" transform="translate(-2160.934 -2070.554)" fill="#7474a3" opacity="0.32"/><path d="M2180.138,2086.006l-4.119-2.767c-.052-.035-.042-.09.024-.122h0a.235.235,0,0,1,.213.006l4.119,2.767c.052.035.042.09-.024.122h0A.237.237,0,0,1,2180.138,2086.006Z" transform="translate(-2153.797 -2074.941)" fill="#7474a3" opacity="0.32"/><path d="M2171.61,2091.248l-4.118-2.767c-.052-.035-.042-.09.024-.122h0a.238.238,0,0,1,.214.006l4.118,2.767c.052.035.042.09-.024.122h0A.239.239,0,0,1,2171.61,2091.248Z" transform="translate(-2146.659 -2079.328)" fill="#7474a3" opacity="0.32"/><path d="M2163.081,2096.49l-4.118-2.767c-.052-.035-.042-.09.024-.122h0a.237.237,0,0,1,.213.005l4.118,2.767c.052.035.042.09-.023.122h0A.237.237,0,0,1,2163.081,2096.49Z" transform="translate(-2139.522 -2083.715)" fill="#7474a3" opacity="0.32"/><path d="M2154.553,2101.732l-4.118-2.767c-.052-.035-.042-.09.024-.122h0a.239.239,0,0,1,.214.006l4.118,2.767c.052.035.042.09-.024.122h0A.236.236,0,0,1,2154.553,2101.732Z" transform="translate(-2132.385 -2088.103)" fill="#7474a3" opacity="0.32"/><path d="M2145.78,2109.043l-4.118-2.767c-.052-.035-.042-.09.024-.122h0a.238.238,0,0,1,.214.005l4.118,2.767c.052.035.042.09-.023.122h0A.24.24,0,0,1,2145.78,2109.043Z" transform="translate(-2125.042 -2094.222)" fill="#7474a3" opacity="0.32"/><path d="M2137.252,2114.285l-4.118-2.767c-.052-.035-.042-.09.024-.122h0a.236.236,0,0,1,.213.005l4.118,2.767c.053.035.042.09-.024.122h0A.236.236,0,0,1,2137.252,2114.285Z" transform="translate(-2117.905 -2098.609)" fill="#7474a3" opacity="0.32"/><path d="M2128.724,2119.527l-4.118-2.767c-.052-.035-.042-.09.024-.122h0a.238.238,0,0,1,.214.005l4.118,2.767c.052.035.042.09-.024.122h0A.238.238,0,0,1,2128.724,2119.527Z" transform="translate(-2110.767 -2102.996)" fill="#7474a3" opacity="0.32"/><path d="M2165.382,2080.971c-1.431,1.278-5.311,4.327-7.371,5.917a.124.124,0,0,0,.087.222l1.536-.119a.125.125,0,0,1,.128.163l-.343,1.068a.125.125,0,0,0,.189.141c.857-.612,3.207-3.169,6.6-6.5a.609.609,0,0,0-.1-.947h0A.608.608,0,0,0,2165.382,2080.971Z" transform="translate(-2138.713 -2073.035)" fill="#7878ea"/></g><g transform="translate(1750.793 1640.898)"><path d="M2241.241,1791.485l-9.345-5.417a.882.882,0,0,0-.977-.048h0l-1.574.891a17.5,17.5,0,0,1,1.085,2.034v8.45a3.49,3.49,0,0,0,1.458,2.782l7.619,4.4c.711,1.2,1.192,1.979,1.192,1.979l1.473-.85v0c.326-.154.489-.581.489-1.21v-10.224A3.458,3.458,0,0,0,2241.241,1791.485Z" transform="translate(-2227.59 -1785.895)" fill="#7878ea"/><path d="M2236.975,1811.361l-9.382-5.416a3.487,3.487,0,0,1-1.456-2.782v-10.224c0-1.072.652-1.565,1.456-1.1l9.382,5.417a3.487,3.487,0,0,1,1.456,2.782v10.225C2238.431,1811.333,2237.779,1811.825,2236.975,1811.361Z" transform="translate(-2224.903 -1790.723)" fill="#8585ff"/><path d="M2229.408,1814.643l-9.381-5.417a3.486,3.486,0,0,1-1.456-2.782V1796.22c0-1.072.652-1.565,1.456-1.1l9.381,5.417a3.486,3.486,0,0,1,1.456,2.782v10.225C2230.864,1814.615,2230.212,1815.107,2229.408,1814.643Z" transform="translate(-2218.57 -1793.469)" fill="#8585ff" opacity="0.47"/><g transform="translate(2.314 6.951)"><path d="M2235.245,1834.352l-2.488-4.291,2.709-1.544.523.917-1.785,1.018,1.954,3.371Z" transform="translate(-2232.757 -1828.516)" fill="#fff"/><g transform="translate(6.667 2.592)"><path d="M2274.385,1850.275l-.523-.917,1.759-1-1.98-3.416.914-.529,2.513,4.335Z" transform="translate(-2273.64 -1844.41)" fill="#fff"/></g><g transform="translate(3.728 0.788)"><rect width="7.111" height="1.056" transform="translate(0 6.864) rotate(-74.85)" fill="#fff"/></g></g></g><g transform="translate(1733.13 1612.644)"><path d="M2135.04,1618.234l-9.363-5.417a.9.9,0,0,0-.985-.048l0,0-1.542.891s.465.934,1.117,2.034v8.45a3.46,3.46,0,0,0,1.424,2.782l7.6,4.4c.711,1.2,1.218,1.979,1.218,1.979l1.5-.849v0a1.71,1.71,0,0,0,.489-1.21v-10.224A3.487,3.487,0,0,0,2135.04,1618.234Z" transform="translate(-2121.047 -1612.644)" fill="#22c6a6"/><path d="M2130.549,1638.11l-9.382-5.417a3.486,3.486,0,0,1-1.456-2.781v-10.224c0-1.072.652-1.565,1.456-1.1l9.382,5.417a3.488,3.488,0,0,1,1.456,2.782v10.224C2132,1638.081,2131.353,1638.574,2130.549,1638.11Z" transform="translate(-2118.17 -1617.471)" fill="#27e0c0"/><path d="M2121.1,1640.848l-9.382-5.417a3.486,3.486,0,0,1-1.456-2.782v-10.225c0-1.072.652-1.565,1.456-1.1l9.382,5.416a3.488,3.488,0,0,1,1.456,2.782v10.224C2122.556,1640.819,2121.9,1641.312,2121.1,1640.848Z" transform="translate(-2110.262 -1619.762)" fill="#27e0c0" opacity="0.36"/><path d="M2135.494,1649.792h0c-.459-.265-.689-1.035-.365-1.221h0c.368-.21.368-.894,0-1.528l-.19-.327c-.367-.634-.964-.978-1.332-.769h0c-.325.185-.88-.4-.88-.927h0a2.075,2.075,0,0,0-.942-1.624l-.268-.155c-.52-.3-.942-.06-.942.537h0c0,.527-.555.471-.88-.09h0c-.368-.635-.964-.979-1.332-.769l-.189.108c-.368.21-.368.894,0,1.528h0c.325.56.095,1.065-.365.8h0c-.52-.3-.942-.06-.942.537v.307a2.075,2.075,0,0,0,.942,1.624c.459.265.689,1.036.365,1.221h0c-.368.21-.368.894,0,1.528l.189.327c.368.634.964.979,1.332.769h0c.325-.185.88.4.88.927h0a2.076,2.076,0,0,0,.942,1.624l.268.155c.52.3.942.06.942-.537,0-.527.555-.47.88.09.368.634.964.978,1.332.769l.19-.108c.368-.21.368-.894,0-1.528h0c-.325-.56-.095-1.065.365-.8h0c.521.3.942.06.942-.537v-.307A2.074,2.074,0,0,0,2135.494,1649.792Zm-3.842,1.7a5.15,5.15,0,0,1-2.337-4.031c0-1.481,1.046-2.078,2.337-1.333a5.149,5.149,0,0,1,2.337,4.031C2133.99,1651.639,2132.943,1652.235,2131.652,1651.49Z" transform="translate(-2124.161 -1637.932)" fill="#fff"/></g><g transform="translate(1750.575 1621.658)"><path d="M2240.433,1673.509l-9.379-5.417a.91.91,0,0,0-.994-.048h-.006l-1.593.891a19.231,19.231,0,0,1,1.067,2.033v8.45A3.5,3.5,0,0,0,2231,1682.2l7.625,4.4c.711,1.2,1.181,1.979,1.181,1.979l1.462-.85v0a1.3,1.3,0,0,0,.652-1.211v-10.224A3.515,3.515,0,0,0,2240.433,1673.509Z" transform="translate(-2226.63 -1667.919)" fill="#f1a32f"/><path d="M2236.15,1693.385l-9.382-5.417a3.487,3.487,0,0,1-1.456-2.782v-10.224c0-1.072.652-1.565,1.456-1.1l9.382,5.417a3.487,3.487,0,0,1,1.456,2.782v10.224C2237.606,1693.357,2236.954,1693.85,2236.15,1693.385Z" transform="translate(-2223.994 -1672.747)" fill="#ffd22d"/><path d="M2228.069,1698.628l-9.382-5.417a3.487,3.487,0,0,1-1.456-2.782v-10.225c0-1.072.652-1.565,1.456-1.1l9.382,5.417a3.487,3.487,0,0,1,1.456,2.782v10.224C2229.525,1698.6,2228.873,1699.093,2228.069,1698.628Z" transform="translate(-2217.231 -1677.135)" fill="#ffd22d" opacity="0.36"/><g transform="translate(8.449 7.18)"><path d="M2269.037,1719.723l.164.1c.365.21.46.116.46-.431s-.035-1.035-.035-1.642c0-.756.208-.924.641-.793v-.04a1.772,1.772,0,0,1-.641-1.534c0-.607.035-1.064.035-1.6s-.1-.752-.46-.962l-.164-.1v-.776l.546.315a2.044,2.044,0,0,1,1.11,2.053c0,.706-.086,1.024-.086,1.651a1.4,1.4,0,0,0,.745,1.167v.855c-.563-.306-.745-.043-.745.306,0,.627.086,1.045.086,1.751,0,1.074-.347,1.212-1.11.772l-.546-.316Z" transform="translate(-2269.037 -1711.944)" fill="#fff"/></g><g transform="translate(3.425 5.066)"><path d="M2240.55,1708.087l-.546-.315a2.043,2.043,0,0,1-1.11-2.053c0-.706.087-1.024.087-1.651a1.4,1.4,0,0,0-.746-1.167v-.855c.563.305.746.042.746-.306,0-.627-.087-1.045-.087-1.751,0-1.074.347-1.212,1.11-.772l.546.315v.776l-.165-.1c-.364-.21-.459-.116-.459.431s.035,1.035.035,1.642c0,.756-.208.924-.642.793v.04a1.772,1.772,0,0,1,.642,1.534c0,.607-.035,1.064-.035,1.6s.1.751.459.961l.165.1Z" transform="translate(-2238.235 -1698.983)" fill="#fff"/></g></g></g><g transform="translate(105.714 71.955)"><path d="M506.113,3268.11a149.351,149.351,0,0,0,34.693-13.876c3.807-2.146-2.405-9.211-9.11-5.432a127.6,127.6,0,0,1-27.925,11.423l-1.689-5.687-27.241,15.039,33.005,4.366Z" transform="translate(-468.457 -3158.853)" fill="#b2bdda"/><path d="M522.739,3186.328l-38.386,9.98-9.213,1.279-16.2,2.949v20.348l1.681-.127,31.325,4.144-1.732-5.832a149.3,149.3,0,0,0,34.693-13.876c3.807-2.146,4.192-2,10.121-9.652l-.289-10.145a43.974,43.974,0,0,1-8.509,7.686l14.685-20.8,3.34-11.667-.269.516Z" transform="translate(-458.935 -3114.658)" fill="#aca774"/><path d="M674.76,3132.409l-3.24,11.32,4.337-8.332Z" transform="translate(-586.207 -3097.771)" fill="#5ba7d0"/><path d="M672.1,3056.37l-1.87,7.42-5.273,20.9a32.389,32.389,0,0,0-9.531-18.593v-20Z" transform="translate(-576.57 -3046.096)" fill="#5ba7d0"/><path d="M490.208,3206.2a149.318,149.318,0,0,0,34.693-13.876c3.807-2.146,16.689-9.742,22.619-17.4l-12.787-2.4c-3.74,4.828-12.236,10.587-18.942,14.366a127.627,127.627,0,0,1-27.925,11.423l-1.69-5.687-27.241,15.038,33.005,4.366Z" transform="translate(-458.935 -3121.79)" fill="#e9e099"/><path d="M491.941,3284.456V3264.7l-33.005-4.612v20.348Z" transform="translate(-458.935 -3174.212)" fill="#ccc488"/></g><g transform="translate(171.561 67.186)"><path d="M698.166,3219.391l-11.742-7.976-4.817,3.633c-9.015-9.821-21.4-25.831-21.4-39,0-6.146,2.793-12.646,8.475-18.8,17.952-19.44,19.074-41.687,2.929-58.059l-12.543,4.77c13.943,14.14,12.921,33.411-2.668,50.293-6.933,7.508-10.337,15.483-10.337,23.067,0,20.689,14.709,36.878,24.861,45.787l-8.252,6.223,9.245,5.68,33.511,3.5Z" transform="translate(-636.812 -3073.114)" fill="#b2bdda" opacity="0.995"/><path d="M682.382,3203.367v20l-31.214-3.259-2.3.156v-12.778c-.8-.964-1.557-1.938-2.247-2.929a15.689,15.689,0,0,0-3.56-3.548q-.927-.686-1.8-1.385c-13.48-10.759-17.068-23.015-17.975-32.654l-.273-.092v-4.7c0-.068,0-.136,0-.2v-19.8l4.872-.807.542,4a48.935,48.935,0,0,1,4.924-6.261c9.463-10.245,13.56-21.374,12.2-31.7a32.389,32.389,0,0,0-9.531-18.593l12.545-4.772q1.192,1.211,2.259,2.465c.662.774,1.284,1.561,1.874,2.356v-1.714l7.188,1.232v20.037c.056,1.144.056,2.3,0,3.459v1.726l-.124-.012c-.927,9.519-5.646,19.327-14.126,28.509-5.683,6.156-8.616,12.657-8.476,18.8a52.81,52.81,0,0,0,1.212,10.655l17.048,14.925L669.086,3197Z" transform="translate(-623.016 -3064.047)" fill="#5ba7d0"/><path d="M686.554,3336.4l-10.446,2.87v10.928l-.016-.008v-3.3c-.8-.964-1.557-1.938-2.247-2.929a15.688,15.688,0,0,0-3.56-3.548q-.927-.686-1.8-1.385v-22.136l10.434,7.46Z" transform="translate(-650.237 -3203.446)" fill="#4d8fb2"/><path d="M667.492,3158.955c-3.062-2.554-30.331-28.348-30.331-47.883,0-6.146,2.793-12.646,8.476-18.8,17.952-19.44,19.074-41.687,2.929-58.059l-12.543,4.77c13.943,14.14,12.921,33.411-2.668,50.293-6.933,7.508-10.337,15.482-10.337,23.066,0,29.381,29.665,49.689,33.814,52.955l-7.96,4.736,33.511,3.5-7.258-19.118Z" transform="translate(-623.017 -3034.213)" fill="#aad5f2"/></g></g></g></g></svg>