<svg id="logo_monaca_press_gray" xmlns="http://www.w3.org/2000/svg" width="94" height="18.691" viewBox="0 0 94 18.691">
  <path id="パス_1387" data-name="パス 1387" d="M1384.7,108.065a.64.64,0,0,1-.587-.587V98.142h-2.694a.64.64,0,0,1-.587-.587V96.439a.64.64,0,0,1,.587-.587h2.694V91.664h-1.77a.64.64,0,0,1-.587-.587V89.961a.64.64,0,0,1,.587-.587h6.753a.64.64,0,0,1,.587.587v1.116a.64.64,0,0,1-.587.587H1386.4v4.189h3.616a.64.64,0,0,1,.587.587v1.116a.64.64,0,0,1-.587.587H1386.4v7.634h2.693a.64.64,0,0,1,.587.587v1.115a.64.64,0,0,1-.587.587Z" transform="translate(-1380.832 -89.374)" fill="#718091"/>
  <path id="パス_1388" data-name="パス 1388" d="M1423.747,108.065a.611.611,0,0,1-.437-.213.57.57,0,0,1-.145-.447l1.559-12.461h-2.76a.64.64,0,0,1-.587-.587V93.241a.639.639,0,0,1,.587-.587H1425l.357-2.767a.629.629,0,0,1,.582-.514h1.1a.61.61,0,0,1,.438.213.572.572,0,0,1,.145.447l-.328,2.62h2.349a.64.64,0,0,1,.587.587v1.116a.64.64,0,0,1-.587.587H1427l-1.575,12.607a.63.63,0,0,1-.583.514Z" transform="translate(-1404.053 -89.374)" fill="#718091"/>
  <path id="パス_1389" data-name="パス 1389" d="M1467.346,108.065a.64.64,0,0,1-.587-.587V94.944h-2.573l-1.369,12.507v.027a.64.64,0,0,1-.587.587h-1.116a.644.644,0,0,1-.586-.564l1.364-12.556h-1.544a.641.641,0,0,1-.587-.587V93.241a.64.64,0,0,1,.587-.587h1.666l.3-2.666v-.028a.641.641,0,0,1,.587-.587h1.115a.645.645,0,0,1,.587.564l-.3,2.717h4.152a.64.64,0,0,1,.587.587v14.236a.641.641,0,0,1-.587.587Z" transform="translate(-1426.037 -89.374)" fill="#718091"/>
  <path id="パス_1390" data-name="パス 1390" d="M1546.652,108.065a.64.64,0,0,1-.586-.587V89.961a.64.64,0,0,1,.586-.587h1.115a.64.64,0,0,1,.587.587v15.565l5.587-4.863a.96.96,0,0,1,.341-.144l.043,0a.6.6,0,0,1,.589.588v1.224a.631.631,0,0,1-.2.441l-5.885,5.15a.615.615,0,0,1-.386.145Z" transform="translate(-1475.466 -89.374)" fill="#718091"/>
  <path id="パス_1391" data-name="パス 1391" d="M1587.948,108.065a.629.629,0,0,1-.558-.4l-1.8-5.742-1.929,5.742a.626.626,0,0,1-.556.4h-1a1.015,1.015,0,0,1-.142-.017.58.58,0,0,1-.367-.289.587.587,0,0,1-.048-.466l5.26-15.628h-5.122a.641.641,0,0,1-.587-.587V89.961a.64.64,0,0,1,.587-.587h7.257a1.073,1.073,0,0,1,.14.017.6.6,0,0,1,.417.755l-2.818,8.608,2.818,8.539a1.02,1.02,0,0,1,.029.137.6.6,0,0,1-.585.636Z" transform="translate(-1495.532 -89.374)" fill="#718091"/>
  <g id="グループ_1090" data-name="グループ 1090" transform="translate(51.217 0)">
    <path id="パス_1392" data-name="パス 1392" d="M1503.233,108.065a.646.646,0,0,1-.463-.256.539.539,0,0,1-.107-.473l3.69-13.889V91.89c0-.146-.071-.226-.2-.226h-4.866a.584.584,0,0,1-.587-.587V89.961a.64.64,0,0,1,.587-.587h6.56a.64.64,0,0,1,.587.587v3.575a4.986,4.986,0,0,1-.205,1.157l-3.379,12.927a.627.627,0,0,1-.57.445Z" transform="translate(-1500.702 -89.374)" fill="#718091"/>
    <path id="パス_1393" data-name="パス 1393" d="M1526.126,89.374h-3.151a.98.98,0,0,0-.976.979V93.5a.984.984,0,0,0,.979.981h3.15a.984.984,0,0,0,.98-.981v-3.15A.987.987,0,0,0,1526.126,89.374Zm-.581,3.546h-1.988V90.934h1.988Z" transform="translate(-1512.9 -89.374)" fill="#132c47"/>
  </g>
</svg>
