<svg xmlns="http://www.w3.org/2000/svg" width="108.108" height="14.4" viewBox="0 0 108.108 14.4">
  <path id="logo_note" d="M-39.771-13.284c-.324.126-.324.126-1.53.126h-9.666a13.193,13.193,0,0,1-2.142-.126V-11.9a17.38,17.38,0,0,1,2.124-.09h10.224a9.549,9.549,0,0,1-2.016,2.682A7.793,7.793,0,0,1-45.621-7.6a3.536,3.536,0,0,1,.882,1.026,10.773,10.773,0,0,0,5.256-5.13,3.23,3.23,0,0,1,.432-.72Zm-7.848,3.132a4.753,4.753,0,0,1,.072.972c0,3.51-.7,5.346-2.61,6.876A8.458,8.458,0,0,1-53.451-.648,3.52,3.52,0,0,1-52.623.558a9.805,9.805,0,0,0,4.608-3.114c1.224-1.548,1.728-3.33,1.782-6.336a6.529,6.529,0,0,1,.072-1.26Zm14.166-2.592a18.929,18.929,0,0,1,4.428,2.376l.738-1.206a26.616,26.616,0,0,0-4.464-2.268Zm-1.422,4.3a19.985,19.985,0,0,1,4.59,2.466l.7-1.206A27.458,27.458,0,0,0-34.155-9.54ZM-34.263.18a4.225,4.225,0,0,1,.7-.2c.36-.072.684-.144.972-.2a20.56,20.56,0,0,0,4.554-1.548A14.109,14.109,0,0,0-21.1-9.522a5.427,5.427,0,0,1-1.116-.954,13.4,13.4,0,0,1-2.16,4.032,11.855,11.855,0,0,1-5.4,4.014,15.566,15.566,0,0,1-4.842,1.116ZM-3.771-13.284c-.324.126-.324.126-1.53.126h-9.666a13.193,13.193,0,0,1-2.142-.126V-11.9a17.38,17.38,0,0,1,2.124-.09H-4.761A9.55,9.55,0,0,1-6.777-9.306,7.793,7.793,0,0,1-9.621-7.6,3.536,3.536,0,0,1-8.739-6.57,10.773,10.773,0,0,0-3.483-11.7a3.23,3.23,0,0,1,.432-.72Zm-7.848,3.132a4.753,4.753,0,0,1,.072.972c0,3.51-.7,5.346-2.61,6.876A8.458,8.458,0,0,1-17.451-.648,3.52,3.52,0,0,1-16.623.558a9.805,9.805,0,0,0,4.608-3.114c1.224-1.548,1.728-3.33,1.782-6.336a6.529,6.529,0,0,1,.072-1.26ZM2.295-13.716a8.007,8.007,0,0,1,.072,1.278c0,3.8-.252,6.156-.81,7.722A8.9,8.9,0,0,1-1.485-.576,3.325,3.325,0,0,1-.405.4,11,11,0,0,0,2.709-4.05c.684-1.818.828-3.15.972-8.028a8.967,8.967,0,0,1,.108-1.548Zm4.482-.126a7.222,7.222,0,0,1,.072,1.6L6.741-1.71A3.033,3.033,0,0,1,6.615-.486l.72.828a3,3,0,0,1,.414-.2C8,.054,8,.054,8.325-.072A11.865,11.865,0,0,0,10.9-1.386a10.227,10.227,0,0,0,3.618-4.626,5.033,5.033,0,0,1-1.008-1.044,8.9,8.9,0,0,1-2.124,3.6A8.319,8.319,0,0,1,8.037-1.368L8.145-12.24a6.979,6.979,0,0,1,.108-1.584ZM18.351-.108a14.516,14.516,0,0,1-.126-2.034V-5.616A3.856,3.856,0,0,1,19.053-7.4,3.135,3.135,0,0,1,21.627-8.82c1.422,0,2.2.864,2.2,2.484v4.194A14.516,14.516,0,0,1,23.7-.108h1.62a12.209,12.209,0,0,1-.126-2.016V-6.57a3.671,3.671,0,0,0-.5-2.07,3.25,3.25,0,0,0-2.88-1.35,3.91,3.91,0,0,0-3.636,2.178,4.824,4.824,0,0,0,.054-.774V-9.81H16.731a12.159,12.159,0,0,1,.144,2.034v5.634a11.484,11.484,0,0,1-.144,2.034ZM32.229.126C35.127.126,37-1.89,37-4.968c0-3.1-1.854-5.076-4.788-5.076S27.4-8.064,27.4-4.95,29.277.126,32.229.126Zm.018-9.036c2.07,0,3.366,1.512,3.366,3.942s-1.3,3.924-3.4,3.924-3.42-1.494-3.42-3.942C28.791-7.416,30.1-8.91,32.247-8.91Zm7.992-3.582a13.658,13.658,0,0,1,.126,2v.684h-.72a8.16,8.16,0,0,1-1.62-.108V-8.55a12.044,12.044,0,0,1,1.62-.108h.72v6.444a2.285,2.285,0,0,0,.5,1.728,2.465,2.465,0,0,0,1.764.558,4.844,4.844,0,0,0,2.034-.414l-.4-1.26a2.494,2.494,0,0,1-1.422.468,1.219,1.219,0,0,1-.882-.306c-.162-.162-.234-.432-.234-.954V-8.658H42.6a10.81,10.81,0,0,1,1.836.108V-9.918A11.063,11.063,0,0,1,42.6-9.81h-.864v-.684a13.013,13.013,0,0,1,.126-2Zm14.418,7.74c-.036-.486-.108-1.188-.126-1.386a4.255,4.255,0,0,0-4.356-3.906c-2.7,0-4.464,2.016-4.464,5.094,0,3.114,1.782,5.094,4.608,5.094a4.5,4.5,0,0,0,3.258-1.26,4.3,4.3,0,0,0,.99-1.494l-1.26-.5a2.942,2.942,0,0,1-2.97,2.106A3.011,3.011,0,0,1,47.8-2.232a4.078,4.078,0,0,1-.72-2.52ZM47.133-5.886a3.766,3.766,0,0,1,.45-1.458A2.818,2.818,0,0,1,50.139-8.91a2.92,2.92,0,0,1,2.124.81,3.286,3.286,0,0,1,.954,2.214Z" transform="translate(53.451 13.842)" fill="#fa6800"/>
</svg>
