<svg id="コンポーネント_17_1" data-name="コンポーネント 17 – 1" xmlns="http://www.w3.org/2000/svg" width="96.548" height="53.813" viewBox="0 0 96.548 53.813">
  <g id="グループ_55" data-name="グループ 55" transform="translate(0.207)">
    <path id="パス_16" data-name="パス 16" d="M1206.992,918.475v-1.267h3.409v-4.542h-2.535V911.4h6.56v1.267h-2.6v4.542h3.42v1.267Z" transform="translate(-1206.992 -909.661)"/>
    <path id="パス_17" data-name="パス 17" d="M1246.114,911.837a10.121,10.121,0,0,0-2.3-1.413l.684-1.054a10.454,10.454,0,0,1,2.355,1.391Zm3.286,3.05a15.085,15.085,0,0,1-4.227,2.5c-.056.157-.079.348-.168.348-.068,0-.168-.067-.247-.213l-.785-1.346a10.49,10.49,0,0,0,4.16-1.94,15.65,15.65,0,0,0,3.286-3.431l.774,1.121A15.778,15.778,0,0,1,1249.4,914.887Z" transform="translate(-1232.421 -908.26)"/>
    <path id="パス_18" data-name="パス 18" d="M1280.66,911.147a8.426,8.426,0,0,0-2.232-1.088l.617-1.132a7.54,7.54,0,0,1,2.3,1.167Zm3.431,1.906a18.248,18.248,0,0,1-3.768,2.478c-.146.079-.168.079-.191.168-.034.146-.056.2-.112.2-.1,0-.224-.235-.258-.3l-.594-1.1a14.523,14.523,0,0,0,6.616-5.484l.9,1.11A12.76,12.76,0,0,1,1284.091,913.053Zm-2.288-4.531a7.1,7.1,0,0,0-2.2-1.009l.595-1.077a6.788,6.788,0,0,1,2.265,1Zm3.42-.291a4.7,4.7,0,0,0-1.1-.841l.471-.617a4.985,4.985,0,0,1,1.133.841Zm1.144-.908a5.611,5.611,0,0,0-1.167-.852l.471-.617a5.431,5.431,0,0,1,1.188.852Z" transform="translate(-1256.324 -905.832)"/>
    <path id="パス_19" data-name="パス 19" d="M1313.258,918.748v-1.334h8.421v1.334Zm1.2-5.18v-1.335h6.066v1.335Z" transform="translate(-1280.377 -910.237)"/>
    <path id="パス_20" data-name="パス 20" d="M1355.051,914.788l-1.043-.886a10.4,10.4,0,0,0,2.041-2.422h-7.02v-1.211h7.547a.682.682,0,0,0,.393-.247l1.031,1.043A26.22,26.22,0,0,1,1355.051,914.788Zm-.987-2.736c-.022.033-.157.146-.168.191-.022.023-.067.807-.09.953a6.932,6.932,0,0,1-2.871,5.046l-1.2-.706a5.892,5.892,0,0,0,2.8-5.753l1.312.068c.235.011.269.011.269.1C1354.12,911.984,1354.1,912.007,1354.064,912.052Z" transform="translate(-1305.079 -908.71)"/>
    <path id="パス_21" data-name="パス 21" d="M1389.686,908.681c-.168.123-.179.135-.179.168v4.732h-1.334v-5.293l1.334.112c.09.011.292.023.292.124C1389.8,908.58,1389.731,908.636,1389.686,908.681Zm4.654-.078c-.146.146-.146.18-.146.493-.011.1.011.606.011.718a12.34,12.34,0,0,1-.381,4.16,5.818,5.818,0,0,1-3.286,3.409l-.975-1.088c2.3-.908,3.263-1.974,3.263-5.36,0-.27-.022-1.828-.078-2.725l1.435.079c.056,0,.28.011.28.146C1394.463,908.468,1394.452,908.513,1394.339,908.6Z" transform="translate(-1332.11 -907.459)"/>
    <path id="パス_22" data-name="パス 22" d="M1422.256,911.837a10.152,10.152,0,0,0-2.3-1.413l.684-1.054a10.447,10.447,0,0,1,2.355,1.391Zm3.285,3.05a15.084,15.084,0,0,1-4.228,2.5c-.056.157-.078.348-.168.348-.067,0-.168-.067-.247-.213l-.785-1.346a10.5,10.5,0,0,0,4.16-1.94,15.623,15.623,0,0,0,3.285-3.431l.774,1.121A15.766,15.766,0,0,1,1425.542,914.887Z" transform="translate(-1354.06 -908.26)"/>
    <path id="パス_23" data-name="パス 23" d="M1460.322,909.438a11.608,11.608,0,0,1-1.906,3.543,11.422,11.422,0,0,1-3.073,2.669l-1.233-.874a9.648,9.648,0,0,0,3.6-2.972,9.071,9.071,0,0,0,1.435-2.815h-2.871a15.285,15.285,0,0,1-2.153,2.467l-1.11-.8a9.983,9.983,0,0,0,3.2-4.328l1.121.5c.09.045.292.135.292.236,0,.067-.067.09-.258.157-.123.146-.258.438-.381.617h2.512a.906.906,0,0,0,.482-.168l.942,1.1A1.608,1.608,0,0,0,1460.322,909.438Zm-.561-2.108a4.554,4.554,0,0,0-.975-.931l.583-.459a4.47,4.47,0,0,1,.964.931Zm1.6,0a4.983,4.983,0,0,0-1-1.087l.572-.46a4.826,4.826,0,0,1,1,1.088Z" transform="translate(-1376.886 -905.782)"/>
    <path id="パス_24" data-name="パス 24" d="M1493.979,911.566a4.161,4.161,0,0,0-1.368,2.691,1.779,1.779,0,0,0,.807,1.458,3.533,3.533,0,0,0,1.974.572l-.437,1.368a5.032,5.032,0,0,1-2.758-1.245,2.811,2.811,0,0,1-.83-2.018,4.079,4.079,0,0,1,.762-2.231,8.356,8.356,0,0,1,1.48-1.7c-1.5.123-3.151.258-4.272.415l-.191-1.256a31.025,31.025,0,0,0,8.017-.9v1.3A4.568,4.568,0,0,0,1493.979,911.566Zm2.344,1.917a5,5,0,0,0-.92-.863l.46-.538a4.906,4.906,0,0,1,.93.863Zm.908-1.02a5.2,5.2,0,0,0-.931-.852l.471-.538a5.164,5.164,0,0,1,.931.852Z" transform="translate(-1401.84 -907.81)"/>
  </g>
  <g id="グループ_56" data-name="グループ 56" transform="translate(0 17.918)">
    <path id="パス_25" data-name="パス 25" d="M1217.377,969.509v4.726h-1.692v-.549h-1.937v.549h-1.692v-4.726h-2.028v5.763h8.4v1.586h-8.4v.488h-1.723v-7.836h-1.982v-1.6h1.982v-2.973l1.631.077c.335.015.351.091.351.137s-.016.092-.122.168c-.122.091-.137.152-.137.2v2.394h2.028V964.28l1.616.107c.2.015.335.061.335.183,0,.061-.015.091-.122.168-.122.107-.137.168-.137.228v2.943h1.937v-3.095l1.662.076c.214.016.351.061.351.183,0,.045-.015.091-.137.183a.35.35,0,0,0-.183.259v2.394h2.073v1.6Zm-1.692,0h-1.937v2.546h1.937Z" transform="translate(-1206.324 -964.097)"/>
    <path id="パス_26" data-name="パス 26" d="M1266.871,974.667a12.105,12.105,0,0,1-2.668-1.311v4.436h-1.738v-5.275h.564a15.151,15.151,0,0,1-1.829-1.86,14.781,14.781,0,0,1-1.86,1.891l.869.213c.107.031.152.092.152.153a.349.349,0,0,1-.061.168c-.031.046-.183.214-.214.259-.046.076-.076,1.189-.122,1.4a4.4,4.4,0,0,1-2.7,3.339l-1.3-1.235a3.224,3.224,0,0,0,2.424-2.988,5.346,5.346,0,0,0-.03-.564,13.548,13.548,0,0,1-2.668,1.464l-1.235-1.342a8.75,8.75,0,0,0,4.558-2.759h-2.988V964.97H1266.6v5.687h-3.125a6.009,6.009,0,0,0,1.936,1.555,10.747,10.747,0,0,0,2.683.991Zm-6.418-8.37h-2.79v.854h2.79Zm0,2.012h-2.79v1.067h2.79Zm4.5-2.012h-2.683v.854h2.683Zm0,2.012h-2.683v1.067h2.683Z" transform="translate(-1239.566 -964.574)"/>
    <path id="パス_27" data-name="パス 27" d="M1317.246,971.425c0,.595.031,2.485.031,3h-1.769c.046-.869.061-1.616.076-2.287-.579.29-2.165,1.082-2.165,2.15,0,.991,1.174,1.189,2.287,1.189a17.611,17.611,0,0,0,3.887-.488v1.723a25.228,25.228,0,0,1-3.628.229c-.854,0-2.622,0-3.583-1.021a2.085,2.085,0,0,1-.579-1.494c0-1.891,1.4-2.607,3.69-3.781a1.057,1.057,0,0,0-1.159-1.006c-1.494,0-2.409,1.388-3.247,2.759l-1.494-.93a20.259,20.259,0,0,0,3-4.193c-.869.046-1.342.061-1.982.061l-.183-1.585a21.5,21.5,0,0,0,2.912.061,11.814,11.814,0,0,0,.762-2.028l1.906.335c.046.015.3.046.3.153s-.061.137-.153.168c-.03.015-.335.152-.351.152-.015.015-.4.869-.473,1.037a12.867,12.867,0,0,0,2.988-.778l-.107,1.708a32.192,32.192,0,0,1-3.644.579c-.488.9-.61,1.113-.869,1.509a2.946,2.946,0,0,1,1.311-.32,2.043,2.043,0,0,1,2.073,1.54c1.784-.839,1.982-.93,2.7-1.25l.518,1.738C1319.106,970.739,1318.375,971,1317.246,971.425Z" transform="translate(-1277.639 -963.757)"/>
    <path id="パス_28" data-name="パス 28" d="M1363.994,976.16c-1.342.686-3.644.762-5.4.793l-.5-1.738a15.954,15.954,0,0,0,1.982.122c3.019,0,4.406-1.235,4.406-2.5a1.847,1.847,0,0,0-1.982-1.738c-1.4,0-2.653,1.128-3.811,2.21l-1.281-1.006a34.622,34.622,0,0,0,1.189-4.01c-.32.031-.655.031-.945.031-.137,0-.823,0-1.433-.061l-.213-1.616a10.206,10.206,0,0,0,2.134.244c.29,0,.549-.015.793-.03a24.259,24.259,0,0,0,.549-3.171l1.738.4c.107.03.321.092.321.2,0,.168-.2.168-.382.274-.076.29-.442,1.784-.518,2.1a13.29,13.29,0,0,0,3.857-1.189v1.662a17.81,17.81,0,0,1-4.238,1.021c-.122.473-.443,1.677-.747,2.683a5.929,5.929,0,0,1,3.232-1.174,3.14,3.14,0,0,1,3.385,3.08A3.779,3.779,0,0,1,1363.994,976.16Z" transform="translate(-1309.69 -963.689)"/>
    <path id="パス_29" data-name="パス 29" d="M1409.6,983.149a10.732,10.732,0,0,0-2.348-1.3c.031.717.092,2-2.454,2-1.479,0-2.82-.533-2.82-1.753s1.342-1.951,3.11-1.951c.275,0,.442.015.594.015-.106-2.043-.183-4.116-.244-6.175l1.54.2c.213.031.381.045.381.2,0,.061-.213.244-.259.29a5.313,5.313,0,0,0-.122,1.479,6.629,6.629,0,0,0,3.018-.5v1.525a8.237,8.237,0,0,1-3.034.351c.031,1.22.077,1.738.183,2.9a10.865,10.865,0,0,1,3.43,1.571Zm-4.833-1.769c-.93,0-1.235.366-1.235.595,0,.488.7.594,1.189.594.869,0,1.037-.366,1.037-.778v-.335A6.135,6.135,0,0,0,1404.764,981.38Z" transform="translate(-1341.435 -970.8)"/>
    <path id="パス_30" data-name="パス 30" d="M1445.42,985.885l-.793-1.6c.564.046.869.061,1.113.061,1.266,0,4.406-.564,4.406-2.866a2.007,2.007,0,0,0-2.2-2.013,14.378,14.378,0,0,0-2.973.7c-.305.091-1.3.412-2.745.93l-.747-1.6a26.206,26.206,0,0,0,4.086-.96,9.4,9.4,0,0,1,2.455-.412,3.275,3.275,0,0,1,3.6,3.446C1451.625,985,1448.012,985.6,1445.42,985.885Z" transform="translate(-1368.722 -973.658)"/>
    <path id="パス_31" data-name="パス 31" d="M1492.168,977.283a6.557,6.557,0,0,1-3.354-.61,2.9,2.9,0,0,1-1.555-2.607c0-1.906,1.479-2.881,3.156-3.872a4.807,4.807,0,0,1-.9-1.372,19.683,19.683,0,0,1-.778-3.857l1.952-.289a12.337,12.337,0,0,0,.442,3.613,1.857,1.857,0,0,0,.884,1.037c1.753-.823,1.952-.915,3.827-1.8l.564,1.86a22.94,22.94,0,0,0-5.641,2.409c-.686.427-1.814,1.2-1.814,2.226,0,1.1,1.2,1.631,2.805,1.631a19.76,19.76,0,0,0,4.711-.686v1.951A27.286,27.286,0,0,1,1492.168,977.283Z" transform="translate(-1400.331 -964.37)"/>
  </g>
  <g id="グループ_57" data-name="グループ 57" transform="translate(1.466 40.719)">
    <path id="パス_32" data-name="パス 32" d="M1220.246,1050.611a11.9,11.9,0,0,0-3.008-1.773c.088,1.424-.363,2.267-2.732,2.267-2.645,0-3.444-1.061-3.444-2.049,0-1.264,1.264-2.267,3.386-2.267a7.974,7.974,0,0,1,1.061.072c-.1-3.371-.088-3.749-.088-6.293v-1.032l1.744.247c.073.015.349.058.349.189,0,.058-.015.073-.188.189-.088.058-.16.1-.175.218-.029.189-.072,1.25-.072,1.758a3.522,3.522,0,0,0,.61.029,7.248,7.248,0,0,0,2.95-.494v1.686a11.292,11.292,0,0,1-2.645.349c-.291,0-.683-.015-.974-.044-.015,1.235-.015,1.7.1,3.546a13.484,13.484,0,0,1,4.04,1.933Zm-5.987-2.412c-.916,0-1.425.334-1.425.756,0,.61,1.076.741,1.555.741,1.163,0,1.148-.726,1.148-1.366A7.546,7.546,0,0,0,1214.259,1048.2Z" transform="translate(-1211.062 -1038.868)"/>
    <path id="パス_33" data-name="パス 33" d="M1267.111,1038.96c-.175.015-.218.058-.6.436-.305.32-1.715,1.672-3.212,3.066-.959.9-1.031.974-1.031,1.25a.62.62,0,0,0,.247.509,29.79,29.79,0,0,1,4.912,4.854l-1.5,1.395a24.188,24.188,0,0,0-5.014-5.45,1.7,1.7,0,0,1-.727-1.279,2.494,2.494,0,0,1,1-1.628,40.083,40.083,0,0,0,4.65-4.738l1.337,1.032c.029.029.305.247.305.392C1267.489,1038.916,1267.445,1038.916,1267.111,1038.96Z" transform="translate(-1244.991 -1037.376)"/>
    <path id="パス_34" data-name="パス 34" d="M1308.927,1041.342v2.035a3.749,3.749,0,0,1,.421,1.773,6.516,6.516,0,0,1-.741,2.805,10.079,10.079,0,0,1-1.977,2.7l-1.628-.843a4.635,4.635,0,0,0,2.078-2.383,2.934,2.934,0,0,1-.785.145,1.829,1.829,0,0,1-1.191-.45,2.6,2.6,0,0,1-.756-2.02c0-1.6.8-2.7,2.282-2.7a1.915,1.915,0,0,1,.683.116l-.029-1.09c-1.293.072-3.488.2-5.333.436v-1.686c.989,0,2.238,0,5.29-.145-.015-.451-.015-1.221-.1-2.282l1.613.1c.334.015.422.058.422.2,0,.088-.029.131-.131.218s-.116.116-.116.175v1.5c2.02-.116,2.47-.16,3.953-.276v1.569C1311.775,1041.24,1310.816,1041.269,1308.927,1041.342Zm-1.613,2.645a.757.757,0,0,0-.537-.2c-.581,0-.988.509-.988,1.279,0,.872.465,1.206.8,1.206.305,0,1-.32,1-1.352A1.357,1.357,0,0,0,1307.314,1043.986Z" transform="translate(-1273.828 -1037.636)"/>
    <path id="パス_35" data-name="パス 35" d="M1354.078,1051.39c-1.817,0-2.747-.916-2.747-1.991a2.036,2.036,0,0,1,2.136-1.933,3.8,3.8,0,0,1,2.863,1.7,2.56,2.56,0,0,0,.959-1.933c0-1.439-1.409-1.9-2.354-1.9a3.943,3.943,0,0,0-1.657.363,16.4,16.4,0,0,0-2.994,2.6l-1.221-1.279a28.691,28.691,0,0,0,5.377-5.246,13.564,13.564,0,0,1-3.4.363l-.335-1.627c.349.029,1.177.087,1.628.087a16.457,16.457,0,0,0,4.4-.727l.756,1.177a35.956,35.956,0,0,0-3.226,3.11,11.575,11.575,0,0,1,1.41-.087,3.2,3.2,0,0,1,3.226,3.211C1358.9,1049.689,1356.636,1051.39,1354.078,1051.39Zm-.552-2.645a.64.64,0,0,0-.727.61c0,.509.668.654,1.192.654a4.149,4.149,0,0,0,.988-.131C1354.79,1049.544,1354.354,1048.745,1353.526,1048.745Z" transform="translate(-1306.363 -1039.095)"/>
    <path id="パス_36" data-name="パス 36" d="M1405.626,1042.429c-.189.087-.2.16-.349.6-1.729,5.479-4.229,7.426-6.874,8.966l-1.569-1.133a12.51,12.51,0,0,0,4.941-4.258,13.2,13.2,0,0,0,1.889-5.043l1.889.407c.029.015.32.087.32.262C1405.874,1042.313,1405.859,1042.313,1405.626,1042.429Z" transform="translate(-1339.351 -1040.263)"/>
    <path id="パス_37" data-name="パス 37" d="M1440.894,1057.21v-1.846h10.333v1.846Z" transform="translate(-1369.778 -1049.798)"/>
    <path id="パス_38" data-name="パス 38" d="M1501.273,1047.769a14.791,14.791,0,0,0-4.272-2.906v6.278h-1.715v-11.51l1.744.305c.044.015.349.058.349.232,0,.087-.378.32-.378.393v3.822l.683-1.075a12.97,12.97,0,0,1,2.471,1.322,17.817,17.817,0,0,1,2.267,1.744Z" transform="translate(-1407.34 -1038.933)"/>
  </g>
</svg>
