<svg id="logo_asial_blog_gray" xmlns="http://www.w3.org/2000/svg" width="140" height="30.917" viewBox="0 0 140 30.917">
  <g id="グループ_1083" data-name="グループ 1083" transform="translate(13.867 18.464)">
    <path id="パス_1366" data-name="パス 1366" d="M1404.241,665.921h2.283a4.154,4.154,0,0,1,3.06,1.093,4.432,4.432,0,0,1,1.1,3.278,6.008,6.008,0,0,1-.284,1.929,3.769,3.769,0,0,1-.811,1.4,3.338,3.338,0,0,1-1.284.843,4.815,4.815,0,0,1-1.7.283h-2.364Zm2.189,7.555a2.484,2.484,0,0,0,1.959-.775,3.555,3.555,0,0,0,.689-2.409,3.4,3.4,0,0,0-.689-2.361,2.543,2.543,0,0,0-1.959-.742h-.621v6.287Z" transform="translate(-1404.241 -665.22)" fill="#718091"/>
    <path id="パス_1367" data-name="パス 1367" d="M1423.052,674.234a3.525,3.525,0,0,1,.291-1.457,3.464,3.464,0,0,1,.763-1.1,3.249,3.249,0,0,1,1.088-.688,3.5,3.5,0,0,1,1.264-.236,3.443,3.443,0,0,1,1.317.236,2.775,2.775,0,0,1,.966.647,2.724,2.724,0,0,1,.594.992,3.828,3.828,0,0,1,.2,1.268,3.959,3.959,0,0,1-.02.418,2.809,2.809,0,0,1-.047.31h-4.823a2,2,0,0,0,.716,1.39,2.345,2.345,0,0,0,1.513.486,3.147,3.147,0,0,0,.959-.142,4.939,4.939,0,0,0,.906-.4l.527.971a5.42,5.42,0,0,1-1.2.553,4.467,4.467,0,0,1-1.392.216,4.2,4.2,0,0,1-1.419-.236,3.349,3.349,0,0,1-1.148-.682,3.209,3.209,0,0,1-.77-1.086A3.58,3.58,0,0,1,1423.052,674.234Zm5.053-.594a1.777,1.777,0,0,0-.405-1.241,1.545,1.545,0,0,0-1.2-.445,1.972,1.972,0,0,0-.649.108,1.71,1.71,0,0,0-.56.324,1.933,1.933,0,0,0-.656,1.255Z" transform="translate(-1415.121 -668.014)" fill="#718091"/>
    <path id="パス_1368" data-name="パス 1368" d="M1441.608,671.137h1.567l1.284,3.441q.189.5.344.991t.318,1.005h.054l.317-1.005q.155-.492.344-.991l1.283-3.441h1.487l-2.581,6.624h-1.77Z" transform="translate(-1425.854 -668.237)" fill="#718091"/>
    <path id="パス_1369" data-name="パス 1369" d="M1461.509,674.234a3.52,3.52,0,0,1,.291-1.457,3.456,3.456,0,0,1,.763-1.1,3.243,3.243,0,0,1,1.088-.688,3.5,3.5,0,0,1,1.263-.236,3.443,3.443,0,0,1,1.317.236,2.773,2.773,0,0,1,.966.647,2.716,2.716,0,0,1,.594.992,3.819,3.819,0,0,1,.2,1.268,3.959,3.959,0,0,1-.02.418,2.9,2.9,0,0,1-.047.31H1463.1a2,2,0,0,0,.716,1.39,2.345,2.345,0,0,0,1.513.486,3.15,3.15,0,0,0,.959-.142,4.926,4.926,0,0,0,.905-.4l.527.971a5.42,5.42,0,0,1-1.2.553,4.466,4.466,0,0,1-1.392.216,4.2,4.2,0,0,1-1.419-.236,3.346,3.346,0,0,1-1.148-.682,3.209,3.209,0,0,1-.77-1.086A3.588,3.588,0,0,1,1461.509,674.234Zm5.053-.594a1.775,1.775,0,0,0-.406-1.241,1.545,1.545,0,0,0-1.2-.445,1.968,1.968,0,0,0-.648.108,1.71,1.71,0,0,0-.561.324,1.93,1.93,0,0,0-.655,1.255Z" transform="translate(-1437.365 -668.014)" fill="#718091"/>
    <path id="パス_1370" data-name="パス 1370" d="M1481.026,664.257h3.648v7.191a1.168,1.168,0,0,0,.338.951,1.3,1.3,0,0,0,.852.277,3.149,3.149,0,0,0,1.134-.256l.365,1.147q-.473.161-.885.269a3.957,3.957,0,0,1-.993.108,2.234,2.234,0,0,1-1.769-.674,2.784,2.784,0,0,1-.594-1.9v-5.882h-2.094Z" transform="translate(-1448.654 -664.257)" fill="#718091"/>
    <path id="パス_1371" data-name="パス 1371" d="M1499.676,674.234a3.7,3.7,0,0,1,.277-1.471,3.306,3.306,0,0,1,.737-1.093,3.156,3.156,0,0,1,1.067-.681,3.46,3.46,0,0,1,2.513,0,3.162,3.162,0,0,1,1.067.681,3.311,3.311,0,0,1,.737,1.093,4.038,4.038,0,0,1,0,2.941,3.321,3.321,0,0,1-.737,1.093,3.069,3.069,0,0,1-1.067.674,3.557,3.557,0,0,1-2.513,0,3.064,3.064,0,0,1-1.067-.674,3.315,3.315,0,0,1-.737-1.093A3.7,3.7,0,0,1,1499.676,674.234Zm1.608,0a2.561,2.561,0,0,0,.46,1.6,1.644,1.644,0,0,0,2.54,0,3.034,3.034,0,0,0,0-3.211,1.644,1.644,0,0,0-2.54,0A2.587,2.587,0,0,0,1501.284,674.234Z" transform="translate(-1459.442 -668.014)" fill="#718091"/>
    <path id="パス_1372" data-name="パス 1372" d="M1521.4,678.079v2.077h-1.567v-9.241h1.284l.122.755h.04a4.018,4.018,0,0,1,.993-.654,2.636,2.636,0,0,1,1.129-.263,2.7,2.7,0,0,1,1.155.236,2.278,2.278,0,0,1,.851.681,3.2,3.2,0,0,1,.527,1.066,4.932,4.932,0,0,1,.183,1.39,4.41,4.41,0,0,1-.243,1.518,3.329,3.329,0,0,1-.656,1.12,2.887,2.887,0,0,1-.946.695,2.624,2.624,0,0,1-1.1.243,2.414,2.414,0,0,1-.939-.2,3.022,3.022,0,0,1-.885-.58Zm0-2.266a2.175,2.175,0,0,0,.75.472,2.129,2.129,0,0,0,.7.134,1.479,1.479,0,0,0,1.189-.573,2.636,2.636,0,0,0,.473-1.707,2.8,2.8,0,0,0-.365-1.551,1.3,1.3,0,0,0-1.175-.553,1.769,1.769,0,0,0-.77.189,2.892,2.892,0,0,0-.8.607Z" transform="translate(-1471.102 -668.014)" fill="#718091"/>
    <path id="パス_1373" data-name="パス 1373" d="M1538.423,674.234a3.519,3.519,0,0,1,.29-1.457,3.456,3.456,0,0,1,.764-1.1,3.245,3.245,0,0,1,1.088-.688,3.494,3.494,0,0,1,1.263-.236,3.444,3.444,0,0,1,1.318.236,2.77,2.77,0,0,1,.966.647,2.713,2.713,0,0,1,.594.992,3.816,3.816,0,0,1,.2,1.268,3.926,3.926,0,0,1-.02.418,2.935,2.935,0,0,1-.047.31h-4.823a2,2,0,0,0,.716,1.39,2.346,2.346,0,0,0,1.513.486,3.151,3.151,0,0,0,.959-.142,4.934,4.934,0,0,0,.905-.4l.527.971a5.424,5.424,0,0,1-1.2.553,4.467,4.467,0,0,1-1.392.216,4.193,4.193,0,0,1-1.418-.236,3.345,3.345,0,0,1-1.148-.682,3.219,3.219,0,0,1-.77-1.086A3.58,3.58,0,0,1,1538.423,674.234Zm5.053-.594a1.777,1.777,0,0,0-.405-1.241,1.547,1.547,0,0,0-1.2-.445,1.972,1.972,0,0,0-.649.108,1.713,1.713,0,0,0-.561.324,1.937,1.937,0,0,0-.655,1.255Z" transform="translate(-1481.853 -668.014)" fill="#718091"/>
    <path id="パス_1374" data-name="パス 1374" d="M1559.829,670.915h1.284l.135,1.5h.041a3.683,3.683,0,0,1,1.236-1.234,3.081,3.081,0,0,1,1.588-.425,3.445,3.445,0,0,1,.7.061,2.447,2.447,0,0,1,.588.209l-.325,1.309a4.514,4.514,0,0,0-.574-.155,3.5,3.5,0,0,0-.628-.047,2.491,2.491,0,0,0-1.324.391,3.423,3.423,0,0,0-1.148,1.363v3.656h-1.568Z" transform="translate(-1494.235 -668.014)" fill="#718091"/>
    <path id="パス_1375" data-name="パス 1375" d="M1577.608,675.691a5.187,5.187,0,0,0,1.182.614,4.057,4.057,0,0,0,1.385.222,2.282,2.282,0,0,0,1.148-.222.659.659,0,0,0,.365-.574q0-.35-.473-.586a8.458,8.458,0,0,0-1.487-.506,7.761,7.761,0,0,1-.918-.3,3.969,3.969,0,0,1-.784-.4,2.006,2.006,0,0,1-.541-.526,1.168,1.168,0,0,1-.2-.674,1.7,1.7,0,0,1,.756-1.43,3.648,3.648,0,0,1,2.175-.553,4.3,4.3,0,0,1,1.527.27,6.289,6.289,0,0,1,1.229.607l-.716.958a4.424,4.424,0,0,0-.953-.479,3.153,3.153,0,0,0-1.074-.182,2.042,2.042,0,0,0-1.081.209.612.612,0,0,0-.311.519.437.437,0,0,0,.142.317,1.326,1.326,0,0,0,.392.256,5.182,5.182,0,0,0,.588.223q.337.108.743.2a9.072,9.072,0,0,1,1.047.331,3.874,3.874,0,0,1,.8.411,1.722,1.722,0,0,1,.513.54,1.381,1.381,0,0,1,.182.715,1.648,1.648,0,0,1-.2.8,1.916,1.916,0,0,1-.594.648,3.133,3.133,0,0,1-.973.438,5,5,0,0,1-1.338.162,5.368,5.368,0,0,1-1.783-.3,6.046,6.046,0,0,1-1.472-.728Z" transform="translate(-1504.097 -668.014)" fill="#718091"/>
  </g>
  <g id="グループ_1084" data-name="グループ 1084" transform="translate(109.249 18.464)">
    <path id="パス_1376" data-name="パス 1376" d="M1630.485,665.921h2.608a6.362,6.362,0,0,1,1.249.115,3.12,3.12,0,0,1,.993.364,1.8,1.8,0,0,1,.656.668,2.061,2.061,0,0,1,.236,1.025,2.005,2.005,0,0,1-.378,1.174,1.948,1.948,0,0,1-1.162.742v.054a2.6,2.6,0,0,1,1.479.681,1.934,1.934,0,0,1,.507,1.41,2.474,2.474,0,0,1-.25,1.146,2.242,2.242,0,0,1-.7.809,3.132,3.132,0,0,1-1.067.479,5.475,5.475,0,0,1-1.344.155h-2.824Zm2.459,3.656a2.094,2.094,0,0,0,1.337-.337,1.174,1.174,0,0,0,.406-.958.959.959,0,0,0-.426-.877,2.422,2.422,0,0,0-1.276-.27h-.932v2.442Zm.2,3.953a2.552,2.552,0,0,0,1.486-.364,1.28,1.28,0,0,0,.514-1.12q0-1.349-2-1.349h-1.094v2.833Z" transform="translate(-1630.485 -665.22)" fill="#718091"/>
    <path id="パス_1377" data-name="パス 1377" d="M1649.009,664.257h3.648v7.191a1.166,1.166,0,0,0,.338.951,1.3,1.3,0,0,0,.851.277,3.153,3.153,0,0,0,1.135-.256l.365,1.147q-.473.161-.885.269a3.955,3.955,0,0,1-.993.108,2.236,2.236,0,0,1-1.77-.674,2.784,2.784,0,0,1-.594-1.9v-5.882h-2.094Z" transform="translate(-1641.199 -664.257)" fill="#718091"/>
    <path id="パス_1378" data-name="パス 1378" d="M1667.659,674.234a3.707,3.707,0,0,1,.277-1.471,3.316,3.316,0,0,1,.736-1.093,3.167,3.167,0,0,1,1.067-.681,3.46,3.46,0,0,1,2.513,0,3.169,3.169,0,0,1,1.068.681,3.326,3.326,0,0,1,.736,1.093,4.043,4.043,0,0,1,0,2.941,3.335,3.335,0,0,1-.736,1.093,3.076,3.076,0,0,1-1.068.674,3.557,3.557,0,0,1-2.513,0,3.074,3.074,0,0,1-1.067-.674,3.326,3.326,0,0,1-.736-1.093A3.709,3.709,0,0,1,1667.659,674.234Zm1.608,0a2.563,2.563,0,0,0,.46,1.6,1.644,1.644,0,0,0,2.54,0,3.037,3.037,0,0,0,0-3.211,1.644,1.644,0,0,0-2.54,0A2.589,2.589,0,0,0,1669.267,674.234Z" transform="translate(-1651.987 -668.014)" fill="#718091"/>
    <path id="パス_1379" data-name="パス 1379" d="M1687.176,678.7a1.25,1.25,0,0,1,.27-.755,2.264,2.264,0,0,1,.783-.634v-.054a1.482,1.482,0,0,1-.473-.418,1.116,1.116,0,0,1-.2-.688,1.206,1.206,0,0,1,.217-.668,2.168,2.168,0,0,1,.581-.587v-.054a2.042,2.042,0,0,1-.6-.675,2.009,2.009,0,0,1-.25-1.025,2.231,2.231,0,0,1,.223-1.012,2.265,2.265,0,0,1,.594-.749,2.663,2.663,0,0,1,.865-.465,3.349,3.349,0,0,1,1.047-.162,3.053,3.053,0,0,1,1.04.162h2.716v1.147h-1.554a2.108,2.108,0,0,1,.311.492,1.5,1.5,0,0,1,.135.641,2.2,2.2,0,0,1-.2.971,1.977,1.977,0,0,1-.561.7,2.432,2.432,0,0,1-.844.425,3.691,3.691,0,0,1-1.04.142,3.127,3.127,0,0,1-1.013-.175.728.728,0,0,0-.406.608q0,.634,1.257.634h1.351a4,4,0,0,1,1.952.378,1.321,1.321,0,0,1,.656,1.241,1.7,1.7,0,0,1-.271.917,2.424,2.424,0,0,1-.763.749,4.1,4.1,0,0,1-1.2.5,6.389,6.389,0,0,1-1.588.183,6.552,6.552,0,0,1-1.243-.108,3.23,3.23,0,0,1-.953-.331,1.713,1.713,0,0,1-.615-.554A1.381,1.381,0,0,1,1687.176,678.7Zm1.3-.2a.777.777,0,0,0,.493.7,3.163,3.163,0,0,0,1.425.256,4.024,4.024,0,0,0,.878-.088,2.761,2.761,0,0,0,.676-.236,1.28,1.28,0,0,0,.432-.344.668.668,0,0,0,.149-.411.5.5,0,0,0-.338-.52,2.972,2.972,0,0,0-1-.128h-1.054c-.216,0-.408-.007-.574-.02a1.756,1.756,0,0,1-.439-.088,1.629,1.629,0,0,0-.5.431A.776.776,0,0,0,1688.473,678.5Zm1.756-4.034a1.284,1.284,0,0,0,.892-.344,1.329,1.329,0,0,0-.892-2.3,1.231,1.231,0,0,0-.885.358,1.455,1.455,0,0,0,0,1.943A1.256,1.256,0,0,0,1690.229,674.463Z" transform="translate(-1663.276 -668.014)" fill="#718091"/>
  </g>
  <g id="グループ_1085" data-name="グループ 1085" transform="translate(98.213 17.522)">
    <path id="パス_1380" data-name="パス 1380" d="M1605.831,672.782h-1.524l4.075-10.759h1.524Z" transform="translate(-1604.307 -662.023)" fill="#718091"/>
  </g>
  <g id="グループ_1086" data-name="グループ 1086" transform="translate(3.074 17.522)">
    <path id="パス_1381" data-name="パス 1381" d="M1380.164,672.782h-1.524l4.075-10.759h1.524Z" transform="translate(-1378.64 -662.023)" fill="#718091"/>
  </g>
  <g id="Logo_Asial_2017" transform="translate(0 0)">
    <path id="パス_1382" data-name="パス 1382" d="M1468.465,628.446a1.459,1.459,0,0,1-.4.057,1.443,1.443,0,0,1-.354-.044,6.092,6.092,0,0,0-1.565-.172,4.155,4.155,0,0,0-4.319,4.211c0,2.452,1.419,3.795,2.977,3.795a2.993,2.993,0,0,0,2.622-1.419l.139,1.249h1.789c-.092-1.666-.092-2.36-.092-3.995,0-1.589.015-2.422.139-3.964Zm-1.057,5.377a2.019,2.019,0,0,1-1.774,1.095c-1.095,0-1.913-.833-1.913-2.73a2.394,2.394,0,0,1,2.345-2.653,2.977,2.977,0,0,1,1.342.262c.031.386.046,1.357.046,2.237C1467.454,632.651,1467.439,633.345,1467.408,633.823Z" transform="translate(-1423.68 -624.916)" fill="#718091"/>
    <g id="グループ_1087" data-name="グループ 1087" transform="translate(0 0.386)">
      <ellipse id="楕円形_261" data-name="楕円形 261" cx="2.322" cy="2.322" rx="2.322" ry="2.322" transform="translate(3.406)" fill="#718091"/>
      <ellipse id="楕円形_262" data-name="楕円形 262" cx="2.322" cy="2.322" rx="2.322" ry="2.322" transform="translate(0 6.192)" fill="#718091"/>
      <ellipse id="楕円形_263" data-name="楕円形 263" cx="2.322" cy="2.322" rx="2.322" ry="2.322" transform="translate(6.502 6.192)" fill="#718091"/>
    </g>
    <path id="パス_1383" data-name="パス 1383" d="M1440.273,630.2a5.349,5.349,0,0,0-1.913-.339c-1.157,0-1.542.324-1.542.771,0,.371.216.617,1.064.941l.941.37c1.481.571,2.036,1.234,2.036,2.36,0,1.373-1.28,2.3-3.039,2.3a6.028,6.028,0,0,1-2.962-.6l.37-1.234a5.218,5.218,0,0,0,2.391.586c1.065,0,1.5-.371,1.5-.879,0-.463-.216-.74-1.3-1.142l-.941-.355c-1.188-.432-1.8-1.065-1.8-2.175,0-1.234,1.157-2.206,3.177-2.206a6.615,6.615,0,0,1,2.391.355Z" transform="translate(-1408.083 -625.167)" fill="#718091"/>
    <path id="パス_1384" data-name="パス 1384" d="M1455.488,636.423h-2c.078-1.467.094-2.356.094-3.839,0-1.592-.016-2.341-.094-3.9h2c-.078,1.561-.094,2.31-.094,3.9C1455.395,634.067,1455.41,634.957,1455.488,636.423Z" transform="translate(-1418.86 -625.216)" fill="#718091"/>
    <path id="パス_1385" data-name="パス 1385" d="M1486.669,631.75h-1.952c.076-2.074.091-3.287.091-5.39,0-2.25-.015-3.536-.091-5.756h1.952c-.076,2.221-.091,3.506-.091,5.756C1486.578,628.464,1486.593,629.676,1486.669,631.75Z" transform="translate(-1436.922 -620.544)" fill="#718091"/>
    <g id="グループ_1088" data-name="グループ 1088" transform="translate(14.851 0.37)">
      <path id="パス_1386" data-name="パス 1386" d="M1406.575,632.176c1.771-2.642,4.817-7.58,6.742-10.837h1.831c.583,3.077,1.578,7.474,2.471,10.837h-2.134c-.2-.965-.438-2.038-.634-3.1h-4.643c-.624,1.1-1.275,2.192-1.864,3.1Zm4.42-4.335h3.615c-.333-1.641-.644-3.328-.889-4.7C1413,624.468,1411.971,626.185,1411,627.841Z" transform="translate(-1406.575 -621.339)" fill="#718091"/>
    </g>
    <ellipse id="楕円形_264" data-name="楕円形 264" cx="1.238" cy="1.238" rx="1.238" ry="1.238" transform="translate(34.391)" fill="#718091"/>
  </g>
</svg>
