<svg id="logo_the_web_tub_gray" xmlns="http://www.w3.org/2000/svg" width="110" height="26.811" viewBox="0 0 110 26.811">
  <g id="グループ_1080" data-name="グループ 1080" transform="translate(0 0)">
    <path id="パス_1338" data-name="パス 1338" d="M1405.921,280.842c3.318-1.193,1.56-4.684,3.171-6.05,0,0-1.317-.2-1.795.536S1407.864,278.767,1405.921,280.842Z" transform="translate(-1383.013 -269.58)" fill="#718091"/>
    <path id="パス_1339" data-name="パス 1339" d="M1398.362,275.97a3.356,3.356,0,0,0-2.684,2.036c-.308,1.077.012,2.309-.816,3.107,1.479.563,2.738.823,3.682.224a1.527,1.527,0,0,0,.392-.326c.849-.95.024-3.776,1.395-5.371-3.545.988-1.507,6.085-2.928,5.234a1.419,1.419,0,0,1-.569-.955A4.044,4.044,0,0,1,1398.362,275.97Z" transform="translate(-1376.633 -270.083)" fill="#718091"/>
    <path id="パス_1340" data-name="パス 1340" d="M1395.732,290.017l.019-.026a2.389,2.389,0,0,1,1.013-.8c-2.238.269-4.211-.592-4.461-2.053a2.116,2.116,0,0,1,.111-1c.171-.5-.789.519-.6,1.618a3.025,3.025,0,0,0,2.638,2.229A2.4,2.4,0,0,1,1395.732,290.017Z" transform="translate(-1374.859 -276.063)" fill="#718091"/>
    <path id="パス_1341" data-name="パス 1341" d="M1409.765,284.19c-.187-1.1-1.431-1.744-1.1-1.327a2.119,2.119,0,0,1,.434.9c.238,1.4-1.19,2.8-3.237,3.344a2.387,2.387,0,0,1,1.344.44C1408.918,286.8,1409.993,285.524,1409.765,284.19Z" transform="translate(-1382.978 -274.177)" fill="#718091"/>
    <g id="グループ_1074" data-name="グループ 1074" transform="translate(0.15 15.176)">
      <path id="パス_1342" data-name="パス 1342" d="M1379.759,298.376h-26.165a1.425,1.425,0,0,0-1.464,1.383,1.406,1.406,0,0,0,1.145,1.353l.927,3.316a4.775,4.775,0,0,0,4.139,3.678v.882a1.081,1.081,0,0,0,2.159,0v-.83h12.349v.83a1.053,1.053,0,0,0,1.08,1.023h0a1.052,1.052,0,0,0,1.079-1.023v-.881h0a4.786,4.786,0,0,0,4.141-3.678l.927-3.316a1.406,1.406,0,0,0,1.141-1.353A1.424,1.424,0,0,0,1379.759,298.376Z" transform="translate(-1352.13 -298.376)" fill="#718091"/>
    </g>
    <g id="グループ_1075" data-name="グループ 1075" transform="translate(3.119 1.413)">
      <path id="パス_1343" data-name="パス 1343" d="M1360.425,266.392a.729.729,0,1,1-.729.729.729.729,0,0,1,.729-.729m0-.547a1.277,1.277,0,1,0,1.277,1.277,1.278,1.278,0,0,0-1.277-1.277Z" transform="translate(-1359.149 -265.845)" fill="#718091"/>
    </g>
    <g id="グループ_1076" data-name="グループ 1076" transform="translate(0 4.641)">
      <path id="パス_1344" data-name="パス 1344" d="M1353.47,274.022a1.146,1.146,0,1,1-1.146,1.146,1.146,1.146,0,0,1,1.146-1.146m0-.547a1.693,1.693,0,1,0,1.693,1.693,1.7,1.7,0,0,0-1.693-1.693Z" transform="translate(-1351.776 -273.475)" fill="#718091"/>
    </g>
    <g id="グループ_1078" data-name="グループ 1078" transform="translate(13.291 18.666)">
      <path id="パス_1345" data-name="パス 1345" d="M1389.783,306.626h-4.654l-1.939,3.1.776,5.042h1.382l-.1-1.163h.679l.1,1.163h2.86l.1-1.163h.679l-.1,1.163h1.382l.775-5.042Z" transform="translate(-1383.19 -306.626)" fill="#132c47" fill-rule="evenodd"/>
      <g id="グループ_1077" data-name="グループ 1077" transform="translate(1.551 1.551)">
        <path id="パス_1346" data-name="パス 1346" d="M1391.9,314.947h-4.654l-.388-3.1.776-1.551h1.247l-.083.582h1.551l-.083-.582h1.247l.776,1.551Z" transform="translate(-1386.857 -310.293)" fill="#fff" fill-rule="evenodd"/>
        <path id="パス_1347" data-name="パス 1347" d="M1395.988,315.449c.107,0,.194.323.194.721s-.087.721-.194.721-.194-.323-.194-.721S1395.881,315.449,1395.988,315.449Z" transform="translate(-1392.013 -313.267)" fill="#444" fill-rule="evenodd"/>
        <path id="パス_1348" data-name="パス 1348" d="M1390.2,315.591c.107,0,.194.323.194.721s-.087.721-.194.721-.194-.323-.194-.721S1390.095,315.591,1390.2,315.591Z" transform="translate(-1388.675 -313.349)" fill="#444" fill-rule="evenodd"/>
      </g>
    </g>
    <g id="グループ_1079" data-name="グループ 1079" transform="translate(21.714 0.162)">
      <path id="パス_1349" data-name="パス 1349" d="M1404.9,263.437a1.25,1.25,0,1,1-1.251,1.251,1.25,1.25,0,0,1,1.251-1.251m0-.547a1.8,1.8,0,1,0,1.8,1.8,1.8,1.8,0,0,0-1.8-1.8Z" transform="translate(-1403.099 -262.89)" fill="#718091"/>
    </g>
    <ellipse id="楕円形_260" data-name="楕円形 260" cx="1.398" cy="1.398" rx="1.398" ry="1.398" transform="translate(9.839 17.803)" fill="#fff"/>
    <path id="パス_1350" data-name="パス 1350" d="M1354.551,288.873a.273.273,0,0,0,.145-.333,1.913,1.913,0,0,1-.053-.2,1.857,1.857,0,0,1,1.388-2.186l-.1-.539a2.4,2.4,0,0,0-1.825,2.838l.007.031a2.42,2.42,0,0,0-1.17,2.305,2.049,2.049,0,0,1,.535-.242A1.868,1.868,0,0,1,1354.551,288.873Z" transform="translate(-1352.443 -275.839)" fill="#718091"/>
    <path id="パス_1351" data-name="パス 1351" d="M1397.729,294.682a.273.273,0,0,0,.344-.117,1.878,1.878,0,0,1,.111-.173,1.858,1.858,0,0,1,2.591-.415,1.839,1.839,0,0,1,.54.612.273.273,0,0,0,.476.008c.031-.053.064-.1.1-.151a1.856,1.856,0,0,1,3.22.383,2.05,2.05,0,0,1,.64.274.262.262,0,0,0-.005-.064,4.993,4.993,0,0,1-4.648-1.5,2.406,2.406,0,0,0-3.356.538l-.019.026a2.42,2.42,0,0,0-2.484.674h.874A1.864,1.864,0,0,1,1397.729,294.682Z" transform="translate(-1376.85 -280.144)" fill="#718091"/>
    <path id="パス_1352" data-name="パス 1352" d="M1388.255,279.564a2.3,2.3,0,0,0-1,.495,2.334,2.334,0,0,0-.371-.484,2.308,2.308,0,0,0-1.642-.682h0a2.308,2.308,0,0,0-1.641.679l-.017.017a2.312,2.312,0,0,0-.765-.221l.1.569a1.747,1.747,0,0,1,.574.229.274.274,0,0,0,.358-.061,1.782,1.782,0,0,1,1.386-.665h0a1.777,1.777,0,0,1,1.672,1.183.274.274,0,0,0,.469.083c.037-.045.077-.088.116-.127a1.776,1.776,0,0,1,.606-.4,3.978,3.978,0,0,1,.1-.449C1388.215,279.676,1388.234,279.62,1388.255,279.564Z" transform="translate(-1369.681 -271.959)" fill="#718091"/>
    <path id="パス_1353" data-name="パス 1353" d="M1380.528,262.506l-.671,5.572a2.232,2.232,0,0,1,1.207,1.6l.043.235a2.311,2.311,0,0,1,.765.221l.017-.017a2.312,2.312,0,0,1,.742-.5,1.09,1.09,0,0,1-.836-.733h0l.615-.291c.091.209.176.388.419.413s.391-.052.427-.408l.248-2.417.711.073-.249,2.427a1.089,1.089,0,0,1-.351.759,2.3,2.3,0,0,1,1.56.68,2.332,2.332,0,0,1,.371.484,2.3,2.3,0,0,1,1-.495l0,.006a2.8,2.8,0,0,1,.427-.762l.015-.02.054-.065.025-.03.051-.058.033-.036.049-.052.04-.041.048-.047.046-.044.046-.043.036-.032.659-5.471Zm6.288,6.55c-.066.64-.6.939-1.279.87a1.374,1.374,0,0,1-1.221-.859h0l.614-.276a.778.778,0,0,0,.656.5c.295.03.5-.1.518-.3.025-.244-.159-.349-.47-.525l-.17-.094c-.49-.271-.8-.58-.743-1.159a.954.954,0,0,1,1.137-.833,1.055,1.055,0,0,1,.952.672l-.59.3a.486.486,0,0,0-.426-.352.311.311,0,0,0-.372.27c-.022.213.1.313.392.476l.17.094C1386.564,268.163,1386.877,268.462,1386.816,269.056Z" transform="translate(-1367.976 -262.506)" fill="#718091"/>
    <path id="パス_1354" data-name="パス 1354" d="M1386.176,274.451l.082,0a1.09,1.09,0,0,0,.351-.759l.249-2.427-.711-.073-.247,2.417c-.036.355-.193.432-.427.408s-.328-.2-.419-.413l-.615.291a1.09,1.09,0,0,0,.836.733,2.315,2.315,0,0,1,.9-.18Z" transform="translate(-1370.619 -267.519)" fill="#132c47"/>
    <path id="パス_1355" data-name="パス 1355" d="M1392.067,273.118l-.17-.094c-.291-.163-.414-.263-.392-.476a.311.311,0,0,1,.371-.27.486.486,0,0,1,.426.352l.59-.3a1.055,1.055,0,0,0-.952-.672.955.955,0,0,0-1.137.833c-.059.579.253.888.743,1.159l.17.094c.311.176.495.281.47.525-.021.2-.223.331-.518.3a.777.777,0,0,1-.656-.5l-.614.276h0a1.374,1.374,0,0,0,1.221.859c.675.069,1.214-.23,1.279-.87C1392.958,273.737,1392.644,273.438,1392.067,273.118Z" transform="translate(-1374.057 -267.781)" fill="#132c47"/>
    <path id="パス_1356" data-name="パス 1356" d="M1369.2,285.117a1.693,1.693,0,0,0,1.357-1.966l-.979-5.349a1.694,1.694,0,0,0-1.966-1.357l-5.349.98a1.694,1.694,0,0,0-1.357,1.966l.98,5.349a1.658,1.658,0,0,0,.136.421h6.943Zm-4.846-1.851-.618-3.372,3.372-.618.617,3.372Z" transform="translate(-1357.025 -270.532)" fill="#718091"/>
  </g>
  <g id="グループ_1081" data-name="グループ 1081" transform="translate(36.906 5.377)">
    <path id="パス_1357" data-name="パス 1357" d="M1446,276.728h-2.671v16.3h-1.654v-16.3h-2.67v-1.512H1446Z" transform="translate(-1439.008 -275.216)" fill="#718091"/>
    <path id="パス_1358" data-name="パス 1358" d="M1459.575,281.879a3.144,3.144,0,0,1,2.386-1.158c2.221,0,2.339,1.938,2.339,3.639v8.672h-1.536V284.62c0-1.89-.213-2.646-1.37-2.646-1.749,0-1.82,1.914-1.82,3.19v7.868h-1.536V275.216h1.536Z" transform="translate(-1449.987 -275.216)" fill="#718091"/>
    <path id="パス_1359" data-name="パス 1359" d="M1477.494,294.8v.355c0,1.205.213,4.135,1.89,4.135,1.347,0,1.536-1.89,1.536-2.859h1.583c-.024,1.843-.732,4.3-2.977,4.3-3.19,0-3.615-3.781-3.615-6.215,0-2.174.473-6.285,3.4-6.285,2.836,0,3.285,3.71,3.285,5.836v.732Zm3.545-1.3-.024-.213c-.047-1.158-.095-3.615-1.7-3.615-1.465,0-1.8,2.741-1.8,3.828Z" transform="translate(-1460.298 -282.723)" fill="#718091"/>
    <path id="パス_1360" data-name="パス 1360" d="M1506.933,293.032h-1.512l-1.8-12c-.095-.614-.142-1.938-.213-2.907h-.095c-.094.969-.165,2.316-.26,2.907l-2.079,12h-1.512l-2.835-17.816h1.7l1.583,11.909c.118.874.189,1.772.283,2.647h.095c.118-.875.189-1.772.33-2.647l2.056-11.909h1.418l1.7,11.909c.118.874.236,1.772.354,2.647h.095c.094-.875.166-1.772.307-2.647l1.843-11.909h1.678Z" transform="translate(-1472.252 -275.216)" fill="#718091"/>
    <path id="パス_1361" data-name="パス 1361" d="M1528.974,294.8v.355c0,1.205.213,4.135,1.89,4.135,1.347,0,1.536-1.89,1.536-2.859h1.583c-.024,1.843-.733,4.3-2.977,4.3-3.19,0-3.616-3.781-3.616-6.215,0-2.174.473-6.285,3.4-6.285,2.835,0,3.284,3.71,3.284,5.836v.732Zm3.544-1.3-.024-.213c-.047-1.158-.094-3.615-1.7-3.615-1.465,0-1.8,2.741-1.8,3.828Z" transform="translate(-1489.998 -282.723)" fill="#718091"/>
    <path id="パス_1362" data-name="パス 1362" d="M1546.268,275.216h1.536v6.522h.047a2.058,2.058,0,0,1,1.89-1.016c2.812,0,3,3.379,3,6.12,0,3.072-.236,6.38-2.883,6.38a2.352,2.352,0,0,1-2.008-1.134h-.047v.945h-1.536Zm4.891,11.507c0-2.765-.26-4.75-1.8-4.75-1.867,0-1.7,3.568-1.7,4.655,0,1.489-.189,5.341,1.772,5.341C1550.687,291.969,1551.159,290.882,1551.159,286.723Z" transform="translate(-1500.889 -275.216)" fill="#718091"/>
    <path id="パス_1363" data-name="パス 1363" d="M1571.26,276.728h-2.67v16.3h-1.654v-16.3h-2.67v-1.512h6.994Z" transform="translate(-1511.272 -275.216)" fill="#718091"/>
    <path id="パス_1364" data-name="パス 1364" d="M1579.951,288.676v7.609c0,1.654.094,3.261,1.607,3.261,1.559,0,1.63-1.607,1.654-3.261v-7.609h1.536v8.908c0,2.033-.992,3.4-3.166,3.4-2.15,0-3.166-1.347-3.166-3.4v-8.908Z" transform="translate(-1519.435 -282.981)" fill="#718091"/>
    <path id="パス_1365" data-name="パス 1365" d="M1596.473,275.216h1.536v6.522h.047a2.058,2.058,0,0,1,1.89-1.016c2.812,0,3,3.379,3,6.12,0,3.072-.236,6.38-2.883,6.38a2.352,2.352,0,0,1-2.008-1.134h-.047v.945h-1.536Zm4.891,11.507c0-2.765-.26-4.75-1.8-4.75-1.867,0-1.7,3.568-1.7,4.655,0,1.489-.189,5.341,1.772,5.341C1600.891,291.969,1601.364,290.882,1601.364,286.723Z" transform="translate(-1529.853 -275.216)" fill="#718091"/>
  </g>
</svg>
