<svg id="Asial_Logo" data-name="Asial Logo" xmlns="http://www.w3.org/2000/svg" viewBox="0 0 290.13 67.44"><defs><style>.cls-1{fill:#231815;}.cls-2{fill:#ef7a00;}</style></defs><title>Asial_Logo</title><path class="cls-1" d="M260.82,21.2a8.59,8.59,0,0,1-4.46.08,35.91,35.91,0,0,0-9.22-1c-14,0-25.45,10-25.45,24.81,0,14.45,8.36,22.36,17.54,22.36a17.64,17.64,0,0,0,15.45-8.36l.82,7.36H266c-.55-9.82-.55-13.91-.55-23.54,0-9.36.09-14.27.82-23.36Zm-6.23,31.33c-2.91,4.64-6.45,6.45-10.45,6.45-6.45,0-11.27-4.91-11.27-16.09,0-10.09,6.45-15.63,13.82-15.63a17.55,17.55,0,0,1,7.91,1.55c.18,2.27.27,8,.27,13.18C254.86,45.63,254.77,49.72,254.59,52.53Z" transform="translate(0 0)"/><circle class="cls-2" cx="33.94" cy="15.77" r="13.99"/><circle class="cls-2" cx="13.99" cy="52.43" r="13.99"/><circle class="cls-2" cx="53.89" cy="52.43" r="13.99"/><path class="cls-1" d="M186.61,29.72a31.51,31.51,0,0,0-11.27-2c-6.82,0-9.09,1.91-9.09,4.54,0,2.18,1.27,3.64,6.27,5.54L178.06,40c8.73,3.36,12,7.27,12,13.91,0,8.09-7.54,13.54-17.91,13.54-8.09,0-13.09-1.27-17.45-3.54l2.18-7.27A30.74,30.74,0,0,0,171,60.08c6.27,0,8.82-2.18,8.82-5.18,0-2.73-1.27-4.36-7.63-6.73l-5.54-2.09c-7-2.54-10.63-6.27-10.63-12.82,0-7.27,6.82-13,18.72-13,5.73,0,9.82.55,14.09,2.09Z" transform="translate(0 0)"/><path class="cls-1" d="M212.69,66.44H201.06c.45-8.54.55-13.72.55-22.36,0-9.27-.09-13.63-.55-22.72h11.63c-.45,9.09-.55,13.45-.55,22.72C212.15,52.72,212.24,57.9,212.69,66.44Z" transform="translate(0 0)"/><path class="cls-1" d="M290.13,66.42H278.49c.45-12.36.55-19.59.55-32.12,0-13.41-.09-21.07-.55-34.3h11.63c-.45,13.23-.55,20.89-.55,34.3C289.58,46.83,289.67,54.06,290.13,66.42Z" transform="translate(0 0)"/><path class="cls-1" d="M84,66.42C94.6,50.66,112.77,21.21,124.26,1.78h10.92c3.48,18.35,9.42,44.59,14.74,64.64H136.76c-1.15-5.64-2.56-11.91-3.7-18.09H105.93c-3.64,6.45-7.45,12.8-10.89,18.09Zm26.45-26.14h21.3c-2-9.67-3.79-19.61-5.24-27.67C122.32,20.4,116.24,30.52,110.49,40.28Z" transform="translate(0 0)"/><circle class="cls-1" cx="206.83" cy="7.11" r="7.11"/></svg>