<svg xmlns="http://www.w3.org/2000/svg" xmlns:xlink="http://www.w3.org/1999/xlink" width="492" height="387.996" viewBox="0 0 492 387.996">
  <defs>
    <linearGradient id="linear-gradient" x1="97.11" y1="79.842" x2="97.821" y2="79.842" gradientUnits="objectBoundingBox">
      <stop offset="0" stop-color="#cedbf0"/>
      <stop offset="1" stop-color="#b4cae9"/>
    </linearGradient>
    <linearGradient id="linear-gradient-2" x1="-0.755" y1="0.5" x2="3.124" y2="0.5" gradientUnits="objectBoundingBox">
      <stop offset="0" stop-color="#313d91"/>
      <stop offset="0.998" stop-color="#002581"/>
    </linearGradient>
    <linearGradient id="linear-gradient-3" y1="0.5" x2="1" y2="0.5" gradientUnits="objectBoundingBox">
      <stop offset="0.002" stop-color="#002581"/>
      <stop offset="1" stop-color="#313d91"/>
    </linearGradient>
    <linearGradient id="linear-gradient-4" x1="134.8" y1="-0.219" x2="134.8" y2="3.127" gradientUnits="objectBoundingBox">
      <stop offset="0" stop-color="#c7e0f5"/>
      <stop offset="0.711" stop-color="#5aa7de"/>
    </linearGradient>
    <linearGradient id="linear-gradient-5" x1="135.038" x2="135.038" y2="1" gradientUnits="objectBoundingBox">
      <stop offset="0" stop-color="#c7e0f5"/>
      <stop offset="0.825" stop-color="#90bfd5"/>
    </linearGradient>
    <linearGradient id="linear-gradient-6" x1="144.036" y1="0" x2="144.036" y2="1" xlink:href="#linear-gradient-5"/>
    <linearGradient id="linear-gradient-7" x1="50.544" y1="1" x2="50.544" gradientUnits="objectBoundingBox">
      <stop offset="0.031" stop-color="#d0d4de"/>
      <stop offset="0.531" stop-color="#fff"/>
    </linearGradient>
    <linearGradient id="linear-gradient-8" x1="97.11" y1="79.841" x2="97.821" y2="79.841" xlink:href="#linear-gradient"/>
    <linearGradient id="linear-gradient-9" x1="97.098" y1="79.839" x2="97.809" y2="79.839" xlink:href="#linear-gradient"/>
  </defs>
  <g id="visual" transform="translate(-578 -1371)">
    <g id="グループ_5085" data-name="グループ 5085" transform="translate(912.971 1378.311)">
      <g id="グループ_5123" data-name="グループ 5123" transform="translate(0 0)">
        <g id="グループ_5122" data-name="グループ 5122">
          <g id="グループ_5121" data-name="グループ 5121">
            <path id="パス_9164" data-name="パス 9164" d="M687.9,1387.947l-18.526,10.769v30.356L687.9,1418.3c.03-.019.053-.036.082-.054a3.789,3.789,0,0,0,2.071-2.91v-30.422Z" transform="translate(-638.037 -1369.83)" fill="#b4cae9"/>
            <path id="パス_9165" data-name="パス 9165" d="M648.362,1387.959a3.728,3.728,0,0,1-2.2-3.073v30.358a3.7,3.7,0,0,0,2.178,3.072l18.663,10.768v-30.356Z" transform="translate(-646.164 -1369.842)" fill="#cedbf0"/>
            <path id="パス_9166" data-name="パス 9166" d="M672.094,1395.137H661.6v30.356a7.753,7.753,0,0,0,1.052.51c.02.008.043.013.063.022a12.026,12.026,0,0,0,7.909.108,8.349,8.349,0,0,0,1.469-.64Z" transform="translate(-640.759 -1366.252)" fill="url(#linear-gradient)"/>
            <path id="パス_9167" data-name="パス 9167" d="M696.016,1385.773l-18.651-10.768a11.6,11.6,0,0,0-10.522,0l-18.53,10.768c-2.881,1.676-2.866,4.4.049,6.088l18.643,10.768a11.59,11.59,0,0,0,10.494,0l18.526-10.769C698.921,1390.177,698.917,1387.449,696.016,1385.773Z" transform="translate(-646.164 -1373.744)" fill="#e9edf7"/>
          </g>
        </g>
      </g>
      <g id="グループ_5125" data-name="グループ 5125" transform="translate(14.597 6.446)">
        <path id="パス_9168" data-name="パス 9168" d="M657.337,1380.664a.609.609,0,0,1-.362-.5v2.872a.6.6,0,0,0,.354.505l6.145,3.518.008-2.873Z" transform="translate(-656.975 -1377.942)" fill="#002581"/>
        <path id="パス_9169" data-name="パス 9169" d="M665.889,1386.258l-.008,2.872,4.533-2.65v-2.873Z" transform="translate(-653.856 -1376.735)" fill="#002581"/>
        <path id="パス_9170" data-name="パス 9170" d="M673.569,1384.508a14.319,14.319,0,0,1-.555,1.709v2.872l.038-.057a3.222,3.222,0,0,0,.517-1.565Z" transform="translate(-651.358 -1376.42)" fill="url(#linear-gradient-2)"/>
        <g id="グループ_5124" data-name="グループ 5124" transform="translate(16.557 6.873)">
          <path id="パス_9171" data-name="パス 9171" d="M674.337,1386.532v2.873l-5.1-2.924v-2.873Z" transform="translate(-669.238 -1383.608)" fill="#313d91"/>
        </g>
        <path id="パス_9172" data-name="パス 9172" d="M672.139,1391.852c.149-.028.3-.061.448-.095v-2.873c0,.053-11.251-4.385-11.251-4.417v2.873c0,1.221.806,2.436,2.433,3.386a12.126,12.126,0,0,0,6.887,1.333A10.189,10.189,0,0,0,672.139,1391.852Z" transform="translate(-655.448 -1376.434)" fill="url(#linear-gradient-3)"/>
        <path id="パス_9173" data-name="パス 9173" d="M678.63,1388.315c1.144-1.7.533-3.708-1.869-5.094a12.914,12.914,0,0,0-8.988-.98l-6.146-3.519a1.889,1.889,0,0,0-1.718,0l-2.586,1.518c-.473.275-.464.721.012.995l6.145,3.519c-1.231,1.72-.625,3.768,1.823,5.181a12.827,12.827,0,0,0,8.81,1.03l-5.106-2.929,4.524-2.649Z" transform="translate(-656.975 -1378.518)" fill="#434b9a"/>
      </g>
    </g>
    <g id="長方形_314" data-name="長方形 314" transform="translate(578 1371)" fill="none" stroke="#b3b3b3" stroke-width="1" opacity="0">
      <rect width="492" height="360" stroke="none"/>
      <rect x="0.5" y="0.5" width="491" height="359" fill="none"/>
    </g>
    <g id="グループ_5069" data-name="グループ 5069" transform="translate(686.539 1371)">
      <path id="パス_9056" data-name="パス 9056" d="M-320.327,1378.566c0,9.247-2.276,16.517-6.132,21.284l-38.963,24.015a.362.362,0,0,1-.156.1l-31.716-49.359-66.271-38.256-2.145-1.281c-12.1-11.438-21.6-35.046-21.583-52.9,0-11.883,3.712-20.638,9.846-24.83l-10.325-18.074,2.456-1.425,12.636-7.318,11.282-6.528a22.243,22.243,0,0,1,2.539-2.444c7.019-5.725,16.888-6.132,27.812.179a56.323,56.323,0,0,1,11.366,8.84c.443.431.887.874,1.317,1.33,1.185,1.233,2.348,2.527,3.474,3.868.407.48.8.958,1.2,1.462.479.6.958,1.2,1.413,1.821.443.574.875,1.162,1.306,1.761a.755.755,0,0,0,.084.12c1.377,1.9,2.695,3.9,3.928,5.965.419.682.839,1.376,1.233,2.084.4.682.779,1.365,1.162,2.061.456.85.91,1.7,1.342,2.563.323.634.634,1.257.934,1.892s.61,1.27.9,1.9c.742,1.629,1.449,3.282,2.107,4.959h.408a25.23,25.23,0,0,1,12.444,3.76c7.738,4.468,14.829,12.3,20.314,21.668a79.947,79.947,0,0,1,4.623,9.1c.335.791.672,1.581.995,2.372.635,1.593,1.233,3.2,1.761,4.826.515,1.533.982,3.078,1.389,4.635.036.132.073.276.108.419.18.683.348,1.354.5,2.036.143.587.275,1.174.383,1.773.119.515.216,1.03.311,1.545.119.635.24,1.282.335,1.916a33.208,33.208,0,0,1,3.857,1.916c11.834,6.828,22.159,21.536,27.548,37.55.156.467.312.946.456,1.413.3.946.586,1.893.85,2.839.119.443.24.875.348,1.317.275,1.042.526,2.1.754,3.138.1.419.18.827.264,1.246.084.479.18.958.264,1.438l.144.827q.143.827.251,1.653c.108.695.191,1.389.264,2.084.011.131.035.275.048.407.119,1.186.215,2.371.264,3.545,0,.011.011.024,0,.036.024.311.035.635.048.947C-320.339,1377.356-320.327,1377.967-320.327,1378.566Z" transform="translate(522.233 -1217.117)" fill="#c7e0f5"/>
      <g id="グループ_5069-2" data-name="グループ 5069" transform="translate(61.27 13.443)">
        <path id="パス_9057" data-name="パス 9057" d="M-400.262,1261.85c.133,0,.265.009.4.009l-48.278,29.712-13.809-37.371,41.281-24.134C-412.39,1238.228-405.191,1249.405-400.262,1261.85Z" transform="translate(461.947 -1230.066)" fill="url(#linear-gradient-4)"/>
      </g>
      <g id="グループ_5070" data-name="グループ 5070" transform="translate(105.951 62.447)">
        <path id="パス_9058" data-name="パス 9058" d="M-357.588,1314.452l-51.572,30.562-9.747-41.431,44.613-26.312a83.221,83.221,0,0,1,15.956,36.841C-358.083,1314.213-357.838,1314.341-357.588,1314.452Z" transform="translate(418.907 -1277.27)" fill="url(#linear-gradient-5)"/>
      </g>
      <g id="グループ_5071" data-name="グループ 5071" transform="translate(144.944 138.751)">
        <path id="パス_9059" data-name="パス 9059" d="M-330.517,1394.75l-39.112,24.119-6.336-13.985-5.381-22.867,52.981-31.246a71.979,71.979,0,0,1,3.981,22.7C-324.384,1382.716-326.663,1389.99-330.517,1394.75Z" transform="translate(381.346 -1350.772)" fill="url(#linear-gradient-6)"/>
      </g>
      <path id="パス_9060" data-name="パス 9060" d="M-499.376,1354.621c-12.1-11.427-21.6-35.044-21.591-52.9,0-16.432,7.081-26.911,17.837-27.587-.065-1.261-.107-2.511-.1-3.736,0-28.32,17.28-41.382,38.518-29.119,12.912,7.451,24.678,22.735,31.77,40.627a25.112,25.112,0,0,1,12.839,3.761c14.944,8.627,27.492,29.8,30.72,50.3a32.35,32.35,0,0,1,3.857,1.918c17.392,10.038,31.534,37.062,31.534,60.243,0,19.08-9.656,29.852-22.933,27.207v.032l-120.3-69.458Z" transform="translate(520.967 -1216.371)" fill="url(#linear-gradient-7)"/>
    </g>
    <g id="グループ_5070-2" data-name="グループ 5070" transform="translate(759.971 1505.818) rotate(59)">
      <g id="グループ_3349" data-name="グループ 3349" transform="translate(0 21.902)">
        <g id="グループ_3341" data-name="グループ 3341" transform="translate(28.534 47.19)">
          <path id="パス_6121" data-name="パス 6121" d="M9.076,34.536c-6-3.485-9-8.056-9.013-12.634L0,0C.013,4.577,3.016,9.149,9.013,12.634c.1.057.2.111.3.167V34.669C9.235,34.623,9.153,34.581,9.076,34.536Z" transform="translate(0 18.107)" fill="#ebcd44"/>
          <path id="パス_6122" data-name="パス 6122" d="M43.69,30.406c-12.073,6.97-31.6,7.012-43.69.132V8.671c12.1,6.845,31.576,6.791,43.627-.167,4.123-2.38,6.949-5.312,8.284-8.5V22.059C50.551,25.19,47.744,28.065,43.69,30.406Z" transform="translate(9.316 22.237)" fill="#e84f44"/>
          <path id="パス_6123" data-name="パス 6123" d="M.946,39.978A11.04,11.04,0,0,1,0,44.3V22.237a11.011,11.011,0,0,0,.884-4.161L1.031,0l.062,21.9Z" transform="translate(61.23 0)" fill="#e06ac9"/>
        </g>
        <g id="グループ_3342" data-name="グループ 3342" transform="translate(0 30.654)">
          <path id="パス_6124" data-name="パス 6124" d="M17.633,31.711C5.9,38.487.038,47.4.062,56.3L0,34.4C-.024,25.5,5.836,16.586,17.571,9.81,26.982,4.376,38.906.988,51.811,0V21.907C38.93,22.9,27.028,26.287,17.633,31.711Z" transform="translate(0.001 0.328)" fill="#e8be00"/>
          <path id="パス_6125" data-name="パス 6125" d="M8.8,21.931q-4.458-.033-8.8.3V.329C2.871.109,5.79.007,8.738.029L39.122,0l.063,21.9Z" transform="translate(51.812 0)" fill="#5488e8"/>
        </g>
        <g id="グループ_3343" data-name="グループ 3343" transform="translate(119.479 12.52)">
          <path id="パス_6126" data-name="パス 6126" d="M31.254,23.2.062,23.226,0,1.324,31.192,1.3A51.408,51.408,0,0,0,42.718,0V21.916A51.447,51.447,0,0,1,31.254,23.2Z" transform="translate(0 16.786)" fill="#5488e8"/>
          <path id="パス_6127" data-name="パス 6127" d="M10.449,34.715A38.16,38.16,0,0,1,0,38.7V16.786a38.115,38.115,0,0,0,10.386-3.974C16.5,9.282,19.555,4.637,19.542,0L19.6,21.9C19.618,26.54,16.564,31.184,10.449,34.715Z" transform="translate(42.717 0)" fill="#e06ac9"/>
        </g>
        <g id="グループ_3348" data-name="グループ 3348" transform="translate(0.064 0)">
          <g id="グループ_3347" data-name="グループ 3347" transform="translate(0)">
            <g id="グループ_3346" data-name="グループ 3346">
              <path id="パス_6128" data-name="パス 6128" d="M59.818,11.677l-.062,11.45q-.976-.692-2.085-1.339c-11.253-6.539-29.133-6.98-41.351-1.33H0L.077,6.865C23.464-3.261,56.788-2.186,77.922,10.1c.885.514,1.732,1.042,2.548,1.581Z" transform="translate(115.052 0)" fill="#ffe46e"/>
              <g id="グループ_3345" data-name="グループ 3345" transform="translate(0 6.865)">
                <g id="グループ_3344" data-name="グループ 3344" transform="translate(0 0)">
                  <path id="パス_6129" data-name="パス 6129" d="M55.519,16.394A42.508,42.508,0,0,0,37.69,21.5c-12.152,7.016-12.216,18.431-.145,25.447.121.07.246.134.368.2H15.46L15.4,57.491C-5.846,43.958-5.1,22.9,17.57,9.811,26.984,4.375,38.916.986,51.828,0L67.817,9.293Z" transform="translate(0 46.018)" fill="#ffe46e"/>
                  <path id="パス_6130" data-name="パス 6130" d="M66.121,11.231A91.427,91.427,0,0,1,31.3,17.775L0,17.8.136,1.267l31.19-.028A51.5,51.5,0,0,0,42.6,0H66.184Z" transform="translate(119.342 44.4)" fill="#80acff"/>
                  <path id="パス_6131" data-name="パス 6131" d="M41.7,13.592c-.891.413-1.754.854-2.581,1.331-6.011,3.47-9.265,8.085-9.165,12.994L29.8,45.667,29.666,62.2,29.516,80.34a20.8,20.8,0,0,1-.8,5.453L15.274,93.555,0,84.679A11.052,11.052,0,0,0,.968,80.3l.148-18.076.137-16.536L1.4,28.09C1.246,18.7,7.493,9.873,19,3.231A62.737,62.737,0,0,1,25.451,0l-.075,13.592Z" transform="translate(89.677 0)" fill="#ff9ceb"/>
                  <path id="パス_6132" data-name="パス 6132" d="M38.966,16.536l-30.4.029-.238,0c-1.565-.014-3.112.04-4.634.156l12.3-7.1L0,.327Q4.3,0,8.721.029L39.1,0Z" transform="translate(51.827 45.691)" fill="#80acff"/>
                </g>
                <path id="パス_6133" data-name="パス 6133" d="M22.511,8.493c12.1,6.808,31.533,6.743,43.564-.2C70.1,5.964,72.9,3.109,74.274,0L89.549,8.877l13.444-7.762c-2.014,7.115-7.806,13.675-16.8,18.868-23.319,13.463-61.137,13.463-84.3,0Q.917,19.417,0,18.83L.058,8.493Z" transform="translate(15.403 84.678)" fill="#ff786e"/>
              </g>
            </g>
            <path id="パス_6134" data-name="パス 6134" d="M0,39.589a38.307,38.307,0,0,0,10.638-4.03C22.045,28.973,22.8,18.511,12.865,11.451L12.929,0H33.58c20.571,13.545,19.6,34.3-2.823,47.25a64.023,64.023,0,0,1-7.236,3.569l.062-11.231Z" transform="translate(161.941 11.676)" fill="#ff9ceb"/>
          </g>
        </g>
      </g>
      <g id="グループ_3350" data-name="グループ 3350" transform="translate(90.932 0)">
        <path id="パス_6135" data-name="パス 6135" d="M77.909,32C56.758,19.706,23.392,18.64,0,28.794V6.865C23.388-3.261,56.713-2.185,77.847,10.1c.881.511,1.722,1.036,2.534,1.571V33.528Q79.192,32.747,77.909,32Z" transform="translate(24.198 0)" fill="#ebcd44"/>
        <path id="パス_6136" data-name="パス 6136" d="M17.8,25.133C6.456,31.685.226,40.362.209,49.611l0,.381L0,45.692.148,28.268l0-.463c-.027-9.284,6.209-18,17.6-24.574A63.021,63.021,0,0,1,24.2,0V21.929A62.881,62.881,0,0,0,17.8,25.133Z" transform="translate(0 6.864)" fill="#e06ac9"/>
        <path id="パス_6137" data-name="パス 6137" d="M0,21.861V0C9.816,6.459,14.735,14.56,14.758,22.673l.063,21.9C14.8,36.445,9.857,28.327,0,21.861Z" transform="translate(104.578 11.667)" fill="#e06ac9"/>
      </g>
    </g>
    <g id="グループ_5071-2" data-name="グループ 5071" transform="translate(-300.209 298.523)">
      <path id="パス_9061" data-name="パス 9061" d="M1280.367,1437.861l16.916-9.767.555.321,5.5-3.175,64.038,36.972-16.916,9.766-.555-.32-5.5,3.175Z" transform="translate(-20.436 -36.125)" fill="#a8c4e5" opacity="0.4" style="mix-blend-mode: multiply;isolation: isolate"/>
      <ellipse id="楕円形_415" data-name="楕円形 415" cx="25.127" cy="12.483" rx="25.127" ry="12.483" transform="matrix(1, -0.018, 0.018, 1, 1170.355, 1357.468)" fill="#a8c4e5" opacity="0.4" style="mix-blend-mode: multiply;isolation: isolate"/>
      <path id="パス_9062" data-name="パス 9062" d="M1214.521,1413.531l-.466-11.691c.188-2.726,1.929-3.28,3.411-4.539a1.853,1.853,0,0,1,2.332-.03l1.487,1.157c2.2,1.593,1.945,4.546,1.542,6.426l-1.595,10.358C1220.829,1417.092,1215.038,1419.8,1214.521,1413.531Z" transform="translate(-10.767 -31.988)" fill="#2c1f9c"/>
      <path id="パス_9063" data-name="パス 9063" d="M1222.294,1396.8c0,2.778-6.757,2.778-6.757,0v-9.028h6.757Z" transform="translate(-10.983 -30.662)" fill="#c6d2f2"/>
      <path id="パス_9064" data-name="パス 9064" d="M1178.213,1393.946l9.4-9.31a11.749,11.749,0,0,1,6.027-.781,1.853,1.853,0,0,1,1.584,1.711l.139,1.879c.294,2.7.051,3.094-1.615,4.056l-9.887,5.709a6.3,6.3,0,0,1-5.65.234l-.408-.236C1176.364,1396.375,1176.547,1394.907,1178.213,1393.946Z" transform="translate(-5.34 -30.077)" fill="#2c1f9c"/>
      <path id="パス_9065" data-name="パス 9065" d="M1196.312,1382.85c0,2.778-6.757,2.778-6.757,0v-9.028h6.757Z" transform="translate(-7.195 -28.628)" fill="#c6d2f2"/>
      <path id="パス_9066" data-name="パス 9066" d="M1195.9,1366.032c-2.648,1.9-7.027,1.856-8.489-.354a436.468,436.468,0,0,1-6.822-83.4l20.992-6.225C1197.841,1309.979,1193.37,1340,1195.9,1366.032Z" transform="translate(-5.883 -14.373)" fill="#3b2ad1"/>
      <path id="パス_9067" data-name="パス 9067" d="M1220.522,1375.606c-2.14,3.179-6.973,3.2-8.4.9l-14.144-94.829h24.387Z" transform="translate(-8.423 -15.193)" fill="#3b2ad1"/>
      <path id="パス_9068" data-name="パス 9068" d="M1200.687,1304.922l-1.212,8.547-4.661-18.128a28.434,28.434,0,0,0,3.354.644Z" transform="translate(-7.962 -17.185)" fill="#2c1f9c"/>
      <rect id="長方形_834" data-name="長方形 834" width="5.071" height="150.846" transform="translate(1337.134 1431.937) rotate(180)" fill="#9ebbde"/>
      <rect id="長方形_835" data-name="長方形 835" width="5.071" height="150.846" transform="translate(1275.839 1396.023) rotate(180)" fill="#9ebbde"/>
      <path id="パス_9069" data-name="パス 9069" d="M1273.971,1345.863l55.437,32.665c6.825,4.022,15.753-.558,16.651-8.543l15.447-137.345a10.516,10.516,0,0,0-5.083-10.294l-55.437-32.666c-6.825-4.021-15.753.559-16.651,8.544l-15.447,137.345A10.516,10.516,0,0,0,1273.971,1345.863Z" transform="translate(-18.752 -1.563)" fill="#a8c4e5"/>
      <path id="パス_9070" data-name="パス 9070" d="M1354.267,1221.1l-55.437-32.666a10.858,10.858,0,0,0-1.458-.714l-11.165-6.578c-6.825-4.022-15.753.559-16.651,8.543l-15.446,137.345a10.514,10.514,0,0,0,5.082,10.294l55.436,32.666a10.882,10.882,0,0,0,1.459.714l11.164,6.578c6.825,4.022,15.753-.558,16.651-8.543L1359.35,1231.4A10.515,10.515,0,0,0,1354.267,1221.1Z" transform="translate(-16.597 -0.318)" fill="#9ebbde"/>
      <path id="パス_9071" data-name="パス 9071" d="M1302.636,1424.651h0a6.9,6.9,0,0,0-6.209-.257l-16.781,9.688c-1.591.919-1.391,2.524.446,3.585h0a6.9,6.9,0,0,0,6.209.257l16.781-9.688C1304.674,1427.317,1304.474,1425.712,1302.636,1424.651Z" transform="translate(-20.174 -35.911)" fill="#9ebbde"/>
      <path id="パス_9072" data-name="パス 9072" d="M1279.26,1336.6,1337,1371.881l16.624-147.81-50.069-29.5a5.959,5.959,0,0,0-8.836,4.533Z" transform="translate(-20.274 -2.377)" fill="#fdffff"/>
      <path id="パス_9073" data-name="パス 9073" d="M1260.8,1325.2l57.745,35.283,16.623-147.809-50.069-29.5a5.959,5.959,0,0,0-8.836,4.533Z" transform="translate(-17.583 -0.716)" fill="#fdffff"/>
      <path id="パス_9074" data-name="パス 9074" d="M1279.376,1182.8a5.96,5.96,0,0,1,8.836-4.534l14.907,8.784a5.742,5.742,0,0,1,.949.437l45.491,26.806a8.2,8.2,0,0,1,3.984,7.979l-.5,4.431-69.234-39.843c-1.456-.782-3.852.2-5.01,1.054Z" transform="translate(-20.207 0)" fill="#c2def9"/>
      <g id="グループ_5074" data-name="グループ 5074" transform="translate(1259.426 1205.535)">
        <g id="グループ_5073" data-name="グループ 5073">
          <path id="パス_9075" data-name="パス 9075" d="M1353.685,1254.021" transform="translate(-1290.551 -1216.696)" fill="none" stroke="#97cbff" stroke-miterlimit="10" stroke-width="0.676"/>
          <path id="パス_9076" data-name="パス 9076" d="M1296.687,1237.33,1281.745,1228l1.683-17.674,14.942,9.331Z" transform="translate(-1280.062 -1210.324)" fill="none" stroke="#97cbff" stroke-miterlimit="10" stroke-width="0.676"/>
          <path id="パス_9077" data-name="パス 9077" d="M1314.18,1248.254l-14.942-9.331,1.683-17.674,14.942,9.331Z" transform="translate(-1282.613 -1211.917)" fill="none" stroke="#97cbff" stroke-miterlimit="10" stroke-width="0.676"/>
          <path id="パス_9078" data-name="パス 9078" d="M1331.672,1259.178l-14.942-9.331,1.683-17.674,14.942,9.331Z" transform="translate(-1285.163 -1213.51)" fill="none" stroke="#97cbff" stroke-miterlimit="10" stroke-width="0.676"/>
          <path id="パス_9079" data-name="パス 9079" d="M1349.165,1270.1l-14.942-9.331,1.683-17.674,14.942,9.331Z" transform="translate(-1287.714 -1215.103)" fill="none" stroke="#97cbff" stroke-miterlimit="10" stroke-width="0.676"/>
          <path id="パス_9080" data-name="パス 9080" d="M1294.717,1258.021l-14.942-9.331,1.683-17.674,14.942,9.332Z" transform="translate(-1279.775 -1213.341)" fill="none" stroke="#97cbff" stroke-miterlimit="10" stroke-width="0.676"/>
          <path id="パス_9081" data-name="パス 9081" d="M1312.209,1268.946l-14.942-9.332,1.683-17.674,14.942,9.332Z" transform="translate(-1282.325 -1214.934)" fill="none" stroke="#97cbff" stroke-miterlimit="10" stroke-width="0.676"/>
          <path id="パス_9082" data-name="パス 9082" d="M1347.194,1290.794l-14.942-9.332,1.683-17.674,14.942,9.331Z" transform="translate(-1287.426 -1218.119)" fill="none" stroke="#97cbff" stroke-miterlimit="10" stroke-width="0.676"/>
          <path id="パス_9083" data-name="パス 9083" d="M1279.775,1251.707" transform="translate(-1279.775 -1216.358)" fill="none" stroke="#97cbff" stroke-miterlimit="10" stroke-width="0.676"/>
          <line id="線_47" data-name="線 47" x2="14.942" y2="9.331" transform="translate(29.884 54.011)" fill="none" stroke="#97cbff" stroke-miterlimit="10" stroke-width="0.676"/>
          <line id="線_48" data-name="線 48" x2="14.942" y2="9.331" transform="translate(44.826 63.343)" fill="none" stroke="#97cbff" stroke-miterlimit="10" stroke-width="0.676"/>
        </g>
      </g>
      <g id="グループ_5076" data-name="グループ 5076" transform="translate(1265.164 1214.683)">
        <g id="グループ_5075" data-name="グループ 5075">
          <path id="パス_9084" data-name="パス 9084" d="M1286.916,1226.122a.577.577,0,0,0,.683-.32l1.445-3.231,2.744,2.458a.578.578,0,0,0,.771-.861l-3.333-2.986a.578.578,0,0,0-.913.194l-1.768,3.955a.576.576,0,0,0,.291.763A.51.51,0,0,0,1286.916,1226.122Z" transform="translate(-1286.492 -1221.034)" fill="#d138a6"/>
        </g>
      </g>
      <g id="グループ_5077" data-name="グループ 5077" transform="translate(1279.315 1302.309)">
        <path id="パス_9085" data-name="パス 9085" d="M1303.858,1337.6c-1.52,10.8,3.974,22.516,12.868,27.689s17.337.614,18.857-10.183a25.664,25.664,0,0,0,.171-5.34c-.651-9.424-8.384-16.29-15.846-20.63C1311.014,1323.959,1305.378,1326.8,1303.858,1337.6Zm26.42,14.42c-1.02,7.24-6.681,10.3-12.646,6.828a18.775,18.775,0,0,1-7.367-8.893c-1.431-3.355-4.814-7.6-4.334-11.016,1.02-7.24,12.593-13.273,18.557-9.8,4.99,2.9,5.447,12.949,5.9,19.252A17.207,17.207,0,0,1,1330.278,1352.017Z" transform="translate(-1303.139 -1324.055)" fill="#4432db"/>
        <path id="パス_9086" data-name="パス 9086" d="M1322.964,1325.747c-5.443-3.166-10.714-2.681-14.336.642l3.893,6.159c2.426-2.165,5.925-2.462,9.536-.361,4.937,2.871,8.531,9.313,9.045,15.554l5.37,1.45C1335.781,1339.808,1330.391,1330.068,1322.964,1325.747Z" transform="translate(-1303.871 -1323.617)" fill="#ffce43"/>
        <path id="パス_9087" data-name="パス 9087" d="M1305.516,1351.6l4.629-1.819a20.109,20.109,0,0,1-1.545-10.4,10.166,10.166,0,0,1,3.45-6.755l-3.491-6.5c-2.686,2.06-4.613,5.539-5.265,10.167A29.926,29.926,0,0,0,1305.516,1351.6Z" transform="translate(-1303.059 -1323.983)" fill="#add5f7"/>
      </g>
      <path id="パス_9088" data-name="パス 9088" d="M1287.811,1312.4l-10.016-5.782a3.914,3.914,0,0,1-1.629-3.113h0c0-1.194.733-1.749,1.629-1.232l10.016,5.783a3.915,3.915,0,0,1,1.629,3.113h0C1289.44,1312.359,1288.707,1312.914,1287.811,1312.4Z" transform="translate(-19.823 -18.167)" fill="#add5f7"/>
      <path id="パス_9089" data-name="パス 9089" d="M1305.927,1280.614l-10.015-5.782-.006,0-7.244-4.183a2.234,2.234,0,0,0-.222-.158l-10.016-5.782c-.9-.518-1.629.037-1.629,1.232a3.917,3.917,0,0,0,1.629,3.112l8.833,5.1a2.3,2.3,0,0,0,.221.158l10.015,5.782.005,0,8.428,4.866c.9.517,1.63-.038,1.63-1.232A3.917,3.917,0,0,0,1305.927,1280.614Z" transform="translate(-19.915 -12.69)" fill="#add5f7"/>
      <path id="パス_9090" data-name="パス 9090" d="M1329.887,1312.08l-10.015-5.783-.005,0-7.245-4.183a2.164,2.164,0,0,0-.221-.158l-10.015-5.783-.017-.007-7.439-4.295-.005,0-7.245-4.183a2.086,2.086,0,0,0-.221-.158l-10.016-5.782c-.9-.518-1.629.037-1.629,1.231a3.915,3.915,0,0,0,1.629,3.113l8.833,5.1a2.178,2.178,0,0,0,.221.158l10.015,5.782.005,0,8.428,4.866.016.007,6.257,3.612a2.242,2.242,0,0,0,.221.158l10.016,5.782.005,0,8.428,4.865c.9.518,1.629-.037,1.629-1.232A3.914,3.914,0,0,0,1329.887,1312.08Z" transform="translate(-19.771 -15.174)" fill="#add5f7"/>
      <path id="パス_9091" data-name="パス 9091" d="M1285.753,1326.523l-10.015-5.783a3.914,3.914,0,0,1-1.629-3.113h0c0-1.194.733-1.749,1.629-1.231l10.015,5.782a3.915,3.915,0,0,1,1.629,3.113h0C1287.382,1326.486,1286.649,1327.04,1285.753,1326.523Z" transform="translate(-19.523 -20.226)" fill="#add5f7"/>
      <path id="パス_9092" data-name="パス 9092" d="M1283.7,1340.649l-10.015-5.783a3.914,3.914,0,0,1-1.629-3.113h0c0-1.194.733-1.749,1.629-1.231l10.015,5.782a3.916,3.916,0,0,1,1.629,3.113h0C1285.324,1340.613,1284.591,1341.166,1283.7,1340.649Z" transform="translate(-19.223 -22.286)" fill="#add5f7"/>
      <path id="パス_9093" data-name="パス 9093" d="M1376.867,1467.442h0a6.9,6.9,0,0,0-6.209-.257l-16.781,9.688c-1.592.919-1.392,2.524.446,3.585h0a6.9,6.9,0,0,0,6.208.257l16.782-9.688C1378.9,1470.108,1378.7,1468.5,1376.867,1467.442Z" transform="translate(-30.997 -42.149)" fill="#9ebbde"/>
      <path id="パス_9094" data-name="パス 9094" d="M1218.626,1249.067l12.6,25.354a43.714,43.714,0,0,0,2.883,4.9l8.144,15.147,4.451-1.931-7.257-19.915a33.533,33.533,0,0,1-1.434-4.456l-7.552-26.684Z" transform="translate(-11.433 -9.332)" fill="#ffc2b0"/>
      <rect id="長方形_836" data-name="長方形 836" width="6.67" height="9.074" rx="3.335" transform="matrix(0.645, -0.764, 0.764, 0.645, 1228.742, 1283.53)" fill="#ffc2b0"/>
      <path id="パス_9095" data-name="パス 9095" d="M1175.452,1235.092l-8.107,13.2c-1.482,2.923-4.7,8.258-5.779,14.309l-11.023-4.33.39,3.047,14.6,6.461c-1.269-7.045,3.053-7.6,5.515-10.571,4.321-5.217,8.609-10.422,8.653-10.648C1179.769,1246.2,1175.452,1235.092,1175.452,1235.092Z" transform="translate(-1.507 -8.4)" fill="#ffc2b0"/>
      <path id="パス_9096" data-name="パス 9096" d="M1182.526,1222.029l-9.5,17.8c1.551,6.195,4.908,9.346,9.149,11.01l3.6-24.081Z" transform="translate(-4.785 -6.496)" fill="#7b9dc9"/>
      <path id="パス_9097" data-name="パス 9097" d="M1174.545,1237.123s3.106,7.937,13.283,11.418" transform="translate(-5.006 -8.696)" fill="none" stroke="#fff" stroke-linecap="round" stroke-linejoin="round" stroke-width="0.791"/>
      <path id="パス_9098" data-name="パス 9098" d="M1179.607,1271.114a110.859,110.859,0,0,0,.754-33.687c0-18.328,6.925-25.112,18.472-20.9l4.771,1.268c13.936,7.507,21.014,7.131,18.522,21.879l-2.44,32.331C1219.686,1288.649,1178.72,1290.68,1179.607,1271.114Z" transform="translate(-5.742 -5.518)" fill="#9ebbde"/>
      <path id="パス_9099" data-name="パス 9099" d="M1218.626,1250.362l6.008,24.949.72,2.429.883-12.025Z" transform="translate(-11.434 -10.627)" fill="#7b9dc9"/>
      <path id="パス_9100" data-name="パス 9100" d="M1201.582,1212.993a9.878,9.878,0,0,0,3.07,1.276c.941,0,9.006-9.86,3.663-17.915-3.383-5.1-12.99,1.45-12.99,1.45Z" transform="translate(-8.036 -2.469)" fill="#875963"/>
      <path id="パス_9101" data-name="パス 9101" d="M1202.745,1223.1l-.554.095a3.461,3.461,0,0,1-3.98-2.825l-1.792-10.553a3.461,3.461,0,0,1,2.825-3.98l.554-.095a3.461,3.461,0,0,1,3.981,2.825l3.213,9.887C1207.308,1220.326,1204.616,1222.783,1202.745,1223.1Z" transform="translate(-8.188 -4.114)" fill="#ffc2b0"/>
      <path id="パス_9102" data-name="パス 9102" d="M1217.054,1242.7l6.965,19.741c.988,1.531,15.234-5.677,14.017-8.03-.214-.415-7.8-24.26-15.953-28.109C1215.46,1223.181,1213.394,1233.711,1217.054,1242.7Z" transform="translate(-10.943 -7.037)" fill="#9ebbde"/>
      <path id="パス_9103" data-name="パス 9103" d="M1223.226,1260.909s7.858-.073,14.195-7.7" transform="translate(-12.104 -11.042)" fill="none" stroke="#fff" stroke-linecap="round" stroke-linejoin="round" stroke-width="0.729"/>
      <g id="グループ_5078" data-name="グループ 5078" transform="translate(1140.208 1233.684)">
        <path id="パス_9104" data-name="パス 9104" d="M1181.409,1266.736l-2.678-.944-.314-.316-.2-.358-20.173-10.49a1.033,1.033,0,0,0-.894.036l-7.7,4.516-.013-.125-1.453.581.066.6h.01a.333.333,0,0,0,.161.156l20.992,10.916a.118.118,0,0,1,.055.082c.438,1.607,1.17,3.046,2.542,2.211l8.529-5.027a2.047,2.047,0,0,0,1.074-1.835Z" transform="translate(-1141.341 -1244.921)" fill="#a8c4e5"/>
        <path id="パス_9105" data-name="パス 9105" d="M1169.676,1272.825l-24.174-12.571c-.28-.145-.275-.4.012-.57l10.272-6.024a1.191,1.191,0,0,1,1.03-.041l24.174,12.571c.28.145.274.4-.012.57l-10.272,6.024A1.194,1.194,0,0,1,1169.676,1272.825Z" transform="translate(-1140.95 -1244.772)" fill="#e1eaf4"/>
        <path id="パス_9106" data-name="パス 9106" d="M1173.624,1265.843l-5.85-3.043c-.068-.035-.067-.1,0-.138l2.487-1.458a.285.285,0,0,1,.249-.009l5.851,3.042c.068.035.066.1,0,.138l-2.486,1.457A.288.288,0,0,1,1173.624,1265.843Z" transform="translate(-1144.22 -1245.887)" fill="#a8c4e5"/>
        <path id="パス_9107" data-name="パス 9107" d="M1166.834,1257.184a2.735,2.735,0,0,0-1.216-1.516l-23.979-12.285a.609.609,0,0,0-.509-.076h0l0,0a.268.268,0,0,0-.108.086l-.668.752.675-.058,3.6,13.283a2.738,2.738,0,0,0,1.215,1.516l22.674,11.616.772.742.106.182c.442.09,1.4-.613,1.4-.613Z" transform="translate(-1140.229 -1243.278)" fill="#fff"/>
        <path id="パス_9108" data-name="パス 9108" d="M1169.082,1272.112l-23.979-12.285a2.737,2.737,0,0,1-1.215-1.516l-3.637-13.431c-.156-.573.137-.823.653-.559l23.979,12.285a2.737,2.737,0,0,1,1.216,1.516l3.637,13.431C1169.891,1272.127,1169.6,1272.376,1169.082,1272.112Z" transform="translate(-1140.208 -1243.415)" fill="#5445d9"/>
        <path id="パス_9109" data-name="パス 9109" d="M1157.638,1261.219c.194.714-.467.874-1.475.357a4.573,4.573,0,0,1-2.175-2.227c-.193-.713.467-.873,1.475-.357A4.575,4.575,0,0,1,1157.638,1261.219Z" transform="translate(-1142.212 -1245.525)" fill="#fff"/>
      </g>
      <path id="パス_9110" data-name="パス 9110" d="M1197.839,1218.115a9.449,9.449,0,0,0,7.488-4.245s-2.852,6.629-6.987,7.2Z" transform="translate(-8.403 -5.306)" fill="#f09a82"/>
      <path id="パス_9111" data-name="パス 9111" d="M1201.164,1209.258c0,5.149-3.153,7.5-7.042,5.258s-7.042-8.24-7.042-13.389,3.153-7.5,7.042-5.258S1201.164,1204.11,1201.164,1209.258Z" transform="translate(-6.834 -2.558)" fill="#ffc2b0"/>
      <path id="パス_9112" data-name="パス 9112" d="M1206.278,1205.948c0,5.149-4.606,8.333-8.495,6.088s-7.042-8.24-7.042-13.389,3.153-7.5,7.042-5.257S1206.278,1200.8,1206.278,1205.948Z" transform="translate(-7.368 -2.196)" fill="#ffc2b0"/>
      <path id="パス_9113" data-name="パス 9113" d="M1196.751,1196.666s2.451,9.23,10.226,8.472c0,0,6.113-7.65-3.014-13.888-8.044-5.5-14,3.411-14,3.411Z" transform="translate(-7.254 -1.747)" fill="#875963"/>
      <path id="パス_9114" data-name="パス 9114" d="M1187.253,1203.612a9.054,9.054,0,0,1,6.089-5.641l-3.844-2.422S1185.491,1196.363,1187.253,1203.612Z" transform="translate(-6.794 -2.635)" fill="#21ded5"/>
      <path id="パス_9115" data-name="パス 9115" d="M1201.4,1200.284c-2.482-1.552-6,0-10.341,3.989-4.6,2.136-7.373-3.005-7.373-3.005-1.875-2.585-.479-4.63,2.1-6.5l6.731-4.884c3.8-2.787,9.27-.91,11.146,1.674l.382.4C1205.928,1194.534,1203.988,1198.408,1201.4,1200.284Z" transform="translate(-6.214 -1.607)" fill="#875963"/>
      <path id="パス_9116" data-name="パス 9116" d="M1210.065,1208.807a2.267,2.267,0,1,1-2.267-2.267A2.267,2.267,0,0,1,1210.065,1208.807Z" transform="translate(-9.524 -4.237)" fill="#ffc2b0"/>
      <g id="グループ_5080" data-name="グループ 5080" transform="translate(1185.448 1207.561)">
        <g id="グループ_5079" data-name="グループ 5079">
          <path id="パス_9117" data-name="パス 9117" d="M1193.17,1212.88l5.568-.184s-1.4,3.241-2.986,3.02S1193.17,1212.88,1193.17,1212.88Z" transform="translate(-1193.17 -1212.696)" fill="#fff"/>
        </g>
      </g>
      <path id="パス_9118" data-name="パス 9118" d="M1289.478,1222.833l4.771,20.944,11.583-4.122,6.925,16.116,9.843-4.444,4.391,13.927,11.145,14.9" transform="translate(-21.764 -6.613)" fill="none" stroke="#d138a6" stroke-linecap="round" stroke-linejoin="round" stroke-width="1.97"/>
      <path id="パス_9119" data-name="パス 9119" d="M1342.879,1245.929l-3.765,42.261-62.281-38.878" transform="translate(-19.92 -9.98)" fill="none" stroke="#4432db" stroke-linecap="round" stroke-linejoin="round" stroke-width="0.985"/>
    </g>
    <g id="グループ_5081" data-name="グループ 5081" transform="translate(860.646 1698.498)">
      <g id="グループ_5082" data-name="グループ 5082" transform="translate(0 0)">
        <g id="グループ_5081-2" data-name="グループ 5081">
          <path id="パス_9120" data-name="パス 9120" d="M751.171,1351.361l-18.526,10.768v30.356l18.526-10.768c.031-.017.053-.036.082-.054a3.787,3.787,0,0,0,2.072-2.909v-30.422Z" transform="translate(-701.311 -1333.243)" fill="#b4cae9"/>
          <path id="パス_9121" data-name="パス 9121" d="M711.636,1351.372a3.725,3.725,0,0,1-2.2-3.072v30.356a3.7,3.7,0,0,0,2.178,3.072l18.662,10.768V1362.14Z" transform="translate(-709.438 -1333.254)" fill="#cedbf0"/>
          <path id="パス_9122" data-name="パス 9122" d="M735.367,1358.55H724.873v30.356a7.661,7.661,0,0,0,1.053.51c.02.008.042.013.062.022a12.022,12.022,0,0,0,7.911.108,8.334,8.334,0,0,0,1.468-.64Z" transform="translate(-704.033 -1329.665)" fill="url(#linear-gradient-8)"/>
          <path id="パス_9123" data-name="パス 9123" d="M759.289,1349.186l-18.65-10.768a11.6,11.6,0,0,0-10.522,0l-18.53,10.769c-2.883,1.674-2.867,4.4.049,6.087l18.642,10.768a11.59,11.59,0,0,0,10.494,0l18.526-10.768C762.193,1353.59,762.191,1350.862,759.289,1349.186Z" transform="translate(-709.438 -1337.156)" fill="#e9edf7"/>
        </g>
      </g>
      <g id="グループ_5089" data-name="グループ 5089" transform="translate(10.749 5.273)">
        <g id="グループ_5083" data-name="グループ 5083" transform="translate(7.169 8.988)">
          <path id="パス_9124" data-name="パス 9124" d="M745.2,1351.454a12.949,12.949,0,0,1-5.706,3.828,25.4,25.4,0,0,1-16.781,0l8.348-7.562Z" transform="translate(-722.709 -1347.719)" fill="#97aeda"/>
        </g>
        <g id="グループ_5088" data-name="グループ 5088" style="isolation: isolate">
          <g id="グループ_5084" data-name="グループ 5084" transform="translate(15.518 0.365)">
            <path id="パス_9125" data-name="パス 9125" d="M739.83,1343.6q.393.227.756.469l-11.694,5.884,4.323-8.624A19.989,19.989,0,0,1,739.83,1343.6Z" transform="translate(-728.892 -1341.332)" fill="#e73f68"/>
          </g>
          <g id="グループ_5085-2" data-name="グループ 5085" transform="translate(15.518 3.104)">
            <path id="パス_9126" data-name="パス 9126" d="M744.408,1349.245a5.976,5.976,0,0,1-1.377,3.735l-14.139-3.735,11.694-5.884a8.172,8.172,0,0,1,3.656,4.607A5.078,5.078,0,0,1,744.408,1349.245Z" transform="translate(-728.892 -1343.361)" fill="#cedbf0"/>
          </g>
          <g id="グループ_5087" data-name="グループ 5087">
            <g id="グループ_5086" data-name="グループ 5086">
              <path id="パス_9127" data-name="パス 9127" d="M737.24,1341.427l-4.323,8.624-8.348,7.562a17.092,17.092,0,0,1-2.59-1.207,11.074,11.074,0,0,1-3.159-2.62,6.05,6.05,0,0,1-1.42-3.736,5.326,5.326,0,0,1,.153-1.277,8.076,8.076,0,0,1,3.6-4.607,19.019,19.019,0,0,1,7.341-2.74,26.4,26.4,0,0,1,8.744,0Z" transform="translate(-717.399 -1341.062)" fill="#002581"/>
            </g>
          </g>
        </g>
      </g>
    </g>
    <g id="グループ_5082-2" data-name="グループ 5082" transform="translate(626.506 1460.699)">
      <g id="グループ_5092" data-name="グループ 5092" transform="translate(0 29.154)">
        <g id="グループ_5091" data-name="グループ 5091">
          <path id="パス_9128" data-name="パス 9128" d="M814.013,1314.989l-18.524,10.768v30.358l18.524-10.769c.031-.018.053-.035.084-.054a3.787,3.787,0,0,0,2.071-2.91v-30.422Z" transform="translate(-764.154 -1296.872)" fill="#b4cae9"/>
          <path id="パス_9129" data-name="パス 9129" d="M774.479,1315a3.728,3.728,0,0,1-2.2-3.072v30.356a3.7,3.7,0,0,0,2.178,3.072l18.662,10.769v-30.357Z" transform="translate(-772.281 -1296.883)" fill="#cedbf0"/>
          <path id="パス_9130" data-name="パス 9130" d="M798.211,1322.178H787.716v30.358a8.014,8.014,0,0,0,1.053.51c.02.008.043.013.063.021a12.026,12.026,0,0,0,7.909.108,8.6,8.6,0,0,0,1.469-.64Z" transform="translate(-766.876 -1293.293)" fill="url(#linear-gradient-9)"/>
          <path id="パス_9131" data-name="パス 9131" d="M822.134,1312.815l-18.651-10.768a11.591,11.591,0,0,0-10.522,0l-18.53,10.768c-2.883,1.676-2.866,4.4.049,6.087l18.642,10.768a11.584,11.584,0,0,0,10.495,0L822.14,1318.9C825.036,1317.218,825.034,1314.49,822.134,1312.815Z" transform="translate(-772.281 -1300.785)" fill="#e9edf7"/>
        </g>
      </g>
      <g id="グループ_5101" data-name="グループ 5101" transform="translate(16.801 0)">
        <g id="グループ_5094" data-name="グループ 5094" transform="translate(10.288)">
          <g id="グループ_5093" data-name="グループ 5093">
            <path id="パス_9132" data-name="パス 9132" d="M793.768,1279.193l-1.424.822,1.424.822,1.424-.822Z" transform="translate(-792.344 -1279.193)" fill="#ec82ac"/>
            <path id="パス_9133" data-name="パス 9133" d="M792.344,1279.8v41.388l1.424.822v-41.388Z" transform="translate(-792.344 -1278.979)" fill="#eb6d94"/>
            <path id="パス_9134" data-name="パス 9134" d="M793.4,1280.623v41.388l1.424-.822V1279.8Z" transform="translate(-791.975 -1278.979)" fill="#ca0049"/>
          </g>
        </g>
        <g id="グループ_5096" data-name="グループ 5096" transform="translate(5.144 16.714)">
          <g id="グループ_5095" data-name="グループ 5095">
            <path id="パス_9135" data-name="パス 9135" d="M789.958,1291.572l-1.424.822,1.424.822,1.424-.822Z" transform="translate(-788.535 -1291.572)" fill="#434b9a"/>
            <path id="パス_9136" data-name="パス 9136" d="M788.535,1292.18v27.7l1.424.822V1293Z" transform="translate(-788.535 -1291.359)" fill="#313d91"/>
            <path id="パス_9137" data-name="パス 9137" d="M789.589,1293v27.7l1.424-.822v-27.7Z" transform="translate(-788.165 -1291.359)" fill="#002581"/>
          </g>
        </g>
        <g id="グループ_5098" data-name="グループ 5098" transform="translate(15.432 7.415)">
          <g id="グループ_5097" data-name="グループ 5097">
            <path id="パス_9138" data-name="パス 9138" d="M797.578,1284.685l-1.424.822,1.424.822,1.424-.822Z" transform="translate(-796.154 -1284.685)" fill="#434b9a"/>
            <path id="パス_9139" data-name="パス 9139" d="M796.154,1285.293v31.01l1.424.822v-31.01Z" transform="translate(-796.154 -1284.472)" fill="#313d91"/>
            <path id="パス_9140" data-name="パス 9140" d="M797.209,1286.116v31.01l1.424-.822v-31.01Z" transform="translate(-795.785 -1284.472)" fill="#002581"/>
          </g>
        </g>
        <g id="グループ_5100" data-name="グループ 5100" transform="translate(0 25.464)">
          <g id="グループ_5099" data-name="グループ 5099">
            <path id="パス_9141" data-name="パス 9141" d="M786.148,1298.052l-1.424.822,1.424.822,1.424-.822Z" transform="translate(-784.724 -1298.052)" fill="#434b9a"/>
            <path id="パス_9142" data-name="パス 9142" d="M784.724,1298.661v21.954l1.424.822v-21.954Z" transform="translate(-784.724 -1297.839)" fill="#313d91"/>
            <path id="パス_9143" data-name="パス 9143" d="M785.779,1299.483v21.954l1.424-.822v-21.954Z" transform="translate(-784.355 -1297.839)" fill="#002581"/>
          </g>
        </g>
      </g>
    </g>
  </g>
</svg>
