<svg xmlns="http://www.w3.org/2000/svg" xmlns:xlink="http://www.w3.org/1999/xlink" width="465" height="310" viewBox="0 0 465 310"><defs><clipPath id="a"><rect width="465" height="310" transform="translate(698 860)" fill="#fff"/></clipPath><linearGradient id="b" x1="97.11" y1="79.841" x2="97.821" y2="79.841" gradientUnits="objectBoundingBox"><stop offset="0" stop-color="#cedbf0"/><stop offset="1" stop-color="#b4cae9"/></linearGradient><linearGradient id="c" x1="97.098" y1="79.839" x2="97.809" y2="79.839" xlink:href="#b"/></defs><g transform="translate(-698 -860)" clip-path="url(#a)"><g transform="translate(119.735 -534)"><g transform="translate(578.265 1371)" fill="none" stroke="#b3b3b3" stroke-width="1" opacity="0"><rect width="461" height="337" stroke="none"/><rect x="0.5" y="0.5" width="460" height="336" fill="none"/></g><g transform="translate(695.598 1471.398) rotate(59)"><g transform="translate(0 18.597)"><g transform="translate(24.228 40.069)"><path d="M7.707,29.325C2.614,26.365.065,22.484.053,18.6L0,0C.011,3.886,2.561,7.768,7.653,10.727c.084.048.171.094.257.142V29.438C7.842,29.4,7.772,29.363,7.707,29.325Z" transform="translate(0 15.374)" fill="#ebcd44"/><path d="M37.1,25.818C26.846,31.736,10.267,31.771,0,25.93V7.362c10.27,5.812,26.811,5.766,37.044-.142C40.545,5.2,42.945,2.71,44.078,0V18.73C42.923,21.389,40.54,23.83,37.1,25.818Z" transform="translate(7.91 18.881)" fill="#e84f44"/><path d="M.8,33.945A9.374,9.374,0,0,1,0,37.612V18.882a9.35,9.35,0,0,0,.75-3.533L.876,0,.929,18.6Z" transform="translate(51.99 0)" fill="#e06ac9"/></g><g transform="translate(0 26.028)"><path d="M14.973,26.926C5.007,32.68.033,40.248.053,47.8L0,29.208C-.02,21.651,4.956,14.083,14.92,8.33,22.911,3.716,33.035.839,43.993,0V18.6C33.056,19.444,22.95,22.32,14.973,26.926Z" transform="translate(0 0.279)" fill="#e8be00"/><path d="M7.473,18.621Q3.688,18.593,0,18.88V.279C2.438.093,4.916.006,7.42.024L33.219,0l.053,18.6Z" transform="translate(43.993 0)" fill="#5488e8"/></g><g transform="translate(101.45 10.631)"><path d="M26.538,19.7.053,19.721,0,1.124,26.485,1.1A43.65,43.65,0,0,0,36.272,0V18.609A43.684,43.684,0,0,1,26.538,19.7Z" transform="translate(0 14.253)" fill="#5488e8"/><path d="M8.873,29.476A32.4,32.4,0,0,1,0,32.862V14.253a32.364,32.364,0,0,0,8.819-3.374C14.011,7.881,16.6,3.938,16.593,0l.053,18.6C16.658,22.535,14.065,26.479,8.873,29.476Z" transform="translate(36.271 0)" fill="#e06ac9"/></g><g transform="translate(0.054 0)"><g transform="translate(0 0)"><g transform="translate(0)"><path d="M50.792,9.915l-.053,9.722q-.828-.587-1.77-1.137c-9.555-5.552-24.737-5.927-35.111-1.13H0L.065,5.829c19.858-8.6,48.154-7.685,66.1,2.743.752.437,1.47.885,2.164,1.342Z" transform="translate(97.691 0)" fill="#ffe46e"/><g transform="translate(0 5.829)"><g transform="translate(0 0)"><path d="M47.141,13.92A36.094,36.094,0,0,0,32,18.258c-10.318,5.957-10.373,15.65-.123,21.607.1.059.209.114.313.173H13.127l-.049,8.778C-4.964,37.325-4.327,19.442,14.919,8.33,22.912,3.715,33.044.837,44.007,0L57.583,7.891Z" transform="translate(0 39.074)" fill="#ffe46e"/><path d="M56.144,9.536a77.631,77.631,0,0,1-29.57,5.557L0,15.116.116,1.076,26.6,1.052A43.732,43.732,0,0,0,36.171,0H56.2Z" transform="translate(101.333 37.7)" fill="#80acff"/><path d="M35.4,11.541c-.756.351-1.489.725-2.192,1.13-5.1,2.947-7.867,6.865-7.782,11.033L25.3,38.776l-.114,14.041-.127,15.4a17.662,17.662,0,0,1-.676,4.63L12.969,79.438,0,71.9a9.384,9.384,0,0,0,.822-3.714L.948,52.838,1.064,38.8l.126-14.945C1.058,15.877,6.362,8.383,16.131,2.743A53.27,53.27,0,0,1,21.611,0l-.064,11.541Z" transform="translate(76.145 0)" fill="#ff9ceb"/><path d="M33.086,14.041,7.27,14.066l-.2,0c-1.329-.012-2.643.034-3.935.133l10.444-6.03L0,.277Q3.649,0,7.405.025L33.2,0Z" transform="translate(44.007 38.796)" fill="#80acff"/></g><path d="M19.114,7.211c10.275,5.781,26.774,5.725,36.99-.173C59.526,5.064,61.9,2.64,63.066,0l12.97,7.537L87.451.946c-1.71,6.041-6.628,11.612-14.264,16.021C53.387,28.4,21.275,28.4,1.6,16.968q-.826-.481-1.6-.979L.049,7.211Z" transform="translate(13.078 71.9)" fill="#ff786e"/></g></g><path d="M0,33.615a32.526,32.526,0,0,0,9.033-3.422C18.718,24.6,19.36,15.718,10.924,9.723L10.978,0H28.513c17.467,11.5,16.646,29.126-2.4,40.12a54.362,54.362,0,0,1-6.144,3.031l.053-9.536Z" transform="translate(137.504 9.914)" fill="#ff9ceb"/></g></g></g><g transform="translate(77.211 0)"><path d="M66.153,27.169C48.193,16.732,19.862,15.827,0,24.449V5.828c19.859-8.6,48.155-7.684,66.1,2.744.748.434,1.462.879,2.152,1.334V28.469Q67.242,27.805,66.153,27.169Z" transform="translate(20.546 0)" fill="#ebcd44"/><path d="M15.118,21.34C5.482,26.9.192,34.272.178,42.125v.324L0,38.8.126,24l0-.393C.1,15.726,5.4,8.326,15.065,2.743A53.511,53.511,0,0,1,20.546,0V18.62A53.392,53.392,0,0,0,15.118,21.34Z" transform="translate(0 5.829)" fill="#e06ac9"/><path d="M0,18.562V0C8.335,5.485,12.512,12.363,12.532,19.251l.053,18.6C12.565,30.946,8.37,24.052,0,18.562Z" transform="translate(88.797 9.906)" fill="#e06ac9"/></g></g><g transform="translate(798.629 1423.442)"><path d="M1280.367,1436.361l14.906-8.606.489.282,4.846-2.8,56.426,32.578-14.906,8.605-.489-.282-4.846,2.8Z" transform="translate(-1174.874 -1238.758)" fill="#a8c4e5" opacity="0.4" style="mix-blend-mode:multiply;isolation:isolate"/><ellipse cx="22.141" cy="10.999" rx="22.141" ry="10.999" transform="matrix(1, -0.018, 0.018, 1, 26.563, 158.597)" fill="#a8c4e5" opacity="0.4" style="mix-blend-mode:multiply;isolation:isolate"/><path d="M1214.466,1411.551l-.411-10.3c.166-2.4,1.7-2.89,3.005-4a1.632,1.632,0,0,1,2.055-.026l1.311,1.019c1.941,1.4,1.714,4.006,1.359,5.662l-1.405,9.127C1220.024,1414.689,1214.921,1417.075,1214.466,1411.551Z" transform="translate(-1158.473 -1231.741)" fill="#2c1f9c"/><path d="M1221.49,1395.731c0,2.448-5.953,2.448-5.953,0v-7.955h5.953Z" transform="translate(-1158.84 -1229.491)" fill="#c6d2f2"/><path d="M1178.049,1392.736l8.285-8.2a10.354,10.354,0,0,1,5.311-.689,1.633,1.633,0,0,1,1.4,1.508l.123,1.656c.259,2.381.045,2.726-1.423,3.574l-8.712,5.03a5.552,5.552,0,0,1-4.978.206l-.36-.208C1176.42,1394.876,1176.581,1393.583,1178.049,1392.736Z" transform="translate(-1149.267 -1228.499)" fill="#2c1f9c"/><path d="M1195.509,1381.777c0,2.448-5.953,2.448-5.953,0v-7.955h5.953Z" transform="translate(-1152.413 -1226.04)" fill="#c6d2f2"/><path d="M1194.077,1355.337c-2.333,1.674-6.191,1.635-7.48-.312a384.568,384.568,0,0,1-6.011-73.484l18.5-5.485C1195.786,1305.946,1191.847,1332.4,1194.077,1355.337Z" transform="translate(-1150.188 -1201.859)" fill="#3b2ad1"/><path d="M1217.842,1364.442c-1.886,2.8-6.144,2.819-7.4.8l-12.463-83.557h21.489Z" transform="translate(-1154.497 -1203.25)" fill="#3b2ad1"/><path d="M1199.989,1303.783l-1.068,7.531-4.107-15.973a25.067,25.067,0,0,0,2.955.568Z" transform="translate(-1153.714 -1206.629)" fill="#2c1f9c"/><rect width="4.468" height="132.916" transform="translate(173.518 224.214) rotate(180)" fill="#9ebbde"/><rect width="4.468" height="132.916" transform="translate(119.509 192.569) rotate(180)" fill="#9ebbde"/><path d="M1273.358,1327.122l48.847,28.782a9.9,9.9,0,0,0,14.672-7.527l13.61-121.019a9.266,9.266,0,0,0-4.479-9.07l-48.847-28.783a9.9,9.9,0,0,0-14.671,7.528l-13.61,121.019A9.266,9.266,0,0,0,1273.358,1327.122Z" transform="translate(-1172.018 -1180.128)" fill="#a8c4e5"/><path d="M1342.354,1216.176l-48.847-28.784a9.589,9.589,0,0,0-1.285-.629l-9.838-5.8a9.9,9.9,0,0,0-14.672,7.527l-13.61,121.019a9.264,9.264,0,0,0,4.478,9.07l48.846,28.783a9.569,9.569,0,0,0,1.286.629l9.837,5.8a9.9,9.9,0,0,0,14.672-7.527l13.61-121.019A9.265,9.265,0,0,0,1342.354,1216.176Z" transform="translate(-1168.363 -1178.016)" fill="#9ebbde"/><path d="M1299.776,1424.547h0a6.079,6.079,0,0,0-5.471-.227l-14.787,8.537c-1.4.81-1.226,2.224.393,3.159h0a6.079,6.079,0,0,0,5.471.227l14.786-8.537C1301.571,1426.9,1301.395,1425.482,1299.776,1424.547Z" transform="translate(-1174.43 -1238.395)" fill="#9ebbde"/><path d="M1279.26,1319.621l50.881,31.09,14.648-130.241-44.117-26a5.25,5.25,0,0,0-7.785,3.994Z" transform="translate(-1174.601 -1181.509)" fill="#fdffff"/><path d="M1260.8,1308.227l50.882,31.09,14.647-130.24-44.117-26a5.251,5.251,0,0,0-7.786,3.994Z" transform="translate(-1170.036 -1178.691)" fill="#fdffff"/><path d="M1279.307,1182.166a5.251,5.251,0,0,1,7.786-4l13.135,7.74a5.046,5.046,0,0,1,.836.385l40.084,23.619a7.225,7.225,0,0,1,3.51,7.031l-.439,3.9-61.005-35.107c-1.283-.689-3.394.178-4.414.929Z" transform="translate(-1174.487 -1177.477)" fill="#c2def9"/><g transform="translate(105.047 24.723)"><path d="M1353.685,1254.021" transform="translate(-1298.056 -1221.132)" fill="none" stroke="#97cbff" stroke-miterlimit="10" stroke-width="0.676"/><path d="M1294.911,1234.12l-13.166-8.222,1.483-15.573,13.166,8.222Z" transform="translate(-1280.262 -1210.325)" fill="none" stroke="#97cbff" stroke-miterlimit="10" stroke-width="0.676"/><path d="M1312.4,1245.044l-13.166-8.222,1.483-15.574,13.166,8.222Z" transform="translate(-1284.589 -1213.026)" fill="none" stroke="#97cbff" stroke-miterlimit="10" stroke-width="0.676"/><path d="M1329.9,1255.968l-13.166-8.222,1.483-15.574,13.166,8.222Z" transform="translate(-1288.915 -1215.728)" fill="none" stroke="#97cbff" stroke-miterlimit="10" stroke-width="0.676"/><path d="M1347.389,1266.893l-13.166-8.222,1.483-15.573,13.166,8.222Z" transform="translate(-1293.242 -1218.43)" fill="none" stroke="#97cbff" stroke-miterlimit="10" stroke-width="0.676"/><path d="M1292.941,1254.811l-13.166-8.222,1.483-15.574,13.166,8.223Z" transform="translate(-1279.775 -1215.442)" fill="none" stroke="#97cbff" stroke-miterlimit="10" stroke-width="0.676"/><path d="M1310.433,1265.736l-13.166-8.222,1.483-15.573,13.166,8.222Z" transform="translate(-1284.101 -1218.144)" fill="none" stroke="#97cbff" stroke-miterlimit="10" stroke-width="0.676"/><path d="M1345.418,1287.584l-13.166-8.222,1.483-15.574,13.166,8.222Z" transform="translate(-1292.754 -1223.548)" fill="none" stroke="#97cbff" stroke-miterlimit="10" stroke-width="0.676"/><path d="M1279.775,1251.707" transform="translate(-1279.775 -1220.56)" fill="none" stroke="#97cbff" stroke-miterlimit="10" stroke-width="0.676"/><line x2="13.166" y2="8.222" transform="translate(26.332 47.591)" fill="none" stroke="#97cbff" stroke-miterlimit="10" stroke-width="0.676"/><line x2="13.166" y2="8.222" transform="translate(39.498 55.814)" fill="none" stroke="#97cbff" stroke-miterlimit="10" stroke-width="0.676"/></g><g transform="translate(110.103 32.784)"><path d="M1286.865,1225.518a.508.508,0,0,0,.6-.282l1.273-2.847,2.417,2.166a.509.509,0,0,0,.68-.759l-2.937-2.631a.509.509,0,0,0-.8.171l-1.558,3.485a.508.508,0,0,0,.257.672A.44.44,0,0,0,1286.865,1225.518Z" transform="translate(-1286.492 -1221.034)" fill="#d138a6"/></g><g transform="translate(122.572 109.994)"><path d="M1303.828,1336.292c-1.34,9.514,3.5,19.84,11.339,24.4s15.276.541,16.615-8.972a22.612,22.612,0,0,0,.15-4.706c-.573-8.3-7.387-14.354-13.963-18.178C1310.133,1324.276,1305.168,1326.779,1303.828,1336.292Zm23.28,12.707c-.9,6.38-5.887,9.073-11.143,6.017a16.544,16.544,0,0,1-6.491-7.836c-1.261-2.956-4.242-6.7-3.819-9.706.9-6.379,11.1-11.7,16.352-8.639,4.4,2.558,4.8,11.41,5.2,16.964A15.15,15.15,0,0,1,1327.108,1349Z" transform="translate(-1303.194 -1324.361)" fill="#4432db"/><path d="M1321.26,1325.494c-4.8-2.79-9.441-2.363-12.632.566l3.43,5.427c2.138-1.908,5.22-2.169,8.4-.318,4.35,2.53,7.517,8.206,7.97,13.705l4.732,1.277C1332.554,1337.884,1327.8,1329.3,1321.26,1325.494Z" transform="translate(-1304.436 -1323.616)" fill="#ffce43"/><path d="M1305.224,1348.571l4.079-1.6a17.718,17.718,0,0,1-1.361-9.161,8.959,8.959,0,0,1,3.04-5.952l-3.076-5.726c-2.367,1.815-4.064,4.88-4.639,8.958A26.368,26.368,0,0,0,1305.224,1348.571Z" transform="translate(-1303.059 -1324.238)" fill="#add5f7"/></g><path d="M1286.427,1311.17l-8.825-5.095a3.449,3.449,0,0,1-1.435-2.743h0c0-1.052.646-1.541,1.435-1.085l8.825,5.1a3.45,3.45,0,0,1,1.435,2.743h0C1287.863,1311.137,1287.217,1311.626,1286.427,1311.17Z" transform="translate(-1173.836 -1208.295)" fill="#add5f7"/><path d="M1302.464,1278.7l-8.824-5.095-.005,0-6.383-3.686a1.991,1.991,0,0,0-.2-.139l-8.825-5.095c-.789-.456-1.435.032-1.435,1.085a3.451,3.451,0,0,0,1.435,2.742l7.783,4.493a2.022,2.022,0,0,0,.195.139l8.825,5.095,0,0,7.427,4.288c.789.455,1.436-.033,1.436-1.085A3.451,3.451,0,0,0,1302.464,1278.7Z" transform="translate(-1173.991 -1199.004)" fill="#add5f7"/><path d="M1323.459,1308.451l-8.825-5.1,0,0-6.384-3.686a1.921,1.921,0,0,0-.195-.139l-8.825-5.1-.015-.006-6.555-3.784,0,0-6.384-3.686a1.851,1.851,0,0,0-.195-.139l-8.825-5.095c-.79-.456-1.435.032-1.435,1.085a3.449,3.449,0,0,0,1.435,2.743l7.783,4.493a1.917,1.917,0,0,0,.195.139l8.825,5.095,0,0,7.427,4.288.015.006,5.513,3.183a1.96,1.96,0,0,0,.195.139l8.825,5.095,0,0,7.426,4.287c.79.456,1.436-.032,1.436-1.085A3.449,3.449,0,0,0,1323.459,1308.451Z" transform="translate(-1173.748 -1203.218)" fill="#add5f7"/><path d="M1284.369,1325.3l-8.825-5.1a3.449,3.449,0,0,1-1.435-2.743h0c0-1.052.646-1.541,1.435-1.085l8.825,5.095a3.45,3.45,0,0,1,1.435,2.743h0C1285.8,1325.263,1285.159,1325.752,1284.369,1325.3Z" transform="translate(-1173.327 -1211.788)" fill="#add5f7"/><path d="M1282.311,1339.423l-8.825-5.1a3.449,3.449,0,0,1-1.435-2.743h0c0-1.052.646-1.541,1.435-1.084l8.825,5.094a3.45,3.45,0,0,1,1.435,2.743h0C1283.746,1339.39,1283.1,1339.878,1282.311,1339.423Z" transform="translate(-1172.818 -1215.283)" fill="#add5f7"/><path d="M1374.007,1467.338h0a6.08,6.08,0,0,0-5.471-.227l-14.786,8.537c-1.4.81-1.227,2.224.393,3.159h0a6.079,6.079,0,0,0,5.47.226l14.787-8.537C1375.8,1469.687,1375.626,1468.272,1374.007,1467.338Z" transform="translate(-1192.79 -1248.978)" fill="#9ebbde"/><path d="M1218.626,1248.165l11.1,22.341a38.542,38.542,0,0,0,2.54,4.316l7.176,13.346,3.922-1.7-6.395-17.548a29.54,29.54,0,0,1-1.264-3.926l-6.654-23.512Z" transform="translate(-1159.603 -1193.307)" fill="#ffc2b0"/><rect width="5.877" height="7.995" rx="2.939" transform="matrix(0.645, -0.764, 0.764, 0.645, 78.01, 93.447)" fill="#ffc2b0"/><path d="M1172.491,1235.092l-7.144,11.628c-1.306,2.576-4.14,7.276-5.092,12.609l-9.712-3.815.344,2.685,12.862,5.693c-1.119-6.208,2.69-6.7,4.859-9.314,3.808-4.6,7.585-9.183,7.625-9.382C1176.3,1244.878,1172.491,1235.092,1172.491,1235.092Z" transform="translate(-1142.765 -1191.727)" fill="#ffc2b0"/><path d="M1181.4,1222.029l-8.369,15.687c1.367,5.458,4.325,8.235,8.061,9.7l3.176-21.218Z" transform="translate(-1148.325 -1188.496)" fill="#7b9dc9"/><path d="M1174.545,1237.123s2.737,6.994,11.7,10.061" transform="translate(-1148.701 -1192.229)" fill="none" stroke="#fff" stroke-linecap="round" stroke-linejoin="round" stroke-width="0.791"/><path d="M1179.606,1264.482a97.682,97.682,0,0,0,.665-29.683c0-16.15,6.1-22.127,16.276-18.415l4.2,1.117c12.28,6.615,18.516,6.283,16.32,19.279l-2.15,28.488C1214.92,1279.933,1178.824,1281.723,1179.606,1264.482Z" transform="translate(-1149.949 -1186.837)" fill="#9ebbde"/><path d="M1218.626,1250.362l5.294,21.984.634,2.14.778-10.6Z" transform="translate(-1159.604 -1195.504)" fill="#7b9dc9"/><path d="M1200.838,1210.784a8.7,8.7,0,0,0,2.705,1.125c.829,0,7.935-8.688,3.227-15.786-2.981-4.5-11.446,1.278-11.446,1.278Z" transform="translate(-1153.84 -1181.665)" fill="#875963"/><path d="M1201.987,1221.032l-.488.084a3.05,3.05,0,0,1-3.507-2.489l-1.579-9.3a3.05,3.05,0,0,1,2.489-3.507l.488-.084a3.05,3.05,0,0,1,3.507,2.489l2.831,8.712C1206.008,1218.587,1203.636,1220.752,1201.987,1221.032Z" transform="translate(-1154.099 -1184.456)" fill="#ffc2b0"/><path d="M1216.841,1240.689l6.137,17.395c.871,1.349,13.423-5,12.351-7.076-.189-.366-6.871-21.376-14.057-24.768C1215.436,1223.485,1213.616,1232.764,1216.841,1240.689Z" transform="translate(-1158.771 -1189.415)" fill="#9ebbde"/><path d="M1223.226,1259.994s6.924-.065,12.508-6.786" transform="translate(-1160.741 -1196.208)" fill="none" stroke="#fff" stroke-linecap="round" stroke-linejoin="round" stroke-width="0.729"/><g transform="translate(0 49.527)"><path d="M1177.435,1265.286l-2.36-.832-.277-.279-.178-.315-17.776-9.244a.909.909,0,0,0-.788.032l-6.787,3.979-.011-.11-1.28.512.058.528h.009a.293.293,0,0,0,.142.137l18.5,9.618a.1.1,0,0,1,.049.072c.386,1.416,1.031,2.684,2.24,1.948l7.515-4.429a1.8,1.8,0,0,0,.946-1.617Z" transform="translate(-1142.13 -1246.064)" fill="#a8c4e5"/><path d="M1166.778,1270.53l-21.3-11.077c-.247-.128-.243-.354.01-.5l9.051-5.308a1.049,1.049,0,0,1,.908-.036l21.3,11.077c.247.128.242.354-.011.5l-9.052,5.308A1.052,1.052,0,0,1,1166.778,1270.53Z" transform="translate(-1141.466 -1245.812)" fill="#e1eaf4"/><path d="M1172.922,1265.288l-5.155-2.681c-.06-.031-.059-.086,0-.121l2.191-1.285a.252.252,0,0,1,.219-.008l5.156,2.68c.059.031.058.086,0,.122l-2.19,1.284A.254.254,0,0,1,1172.922,1265.288Z" transform="translate(-1147.014 -1247.704)" fill="#a8c4e5"/><path d="M1163.687,1255.531a2.412,2.412,0,0,0-1.071-1.336l-21.129-10.825a.537.537,0,0,0-.449-.067h0l0,0a.236.236,0,0,0-.095.076l-.589.662.595-.051,3.17,11.7a2.414,2.414,0,0,0,1.071,1.336l19.979,10.235.68.654.093.16c.39.079,1.237-.541,1.237-.541Z" transform="translate(-1140.243 -1243.278)" fill="#fff"/><path d="M1165.65,1268.8l-21.129-10.825a2.412,2.412,0,0,1-1.071-1.336l-3.2-11.834c-.137-.505.12-.725.576-.492l21.129,10.825a2.411,2.411,0,0,1,1.071,1.336l3.2,11.834C1166.362,1268.809,1166.1,1269.029,1165.65,1268.8Z" transform="translate(-1140.208 -1243.511)" fill="#5445d9"/><path d="M1157.2,1260.918c.171.629-.412.77-1.3.315a4.029,4.029,0,0,1-1.916-1.962c-.17-.628.412-.769,1.3-.315A4.031,4.031,0,0,1,1157.2,1260.918Z" transform="translate(-1143.608 -1247.09)" fill="#fff"/></g><path d="M1197.839,1217.611a8.326,8.326,0,0,0,6.6-3.741s-2.513,5.841-6.157,6.34Z" transform="translate(-1154.462 -1186.478)" fill="#f09a82"/><path d="M1199.49,1207.566c0,4.537-2.778,6.611-6.205,4.633s-6.2-7.26-6.2-11.8,2.778-6.611,6.2-4.633S1199.49,1203.03,1199.49,1207.566Z" transform="translate(-1151.801 -1181.815)" fill="#ffc2b0"/><path d="M1204.431,1204.355c0,4.537-4.058,7.343-7.485,5.364s-6.2-7.26-6.2-11.8,2.778-6.611,6.2-4.633S1204.431,1199.818,1204.431,1204.355Z" transform="translate(-1152.707 -1181.202)" fill="#ffc2b0"/><path d="M1195.944,1195.81s2.159,8.132,9.011,7.465c0,0,5.386-6.741-2.655-12.237-7.088-4.846-12.34,3.005-12.34,3.005Z" transform="translate(-1152.513 -1180.44)" fill="#875963"/><path d="M1187.2,1202.653a7.978,7.978,0,0,1,5.366-4.971l-3.387-2.134S1185.647,1196.266,1187.2,1202.653Z" transform="translate(-1151.733 -1181.946)" fill="#21ded5"/><path d="M1199.2,1198.883c-2.187-1.368-5.291,0-9.111,3.515-4.056,1.883-6.5-2.648-6.5-2.648-1.652-2.278-.422-4.079,1.854-5.731l5.931-4.3c3.346-2.456,8.168-.8,9.821,1.475l.336.35C1203.182,1193.817,1201.472,1197.23,1199.2,1198.883Z" transform="translate(-1150.749 -1180.203)" fill="#875963"/><path d="M1209.526,1208.537a2,2,0,1,1-2-2A2,2,0,0,1,1209.526,1208.537Z" transform="translate(-1156.365 -1184.665)" fill="#ffc2b0"/><g transform="translate(39.863 26.508)"><path d="M1193.17,1212.858l4.907-.162s-1.231,2.855-2.631,2.661S1193.17,1212.858,1193.17,1212.858Z" transform="translate(-1193.17 -1212.696)" fill="#fff"/></g><path d="M1289.478,1222.833l4.2,18.454,10.207-3.632,6.1,14.2,8.673-3.916,3.869,12.272,9.82,13.131" transform="translate(-1177.128 -1188.695)" fill="none" stroke="#d138a6" stroke-linecap="round" stroke-linejoin="round" stroke-width="1.97"/><path d="M1335.028,1245.929l-3.317,37.238-54.878-34.257" transform="translate(-1174 -1194.407)" fill="none" stroke="#4432db" stroke-linecap="round" stroke-linejoin="round" stroke-width="0.985"/></g><g transform="translate(822.364 1637.458)"><g transform="translate(0 0)"><path d="M747.867,1350.821l-15.222,8.848v24.943l15.222-8.848c.025-.014.043-.03.068-.044a3.112,3.112,0,0,0,1.7-2.391v-25Z" transform="translate(-706.898 -1335.934)" fill="#b4cae9"/><path d="M711.244,1350.824a3.062,3.062,0,0,1-1.806-2.524v24.943a3.038,3.038,0,0,0,1.789,2.524l15.334,8.848v-24.943Z" transform="translate(-709.438 -1335.937)" fill="#cedbf0"/><path d="M733.5,1358.55h-8.622v24.943a6.277,6.277,0,0,0,.865.419l.051.018a9.877,9.877,0,0,0,6.5.089,6.845,6.845,0,0,0,1.206-.526Z" transform="translate(-707.749 -1334.816)" fill="url(#b)"/><path d="M750.4,1347.041l-15.324-8.848a9.531,9.531,0,0,0-8.646,0l-15.226,8.849c-2.369,1.376-2.355,3.618.04,5l15.318,8.848a9.524,9.524,0,0,0,8.622,0l15.222-8.848C752.786,1350.66,752.784,1348.418,750.4,1347.041Z" transform="translate(-709.438 -1337.156)" fill="#e9edf7"/></g><g transform="translate(8.832 4.333)"><g transform="translate(5.891 7.385)"><path d="M741.186,1350.788a10.64,10.64,0,0,1-4.688,3.145,20.871,20.871,0,0,1-13.789,0l6.86-6.214Z" transform="translate(-722.709 -1347.719)" fill="#97aeda"/></g><g style="isolation:isolate"><g transform="translate(12.751 0.3)"><path d="M737.879,1343.2q.323.186.621.385l-9.609,4.835,3.552-7.086A16.422,16.422,0,0,1,737.879,1343.2Z" transform="translate(-728.892 -1341.332)" fill="#e73f68"/></g><g transform="translate(12.751 2.551)"><path d="M741.641,1348.2a4.91,4.91,0,0,1-1.132,3.069l-11.618-3.069,9.609-4.835a6.714,6.714,0,0,1,3,3.785A4.174,4.174,0,0,1,741.641,1348.2Z" transform="translate(-728.892 -1343.361)" fill="#cedbf0"/></g><path d="M733.7,1341.362l-3.552,7.086-6.86,6.214a14.046,14.046,0,0,1-2.128-.992,9.1,9.1,0,0,1-2.6-2.152,4.971,4.971,0,0,1-1.167-3.07,4.375,4.375,0,0,1,.125-1.05,6.636,6.636,0,0,1,2.961-3.786,15.628,15.628,0,0,1,6.032-2.251,21.689,21.689,0,0,1,7.185,0Z" transform="translate(-717.399 -1341.062)" fill="#002581"/></g></g></g><g transform="translate(722.471 1441.097)"><g transform="translate(-0.001 23.955)"><path d="M810.71,1314.449l-15.221,8.848v24.944l15.221-8.849c.026-.014.043-.029.069-.044a3.112,3.112,0,0,0,1.7-2.391v-25Z" transform="translate(-769.741 -1299.562)" fill="#b4cae9"/><path d="M774.087,1314.452a3.064,3.064,0,0,1-1.806-2.524v24.943a3.039,3.039,0,0,0,1.789,2.524l15.334,8.849V1323.3Z" transform="translate(-772.281 -1299.565)" fill="#cedbf0"/><path d="M796.34,1322.178h-8.624v24.944a6.585,6.585,0,0,0,.865.419l.052.018a9.881,9.881,0,0,0,6.5.089,7.09,7.09,0,0,0,1.207-.526Z" transform="translate(-770.592 -1298.444)" fill="url(#c)"/><path d="M813.244,1310.67l-15.326-8.848a9.524,9.524,0,0,0-8.646,0l-15.226,8.848c-2.369,1.377-2.355,3.619.04,5l15.318,8.848a9.518,9.518,0,0,0,8.624,0l15.221-8.848C815.629,1314.288,815.627,1312.046,813.244,1310.67Z" transform="translate(-772.281 -1300.785)" fill="#e9edf7"/></g><g transform="translate(13.805 0)"><g transform="translate(8.454)"><path d="M793.514,1279.193l-1.17.675,1.17.676,1.17-.676Z" transform="translate(-792.344 -1279.193)" fill="#ec82ac"/><path d="M792.344,1279.8v34.008l1.17.675v-34.008Z" transform="translate(-792.344 -1279.126)" fill="#eb6d94"/><path d="M793.4,1280.477v34.008l1.17-.675V1279.8Z" transform="translate(-792.229 -1279.126)" fill="#ca0049"/></g><g transform="translate(4.227 13.734)"><path d="M789.7,1291.571l-1.17.675,1.17.675,1.17-.675Z" transform="translate(-788.534 -1291.571)" fill="#434b9a"/><path d="M788.534,1292.18v22.762l1.17.675v-22.762Z" transform="translate(-788.534 -1291.505)" fill="#313d91"/><path d="M789.589,1292.856v22.762l1.17-.675V1292.18Z" transform="translate(-788.419 -1291.505)" fill="#002581"/></g><g transform="translate(12.681 6.093)"><path d="M797.324,1284.685l-1.17.676,1.17.676,1.17-.676Z" transform="translate(-796.154 -1284.685)" fill="#434b9a"/><path d="M796.154,1285.294v25.481l1.17.675v-25.48Z" transform="translate(-796.154 -1284.618)" fill="#313d91"/><path d="M797.209,1285.969v25.48l1.17-.675v-25.481Z" transform="translate(-796.039 -1284.618)" fill="#002581"/></g><g transform="translate(0 20.923)"><path d="M785.894,1298.053l-1.17.675,1.17.675,1.17-.675Z" transform="translate(-784.724 -1298.053)" fill="#434b9a"/><path d="M784.724,1298.661V1316.7l1.17.675v-18.039Z" transform="translate(-784.724 -1297.986)" fill="#313d91"/><path d="M785.779,1299.337v18.039l1.17-.675v-18.039Z" transform="translate(-784.609 -1297.986)" fill="#002581"/></g></g></g></g></g></svg>