<svg xmlns="http://www.w3.org/2000/svg" width="30" height="30" viewBox="0 0 30 30">
  <g id="グループ_3741" data-name="グループ 3741" transform="translate(-6442.319 -3963.574)">
    <path id="パス_1457" data-name="パス 1457" d="M6,0H24a6,6,0,0,1,6,6V24a6,6,0,0,1-6,6H6a6,6,0,0,1-6-6V6A6,6,0,0,1,6,0Z" transform="translate(6442.319 3963.574)" fill="#0051a4"/>
    <g id="グループ_1121" data-name="グループ 1121" transform="translate(6449.074 3970.344)">
      <g id="グループ_1120" data-name="グループ 1120">
        <path id="パス_1422" data-name="パス 1422" d="M6485,4022.841v-16.389h3.478a4.05,4.05,0,0,1,3.074,1.1,4.374,4.374,0,0,1,1.045,3.132v7.664a4.575,4.575,0,0,1-1.115,3.4,4.414,4.414,0,0,1-3.211,1.092Zm2.353-14.179v11.968h1.082a1.753,1.753,0,0,0,1.4-.494,2.383,2.383,0,0,0,.418-1.551v-7.9a2.488,2.488,0,0,0-.395-1.5,1.675,1.675,0,0,0-1.425-.528Z" transform="translate(-6484.995 -4006.314)" fill="#fff"/>
        <path id="パス_1423" data-name="パス 1423" d="M6505.195,4018.127v1.013a3.631,3.631,0,0,1-.292,1.437,3.951,3.951,0,0,1-.793,1.21,3.83,3.83,0,0,1-1.184.84,3.492,3.492,0,0,1-1.462.31,5.3,5.3,0,0,1-1.355-.183,3.154,3.154,0,0,1-1.245-.647,3.6,3.6,0,0,1-.91-1.184,4.206,4.206,0,0,1-.356-1.853v-9.026a3.9,3.9,0,0,1,.278-1.492,3.471,3.471,0,0,1,.784-1.2,3.624,3.624,0,0,1,1.205-.793,4.058,4.058,0,0,1,1.558-.291,3.553,3.553,0,0,1,2.688,1.084,3.792,3.792,0,0,1,.793,1.253,4.239,4.239,0,0,1,.292,1.577v.922h-2.353v-.784a1.909,1.909,0,0,0-.388-1.2,1.269,1.269,0,0,0-1.061-.505,1.182,1.182,0,0,0-1.16.542,2.865,2.865,0,0,0-.288,1.367v8.38a2.15,2.15,0,0,0,.31,1.2,1.226,1.226,0,0,0,1.117.484,1.731,1.731,0,0,0,.494-.081,1.518,1.518,0,0,0,.5-.265,1.43,1.43,0,0,0,.343-.506,2.068,2.068,0,0,0,.135-.807v-.8Z" transform="translate(-6487.928 -4006.271)" fill="#fff"/>
      </g>
    </g>
  </g>
</svg>
