<svg xmlns="http://www.w3.org/2000/svg" width="30" height="30" viewBox="0 0 30 30">
  <g id="グループ_3744" data-name="グループ 3744" transform="translate(-6476.193 -4459.287)">
    <path id="パス_4556" data-name="パス 4556" d="M6500.794,4471.171h-1.082v11.969h1.082a1.741,1.741,0,0,0,1.4-.495,2.4,2.4,0,0,0,.414-1.553v-7.9a2.484,2.484,0,0,0-.393-1.5A1.669,1.669,0,0,0,6500.794,4471.171Z" transform="translate(-5.474 -2.766)" fill="#3e892b"/>
    <path id="パス_4557" data-name="パス 4557" d="M6500.193,4459.287h-18a6,6,0,0,0-6,6v18a6,6,0,0,0,6,6h18a6,6,0,0,0,6-6v-18A6,6,0,0,0,6500.193,4459.287Zm-9.822,9.118h-4.65v4.811h4.052v2.209h-4.052v4.812h4.65v2.347h-7V4466.2h7Zm9.115,9.691a4.577,4.577,0,0,1-1.116,3.4,4.405,4.405,0,0,1-3.211,1.092h-3.269V4466.2h3.476a4.04,4.04,0,0,1,3.073,1.1,4.374,4.374,0,0,1,1.047,3.131Z" fill="#3e892b"/>
  </g>
</svg>
