<svg xmlns="http://www.w3.org/2000/svg" width="30" height="30" viewBox="0 0 30 30">
  <g id="グループ_3743" data-name="グループ 3743" transform="translate(-6450.232 -4200.36)">
    <path id="パス_1458" data-name="パス 1458" d="M6,0H24a6,6,0,0,1,6,6V24a6,6,0,0,1-6,6H6a6,6,0,0,1-6-6V6A6,6,0,0,1,6,0Z" transform="translate(6450.232 4200.36)" fill="#e25629"/>
    <g id="グループ_1127" data-name="グループ 1127" transform="translate(6457 4207.13)">
      <g id="グループ_1126" data-name="グループ 1126">
        <path id="パス_1439" data-name="パス 1439" d="M6485.013,4251.712v-16.389h3.476a4.037,4.037,0,0,1,3.072,1.1,4.375,4.375,0,0,1,1.048,3.131v7.666a4.564,4.564,0,0,1-1.117,3.395,4.4,4.4,0,0,1-3.211,1.093Zm2.348-14.18v11.97h1.081a1.738,1.738,0,0,0,1.4-.5,2.386,2.386,0,0,0,.415-1.553v-7.9a2.477,2.477,0,0,0-.392-1.5,1.672,1.672,0,0,0-1.428-.53Z" transform="translate(-6485.013 -4235.186)" fill="#fff"/>
        <path id="パス_1440" data-name="パス 1440" d="M6505.248,4240H6502.9v-.529a2.509,2.509,0,0,0-.379-1.392,1.408,1.408,0,0,0-1.278-.588,1.5,1.5,0,0,0-.784.184,1.555,1.555,0,0,0-.484.462,1.967,1.967,0,0,0-.253.679,4.435,4.435,0,0,0-.069.793,7.917,7.917,0,0,0,.035.8,1.536,1.536,0,0,0,.174.576,1.293,1.293,0,0,0,.4.438,3.71,3.71,0,0,0,.726.368l1.794.714a4.438,4.438,0,0,1,1.267.7,3.008,3.008,0,0,1,.759.933,4.28,4.28,0,0,1,.345,1.254,12.3,12.3,0,0,1,.092,1.6,8.467,8.467,0,0,1-.206,1.922,4.077,4.077,0,0,1-.667,1.507,3.332,3.332,0,0,1-1.268,1.014,4.481,4.481,0,0,1-1.91.368,4.2,4.2,0,0,1-1.588-.3,3.786,3.786,0,0,1-1.266-.829,4.023,4.023,0,0,1-.839-1.23,3.738,3.738,0,0,1-.312-1.531v-.875h2.348v.736a1.922,1.922,0,0,0,.379,1.164,1.483,1.483,0,0,0,1.278.518,2.041,2.041,0,0,0,.933-.173,1.225,1.225,0,0,0,.518-.495,1.822,1.822,0,0,0,.219-.77c.023-.3.035-.634.035-1a10.039,10.039,0,0,0-.047-1.061,1.816,1.816,0,0,0-.184-.666,1.289,1.289,0,0,0-.426-.415,5.391,5.391,0,0,0-.7-.345l-1.679-.692a3.716,3.716,0,0,1-2.038-1.645,5.651,5.651,0,0,1-.518-2.566,5.948,5.948,0,0,1,.253-1.749,3.988,3.988,0,0,1,.759-1.428,3.489,3.489,0,0,1,1.232-.955,4.1,4.1,0,0,1,1.784-.356,3.927,3.927,0,0,1,1.6.321,4.147,4.147,0,0,1,1.253.853,3.557,3.557,0,0,1,1.058,2.533Z" transform="translate(-6487.848 -4235.144)" fill="#fff"/>
      </g>
    </g>
  </g>
</svg>
