<svg xmlns="http://www.w3.org/2000/svg" xmlns:xlink="http://www.w3.org/1999/xlink" preserveAspectRatio="xMidYMid" width="128" height="128" viewBox="0 0 128 128">
  <defs>
    <style>
      .cls-3 {
        fill: #ff6f2f;
      }

      .cls-4 {
        fill: #ffffff;
      }

      .cls-5 {
        fill: #cccccc;
      }

      .cls-9 {
        fill: #803818;
      }
    </style>
  </defs>
  <g id="icn_appssvg">
    <circle id="circle-1" class="cls-3" cx="64" cy="64" r="64"/>
    <path d="M57.071,27.029 C57.071,27.029 68.180,25.653 68.180,25.653 C68.180,25.653 66.971,36.929 66.971,36.929 C66.971,36.929 38.686,65.213 38.686,65.213 C38.686,65.213 28.787,55.314 28.787,55.314 C28.787,55.314 57.071,27.029 57.071,27.029 Z" id="path-1" class="cls-4" fill-rule="evenodd"/>
    <path d="M66.000,29.000 C66.000,29.000 63.000,32.000 63.000,32.000 C63.000,32.000 66.000,36.000 66.000,36.000 C66.000,36.000 66.000,29.000 66.000,29.000 Z" id="path-2" class="cls-5" fill-rule="evenodd"/>
    <path d="M79.040,40.540 C80.602,38.978 83.135,38.978 84.697,40.540 C84.697,40.540 100.960,56.803 100.960,56.803 C102.522,58.365 102.522,60.898 100.960,62.460 C99.398,64.022 96.865,64.022 95.303,62.460 C95.303,62.460 79.040,46.197 79.040,46.197 C77.478,44.635 77.478,42.102 79.040,40.540 Z" id="path-3" class="cls-4" fill-rule="evenodd"/>
    <path d="M65.016,69.994 C67.225,69.994 69.016,71.784 69.016,73.994 C69.016,73.994 69.016,96.993 69.016,96.993 C69.016,99.203 67.225,100.993 65.016,100.993 C62.806,100.993 61.016,99.203 61.016,96.993 C61.016,96.993 61.016,73.994 61.016,73.994 C61.016,71.784 62.806,69.994 65.016,69.994 Z" id="path-4" class="cls-4" fill-rule="evenodd"/>
    <path d="M65.487,70.513 C66.265,71.291 66.324,72.493 65.619,73.199 C65.619,73.199 51.203,87.615 51.203,87.615 C50.497,88.320 49.295,88.261 48.517,87.483 C47.739,86.705 47.680,85.503 48.385,84.797 C48.385,84.797 62.801,70.381 62.801,70.381 C63.507,69.676 64.709,69.735 65.487,70.513 Z" id="path-5" class="cls-4" fill-rule="evenodd"/>
    <path d="M36.000,52.000 C36.000,52.000 92.000,52.000 92.000,52.000 C98.627,52.000 104.000,57.373 104.000,64.000 C104.000,70.627 98.627,76.000 92.000,76.000 C92.000,76.000 36.000,76.000 36.000,76.000 C29.373,76.000 24.000,70.627 24.000,64.000 C24.000,57.373 29.373,52.000 36.000,52.000 Z" id="path-6" class="cls-9" fill-rule="evenodd"/>
  </g>
</svg>
