<svg xmlns="http://www.w3.org/2000/svg" xmlns:xlink="http://www.w3.org/1999/xlink" preserveAspectRatio="xMidYMid" width="128" height="128" viewBox="0 0 128 128">
  <defs>
    <style>

      .cls-3 {
        fill: #f2f2f2;
        filter: url(#color-overlay-1);
      }

      .cls-4 {
        fill: #e8342f;
      }

      .cls-5 {
        fill: #4e8ef7;
      }

      .cls-7 {
        fill: #ffffff;
      }

      .cls-10 {
        fill: #8f98a8;
        filter: url(#color-overlay-2);
      }
    </style>

    <filter id="color-overlay-1" filterUnits="userSpaceOnUse">
      <feFlood flood-color="#74d2a0" flood-opacity="1"/>
      <feComposite operator="in" in2="SourceGraphic"/>
      <feBlend mode="normal" in2="SourceGraphic" result="colorOverlay"/>
    </filter>
    <filter id="color-overlay-2" filterUnits="userSpaceOnUse">
      <feFlood flood-color="#417d69" flood-opacity="1"/>
      <feComposite operator="in" in2="SourceGraphic"/>
      <feBlend mode="normal" in2="SourceGraphic" result="colorOverlay"/>
    </filter>
  </defs>
  <g id="icn_frameworkssvg">
    <circle id="circle-1" class="cls-3" cx="64" cy="64" r="64"/>
    <circle id="circle-2" class="cls-4" cx="66" cy="33" r="26"/>
    <circle id="circle-3" class="cls-5" cx="38" cy="81" r="26"/>
    <g id="logo-ionic">
      <path d="M37.500,97.000 C28.387,97.000 21.000,89.613 21.000,80.500 C21.000,71.387 28.387,64.000 37.500,64.000 C46.613,64.000 54.000,71.387 54.000,80.500 C54.000,89.613 46.613,97.000 37.500,97.000 ZM37.500,65.000 C28.940,65.000 22.000,71.940 22.000,80.500 C22.000,89.060 28.940,96.000 37.500,96.000 C46.060,96.000 53.000,89.060 53.000,80.500 C53.000,71.940 46.060,65.000 37.500,65.000 Z" id="path-1" class="cls-7" fill-rule="evenodd"/>
      <circle id="circle-4" class="cls-7" cx="38" cy="81" r="7"/>
      <circle id="circle-5" class="cls-7" cx="49" cy="70" r="3"/>
    </g>
    <circle id="circle-6" class="cls-10" cx="93" cy="81" r="26"/>
    <path d="M101.844,84.000 C100.101,84.000 98.687,82.657 98.687,81.000 C98.687,79.343 100.101,78.000 101.844,78.000 C103.587,78.000 105.000,79.343 105.000,81.000 C105.000,82.657 103.587,84.000 101.844,84.000 ZM93.000,84.000 C91.257,84.000 89.844,82.657 89.844,81.000 C89.844,79.343 91.257,78.000 93.000,78.000 C94.743,78.000 96.156,79.343 96.156,81.000 C96.156,82.657 94.743,84.000 93.000,84.000 ZM84.156,84.000 C82.413,84.000 81.000,82.657 81.000,81.000 C81.000,79.343 82.413,78.000 84.156,78.000 C85.899,78.000 87.313,79.343 87.313,81.000 C87.313,82.657 85.899,84.000 84.156,84.000 Z" id="path-2" class="cls-7" fill-rule="evenodd"/>
    <path d="M67.570,45.967 C58.751,48.489 50.848,46.242 49.228,40.516 C48.227,36.976 51.000,33.285 50.618,34.993 C50.383,36.057 50.319,37.274 50.610,38.307 C52.010,43.252 59.392,45.345 67.008,43.169 C74.624,40.991 79.806,35.305 78.407,30.361 C78.114,29.328 77.425,28.327 76.667,27.547 C75.448,26.294 79.739,27.968 80.739,31.507 C82.359,37.233 76.389,43.446 67.570,45.967 ZM68.518,36.989 C74.123,29.486 69.757,20.985 71.058,18.402 C72.358,15.820 76.727,16.004 76.727,16.004 C71.949,21.062 78.927,31.892 68.518,36.989 ZM66.422,36.105 C66.081,36.585 65.738,36.937 65.400,37.202 C62.528,39.632 58.272,39.232 53.161,37.892 C55.581,34.980 54.100,31.051 54.723,27.405 C55.317,23.945 58.832,20.930 62.764,19.768 C57.881,23.763 58.396,30.599 59.176,33.270 C59.611,34.760 60.419,35.650 61.329,36.174 C66.338,38.545 57.829,22.498 69.074,17.982 C65.163,23.706 68.857,32.684 66.422,36.105 Z" id="path-3" class="cls-7" fill-rule="evenodd"/>
  </g>
</svg>
