<svg xmlns="http://www.w3.org/2000/svg" xmlns:xlink="http://www.w3.org/1999/xlink" preserveAspectRatio="xMidYMid" width="128" height="128" viewBox="0 0 128 128">
  <defs>
    <style>
      .cls-3 {
        fill: #2f96ff;
      }
      .cls-4 {
        fill: #7abdff;
      }

      .cls-7 {
        fill: #ffffff;
      }

      .cls-8 {
        fill: #e8342f;
      }
    </style>
  </defs>
  <g id="icn_chargesvg">
    <circle id="circle-1" class="cls-3" cx="64" cy="64" r="64" />
    <path d="M64.000,27.000 C66.209,27.000 68.000,28.791 68.000,31.000 C68.000,31.000 68.000,97.000 68.000,97.000 C68.000,99.209 66.209,101.000 64.000,101.000 C61.791,101.000 60.000,99.209 60.000,97.000 C60.000,97.000 60.000,31.000 60.000,31.000 C60.000,28.791 61.791,27.000 64.000,27.000 Z" id="path-1" class="cls-4" fill-rule="evenodd"/>
    <path d="M88.000,27.000 C90.209,27.000 92.000,28.791 92.000,31.000 C92.000,31.000 92.000,97.000 92.000,97.000 C92.000,99.209 90.209,101.000 88.000,101.000 C85.791,101.000 84.000,99.209 84.000,97.000 C84.000,97.000 84.000,31.000 84.000,31.000 C84.000,28.791 85.791,27.000 88.000,27.000 Z" id="path-2" class="cls-4" fill-rule="evenodd"/>
    <path d="M40.000,27.000 C42.209,27.000 44.000,28.791 44.000,31.000 C44.000,31.000 44.000,97.000 44.000,97.000 C44.000,99.209 42.209,101.000 40.000,101.000 C37.791,101.000 36.000,99.209 36.000,97.000 C36.000,97.000 36.000,31.000 36.000,31.000 C36.000,28.791 37.791,27.000 40.000,27.000 Z" id="path-3" class="cls-4" fill-rule="evenodd"/>
    <circle id="circle-2" class="cls-7" cx="40" cy="73" r="10"/>
    <circle id="circle-3" class="cls-8" cx="40" cy="73" r="7"/>
    <circle id="circle-4" class="cls-7" cx="64" cy="48" r="10"/>
    <circle id="circle-5" class="cls-8" cx="64" cy="48" r="7"/>
    <circle id="circle-6" class="cls-7" cx="88" cy="64" r="10"/>
    <circle id="circle-7" class="cls-8" cx="88" cy="64" r="7"/>
  </g>
</svg>
