<svg xmlns="http://www.w3.org/2000/svg" width="30" height="30.001" viewBox="0 0 30 30.001">
  <g id="グループ_3742" data-name="グループ 3742" transform="translate(-6450.232 -3747.542)">
    <g id="グループ_1152" data-name="グループ 1152" transform="translate(6450.232 3747.542)">
      <path id="パス_1476" data-name="パス 1476" d="M6501.7,3785.389a1.669,1.669,0,0,0-1.117.4,1.557,1.557,0,0,0-.471,1.254v8.654a1.557,1.557,0,0,0,.471,1.254,1.749,1.749,0,0,0,2.233,0,1.562,1.562,0,0,0,.472-1.254v-8.654a1.562,1.562,0,0,0-.472-1.254A1.67,1.67,0,0,0,6501.7,3785.389Z" transform="translate(-6481.76 -3776.27)" fill="#1492d5"/>
      <path id="パス_1477" data-name="パス 1477" d="M6500.194,3773.5h-18a6,6,0,0,0-6,6v18a6,6,0,0,0,6,6h18a6,6,0,0,0,6-6v-18A6,6,0,0,0,6500.194,3773.5Zm-10.065,18.812a4.565,4.565,0,0,1-1.117,3.394,4.4,4.4,0,0,1-3.212,1.094h-3.268v-16.39h3.475a4.036,4.036,0,0,1,3.073,1.1,4.376,4.376,0,0,1,1.048,3.131Zm9.944.62a4.138,4.138,0,0,1-.346,1.773,3.667,3.667,0,0,1-.9,1.22,3.97,3.97,0,0,1-1.278.759,4.073,4.073,0,0,1-2.831,0,3.712,3.712,0,0,1-1.255-.759,3.548,3.548,0,0,1-.922-1.22,4.161,4.161,0,0,1-.344-1.773v-8.654a4.191,4.191,0,0,1,.344-1.749,3.732,3.732,0,0,1,.922-1.267,3.9,3.9,0,0,1,1.255-.737,4.178,4.178,0,0,1,4.109.737,3.864,3.864,0,0,1,.9,1.267,4.168,4.168,0,0,1,.346,1.749Z" transform="translate(-6476.193 -3773.503)" fill="#1492d5"/>
      <path id="パス_1478" data-name="パス 1478" d="M6488.6,3785.389h-1.08v11.968h1.08a1.745,1.745,0,0,0,1.405-.494,2.4,2.4,0,0,0,.414-1.555v-7.9a2.484,2.484,0,0,0-.392-1.5A1.671,1.671,0,0,0,6488.6,3785.389Z" transform="translate(-6478.829 -3776.27)" fill="#1492d5"/>
    </g>
  </g>
</svg>
