<svg xmlns="http://www.w3.org/2000/svg" width="26" height="26" viewBox="0 0 26 26">
  <g id="グループ_2451" data-name="グループ 2451" transform="translate(15035 21709)">
    <rect id="長方形_749" data-name="長方形 749" width="26" height="26" rx="5.5" transform="translate(-15035 -21709)" fill="#fff"/>
    <g id="グループ_2413" data-name="グループ 2413" transform="translate(-21484.232 -25908.359)">
      <path id="パス_1458" data-name="パス 1458" d="M4.8,0H19.2A4.8,4.8,0,0,1,24,4.8V19.2A4.8,4.8,0,0,1,19.2,24H4.8A4.8,4.8,0,0,1,0,19.2V4.8A4.8,4.8,0,0,1,4.8,0Z" transform="translate(6450.232 4200.36)" fill="#e25629"/>
      <g id="グループ_1127" data-name="グループ 1127" transform="translate(6455.646 4205.776)">
        <g id="グループ_1126" data-name="グループ 1126">
          <path id="パス_1439" data-name="パス 1439" d="M6485.013,4248.435v-13.111h2.78a3.23,3.23,0,0,1,2.458.884,3.5,3.5,0,0,1,.838,2.5v6.132a3.652,3.652,0,0,1-.894,2.716,3.519,3.519,0,0,1-2.568.875Zm1.878-11.344v9.576h.865a1.391,1.391,0,0,0,1.123-.4,1.912,1.912,0,0,0,.332-1.243v-6.316a1.978,1.978,0,0,0-.313-1.2,1.335,1.335,0,0,0-1.142-.424Z" transform="translate(-6485.013 -4235.213)" fill="#fff"/>
          <path id="パス_1440" data-name="パス 1440" d="M6503.636,4239.029h-1.877v-.423a2.006,2.006,0,0,0-.3-1.114,1.125,1.125,0,0,0-1.022-.471,1.2,1.2,0,0,0-.627.147,1.246,1.246,0,0,0-.387.369,1.577,1.577,0,0,0-.2.543,3.558,3.558,0,0,0-.056.635,6.308,6.308,0,0,0,.028.644,1.233,1.233,0,0,0,.139.461,1.034,1.034,0,0,0,.321.35,2.976,2.976,0,0,0,.581.294l1.436.571a3.557,3.557,0,0,1,1.013.561,2.4,2.4,0,0,1,.607.746,3.428,3.428,0,0,1,.276,1,9.894,9.894,0,0,1,.073,1.28,6.765,6.765,0,0,1-.165,1.538,3.264,3.264,0,0,1-.533,1.206,2.667,2.667,0,0,1-1.014.811,3.586,3.586,0,0,1-1.528.294,3.36,3.36,0,0,1-1.271-.239,3.027,3.027,0,0,1-1.013-.664,3.222,3.222,0,0,1-.671-.984,2.989,2.989,0,0,1-.249-1.225v-.7h1.878v.589a1.536,1.536,0,0,0,.3.931,1.186,1.186,0,0,0,1.022.415,1.633,1.633,0,0,0,.746-.139.981.981,0,0,0,.414-.4,1.461,1.461,0,0,0,.175-.616c.018-.24.028-.507.028-.8a7.971,7.971,0,0,0-.038-.848,1.452,1.452,0,0,0-.147-.533,1.033,1.033,0,0,0-.341-.332,4.281,4.281,0,0,0-.562-.276l-1.343-.554a2.975,2.975,0,0,1-1.63-1.316,4.526,4.526,0,0,1-.414-2.053,4.756,4.756,0,0,1,.2-1.4,3.191,3.191,0,0,1,.607-1.142,2.8,2.8,0,0,1,.986-.764,3.286,3.286,0,0,1,1.427-.285,3.138,3.138,0,0,1,1.28.257,3.314,3.314,0,0,1,1,.682,2.845,2.845,0,0,1,.846,2.026Z" transform="translate(-6489.717 -4235.144)" fill="#fff"/>
        </g>
      </g>
    </g>
  </g>
</svg>
