<svg xmlns="http://www.w3.org/2000/svg" width="26" height="26" viewBox="0 0 26 26">
  <g id="グループ_2447" data-name="グループ 2447" transform="translate(15376 21709)">
    <rect id="長方形_720" data-name="長方形 720" width="26" height="26" rx="5.5" transform="translate(-15376 -21709)" fill="#fff"/>
    <g id="グループ_1166" data-name="グループ 1166" transform="translate(-21817.318 -25671.574)">
      <path id="パス_1457" data-name="パス 1457" d="M4.8,0H19.2A4.8,4.8,0,0,1,24,4.8V19.2A4.8,4.8,0,0,1,19.2,24H4.8A4.8,4.8,0,0,1,0,19.2V4.8A4.8,4.8,0,0,1,4.8,0Z" transform="translate(6442.319 3963.574)" fill="#0051a4"/>
      <g id="グループ_1121" data-name="グループ 1121" transform="translate(6447.723 3968.99)">
        <g id="グループ_1120" data-name="グループ 1120">
          <path id="パス_1422" data-name="パス 1422" d="M6485,4019.563v-13.111h2.782a3.239,3.239,0,0,1,2.459.884,3.5,3.5,0,0,1,.836,2.505v6.131a3.662,3.662,0,0,1-.892,2.717,3.533,3.533,0,0,1-2.569.874Zm1.882-11.343v9.575h.866a1.4,1.4,0,0,0,1.121-.4,1.9,1.9,0,0,0,.334-1.241v-6.317a1.987,1.987,0,0,0-.316-1.2,1.337,1.337,0,0,0-1.139-.422Z" transform="translate(-6484.995 -4006.341)" fill="#fff"/>
          <path id="パス_1423" data-name="パス 1423" d="M6503.675,4015.756v.811a2.905,2.905,0,0,1-.233,1.149,3.16,3.16,0,0,1-.635.968,3.059,3.059,0,0,1-.947.672,2.79,2.79,0,0,1-1.169.248,4.228,4.228,0,0,1-1.084-.146,2.523,2.523,0,0,1-1-.518,2.875,2.875,0,0,1-.728-.947,3.363,3.363,0,0,1-.285-1.482v-7.221a3.121,3.121,0,0,1,.223-1.193,2.776,2.776,0,0,1,.627-.959,2.9,2.9,0,0,1,.964-.635,3.246,3.246,0,0,1,1.246-.232,2.843,2.843,0,0,1,2.15.867,3.034,3.034,0,0,1,.635,1,3.392,3.392,0,0,1,.233,1.261v.738h-1.882v-.627a1.526,1.526,0,0,0-.311-.957,1.015,1.015,0,0,0-.849-.4.946.946,0,0,0-.928.433,2.291,2.291,0,0,0-.23,1.093v6.7a1.721,1.721,0,0,0,.248.957.981.981,0,0,0,.894.387,1.391,1.391,0,0,0,.4-.064,1.216,1.216,0,0,0,.4-.212,1.146,1.146,0,0,0,.274-.4,1.65,1.65,0,0,0,.108-.646v-.644Z" transform="translate(-6489.862 -4006.271)" fill="#fff"/>
        </g>
      </g>
    </g>
  </g>
</svg>
