<svg xmlns="http://www.w3.org/2000/svg" width="188.671" height="139.318" viewBox="0 0 188.671 139.318"><g transform="translate(15096.19 21701.621)"><g transform="translate(-14988.375 -21701.598)"><g transform="translate(13.977 0)"><path d="M236.483-1167.306,254.3-1178c1.518-.938-.035-4.065-.035-4.065l-52.822-31.406-6.943,21.96Z" transform="translate(-188.084 1283.263)" fill="#0049c7" opacity="0.2"/><path d="M229.337-1331.388,192.21-1356.01c-2.322-1.341-4.2-4.937-4.2-8.033v-81.033c0-3.1,1.883-4.519,4.2-3.179l38.764,22.38c2.322,1.341,4.2,4.937,4.2,8.033v80.65a3.6,3.6,0,0,1-2.044,3.626Z" transform="translate(-183.515 1448.84)" fill="#a4bbde"/><path d="M200.068-1407.7s-19.876,46.485-19.876,43.389l-3.265-81.942,4.872-2.573a2.767,2.767,0,0,1,2.6.3l38.764,22.38a8.246,8.246,0,0,1,2.919,3.256Z" transform="translate(-175.719 1449.029)" fill="#cad8eb"/><path d="M218.247-1326.952l-38.669-22.38c-2.322-1.341-4.109-4.937-4.109-8.033V-1438.4c0-3.1,1.833-4.519,4.155-3.178l38.647,22.38c2.322,1.341,4.088,4.937,4.088,8.033v81.033C222.359-1327.035,220.569-1325.612,218.247-1326.952Z" transform="translate(-174.693 1444.14)" fill="#e6f0ff"/><path d="M215.629-1325.983l-38.669-22.38c-2.322-1.341-4.109-4.937-4.109-8.033v-81.034c0-3.1,1.833-4.519,4.155-3.178l38.647,22.38c2.322,1.341,4.088,4.937,4.088,8.033v81.034C219.741-1326.065,217.951-1324.642,215.629-1325.983Z" transform="translate(-172.851 1443.458)" fill="#2c1f9c"/><path d="M339.048-1319.44v4.628c0,.322.192.472.434.332l-.058-.04a.972.972,0,0,0,.313-.839v-4.628c0-.322-.074-.472-.316-.332v.04A1,1,0,0,0,339.048-1319.44Z" transform="translate(-289.809 1358.489)" fill="#2c4482"/><path d="M339.048-1292.093v4.629c0,.322.192.472.434.332l-.058-.04a.973.973,0,0,0,.313-.839v-4.628c0-.322-.074-.472-.316-.332v.039A1.006,1.006,0,0,0,339.048-1292.093Z" transform="translate(-289.809 1339.244)" fill="#2c4482"/><path d="M222.561-1319.129l-37.7-21.767a1.267,1.267,0,0,1-.633-1.1v-68.432a1.267,1.267,0,0,1,1.9-1.1l37.7,21.767a1.268,1.268,0,0,1,.634,1.1v68.432A1.267,1.267,0,0,1,222.561-1319.129Z" transform="translate(-180.855 1422.756)" fill="#5b49f2"/><path d="M244.023-1392.392l-11.957-6.9a1.833,1.833,0,0,1-.763-1.457h0c0-.559.343-.819.763-.577l11.957,6.9a1.834,1.834,0,0,1,.763,1.457h0C244.785-1392.41,244.442-1392.15,244.023-1392.392Z" transform="translate(-213.985 1415.526)" fill="#5366c4"/><g transform="translate(37.826 84.681)"><path d="M300.524-1163.2" transform="translate(-300.524 1163.205)" fill="none" stroke="#fff" stroke-miterlimit="10" stroke-width="1.541"/></g></g><path d="M256.126-1271.644v37.114l15.96,9.214v-37.114Z" transform="translate(-217.477 1324.198)" fill="#998cff"/><g transform="translate(20.236 41.923)"><path d="M209.527-1281.068v-17.48l-15.552-8.979v17.48Z" transform="translate(-193.975 1307.527)" fill="#998cff"/><path d="M193.975-1233.987v15.327l15.552,8.979v-15.327Z" transform="translate(-193.975 1255.775)" fill="#998cff"/></g><path d="M228.493-1353.522l-34.374-19.845v-23.863l34.374,19.845Z" transform="translate(-173.841 1412.577)" fill="#998cff"/><path d="M12.864,0c7.1,0,12.864,2.861,12.864,6.391s-5.759,6.391-12.864,6.391S0,9.92,0,6.391,5.759,0,12.864,0Z" transform="matrix(1, -0.018, 0.018, 1, 0, 116.507)" fill="#0049c7" opacity="0.2"/><path d="M273.912-1284.1l0,20.281,18.643,10.588,0-20.28Z" transform="translate(-229.993 1332.967)" fill="#fff"/><path d="M150.7-1325.309s4.987,2.094,13.9-9.92c1.8-2.432,4.132-11.077,4.132-11.077l-2.147-.957s-3.238,7.37-5.888,9.745c-3.558,3.188-13.3,7.483-13.728,9.093S150.7-1325.309,150.7-1325.309Z" transform="translate(-140.636 1377.413)" fill="#db39af"/><path d="M135.2-1053l2.8-.351c1.872-.848,2.747-1.485,3.58-1l.236.136c.834.481.728,1.33-.235,1.886l-4.113,3.267a2.714,2.714,0,0,1-3.028-.294s-.46-.415-.131-2.163C134.493-1052.515,134.428-1052.552,135.2-1053Z" transform="translate(-131.665 1171.399)" fill="#2c1f9c"/><path d="M139.812-1161.82c-.224,1.933-3.768,1.933-3.768.46L138.007-1206l11.819-3.332Z" transform="translate(-132.972 1280.345)" fill="#ffc2b0"/><path d="M173.026-1034.986l2.77.522c2.042-.235,3.07-.573,3.716.14l.183.2c.646.714.286,1.489-.8,1.723l-4.915,1.852a2.715,2.715,0,0,1-2.793-1.207s-.311-.536.537-2.1C172.209-1034.744,172.157-1034.8,173.026-1034.986Z" transform="translate(-157.664 1157.655)" fill="#2c1f9c"/><path d="M164.553-1139.252c-.617,1.562-3.323,1.22-3.277-.062,1.264-15.467-1.646-30.074-5.4-44.288l11.35-1.227C167.671-1168.2,167.522-1153.943,164.553-1139.252Z" transform="translate(-146.929 1263.104)" fill="#ffc2b0"/><path d="M151.246-1198.415l3.948,21.664s-9.808,9.72-21.028,0l1.262-20.343Z" transform="translate(-131.649 1272.664)" fill="#2c1f9c"/><ellipse cx="3.625" cy="6.396" rx="3.625" ry="6.396" transform="translate(8.058 36.042) rotate(-7.368)" fill="#ffc2b0"/><path d="M170.538-1321.761c-.844,2.941-4,4.005-5.85,2.085s-2.672-5.861-1.829-8.8,3.031-3.769,4.885-1.849S171.382-1324.7,170.538-1321.761Z" transform="translate(-151.608 1366.223)" fill="#ffc2b0"/><path d="M161.055-1294.044l-.315-.071a1.989,1.989,0,0,1-1.5-2.368l1.339-6a1.989,1.989,0,0,1,2.368-1.5l.316.07a1.989,1.989,0,0,1,1.5,2.368l-.439,5.958C164.086-1294.529,162.12-1293.807,161.055-1294.044Z" transform="translate(-149.259 1346.995)" fill="#ffc2b0"/><path d="M153.028-1322.941s-.366,2.04,3.194,2.236c2.848.157,2-4.993,4.825-5.454,3.106-.507,3.669-4.344,2.445-5.817s-4.645-2.242-7.123-1.15S148.689-1331.236,153.028-1322.941Z" transform="translate(-143.749 1367.826)" fill="#4432db"/><path d="M177.825-1307.086a1.347,1.347,0,0,1-1.667.923,1.347,1.347,0,0,1-.923-1.666,1.347,1.347,0,0,1,1.666-.923A1.347,1.347,0,0,1,177.825-1307.086Z" transform="translate(-160.514 1350.349)" fill="#ffc2b0"/><path d="M138.252-1260.442c1.005-5.511-.076-9.867.012-15.726,0-10.534-.505-13.1,5.064-11.5l1.569.417a10.828,10.828,0,0,1,2.178.841c7.342,3.782,9.3,4.949,8.979,9.337.033,7.227-3.331,8.7-1.543,15.029C153-1257.049,139.931-1256.866,138.252-1260.442Z" transform="translate(-134.525 1335.784)" fill="#e655be"/><path d="M176.729-1290.4l-.319-.737a2.023,2.023,0,0,0,1.651.43A2.594,2.594,0,0,1,176.729-1290.4Z" transform="translate(-161.378 1337.919)" fill="#f09a82"/><ellipse cx="2.565" cy="2.98" rx="2.565" ry="2.98" transform="translate(6.987 36.124)" fill="#2c1f9c"/><path d="M135.191-1323.959a1.513,1.513,0,0,0-2.777-.9,5.867,5.867,0,0,0-.689,1.83c-1.035,4.583-8.755,3.919-4.969,11.982,0,0-3.445,5.29,2.958,7.52,3.277,1.141,3.2-7.3,3.2-7.3s1.308-3.881,2.57-6.924a5.659,5.659,0,0,0,.019-4.464A3.523,3.523,0,0,1,135.191-1323.959Z" transform="translate(-125.705 1362.132)" fill="#4432db"/><path d="M157.96-1287.731a.882.882,0,0,0-1.067,1.007,2.421,2.421,0,0,0,1.789,1.934,8.7,8.7,0,0,0,4.561.054.25.25,0,0,0,.07-.457A22.429,22.429,0,0,0,157.96-1287.731Z" transform="translate(-147.635 1335.536)" fill="#2c1f9c"/><path d="M213.508-1295.416l-8.366-4.848,4.924-14.4,8.366,4.847Z" transform="translate(-181.597 1354.47)" fill="#fff"/><path d="M175.963-1269.382s7.2,17.507,15.057,9.073,5.1-14.381,5.1-14.381l-1.054-.286s-3.2,10.59-6.6,9.543-8.022-7.587-9.659-7.895S175.963-1269.382,175.963-1269.382Z" transform="translate(-161.064 1326.543)" fill="#e655be"/><rect width="3.744" height="5.091" rx="1.872" transform="translate(28.16 31.689) rotate(-153.378)" fill="#ffc2b0"/><path d="M240.1-1279.724h0a1.374,1.374,0,0,1-1.37-1.37v-1.4a1.374,1.374,0,0,1,1.37-1.37h0a1.374,1.374,0,0,1,1.37,1.37v1.4A1.374,1.374,0,0,1,240.1-1279.724Z" transform="translate(-205.237 1332.8)" fill="#ffc2b0"/><g transform="translate(25.838 42.956)"><path d="M223-1301.931l-1.431-.826a.817.817,0,0,1-.342-.908h0a.47.47,0,0,1,.71-.3l1.431.826a.817.817,0,0,1,.342.908h0A.47.47,0,0,1,223-1301.931Z" transform="translate(-218.736 1304.039)" fill="#e655be"/><path d="M225.958-1291.361l-2.157-1.246a.647.647,0,0,1-.27-.719h0a.372.372,0,0,1,.561-.238l2.157,1.246a.647.647,0,0,1,.27.719h0A.372.372,0,0,1,225.958-1291.361Z" transform="translate(-220.359 1296.708)" fill="#bfdfff"/><path d="M225.515-1282.915l-3.966-2.289a.647.647,0,0,1-.27-.719h0a.372.372,0,0,1,.561-.239l3.965,2.29a.647.647,0,0,1,.27.719h0A.372.372,0,0,1,225.515-1282.915Z" transform="translate(-218.774 1291.498)" fill="#bfdfff"/><path d="M221.454-1276.555,219.3-1277.8a.647.647,0,0,1-.27-.719h0a.372.372,0,0,1,.561-.239l2.157,1.246a.646.646,0,0,1,.27.718h0A.372.372,0,0,1,221.454-1276.555Z" transform="translate(-217.19 1286.288)" fill="#bfdfff"/><path d="M214.658-1272.25l-1.478-.853a.646.646,0,0,1-.271-.718h0a.372.372,0,0,1,.561-.239l1.478.853a.647.647,0,0,1,.27.719h0A.372.372,0,0,1,214.658-1272.25Z" transform="translate(-212.885 1282.982)" fill="#e655be"/></g><path d="M273.828-1284.1l18.655,10.588,0,4.005L273.81-1280Z" transform="translate(-229.921 1332.967)" fill="#2f29c2"/><path d="M279.5-1275.514c.087.547-.236.767-.723.492a2.365,2.365,0,0,1-1.04-1.489c-.087-.547.236-.767.723-.492A2.368,2.368,0,0,1,279.5-1275.514Z" transform="translate(-232.676 1328.052)" fill="#fff"/><path d="M287.941-1270.409c.087.547-.236.767-.723.492a2.366,2.366,0,0,1-1.04-1.489c-.087-.547.236-.767.723-.492A2.367,2.367,0,0,1,287.941-1270.409Z" transform="translate(-238.615 1324.46)" fill="#ffce43"/><path d="M296.636-1264.891c.087.547-.236.767-.723.492a2.367,2.367,0,0,1-1.04-1.489c-.087-.547.236-.767.723-.492A2.367,2.367,0,0,1,296.636-1264.891Z" transform="translate(-244.734 1320.577)" fill="#e655be"/><g transform="translate(47.208 60.607)"><path d="M287.909-1238.825l-2.894-4.414,2.561-1.224.61.943-1.688.807,2.273,3.468Z" transform="translate(-285.015 1244.463)" fill="#2f29c2"/><g transform="translate(6.814 3.007)"><path d="M309.264-1228.64l-.61-.943,1.663-.795-2.3-3.514.863-.421,2.924,4.46Z" transform="translate(-308.014 1234.313)" fill="#2f29c2"/></g><g transform="translate(4.305 1.055)"><path d="M300.592-1234.06l-1.045-.371,1.207-6.47,1.045.371Z" transform="translate(-299.547 1240.901)" fill="#2f29c2"/></g></g><path d="M293.2-1321.2l-4.013-2.18v-7.333l4.013,2.18Z" transform="translate(-240.742 1365.769)" fill="#ffce43"/></g><g transform="translate(-15108.471 -21701.621)"><g transform="translate(12.28 38.284)" style="isolation:isolate"><path d="M1012.619-479.845l22.2-13.476a1.867,1.867,0,0,0-.027-3.192l-41.483-24.664-5.452,17.246V-474.8Z" transform="translate(-959.137 530.176)" fill="#0049c7" opacity="0.2"/><path d="M938.251-500.7l-29.479-17.019,29.295-16.913,29.768,16.984Z" transform="translate(-908.772 534.637)" fill="#998cff"/><g transform="translate(0.043 16.888)"><path d="M1107.44-477.789" transform="translate(-1107.44 477.789)" fill="#bad4f5"/><path d="M1037.647-460.685l.043,21.66-29.479-17.019V-477.7Z" transform="translate(-1008.211 477.73)" fill="#5b49f2"/></g><g transform="translate(28.962 16.984)"><path d="M909.289-460.517l29.584-16.948v20.637l-30.1,18.044Z" transform="translate(-908.773 477.465)" fill="#7463ff"/><path d="M908.772-477.465" transform="translate(-878.671 477.465)" fill="#dbefff"/></g></g><g transform="translate(35.901 0)"><g transform="translate(5.797 14.235)"><path d="M926.878-612.787c1.776,3.543,4.664,10.592,8.445,11.936,5.232,1.859,10.7-4.433,14.887-7.593,1.877-1.415.036-4.628-1.867-3.193-3.393,2.558-7.688,4.8-11.985,3.2a12.168,12.168,0,0,1-6.286-6.214c-1.067-2.128-4.258-.258-3.193,1.867Z" transform="translate(-926.664 615.591)" fill="#bad4f5"/></g><path d="M922.7-604.755l1.59-.967a1.765,1.765,0,0,0,.589-2.417h0a1.764,1.764,0,0,0-2.417-.588l-1.591.968a1.765,1.765,0,0,0-.589,2.417h0A1.765,1.765,0,0,0,922.7-604.755Z" transform="translate(-893.03 625.181)" fill="#ffc2b0"/><path d="M955.094-637.5a3.762,3.762,0,0,1-1.665-3.186l-.014-.011.077-.631a6.235,6.235,0,0,1,3.284,2.287S956.895-636.292,955.094-637.5Zm1.34-1.419a4.846,4.846,0,0,0-2.561-1.78l-.031.491a2.8,2.8,0,0,0,1.239,2.368C956.421-636.941,956.433-638.919,956.433-638.919Z" transform="translate(-934.597 647.917)" fill="#1f3b82"/><path d="M954.4-525.435c-.534-5.013-2.574-8.5-8.483-8.938a2.55,2.55,0,0,0-1.093.169l-20.613,6.133s-4.5,11.183,6.548,14.569c5.594,1.714,16.455-3.959,21.394-7.184A5.036,5.036,0,0,0,954.4-525.435Z" transform="translate(-923.303 572.74)" fill="#e655be"/><path d="M968.117-650.732c-1.5,2.824-4.953,3.229-6.432.865s-1.463-6.57.037-9.394,3.914-3.2,5.393-.833S969.617-653.556,968.117-650.732Z" transform="translate(-948.804 662.201)" fill="#ffc2b0"/><path d="M976.46-624.424l-.307-.14a2.079,2.079,0,0,1-1.025-2.746l2.67-5.848a2.079,2.079,0,0,1,2.746-1.025l.307.14a2.079,2.079,0,0,1,1.025,2.746l-1.739,6C979.664-624.263,977.5-623.951,976.46-624.424Z" transform="translate(-966.277 643.026)" fill="#ffc2b0"/><path d="M953.735-653.7s-.815,2.005,2.781,2.977c2.877.777,3.127-4.671,6.114-4.53,3.285.155,4.691-3.646,3.759-5.416s-4.263-3.3-7.032-2.718S951.1-663.114,953.735-653.7Z" transform="translate(-944.378 663.508)" fill="#4852db"/><path d="M950.7-585.441c.474-4.835,2.366-4.976,1.89-11.289-.127-1.685-.171-3.377-.152-5.066.1-9.217.85-15.476,6.056-13.978l1.64.435a11.332,11.332,0,0,1,2.276.879c7.671,3.953,11.505,4.108,10.072,12.586-.308,8.4-4.128,6.589-2.527,14.933C969.955-576.945,950.689-579.2,950.7-585.441Z" transform="translate(-949.791 630.11)" fill="#bad4f5"/><path d="M959.906-569.224l-4.181-9.119c-.324,5.221.1,9.9,2.5,13.159Z" transform="translate(-938.384 603.643)" fill="#8fb6eb"/><path d="M972.966-618.952l-.167-.823a2.114,2.114,0,0,0,1.594.8A2.711,2.711,0,0,1,972.966-618.952Z" transform="translate(-957.972 632.767)" fill="#f09a82"/><path d="M985.313-647.161a9.081,9.081,0,0,0-2.237,4.6c-.353,3.148-2.375,5.076-5.04,3.362-1.323-.851-2.469-1.809-2.383-2.76.737-8.094,3.4-12.674,3.4-12.674Z" transform="translate(-969.738 657.273)" fill="#4852db"/><path d="M912.5-591.99s.939,19.442,11.212,13.154c6.417-3.928,5.764-15.242,5.764-15.242l-2.83-.443s-3.093,12.2-6.339,10.387-2.432-10.591-4.037-11.264S912.5-591.99,912.5-591.99Z" transform="translate(-895.158 615.685)" fill="#bad4f5"/><path d="M908.72-599.428h0a1.675,1.675,0,0,1-1.037-2.123l1.282-3.732a1.676,1.676,0,0,1,2.123-1.037h0a1.676,1.676,0,0,1,1.037,2.123l-1.282,3.731A1.676,1.676,0,0,1,908.72-599.428Z" transform="translate(-876.423 623.372)" fill="#ffc2b0"/><g transform="translate(27.638 11.626)"><path d="M907.981-612.23l-4.007-2.989a.712.712,0,0,1-.161-.867l3.927-7.969a.47.47,0,0,1,.7-.236l3.986,2.907a.712.712,0,0,1,.16.867l-3.909,7.931c-.1.2-.2.226-.4.275Z" transform="translate(-903.368 624.374)" fill="#97cbff"/><path d="M908.418-620.288s-4.78,4.507-4.63,4.2l3.931-8.244.376-.038a.416.416,0,0,1,.325.077l3.986,2.907a.6.6,0,0,1,.224.373Z" transform="translate(-903.344 624.374)" fill="#97cbff"/><path d="M909.268-612.193l-3.973-2.905a.708.708,0,0,1-.148-.865l3.928-7.969a.465.465,0,0,1,.7-.237l3.97,2.9a.706.706,0,0,1,.145.864l-3.928,7.969A.46.46,0,0,1,909.268-612.193Z" transform="translate(-905.064 624.289)" fill="#1f3b82"/><path d="M905.674-609.349l-.224.455c-.016.031,0,.05.041.04l-.006,0a.137.137,0,0,0,.081-.077l.225-.455c.015-.032.013-.048-.025-.038l0,0A.149.149,0,0,0,905.674-609.349Z" transform="translate(-897.007 613.87)" fill="#45446c"/><path d="M907-606.667l-.224.455c-.016.032,0,.05.041.04l-.006,0a.138.138,0,0,0,.082-.077l.224-.455c.016-.032.013-.048-.025-.038l0,0A.149.149,0,0,0,907-606.667Z" transform="translate(-898.721 611.985)" fill="#45446c"/><path d="M911.2-611.466l-3.913-2.854,3.442-7.03,3.889,2.837-3.476,6.844C911.113-611.609,911.254-611.427,911.2-611.466Z" transform="translate(-906.373 622.248)" fill="#dbedff"/><path d="M911.758-618.417l-1.229-.9a.13.13,0,0,1-.029-.157h0a.086.086,0,0,1,.128-.043l1.229.9a.129.129,0,0,1,.029.157h0A.085.085,0,0,1,911.758-618.417Z" transform="translate(-904.604 620.968)" fill="#fff"/></g><path d="M957.394-635.271l-4.589-.714a.3.3,0,0,1-.25-.343h0a.3.3,0,0,1,.343-.25l4.589.714a.3.3,0,0,1,.25.343h0A.3.3,0,0,1,957.394-635.271Z" transform="translate(-935.303 644.581)" fill="#1f3b82"/><path d="M969.86-635.1a1.408,1.408,0,0,1-1.9.583,1.408,1.408,0,0,1-.583-1.9,1.408,1.408,0,0,1,1.9-.583A1.407,1.407,0,0,1,969.86-635.1Z" transform="translate(-951.943 644.993)" fill="#ffc2b0"/><g transform="translate(29.547 14.383)"><g transform="translate(1.328)"><path d="M914.978-611.908a1.744,1.744,0,0,1-2.582.507,2.193,2.193,0,0,1-.634-2.823,1.744,1.744,0,0,1,2.582-.507A2.193,2.193,0,0,1,914.978-611.908Zm-.53-.381a1.471,1.471,0,0,0-.425-1.893,1.17,1.17,0,0,0-1.731.34,1.471,1.471,0,0,0,.425,1.893A1.17,1.17,0,0,0,914.448-612.289Z" transform="translate(-911.49 615.094)" fill="#2c4482"/><path d="M913.616-608.753a2.133,2.133,0,0,0,.114-1.853l-.562.242a1.43,1.43,0,0,1-.081,1.23,1.153,1.153,0,0,1-1.411.51l-.184.625A1.721,1.721,0,0,0,913.616-608.753Z" transform="translate(-910.128 611.939)" fill="#ff5c97"/><path d="M911.876-615.078l.1.665a1.231,1.231,0,0,1,.89.232,1.467,1.467,0,0,1,.526.719l.586-.176a2.185,2.185,0,0,0-.791-1.091A1.835,1.835,0,0,0,911.876-615.078Z" transform="translate(-910.331 615.093)" fill="#fff"/></g><path d="M921.223-600.782l-1.713-1.234a.3.3,0,0,1-.061-.393h0a.242.242,0,0,1,.349-.1l1.713,1.233a.3.3,0,0,1,.061.394h0A.242.242,0,0,1,921.223-600.782Z" transform="translate(-918.88 606.275)" fill="#fff"/><path d="M922.987-597.954l-1.713-1.233a.3.3,0,0,1-.06-.394h0a.242.242,0,0,1,.348-.1l1.713,1.233a.3.3,0,0,1,.061.393h0A.242.242,0,0,1,922.987-597.954Z" transform="translate(-921.169 604.287)" fill="#fff"/></g><path d="M910.925-598.673l.478-1c-.385-.01-.832,1.561-.824,1.243l.015-4.441a.65.65,0,0,1,.715-.559h0a.649.649,0,0,1,.683.6l-.061,2.193C911.922-600.319,911.309-598.663,910.925-598.673Z" transform="translate(-877.087 621.276)" fill="#ffc2b0"/></g><path d="M1030.907-389.761l-5.889-3.426V-397.6l5.889,3.426Z" transform="translate(-994.098 476.593)" fill="#fff"/><path d="M1057.226-413.342l-5.889-3.426v-8.1l5.889,3.426Z" transform="translate(-1028.236 495.763)" fill="#fff"/><path d="M1077.656-444.465l5.889,3.426v-13.532L1077.656-458Z" transform="translate(-1062.373 519.049)" fill="#fff"/></g><g transform="translate(-15061.66 -21662.145)" style="isolation:isolate"><g transform="translate(13.332 1.876)"><g transform="translate(0 82.42)" opacity="0.2"><path d="M15.614,0c8.623,0,15.614,3.48,15.614,7.773,0,3.413-4.418,6.312-10.864,7.407a29.372,29.372,0,0,1-4.749.366C6.991,15.546,0,12.066,0,7.773S6.991,0,15.614,0Z" fill="#0049c7" style="mix-blend-mode:multiply;isolation:isolate"/></g><g transform="translate(4.18)"><g transform="translate(13.454 18.193)"><path d="M375.521,679.49a5.553,5.553,0,0,1,2.182,4.035l-1.562,0-1.326-3.139Z" transform="translate(-359.848 -669.976)" fill="#a3aac6"/><g transform="translate(0)"><path d="M390.345,680.906c-1.895,1.026-5.034,2.708-6.136,3.19a.35.35,0,0,1-.488-.261c-.4-2.255-1.423-11.817-2.006-13.145-.3-.675-5.049,1.777-5.049,1.777a1.5,1.5,0,0,0-.371,1.121c.031.409-.277.926-.005,1.147,1.073,5.389,3.514,15.8,5.919,16.251,1.729.328,7.61-3.772,10.369-5.786A7.392,7.392,0,0,1,390.345,680.906Z" transform="translate(-376.177 -670.573)" fill="#292d4c"/><path d="M376.32,679.49s-.616.338-1.505.819a7.392,7.392,0,0,0,2.234,4.3c.887-.647,1.453-1.08,1.453-1.08C377.537,683.238,375.744,680.5,376.32,679.49Z" transform="translate(-360.647 -669.976)" fill="#a3aac6"/></g><path d="M372.841,678.837a2.159,2.159,0,0,1,.762-1.321l8.072-4.66a.81.81,0,0,1,.966.115.883.883,0,0,1,.671,1.117c-.765,2.888-2.155,8.136-2.917,10.957a2.441,2.441,0,0,1-1,1.458l-7.833,4.56a.9.9,0,0,1-.974-.085c-.434-.035-.835-.371-.735-.8C369.853,690.176,372.076,681.667,372.841,678.837Z" transform="translate(-360.181 -670.427)" fill="#424e7f"/><path d="M373.041,677.334l-1.611.972a2.255,2.255,0,0,0-.751.8l-.271.481a1.35,1.35,0,0,0,.5,1.829l.9.523.691-.454a2.748,2.748,0,0,0,.721-3.9Z" transform="translate(-350.992 -670.12)" fill="#fcbac0"/></g><path d="M398.872,736.167c.479-1.55,1.692-2.551,2.708-2.237s1.147,1.743.973,3.376a2.217,2.217,0,0,1-.345.809,3.418,3.418,0,0,0-.418,1.7,4.708,4.708,0,0,1-.217,1.438,4.027,4.027,0,0,1-2.156,2.141,1.3,1.3,0,0,1-1.746-.617,3.893,3.893,0,0,1-.038-3.4C397.882,738.927,398.783,736.458,398.872,736.167Z" transform="translate(-395.253 -648.144)" fill="#5278ff"/><path d="M385.449,735.557a8.561,8.561,0,0,1,.863.872,5.692,5.692,0,0,0,2.293,1.3,5.052,5.052,0,0,0,2.814.328.977.977,0,0,0,.549-1.505,12.947,12.947,0,0,0-2-2.074c-.532-.466-1.029-.892-1.425-1.23a2.835,2.835,0,0,1-.989-1.895,2,2,0,0,0-.15-.789c-1.44-.546-3.492-.245-3.859.45,0,0-.409,2.141-.409,2.67a1.14,1.14,0,0,0,.722,1.135A6.318,6.318,0,0,1,385.449,735.557Z" transform="translate(-369.71 -648.384)" fill="#5278ff"/><path d="M386.014,699.621c-.009,13.614-.034,28.378.71,38.548.081,1.1,3.741,1.468,4.08.188,1.632-6.152,3.214-35,3.214-35a1.518,1.518,0,0,1,.8-1.193l.3-.16c.829-.441.963.135.963,1.074l-.316,10.574s-.07,14.284,1.1,20.5c.189,1,4.373,1,4.489-.157,1.133-11.391,1.272-36.9,1.272-36.9l-.151-5.4c.005-.2-1.215-.25-2.988-.219-2.134.041-5.074.2-7.632.361-3.043.192-5.55.388-5.55.388A64.573,64.573,0,0,0,386.014,699.621Z" transform="translate(-383.259 -650.982)" fill="#a3b4db"/><path d="M391.312,701.632l1.576-.819c.4-.21.883.1.708,1.114L392.541,716.5Z" transform="translate(-379.926 -650.36)" fill="#869aca"/><path d="M388.93,682.266l-.255,8.821.124,3.3.048,1.346c1.588,1.429,4.844,2.349,9.474,1.794,3.14-.378,5.943-1.326,6.912-2.117l-.412-5.771c-.048-.611-.138-1.215-.22-1.82a21.719,21.719,0,0,1-.117-4.576l.894-10.875c0-3.491-3.072-5.9-5.607-5.641a5.6,5.6,0,0,0-1.636.419c-.2.076-1.744-.763-1.95-.667L394.3,667.57l-2.226,1.292c-.055.034-.124.068-.178.1-.221.124-.433.254-.639.378-2.694,1.636-5.3,3.552-5.3,6.74Z" transform="translate(-385.962 -652.655)" fill="#343b65"/><path d="M399.892,694.751c-.157.059-.324.108-.491.162a22.223,22.223,0,0,1-5.249.86l-.492.015a19.232,19.232,0,0,1-1.927-.049c-.4-.034-.785-.074-1.149-.128-1.579-.23-4.194-1.057-4.564-1.678l-.072,1.385s2.094,1.6,7.712,1.6c.162,0,.324,0,.492,0a18.579,18.579,0,0,0,5.249-.807c.166-.053.329-.113.491-.172a9.913,9.913,0,0,0,2.64-1.405l.034-1.185A7.6,7.6,0,0,1,399.892,694.751Z" transform="translate(-383.134 -650.856)" fill="#292d4c"/><path d="M391,689.543l.116,3.1c2.673.945,7.941,2.964,11.21,2.435l-1.3-2.746Z" transform="translate(-388.288 -651.11)" fill="#292d4c"/><path d="M392.174,668.383l.026-.076v-6.676h4.553v6.392s.283.09.415.144c.9.369-.764,2.139-.764,2.139a9.227,9.227,0,0,1-3.385-.3A1.283,1.283,0,0,1,392.174,668.383Z" transform="translate(-384.575 -652.978)" fill="#fcbac0"/><path d="M399.3,661.718c1.157,1.378,1.407,3.073.559,3.784s-2.255.284-3.629-1.209a5.8,5.8,0,0,1-1.4-3.016S398.145,660.34,399.3,661.718Z" transform="translate(-390.404 -653.023)" fill="#343b65"/><path d="M399.981,690.069c-.808-.1-2.062.862-2.77.592l-.919-2.374.718-11.175,1.638,9.059,1.341,3.884Z" transform="translate(-391.596 -651.942)" fill="#292d4c"/><g transform="translate(0 20.851)"><path d="M396.735,696.029c-2.56-1.015-9.7-3.407-11.816-5.18-.973-.813-1.052-15.8-1.052-15.8a.667.667,0,0,1,.618-.73l2.828-.2a.665.665,0,0,1,.712.632c.074,1.526.286,11.169.334,12.928a.945.945,0,0,0,.668.88c1.8.557,5.584,3.584,8.565,4.545a3.147,3.147,0,0,0,.6.135c1.465.212,4.757-2.652,5.073-1.206,0,0,2.921,1.56,1.179,3.166a10.033,10.033,0,0,1-3.315,1.1A38.366,38.366,0,0,1,396.735,696.029Z" transform="translate(-383.341 -672.994)" fill="#fcbac0"/><path d="M405.054,693.178c-.779.242-1.312,2.257-.857,2.922,0,0-9.895-1.838-12.266-4.793-1.155-1.439-1.128-10.684-1.127-15.667a2.543,2.543,0,0,1,2.7-2.573,2.59,2.59,0,0,1,2.481,2.453c.156,3,.4,11.03.435,12.215a.393.393,0,0,0,.248.333C397.253,688.391,405.054,693.178,405.054,693.178Z" transform="translate(-390.804 -673.065)" fill="#343b65"/></g><path d="M397.757,672.389l.5-2.472a5.577,5.577,0,0,1-3.165-1.023,3.937,3.937,0,0,1-1.009-1.435l-1.007,1.016C393.5,670.675,397.757,672.389,397.757,672.389Z" transform="translate(-386.427 -652.588)" fill="#292d4c"/><path d="M392.9,671.655l-1.256-1.708a5.082,5.082,0,0,0,.27-1.4l.079-1.505.208-.017a3.253,3.253,0,0,1,.266.339,4.041,4.041,0,0,1,.681,1.919A6.2,6.2,0,0,1,392.9,671.655Z" transform="translate(-379.813 -652.618)" fill="#292d4c"/><g transform="translate(5.181 1.883)"><path d="M397.3,662.449v5.244c0,.543-1.11.892-2.019.523-1.388-.564-2.534-1.656-2.534-2.831v-2.936Z" transform="translate(-390.303 -654.806)" fill="#ef9b9b"/><path d="M399.759,664.586c-.705,3.718-3.169,4.1-5.5,3.01a5.4,5.4,0,0,1-3.281-3.506c-.233-1.06-1.048-2.066-1.119-2.943-.274-3.378,1.83-5.611,4.63-5.839C400.871,654.79,400,663.3,399.759,664.586Z" transform="translate(-389.836 -655.286)" fill="#fcbac0"/></g><g transform="translate(3.962)"><path d="M388.973,658.307c.254-2.895,3.656-5.614,7.77-4.55,2.167.56,4.074.886,4.4,2.5a3.513,3.513,0,0,1-1.168,3.358l-.065-.274a.991.991,0,0,0-1.084-.737,11.142,11.142,0,0,0-3.677.547,1.626,1.626,0,0,1-1.628-.2l-.934-.681.987,1.139a1.134,1.134,0,0,1,.187,1.17c-.032.081-.053.176-.081.264l-2.786-1.7a.989.989,0,0,0-1.5.845v1.78A7.14,7.14,0,0,1,388.973,658.307Z" transform="translate(-388.931 -653.521)" fill="#292d4c"/><path d="M397.5,658.807l2.786,1.7a3.953,3.953,0,0,0-.16.812.848.848,0,0,1-1.1.744,1.63,1.63,0,0,1-.762-.428c-.351-.452-.92-.537-.979-.2a3.831,3.831,0,0,0-.075,1.582,3.75,3.75,0,0,1-1.211-1.577v-1.78A.989.989,0,0,1,397.5,658.807Z" transform="translate(-395.534 -653.177)" fill="#343b65"/></g><path d="M399.114,661.62c.577.814.617,1.778.087,2.152s-1.425.019-2-.795-.617-1.778-.087-2.152S398.537,660.806,399.114,661.62Z" transform="translate(-391.657 -653.042)" fill="#fcbac0"/></g></g></g></g></svg>