<svg xmlns="http://www.w3.org/2000/svg" width="26" height="26" viewBox="0 0 26 26">
  <g id="グループ_2460" data-name="グループ 2460" transform="translate(14693 21709)">
    <rect id="長方形_748" data-name="長方形 748" width="26" height="26" rx="5.5" transform="translate(-14693 -21709)" fill="#fff"/>
    <g id="グループ_2412" data-name="グループ 2412" transform="translate(-21142.232 -25455.543)">
      <g id="グループ_1152" data-name="グループ 1152" transform="translate(6450.232 3747.542)">
        <path id="パス_1476" data-name="パス 1476" d="M6501.386,3785.389a1.336,1.336,0,0,0-.894.322,1.245,1.245,0,0,0-.377,1v6.923a1.246,1.246,0,0,0,.377,1,1.4,1.4,0,0,0,1.787,0,1.25,1.25,0,0,0,.377-1v-6.923a1.25,1.25,0,0,0-.377-1A1.336,1.336,0,0,0,6501.386,3785.389Z" transform="translate(-6485.431 -3778.094)" fill="#1492d5"/>
        <path id="パス_1477" data-name="パス 1477" d="M6495.394,3773.5h-14.4a4.8,4.8,0,0,0-4.8,4.8v14.4a4.8,4.8,0,0,0,4.8,4.8h14.4a4.8,4.8,0,0,0,4.8-4.8v-14.4A4.8,4.8,0,0,0,6495.394,3773.5Zm-8.052,15.05a3.651,3.651,0,0,1-.894,2.715,3.517,3.517,0,0,1-2.569.875h-2.614v-13.112h2.78a3.227,3.227,0,0,1,2.458.884,3.5,3.5,0,0,1,.839,2.5Zm7.955.5a3.314,3.314,0,0,1-.276,1.418,2.938,2.938,0,0,1-.718.976,3.174,3.174,0,0,1-1.022.607,3.258,3.258,0,0,1-2.265,0,2.965,2.965,0,0,1-1-.607,2.832,2.832,0,0,1-.737-.976,3.329,3.329,0,0,1-.275-1.418v-6.923a3.354,3.354,0,0,1,.275-1.4,2.982,2.982,0,0,1,.737-1.014,3.125,3.125,0,0,1,1-.589,3.344,3.344,0,0,1,3.287.589,3.1,3.1,0,0,1,.718,1.014,3.339,3.339,0,0,1,.276,1.4Z" transform="translate(-6476.193 -3773.503)" fill="#1492d5"/>
        <path id="パス_1478" data-name="パス 1478" d="M6488.38,3785.389h-.864v9.575h.864a1.4,1.4,0,0,0,1.124-.4,1.921,1.921,0,0,0,.331-1.244v-6.316a1.987,1.987,0,0,0-.313-1.2A1.336,1.336,0,0,0,6488.38,3785.389Z" transform="translate(-6480.566 -3778.094)" fill="#1492d5"/>
      </g>
    </g>
  </g>
</svg>
