<svg xmlns="http://www.w3.org/2000/svg" width="24.908" height="20.235" viewBox="0 0 24.908 20.235">
  <path id="パス_638" data-name="パス 638" d="M24.9,6.393a10.071,10.071,0,0,1-2.933.8A5.137,5.137,0,0,0,24.216,4.37,10.281,10.281,0,0,1,20.971,5.61a5.115,5.115,0,0,0-8.707,4.66A14.5,14.5,0,0,1,1.734,4.93a5.117,5.117,0,0,0,1.581,6.82A5.109,5.109,0,0,1,1,11.112v.063a5.109,5.109,0,0,0,4.1,5.009,5.116,5.116,0,0,1-1.347.18,5.249,5.249,0,0,1-.963-.093,5.127,5.127,0,0,0,4.771,3.551,10.25,10.25,0,0,1-6.347,2.189,10.085,10.085,0,0,1-1.221-.073,14.45,14.45,0,0,0,7.836,2.3A14.441,14.441,0,0,0,22.368,9.7c0-.223,0-.443-.015-.661A10.285,10.285,0,0,0,24.9,6.394Z" transform="translate(0.006 -4)" fill="#6f777f"/>
</svg>
