<?xml version="1.0" encoding="utf-8"?>
<!-- Generator: Adobe Illustrator 21.1.0, SVG Export Plug-In . SVG Version: 6.00 Build 0)  -->
<svg version="1.1" id="Layer_1" xmlns="http://www.w3.org/2000/svg" xmlns:xlink="http://www.w3.org/1999/xlink" x="0px" y="0px"
	 width="120px" height="120px" viewBox="0 0 120 120" style="enable-background:new 0 0 120 120;" xml:space="preserve">
<style type="text/css">
	.st0{fill:#0062B1;}
</style>
<title>img-git</title>
<path class="st0" d="M108.1,55.5L64.4,11.9c-2.5-2.5-6.6-2.5-9.1,0c0,0,0,0,0,0L46.3,21l11.5,11.5c4-1.4,8.3,0.8,9.7,4.8
	c0.5,1.6,0.5,3.4,0,5l11.1,11c4-1.4,8.4,0.7,9.7,4.7c1.4,4-0.7,8.4-4.7,9.7c-4,1.4-8.4-0.7-9.7-4.7c-0.6-1.8-0.6-3.7,0.1-5.4
	L63.6,47.3v27.2c3.8,1.9,5.3,6.5,3.5,10.2c-1.9,3.8-6.5,5.3-10.2,3.5c-3.8-1.9-5.3-6.5-3.5-10.2c0.8-1.7,2.2-3,3.9-3.7V46.8
	c-3.9-1.6-5.8-6.1-4.2-10L41.8,25.4L11.9,55.3c-2.5,2.5-2.5,6.6,0,9.1c0,0,0,0,0,0l43.7,43.7c2.5,2.5,6.6,2.5,9.1,0c0,0,0,0,0,0
	l43.5-43.5C110.6,62.1,110.6,58.1,108.1,55.5z"/>
</svg>
