<?xml version="1.0" encoding="utf-8"?>
<!-- Generator: Adobe Illustrator 21.1.0, SVG Export Plug-In . SVG Version: 6.00 Build 0)  -->
<svg version="1.1" id="レイヤー_2" xmlns="http://www.w3.org/2000/svg" xmlns:xlink="http://www.w3.org/1999/xlink" x="0px"
	 y="0px" width="120px" height="120px" viewBox="0 0 120 120" style="enable-background:new 0 0 120 120;" xml:space="preserve">
<style type="text/css">
	.st0{fill:#075998;}
</style>
<path class="st0" d="M60.9,74c0,2.2-0.5,4.4-1.3,6.4H110c0-17.7-5.2-18.1-22.2-21.8c-0.1,0-0.2,0-0.2,0c3.6-2.7,5.7-7.1,5.7-11.6
	v-1.6c2-0.5,3.5-2.7,3.5-5.3c0-2.2-1.1-4.1-2.6-4.9c0,0,0.1-0.1,0.1-0.1c0-0.1,3.1-12.7-5.8-18c0.8-0.6,1.6-1.4,1.6-2
	c0-1.4-8.5-0.3-8.5-0.3s2-1.5,2-1.9c0-0.4,0.4-4.8-14.4,3.8h-0.1L68.6,17c-7.8,4.8-6.9,15.5-6.4,18.7c-1.1,1-1.8,2.6-1.8,4.4
	c0,2.6,1.5,4.7,3.5,5.3V47c0,4.6,2.2,8.9,5.7,11.6c0,0-0.1,0-0.1,0c-2.8,0.6-5.2,1.1-7.4,1.7c0.2,0.2,0.4,0.5,0.6,0.7
	C65.8,65,65,70.9,60.9,74z M65.9,47v-2.5l-0.1-1h-1c-1.3,0-2.4-1.6-2.4-3.4c0-1.8,1.1-3.4,2.5-3.4h1c0,0,0,0,0,0l7.6-5.1
	c0,0-1.9,6,0,5.7c1.3-0.2,5.3-3.8,7.8-6.3c0.3,1.9,1.1,3.2,2.1,3.2c1.1,0,3-3.2,3.9-5c1.7,0.7,3.3,1.7,3.7,2.7
	c0.1,0.2,0.2,0.4,0.3,0.6v4.2h1.1c1.3,0,2.4,1.6,2.4,3.4c0,1.8-1.1,3.4-2.5,3.4h-1V47c0,4.3-2.3,8.4-5.9,10.7l-0.5,0.3v1.3
	c0,3.5-2.8,6.3-6.3,6.3s-6.3-2.8-6.3-6.3v-1.3l-0.5-0.3C68.2,55.5,65.9,51.4,65.9,47z"/>
<path class="st0" d="M54.3,85.3L53,85c3.1-2.8,5-6.9,5.1-11.2v-1.7c2.1-0.5,3.6-2.7,3.6-5.5c0-2.3-1.1-4.2-2.7-5.1c0,0,0,0,0,0
	s3.2-13.2-6-18.8c0.9-0.7,1.6-1.4,1.6-2.1c0-1.5-8.9-0.3-8.9-0.3s2-1.5,2.1-1.9c0.1-0.4,0.4-5-15,3.9h-0.1l-0.5,0.3
	c-8.2,5-7.1,16.3-6.6,19.6c-1.1,1-1.7,2.6-1.7,4.4c0,2.8,1.5,5,3.6,5.5v1.7c0,4.3,1.8,8.4,5,11.2l-1,0.2C14.7,88.8,9,90.1,9,108.5v1
	h67.2v-1C76.2,90.1,70.7,88.9,54.3,85.3z M29.5,73.8v-3.6h-1.1c-1.4,0-2.5-1.6-2.5-3.6S27,63,28.4,63h1.1v-0.1l7.8-5.2
	c0,0-1.9,6.2,0,6c1.3-0.2,5.5-3.9,8.1-6.5c0.3,1.9,1.2,3.3,2.2,3.3c1.2,0,3.1-3.4,4.1-5.2c1.7,0.7,3.4,1.8,3.9,2.8
	c0.1,0.3,0.2,0.5,0.3,0.8V63H57c1.5,0,2.7,1.6,2.7,3.6s-1.1,3.6-2.6,3.6h-1v3.6c-0.1,4.4-2.2,8.3-5.7,10.8l0,0
	c-0.2,0.1-0.3,0.3-0.5,0.4l-0.5,0.3v1.3c0,3.6-3,6.6-6.6,6.6c-3.6,0-6.6-3-6.6-6.6v-1.3l-0.5-0.3C31.8,82.5,29.5,78.4,29.5,73.8z"/>
</svg>
