<?xml version="1.0" encoding="utf-8"?>
<!-- Generator: Adobe Illustrator 21.1.0, SVG Export Plug-In . SVG Version: 6.00 Build 0)  -->
<svg version="1.1" id="レイヤー_1" xmlns="http://www.w3.org/2000/svg" xmlns:xlink="http://www.w3.org/1999/xlink" x="0px"
	 y="0px" width="120px" height="120px" viewBox="0 0 120 120" style="enable-background:new 0 0 120 120;" xml:space="preserve">
<style type="text/css">
	.st0{fill:#065DA3;}
</style>
<title>img3-in-house</title>
<g>
	<g>
		<rect x="23.3" y="86.9" class="st0" width="13.3" height="2.1"/>
		<rect x="59.5" y="86.9" class="st0" width="13.3" height="2.1"/>
		<path class="st0" d="M101.5,63.2H80c-2,0-3.5,1.6-3.5,3.5v42.4c0,2,1.6,3.5,3.5,3.5h21.4c2,0,3.5-1.6,3.5-3.5V66.8
			C105,64.8,103.4,63.2,101.5,63.2z M78.6,102.1V73.7h24.3v28.4H78.6z M80,65.3h21.4c0.8,0,1.4,0.6,1.4,1.4v4.9H78.6v-4.9
			C78.6,66,79.2,65.3,80,65.3z M78.6,109.1v-4.9h11.1v6.2c0,0,0,0,0,0.1H80C79.3,110.4,78.7,109.9,78.6,109.1L78.6,109.1z
			 M101.5,110.5h-9.7c0,0,0,0,0-0.1v-6.2h11.1v4.9C102.9,109.8,102.3,110.5,101.5,110.5L101.5,110.5L101.5,110.5z"/>
	</g>
	<path class="st0" d="M48.8,7.7c-0.4-0.4-1.1-0.4-1.5,0L15,39.9h8.5v30.9c0,0.6,0.5,1.1,1.1,1.1H47v15h-6.4V89h15v-2.1h-6.4v-15
		h22.4c0.6,0,1.1-0.5,1.1-1.1V39.9h8.5L48.8,7.7z M53.6,69.7H42.5v-24h11.1V69.7z M70.5,69.7H55.7V43.6H40.3v26.2H25.6v-31l0,0v-1.1
		h-5.4L48,9.9l27.9,27.9h-5.4v1.1l0,0V69.7z"/>
</g>
</svg>
