<?xml version="1.0" encoding="utf-8"?>
<!-- Generator: Adobe Illustrator 21.1.0, SVG Export Plug-In . SVG Version: 6.00 Build 0)  -->
<svg version="1.1" id="レイヤー_1" xmlns="http://www.w3.org/2000/svg" xmlns:xlink="http://www.w3.org/1999/xlink" x="0px"
	 y="0px" width="120px" height="120px" viewBox="0 0 120 120" style="enable-background:new 0 0 120 120;" xml:space="preserve">
<style type="text/css">
	.st0{fill:none;stroke:#065DA3;stroke-width:2;stroke-miterlimit:10;}
	.st1{fill:#075998;}
	.st2{fill:#FFFFFF;}
</style>
<title>img4-security</title>
<g>
	<path class="st0" d="M60,105c-35.7-9.6-39.9-47.6-39.9-78.4c6.3,0,28-3.2,39.9-11.6c11.9,8.4,33.6,11.6,39.9,11.6
		C99.9,57.4,95.7,95.4,60,105z"/>
	<g>
		<path class="st1" d="M42.7,79.7c-1.7,0-3.1-1.4-3.1-3.1v-25c0-1.7,1.4-3.1,3.1-3.1c0,0,0,0,0,0h3.4v-4.7c0-7.7,6.2-13.9,13.9-13.9
			s13.9,6.2,13.9,13.9c0,0,0,0,0,0v4.8h3.4c1.7,0,3,1.4,3,3.1v25c0,1.7-1.4,3.1-3.1,3.1L42.7,79.7z M60.2,69.8V65l0.7-0.2
			c1.4-0.5,2.1-2,1.6-3.4c-0.5-1.4-2-2.1-3.4-1.6c-1.4,0.5-2.1,2-1.6,3.4c0.3,0.8,0.9,1.4,1.6,1.6l0.7,0.2v4.9L60.2,69.8z
			 M67.1,48.5v-4.9c-0.1-3.9-3.4-7-7.4-6.8c-3.7,0.1-6.7,3.1-6.8,6.8v4.9L67.1,48.5z"/>
		<path class="st2" d="M60,30.9c7.1,0,12.9,5.8,12.9,12.9c0,0,0,0,0,0v5.7h4.4c1.1,0,2.1,0.9,2,2.1v25c0,1.1-0.9,2.1-2.1,2.1H42.7
			c-1.1,0-2.1-0.9-2.1-2.1v-25c0-1.1,0.9-2.1,2.1-2.1c0,0,0,0,0,0h4.4v-5.7c0,0,0,0,0,0C47.1,36.7,52.9,30.9,60,30.9 M51.9,49.5
			h16.2v-5.9c-0.2-4.5-3.9-8-8.4-7.8c-4.2,0.1-7.7,3.6-7.8,7.8L51.9,49.5 M58.8,70.8h2.5v-5.2c1.9-0.7,2.9-2.8,2.2-4.7
			s-2.8-2.9-4.7-2.2s-2.9,2.8-2.2,4.7c0.4,1.1,1.2,1.9,2.2,2.2V70.8 M60,28.8c-8.2,0-14.9,6.7-14.9,14.9v3.8h-2.4
			c-2.2,0-4.1,1.8-4.1,4.1v25c0,2.2,1.8,4.1,4.1,4.1h34.7c2.2,0,4.1-1.8,4.1-4.1v-25c0-2.2-1.8-4.1-4.1-4.1h-2.4v-3.6
			c0,0,0-0.1,0-0.2C74.9,35.6,68.2,28.9,60,28.8L60,28.8z M53.9,47.5v-3.9c0.1-3.4,3-6,6.3-5.8c3.2,0.1,5.7,2.7,5.8,5.8v3.9
			L53.9,47.5z M60,64l-0.6-0.2c-0.9-0.3-1.3-1.3-1-2.2s1.3-1.3,2.2-1c0.9,0.3,1.3,1.3,1,2.2c-0.2,0.5-0.6,0.9-1,1L60,64z"/>
	</g>
</g>
</svg>
