<?xml version="1.0" encoding="utf-8"?>
<!-- Generator: Adobe Illustrator 21.1.0, SVG Export Plug-In . SVG Version: 6.00 Build 0)  -->
<svg version="1.1" id="レイヤー_1" xmlns="http://www.w3.org/2000/svg" xmlns:xlink="http://www.w3.org/1999/xlink" x="0px"
	 y="0px" width="78px" height="78px" viewBox="0 0 78 78" style="enable-background:new 0 0 78 78;" xml:space="preserve">
<style type="text/css">
	.st0{fill:#065DA3;}
</style>
<title>img1-cloud</title>
<path class="st0" d="M45.6,18.5c7.7,0,14,6.3,14,14c0,1.4-0.2,2.8-0.6,4.1c0.5-0.1,1.1-0.1,1.6-0.1c6.5-0.1,11.9,5,12,11.5
	c-0.1,6.5-5.5,11.6-12,11.5h-47c-4.7-0.3-8.4-4.3-8.1-9c0-0.3,0.1-0.7,0.1-1c0.7-4.4,4.6-8,9-8h0.2c-2.8-5.4-0.6-12,4.8-14.8
	c4.2-2.1,9.2-1.4,12.6,1.8C33.9,22.6,39.4,18.5,45.6,18.5 M45.6,16.5c-6.1,0-11.6,3.5-14.3,8.9c-6.2-3.7-14.1-1.7-17.8,4.5
	c-1.8,3-2.3,6.6-1.4,10c-4.4,1.2-7.6,4.9-8.4,9.3c-0.5,3.1,0.4,6.3,2.4,8.6c1.9,2.3,4.6,3.6,7.6,3.7h47c7.6,0.1,13.9-5.9,14-13.5
	c-0.1-7.3-5.9-13.2-13.2-13.5c1.1-8.8-5.1-16.8-13.9-17.9C46.9,16.6,46.2,16.5,45.6,16.5L45.6,16.5z"/>
</svg>
