<?xml version="1.0" encoding="utf-8"?>
<!-- Generator: Adobe Illustrator 21.1.0, SVG Export Plug-In . SVG Version: 6.00 Build 0)  -->
<svg version="1.1" id="レイヤー_2" xmlns="http://www.w3.org/2000/svg" xmlns:xlink="http://www.w3.org/1999/xlink" x="0px"
	 y="0px" width="78px" height="78px" viewBox="0 0 78 78" style="enable-background:new 0 0 78 78;" xml:space="preserve">
<style type="text/css">
	.st0{fill:none;stroke:#065DA3;stroke-width:2;stroke-miterlimit:10;}
	.st1{fill:#065DA3;}
</style>
<title>img-editor</title>
<g>
	<rect x="12" y="25" class="st0" width="54" height="38"/>
	<path class="st0" d="M40.8,34.4l-4.1,18.4"/>
	<path class="st0" d="M31.4,37.5l-10.2,5.1l10.2,6.1"/>
	<path class="st0" d="M46.2,48.7l10.2-6.1l-10.2-5.1"/>
	<path class="st1" d="M60.7,18.1c1.1,0.1,1.9,1.1,1.8,2.2c-0.1,1.1-1.1,1.9-2.2,1.8c-1-0.1-1.8-1-1.8-2C58.6,18.9,59.6,18,60.7,18.1
		z"/>
	<path class="st1" d="M48.9,18.1c1.1,0.1,1.9,1.1,1.8,2.2c-0.1,1.1-1.1,1.9-2.2,1.8c-1-0.1-1.8-1-1.8-2C46.7,18.9,47.7,18,48.9,18.1
		z"/>
	<path class="st1" d="M54.8,18.1c1.1,0.1,1.9,1.1,1.8,2.2c-0.1,1.1-1.1,1.9-2.2,1.8c-1-0.1-1.8-1-1.8-2C52.6,18.9,53.6,18,54.8,18.1
		z"/>
	<path class="st0" d="M15.1,15h47.9c1.7,0,3,1.3,3.1,2.9c0,0,0,0,0,0.1v7H12v-7C12,16.3,13.3,15,15.1,15C15,15,15,15,15.1,15z"/>
</g>
</svg>
