<?xml version="1.0" encoding="utf-8"?>
<!-- Generator: Adobe Illustrator 21.1.0, SVG Export Plug-In . SVG Version: 6.00 Build 0)  -->
<svg version="1.1" id="レイヤー_2" xmlns="http://www.w3.org/2000/svg" xmlns:xlink="http://www.w3.org/1999/xlink" x="0px"
	 y="0px" width="78px" height="78px" viewBox="0 0 78 78" style="enable-background:new 0 0 78 78;" xml:space="preserve">
<style type="text/css">
	.st0{fill:none;stroke:#065DA3;stroke-width:2;stroke-linecap:round;stroke-miterlimit:10;}
	.st1{fill:none;stroke:#065DA3;stroke-width:2;stroke-miterlimit:10;}
	.st2{fill:#065DA3;}
</style>
<title>img3-debug</title>
<g>
	<g>
		<line class="st0" x1="56.6" y1="27.8" x2="60.5" y2="27.8"/>
		<path class="st1" d="M48.1,23.9h21c2.5,0,4.5,2,4.5,4.5v42.2c0,2.5-2,4.5-4.5,4.5h-21c-2.5,0-4.5-2-4.5-4.5V28.4
			C43.6,25.9,45.6,23.9,48.1,23.9z"/>
		<path class="st1" d="M50.8,31.7h15.5c1.7,0,3,1.3,3,3v31.5c0,1.7-1.3,3-3,3H50.8c-1.7,0-3-1.3-3-3V34.7
			C47.8,33,49.2,31.7,50.8,31.7z"/>
		<path class="st2" d="M52.5,48c-0.6,0-1,0.4-1,1v4.3c0,0.6,0.5,1,1,1c0.6,0,1-0.5,1-1V49C53.6,48.4,53.2,48,52.5,48 M60.9,44.1
			l0.7-1.3c0-0.1,0-0.2-0.1-0.2s-0.2,0-0.2,0.1l0,0L60.6,44c-1.3-0.6-2.7-0.6-4,0l-0.7-1.3c0-0.1-0.1-0.1-0.2-0.1s-0.1,0.1-0.1,0.2
			l0.7,1.3c-1.4,0.7-2.3,2.1-2.4,3.7h9.2C63.2,46.3,62.3,44.8,60.9,44.1 M56.5,46.1c-0.2,0-0.4-0.2-0.4-0.4s0.2-0.4,0.4-0.4
			c0.2,0,0.4,0.2,0.4,0.4l0,0C56.8,46,56.7,46.1,56.5,46.1 M60.7,46.1c-0.2,0-0.4-0.2-0.4-0.4s0.2-0.4,0.4-0.4
			c0.2,0,0.4,0.2,0.4,0.4l0,0C61.1,46,60.9,46.1,60.7,46.1 M54,48.1v6.7c0,0.6,0.5,1.1,1.1,1.1h0.8v2.3c0,0.6,0.5,1,1,1
			c0.6,0,1-0.5,1-1V56h1.4v2.3c0,0.6,0.5,1,1,1c0.6,0,1-0.5,1-1V56h0.8c0.6,0,1.1-0.5,1.1-1.1v-6.7L54,48.1z M65.6,49
			c0-0.6-0.5-1-1-1s-1,0.5-1,1v4.3c0,0.6,0.5,1,1,1s1-0.5,1-1V49z"/>
	</g>
	<g>
		<line class="st0" x1="21.4" y1="27.8" x2="17.5" y2="27.8"/>
		<path class="st1" d="M29.9,75.1H9c-2.5,0-4.5-2-4.5-4.5V28.4c0-2.5,2-4.5,4.5-4.5h21c2.5,0,4.5,2,4.5,4.5v42.2
			C34.4,73.1,32.4,75.1,29.9,75.1z"/>
		<path class="st1" d="M27.2,69.2H11.7c-1.7,0-3-1.3-3-3V34.7c0-1.7,1.3-3,3-3h15.5c1.7,0,3,1.3,3,3v31.5
			C30.2,67.9,28.8,69.2,27.2,69.2z"/>
		<path class="st2" d="M26.1,54.1c-0.3,0.8-0.6,1.6-1.1,2.3c-0.7,1-1.4,2-2.5,2s-1.5-0.6-2.7-0.6s-1.6,0.6-2.7,0.7s-1.9-1.1-2.6-2.1
			c-1.4-2-2.5-5.8-1-8.3c0.7-1.2,1.9-2,3.4-2.1c1.1,0,2.1,0.7,2.7,0.7s1.9-0.9,3.1-0.8c1.2,0,2.3,0.6,3,1.6
			c-1.1,0.7-1.8,1.8-1.8,3.1C23.9,52.2,24.8,53.5,26.1,54.1z M21.8,44.7c0.6-0.7,0.9-1.7,0.9-2.7c-0.9,0.1-1.8,0.5-2.4,1.3
			c-0.6,0.7-0.9,1.6-0.9,2.5C20.4,45.8,21.3,45.4,21.8,44.7L21.8,44.7z"/>
	</g>
	<g>
		<path class="st1" d="M28.8,13.9c5.7,5.7,14.8,5.7,20.5,0c0,0,0,0,0,0 M33,9.6c3.3,3.3,8.7,3.3,12,0"/>
		<path class="st2" d="M41.8,5.7C40,4,39.8,3.7,39,2.9c-0.8,0.7-1.7,1.7-2.8,2.8C37.8,7.1,40.2,7.1,41.8,5.7z"/>
	</g>
</g>
</svg>
