<?xml version="1.0" encoding="utf-8"?>
<!-- Generator: Adobe Illustrator 21.1.0, SVG Export Plug-In . SVG Version: 6.00 Build 0)  -->
<svg version="1.1" id="レイヤー_1" xmlns="http://www.w3.org/2000/svg" xmlns:xlink="http://www.w3.org/1999/xlink" x="0px"
	 y="0px" width="78px" height="78px" viewBox="0 0 78 78" style="enable-background:new 0 0 78 78;" xml:space="preserve">
<style type="text/css">
	.st0{fill:none;stroke:#065DA3;stroke-width:2;stroke-miterlimit:10;}
	.st1{fill:#065DA3;}
</style>
<title>img5-local</title>
<g>
	<line class="st0" x1="11.9" y1="54.3" x2="66.1" y2="54.3"/>
	<path class="st1" d="M61,12.7v29.9H17V12.7H61 M61,10.7H17c-1.1,0-2,0.9-2,2v29.9c0,1.1,0.9,2,2,2h44c1.1,0,2-0.9,2-2V12.7
		C63,11.6,62.1,10.7,61,10.7z"/>
	<path class="st1" d="M56.8,17v21.3H21.2V17H56.8 M57.8,15H20.2c-0.6,0-1,0.4-1,1v24.3h39.5V16C58.8,15.4,58.3,15,57.8,15z"/>
	<path class="st0" d="M71.2,67.3H6.8c-1.6,0-2.2-1.2-1.4-2.5L15,49c0.6-0.8,1.6-1.2,2.6-1.2h42.7c1,0,2,0.4,2.6,1.2l9.6,15.8
		C73.3,66.1,72.7,67.3,71.2,67.3z"/>
	<path class="st1" d="M42.8,63.6h-7.7c-0.2,0-0.3-0.2-0.2-0.5l1.1-3.3c0-0.1,0.2-0.2,0.3-0.2h5.1c0.1,0,0.3,0.1,0.3,0.2l1.1,3.3
		C43.1,63.4,43,63.6,42.8,63.6z"/>
</g>
</svg>
