<?xml version="1.0" encoding="utf-8"?>
<!-- Generator: Adobe Illustrator 21.1.0, SVG Export Plug-In . SVG Version: 6.00 Build 0)  -->
<svg version="1.1" id="レイヤー_1" xmlns="http://www.w3.org/2000/svg" xmlns:xlink="http://www.w3.org/1999/xlink" x="0px"
	 y="0px" width="78px" height="78px" viewBox="0 0 78 78" style="enable-background:new 0 0 78 78;" xml:space="preserve">
<style type="text/css">
	.st0{fill:#065DA3;}
	.st1{fill:none;stroke:#065DA3;stroke-width:2;stroke-miterlimit:10;}
	.st2{fill:#FFFFFF;}
	.st3{fill:none;stroke:#FFFFFF;stroke-width:6;stroke-miterlimit:10;}
</style>
<title>img6-ui</title>
<g>
	<g>
		<path class="st0" d="M48.1,12.6v45h-31v-45L48.1,12.6 M50.1,10.7h-35v49h35V10.7z"/>
		<path class="st0" d="M39.1,12.6v45h-22v-45L39.1,12.6 M41.1,10.7h-26v49h26V10.7z"/>
	</g>
	<path class="st1" d="M21.1,28.7h15"/>
	<path class="st1" d="M21.1,37.7h15"/>
	<path class="st1" d="M21.1,46.7h15"/>
	<g>
		<path class="st2" d="M59,60.3c-0.3-2-0.5-9.7-1-11s-2.1-2.8-5-3s-10,1-10,1l-0.7-1.6L40,40.4c-1.6-4.2-3.2-5.7-5-5
			c-1.3,0.5-0.6,3.3,1,8l3.1,8.5c0.2,0.5,0.5,1,0.8,1.5c0.4,1.3,0.5,2.5,0.1,3c-1,1.1-2.5,0.6-3.5,0c-0.5-0.3-1-0.6-1.5-1
			c-1.3-1-3.8-2-4.5-1c-0.6,1.2-0.2,2.7,0.9,3.4c1,0.6,1.7,1.1,2.4,1.5l0.1,0.1c2,1.1,13,8,13,8l1,4l14-6
			C61.1,63.6,60.1,61.9,59,60.3z"/>
		<path class="st3" d="M59,60.3c-0.3-2-0.5-9.7-1-11s-2.1-2.8-5-3s-10,1-10,1l-0.7-1.6L40,40.4c-1.6-4.2-3.2-5.7-5-5
			c-1.3,0.5-0.6,3.3,1,8l3.1,8.5c0.2,0.5,0.5,1,0.8,1.5c0.4,1.3,0.5,2.5,0.1,3c-1,1.1-2.5,0.6-3.5,0c-0.5-0.3-1-0.6-1.5-1
			c-1.3-1-3.8-2-4.5-1c-0.6,1.2-0.2,2.7,0.9,3.4c1,0.6,1.7,1.1,2.4,1.5l0.1,0.1c2,1.1,13,8,13,8l1,4l14-6
			C61.1,63.6,60.1,61.9,59,60.3z"/>
	</g>
	<g>
		<path class="st2" d="M59,60.3c-0.3-2-0.5-9.7-1-11s-2.1-2.8-5-3s-10,1-10,1l-0.7-1.6L40,40.4c-1.6-4.2-3.2-5.7-5-5
			c-1.3,0.5-0.6,3.3,1,8l3.1,8.5c0.2,0.5,0.5,1,0.8,1.5c0.4,1.3,0.5,2.5,0.1,3c-1,1.1-2.5,0.6-3.5,0c-0.5-0.3-1-0.6-1.5-1
			c-1.3-1-3.8-2-4.5-1c-0.6,1.2-0.2,2.7,0.9,3.4c1,0.6,1.7,1.1,2.4,1.5l0.1,0.1c2,1.1,13,8,13,8l1,4l14-6
			C61.1,63.6,60.1,61.9,59,60.3z"/>
		<path class="st1" d="M59,60.3c-0.3-2-0.5-9.7-1-11s-2.1-2.8-5-3s-10,1-10,1l-0.7-1.6L40,40.4c-1.6-4.2-3.2-5.7-5-5
			c-1.3,0.5-0.6,3.3,1,8l3.1,8.5c0.2,0.5,0.5,1,0.8,1.5c0.4,1.3,0.5,2.5,0.1,3c-1,1.1-2.5,0.6-3.5,0c-0.5-0.3-1-0.6-1.5-1
			c-1.3-1-3.8-2-4.5-1c-0.6,1.2-0.2,2.7,0.9,3.4c1,0.6,1.7,1.1,2.4,1.5l0.1,0.1c2,1.1,13,8,13,8l1,4l14-6
			C61.1,63.6,60.1,61.9,59,60.3z"/>
	</g>
	<path class="st0" d="M24.6,18.6c0.8,0,1.5,0.7,1.5,1.5s-0.7,1.5-1.5,1.5s-1.5-0.7-1.5-1.5S23.8,18.6,24.6,18.6 M24.6,16.6
		c-1.9,0-3.5,1.6-3.5,3.5s1.6,3.5,3.5,3.5s3.5-1.6,3.5-3.5S26.6,16.6,24.6,16.6z"/>
	<path class="st1" d="M58,25.5l5,9l-5,9"/>
	<path class="st1" d="M63.9,25.5l5,9l-5,9"/>
</g>
</svg>
