<?xml version="1.0" encoding="utf-8"?>
<!-- Generator: Adobe Illustrator 19.2.0, SVG Export Plug-In . SVG Version: 6.00 Build 0)  -->
<svg version="1.1" id="レイヤー_1" xmlns="http://www.w3.org/2000/svg" xmlns:xlink="http://www.w3.org/1999/xlink" x="0px"
	 y="0px" viewBox="0 0 20 20" style="enable-background:new 0 0 20 20;" xml:space="preserve">
<style type="text/css">
	.st0{fill:#FFFFFF;}
</style>
<g>
	<g>
		<g>
			<path class="st0" d="M17.3,7.2c0.5,0.5,0.9,1.1,1.1,1.7c0.9,3.1-2.4,6.6-7.1,8c-4.8,1.4-9.4,0.1-10.2-3c-0.2-0.6-0.1-1.4,0-2.1
				c0.2-1.1-1.5,1.2-0.9,3.4c1,3.6,6,5,11.5,3.4c5.5-1.6,9.2-5.4,8.2-9C19.2,7.4,16.5,6.4,17.3,7.2z"/>
		</g>
		<path class="st0" d="M17.3,0c-3,3.1,1.4,9.9-5.1,13c3.5-4.7,0.8-10,1.6-11.6C14.6-0.1,17.3,0,17.3,0z"/>
		<path class="st0" d="M12.5,1.2c-2.4,3.6-0.1,9.1-1.7,11.3c-1.5,2.1-3.1,0.5-3.3,0C11,14.3,5.4,4.1,12.5,1.2z"/>
		<path class="st0" d="M10.6,12.8c-1.8,1.9-4.6,1.7-8,0.8c1.5-1.8,0.6-4.3,1-6.5c0.4-2.2,2.6-4,5-4.7c-3.1,2.5-2.7,6.7-2.2,8.4
			C7.2,13.8,10.6,12.8,10.6,12.8z"/>
	</g>
</g>
</svg>
