<svg id="レイヤー_1" data-name="レイヤー 1" xmlns="http://www.w3.org/2000/svg" viewBox="0 0 108.67 24">
  <defs>
    <style>
      .cls-1 {
        fill: #045d94;
      }
    </style>
  </defs>
  <title>img_logo_blue_responsive</title>
  <g>
    <g>
      <path class="cls-1" d="M44.68,18.76H43.43s0-1,0-1.33V9.11l-3.65,6.31a4.14,4.14,0,0,1-.61.82,1.46,1.46,0,0,1-1,.32,1.48,1.48,0,0,1-1-.32,3,3,0,0,1-.61-.82L32.77,9.11v8.32c0,.37,0,1.33,0,1.33H31.53a1.16,1.16,0,0,1-.88-.4,1.35,1.35,0,0,1-.34-.93V7.08a1.86,1.86,0,0,1,.47-1.26,1.51,1.51,0,0,1,1.17-.55h.68a1.47,1.47,0,0,1,.94.34,3,3,0,0,1,.59.8l4,6.84,3.87-6.84a3.78,3.78,0,0,1,.59-.8,1.35,1.35,0,0,1,.94-.34h.68a1.51,1.51,0,0,1,1.17.55,1.86,1.86,0,0,1,.47,1.26V17.43a1.35,1.35,0,0,1-.34.93A1.16,1.16,0,0,1,44.68,18.76Z" transform="translate(0)"/>
      <path class="cls-1" d="M54.31,18.87a5.07,5.07,0,0,1-4.05-1.77,6.8,6.8,0,0,1-1.51-4.58,6.8,6.8,0,0,1,1.51-4.58,5.52,5.52,0,0,1,8.11,0,6.86,6.86,0,0,1,1.51,4.58,6.85,6.85,0,0,1-1.51,4.58A5.11,5.11,0,0,1,54.31,18.87Zm0-10.21a2.81,2.81,0,0,0-2.81,2,5.12,5.12,0,0,0-.29,1.82,5.1,5.1,0,0,0,.29,1.82,3.43,3.43,0,0,0,.72,1.19,2.71,2.71,0,0,0,1,.65,2.93,2.93,0,0,0,2.17,0,2.9,2.9,0,0,0,1-.64,4.15,4.15,0,0,0,1-3,4.13,4.13,0,0,0-1-3A2.77,2.77,0,0,0,54.31,8.66Z" transform="translate(0)"/>
      <path class="cls-1" d="M71.29,18.76H70.07V11.17A3.23,3.23,0,0,0,69.6,9.3a1.69,1.69,0,0,0-1.49-.62,4,4,0,0,0-3.07,2v6.76c0,.37,0,1.33,0,1.33H63.79a1.16,1.16,0,0,1-.88-.4,1.35,1.35,0,0,1-.34-.93V7.62a1.38,1.38,0,0,1,.34-1,1.16,1.16,0,0,1,.88-.4,1.17,1.17,0,0,1,.89.39,1.36,1.36,0,0,1,.36,1v.16A5.72,5.72,0,0,1,66,7a4.46,4.46,0,0,1,2.4-.8,4.05,4.05,0,0,1,1.88.39A3.76,3.76,0,0,1,71.51,7.6a5.33,5.33,0,0,1,1,3.34v6.49a1.32,1.32,0,0,1-.36.94A1.17,1.17,0,0,1,71.29,18.76Z" transform="translate(0)"/>
      <path class="cls-1" d="M78.59,18.87a3.57,3.57,0,0,1-2.57-1,3.66,3.66,0,0,1-1.08-2.73,3.57,3.57,0,0,1,1.26-2.88A5.74,5.74,0,0,1,80,11.14h2.19a2.57,2.57,0,0,0-.59-1.85,2.64,2.64,0,0,0-1.87-.57,8.05,8.05,0,0,0-2.63.53h0a1.67,1.67,0,0,1-.45.06A.91.91,0,0,1,75.94,9,1.34,1.34,0,0,1,75.63,8a1.09,1.09,0,0,1,.71-1A8.57,8.57,0,0,1,80,6.16a4.25,4.25,0,0,1,3.48,1.53A5,5,0,0,1,84.62,11v6.47a1.33,1.33,0,0,1-.36.94,1.18,1.18,0,0,1-.89.39H82.16V17.55a7.09,7.09,0,0,1-1,.73A5,5,0,0,1,78.59,18.87Zm1.63-5.46a4.94,4.94,0,0,0-2.15.38,1.14,1.14,0,0,0-.66,1.13c0,.66.2,1.53,1.88,1.53A3,3,0,0,0,80.92,16a5.31,5.31,0,0,0,1.23-1V13.41Z" transform="translate(0)"/>
      <path class="cls-1" d="M92.67,18.87a5.48,5.48,0,0,1-4.06-1.69,6.43,6.43,0,0,1-1.73-4.67,6.43,6.43,0,0,1,1.73-4.67,5.48,5.48,0,0,1,4.06-1.69,5.3,5.3,0,0,1,2.15.38,7.54,7.54,0,0,1,1.32.73,1.24,1.24,0,0,1,.6,1,1.43,1.43,0,0,1-.29.89.88.88,0,0,1-.69.42,1.67,1.67,0,0,1-.88-.27,3.89,3.89,0,0,0-2-.6,3.2,3.2,0,0,0-2.57,1,4.1,4.1,0,0,0-.91,2.78,4.1,4.1,0,0,0,.91,2.78,3.2,3.2,0,0,0,2.57,1,3.89,3.89,0,0,0,2-.6,1.57,1.57,0,0,1,.82-.27.93.93,0,0,1,.75.42,1.43,1.43,0,0,1,.29.89,1.23,1.23,0,0,1-.6,1A5.81,5.81,0,0,1,92.67,18.87Z" transform="translate(0)"/>
      <path class="cls-1" d="M102.63,18.87a3.58,3.58,0,0,1-2.57-1A3.65,3.65,0,0,1,99,15.14a3.57,3.57,0,0,1,1.26-2.88A5.74,5.74,0,0,1,104,11.14h2.19a2.57,2.57,0,0,0-.59-1.85,2.64,2.64,0,0,0-1.87-.57,8,8,0,0,0-2.63.53h0a1.67,1.67,0,0,1-.45.06A.91.91,0,0,1,100,9,1.33,1.33,0,0,1,99.68,8a1.09,1.09,0,0,1,.71-1,8.57,8.57,0,0,1,3.71-.85,4.25,4.25,0,0,1,3.48,1.53,5,5,0,0,1,1.1,3.27v6.47a1.33,1.33,0,0,1-.36.94,1.18,1.18,0,0,1-.89.39H106.2V17.55a7.14,7.14,0,0,1-1,.73A5,5,0,0,1,102.63,18.87Zm1.63-5.46a4.94,4.94,0,0,0-2.15.38,1.14,1.14,0,0,0-.66,1.13c0,.66.2,1.53,1.88,1.53A3,3,0,0,0,105,16a5.3,5.3,0,0,0,1.23-1V13.41Z" transform="translate(0)"/>
    </g>
    <path class="cls-1" d="M19.4,0H4.6A4.61,4.61,0,0,0,0,4.6V19.4A4.61,4.61,0,0,0,4.6,24H19.4A4.61,4.61,0,0,0,24,19.4V4.6A4.61,4.61,0,0,0,19.4,0ZM16.67,16.67H7.33V7.33h9.33Z" transform="translate(0)"/>
  </g>
</svg>
