<?xml version="1.0" encoding="utf-8"?>
<!-- Generator: Adobe Illustrator 21.1.0, SVG Export Plug-In . SVG Version: 6.00 Build 0)  -->
<svg version="1.1" id="レイヤー_1" xmlns="http://www.w3.org/2000/svg" xmlns:xlink="http://www.w3.org/1999/xlink" x="0px"
	 y="0px" viewBox="0 0 78 78" style="enable-background:new 0 0 78 78;" xml:space="preserve">
<title>img1-cloud</title>
<g>
	<path d="M13.7,61.8c-3.1-0.1-5.9-1.5-7.8-3.8c-2-2.4-3-5.7-2.5-8.8c0.8-4.5,4.1-8.2,8.3-9.5c-0.8-3.4-0.3-7,1.5-9.9
		c2.4-4.1,6.7-6.5,11.4-6.5c2.3,0,4.5,0.6,6.6,1.7c2.8-5.4,8.3-8.8,14.4-8.8c0.3,0,0.6,0,0.9,0c0.3,0,0.7,0.1,1.1,0.1
		c8.9,1.1,15.2,9.1,14.2,17.9C69.1,34.7,74.9,40.7,75,48c-0.1,7.6-6.4,13.8-14.1,13.8L13.7,61.8z M60.8,59.2c6.3,0,11.4-5,11.5-11.2
		c-0.1-6.2-5.3-11.2-11.5-11.2l-0.2,0c-0.5,0-1.1,0-1.5,0.1L58.6,37l0.1-0.5c0.4-1.3,0.6-2.6,0.6-4c0-7.6-6.2-13.7-13.7-13.7
		c-6.1,0-11.5,4-13.1,9.8L32.3,29L32,28.7c-2-1.9-4.6-2.9-7.4-2.9c-1.7,0-3.4,0.4-4.9,1.2c-5.3,2.7-7.4,9.2-4.7,14.4l0.2,0.4h-0.7
		c-4.2,0-8,3.4-8.7,7.8c0,0.1,0,0.3,0,0.5c0,0.2,0,0.3,0,0.5C5.5,55,9,58.9,13.6,59.2h47L60.8,59.2z"/>
</g>
</svg>
