<svg id="レイヤー_1" data-name="レイヤー 1" xmlns="http://www.w3.org/2000/svg" viewBox="0 0 552.61 182.52"><defs><style>.cls-1{fill:#fff;}.cls-2{fill:#00629d;}</style></defs><title>phonegap-monaca</title><path class="cls-1" d="M58.13,149.62,52,150c0,1.21,0,2.17.08,2.89.16,7.56,4.42,9.08,8,9.08h.88l10.13-1a7.3,7.3,0,0,0,.4-2.09s-1.21-63.57-1.53-71.61a9.24,9.24,0,0,0-1.29-4.42c-3.7-.32-7-.56-9.56-.72H58c-2.49,0-4.34.64-5.47,1.85a7.32,7.32,0,0,0-1.61,4.82V89c0,.08,0,1.77.08,4.58,4.9.24,8.52.48,8.52.48s5.63,1.21,5.87,7c.24,6.27.24,41.55.24,41.55S66.17,148.42,58.13,149.62Z" transform="translate(-12.39 -39.56)"/><path class="cls-1" d="M38.76,151l-10.13.72s-8.36,1.13-8.6-8c-.16-6.75-1-45-1-45s-.56-7.07,8-6.51l10.53.64c-.08-6.35-.24-11.81-.32-16.07-5.47-.4-10.61-.8-14.23-1.21C11.76,74.31,12.4,83.8,12.4,83.8S13.76,154,14,162.64c.32,10.29,11.33,8.6,11.33,8.6L39,169.8C39.08,164.73,38.92,158.22,38.76,151Z" transform="translate(-12.39 -39.56)"/><path class="cls-1" d="M160.36,63.86A16.58,16.58,0,0,0,148.31,48s-40.11-6-57.63-8.2S74.21,54.54,74.21,54.54s4,124,4.42,139.37c.48,18.32,17.52,15.35,17.52,15.35l60.36-10.45C167.44,196.64,168,183,168,183S160.93,78.25,160.36,63.86Zm-13.5,105.37-44.93,4.66s-13.1,2-13.34-13.9c-.24-11.73-2.81-78.77-2.81-78.77S84.89,68.93,98.32,70l46.62,3.54a12.59,12.59,0,0,1,9.16,12.14c.4,10.93,4.18,71.53,4.18,71.53S159.32,167.06,146.86,169.23Z" transform="translate(-12.39 -39.56)"/><path class="cls-1" d="M101.69,171.48,119,169.72c-.8-17.6-3.94-86.08-4.34-96v-.16c-6.27-.48-12.3-1-16.56-1.21-.48,0-.88-.08-1.37-.08-2.89,0-5.06.8-6.51,2.33C87.79,77,88,81,88,81.06v.08a8.28,8.28,0,0,0,.08,1c7,.64,12.38,1,12.38,1a10.61,10.61,0,0,1,8,9.89c.32,8.92,2.49,57.47,2.49,57.47s.88,8.2-9.89,10l-10,1c.72,8.28,5.55,10,9.56,10a4.42,4.42,0,0,0,1-.08h0A.11.11,0,0,0,101.69,171.48Z" transform="translate(-12.39 -39.56)"/><path class="cls-1" d="M75.25,163l-14,1.37S50,166,49.77,153c-.16-9.56-1.29-64-1.29-64s-.8-10,10.77-9.24c3.38.24,8.2.64,13.42,1C72.36,70.46,72.12,62.26,72,58c-6.75-.64-13.26-1.37-18-1.85C38.68,54.38,39.64,68,39.64,68s1.85,99.66,2.17,111.88c.4,14.55,15.27,12.22,15.27,12.22l19-2.41C75.89,183.94,75.65,174.46,75.25,163Z" transform="translate(-12.39 -39.56)"/><path class="cls-1" d="M408.22,221.81h-3V198.18l-8.94,15.44a15.81,15.81,0,0,1-1.49,2,3.78,3.78,0,0,1-2.44.81,3.55,3.55,0,0,1-2.44-.81,7,7,0,0,1-1.49-2L379,198.18v23.64h-3a3,3,0,0,1-2.17-.95,3.42,3.42,0,0,1-.81-2.3V193.23a4.66,4.66,0,0,1,1.15-3.12,3.8,3.8,0,0,1,2.84-1.35h1.69a3.68,3.68,0,0,1,2.3.81,6.39,6.39,0,0,1,1.42,2l9.89,16.73,9.48-16.73a9.22,9.22,0,0,1,1.42-2,3.32,3.32,0,0,1,2.3-.81h1.69a3.59,3.59,0,0,1,2.84,1.35,4.66,4.66,0,0,1,1.15,3.12v25.33a3.42,3.42,0,0,1-.81,2.3A3,3,0,0,1,408.22,221.81Z" transform="translate(-12.39 -39.56)"/><path class="cls-1" d="M431.85,222.08a12.67,12.67,0,0,1-10-4.33,16.79,16.79,0,0,1-3.72-11.24c0-4.61,1.22-8.4,3.72-11.24a12.37,12.37,0,0,1,10-4.33,12.67,12.67,0,0,1,10,4.33,16.91,16.91,0,0,1,3.72,11.24c0,4.54-1.22,8.33-3.72,11.24A12.87,12.87,0,0,1,431.85,222.08Zm0-25.06c-3.32,0-5.55,1.63-6.84,4.94a12.42,12.42,0,0,0-.68,4.47,14.11,14.11,0,0,0,.68,4.47,9.25,9.25,0,0,0,1.76,2.91,6.43,6.43,0,0,0,2.44,1.63,7.67,7.67,0,0,0,2.64.54,7.36,7.36,0,0,0,2.64-.54,7.85,7.85,0,0,0,2.44-1.56c1.63-1.69,2.51-4.2,2.51-7.45s-.81-5.62-2.51-7.31A6.8,6.8,0,0,0,431.85,197Z" transform="translate(-12.39 -39.56)"/><path class="cls-1" d="M473.44,221.81h-3V203.26a8.11,8.11,0,0,0-1.15-4.61,4.14,4.14,0,0,0-3.66-1.49q-4,0-7.52,4.88v19.78h-3a3,3,0,0,1-2.17-.95,3.42,3.42,0,0,1-.81-2.3v-24a3.6,3.6,0,0,1,.81-2.37,2.82,2.82,0,0,1,2.17-.95,2.92,2.92,0,0,1,2.17.95,3.22,3.22,0,0,1,.88,2.37v.41a14.67,14.67,0,0,1,2.37-2,11.09,11.09,0,0,1,5.89-2,10.31,10.31,0,0,1,4.61.95,8.61,8.61,0,0,1,3,2.57,13,13,0,0,1,2.51,8.19v15.92a3.17,3.17,0,0,1-.88,2.3A3.31,3.31,0,0,1,473.44,221.81Z" transform="translate(-12.39 -39.56)"/><path class="cls-1" d="M491.32,222.08a8.74,8.74,0,0,1-6.3-2.44,8.87,8.87,0,0,1-2.64-6.7,8.55,8.55,0,0,1,3.12-7c2.17-1.83,5.28-2.78,9.21-2.78h5.35c-.07-2.1-.54-3.66-1.42-4.54s-2.51-1.42-4.61-1.42a19.29,19.29,0,0,0-6.43,1.29h-.07a5.26,5.26,0,0,1-1.08.14,2.34,2.34,0,0,1-1.63-.81,3.36,3.36,0,0,1-.74-2.3,2.64,2.64,0,0,1,1.76-2.51,21.44,21.44,0,0,1,9.08-2.1,10.54,10.54,0,0,1,8.53,3.72,12.26,12.26,0,0,1,2.71,8v15.85a3.17,3.17,0,0,1-.88,2.3,3,3,0,0,1-2.17.95h-3v-3a21.15,21.15,0,0,1-2.57,1.83A11.36,11.36,0,0,1,491.32,222.08Zm3.93-13.41a12.28,12.28,0,0,0-5.28.95,2.81,2.81,0,0,0-1.63,2.78c0,1.63.47,3.72,4.61,3.72a7.61,7.61,0,0,0,4-1.15,11.21,11.21,0,0,0,3-2.57v-3.72Z" transform="translate(-12.39 -39.56)"/><path class="cls-1" d="M525.79,222.08a13.6,13.6,0,0,1-10-4.13c-2.84-2.91-4.27-6.7-4.27-11.45a15.75,15.75,0,0,1,4.27-11.45,14.4,14.4,0,0,1,15.24-3.18,22.75,22.75,0,0,1,3.25,1.76,3.13,3.13,0,0,1,1.49,2.44,3.91,3.91,0,0,1-.68,2.17,2.2,2.2,0,0,1-1.69,1,4,4,0,0,1-2.17-.68,9.61,9.61,0,0,0-5-1.49,7.83,7.83,0,0,0-6.3,2.51,11.59,11.59,0,0,0,0,13.68,7.83,7.83,0,0,0,6.3,2.51,9,9,0,0,0,5-1.49,3.6,3.6,0,0,1,2-.68,2.31,2.31,0,0,1,1.83,1,3.44,3.44,0,0,1,.68,2.17,2.87,2.87,0,0,1-1.49,2.44A13.72,13.72,0,0,1,525.79,222.08Z" transform="translate(-12.39 -39.56)"/><path class="cls-1" d="M550.17,222.08a8.74,8.74,0,0,1-6.3-2.44,8.87,8.87,0,0,1-2.64-6.7,8.55,8.55,0,0,1,3.12-7c2.17-1.83,5.28-2.78,9.21-2.78h5.35c-.07-2.1-.54-3.66-1.42-4.54s-2.51-1.42-4.61-1.42a19.29,19.29,0,0,0-6.43,1.29h-.07a5.26,5.26,0,0,1-1.08.14,2.34,2.34,0,0,1-1.63-.81,3.36,3.36,0,0,1-.74-2.3,2.64,2.64,0,0,1,1.76-2.51,21.44,21.44,0,0,1,9.08-2.1,10.54,10.54,0,0,1,8.53,3.72,12.26,12.26,0,0,1,2.71,8v15.85a3.17,3.17,0,0,1-.88,2.3,3,3,0,0,1-2.17.95h-3v-3a28.21,28.21,0,0,1-2.57,1.83A11.21,11.21,0,0,1,550.17,222.08Zm4-13.41a12.49,12.49,0,0,0-5.28.95,2.81,2.81,0,0,0-1.63,2.78c0,1.63.47,3.72,4.61,3.72a7.61,7.61,0,0,0,4-1.15,11.21,11.21,0,0,0,3-2.57v-3.72Z" transform="translate(-12.39 -39.56)"/><path class="cls-2" d="M506.21,46h-74.5a23.18,23.18,0,0,0-23.09,23.16v74.5a23.24,23.24,0,0,0,23.16,23.16h74.5a23.24,23.24,0,0,0,23.16-23.16V69.16A23.34,23.34,0,0,0,506.21,46Zm-13.75,83.84h-47V82.91h47Z" transform="translate(-12.39 -39.56)"/><polygon class="cls-1" points="210.61 65.44 210.61 103.44 242.61 84.44 210.61 65.44"/><polygon class="cls-1" points="256.61 65.44 256.61 103.44 288.61 84.44 256.61 65.44"/><polygon class="cls-1" points="305.61 65.44 305.61 103.44 337.61 84.44 305.61 65.44"/></svg>